<svg xmlns="http://www.w3.org/2000/svg" width="139" height="36" viewBox="0 0 139 36" fill="none"><path d="M16.6798 32.1432C16.6798 32.1432 16.71 32.0972 16.7501 32.0972C16.7999 32.0972 16.7999 32.1711 16.7999 32.1711V35.2394C16.7999 35.6449 17.1389 35.7467 17.4486 35.7467C17.7485 35.7467 18.0982 35.6449 18.0982 35.2394V29.9409C18.0982 29.4615 17.8383 29.2588 17.3587 29.2588C17.009 29.2588 16.7599 29.3877 16.5098 29.849L15.071 32.4839C15.0318 32.5487 15.0318 32.5947 14.9918 32.5947C14.9518 32.5947 14.9518 32.5487 14.9117 32.4839L13.4826 29.849C13.2335 29.3877 12.9737 29.2588 12.624 29.2588C12.1444 29.2588 11.8845 29.4615 11.8845 29.9409V35.2394C11.8845 35.6449 12.2342 35.7467 12.5341 35.7467C12.8438 35.7467 13.1837 35.6449 13.1837 35.2394V32.1711C13.1837 32.1711 13.1837 32.0972 13.2335 32.0972C13.2735 32.0972 13.3029 32.1432 13.3029 32.1432L14.0423 33.4705C14.3422 33.9958 14.522 34.2905 14.9918 34.2905C15.4607 34.2905 15.6405 33.9958 15.9403 33.4705L16.6798 32.1432Z" fill="#18191D"></path><path d="M21.265 33.2678C21.2054 33.2678 21.1751 33.2489 21.1751 33.2119C21.1751 33.1939 21.1751 33.1569 21.2054 33.0831L21.9244 31.0466C21.9742 30.9177 21.9947 30.7519 22.0641 30.7519C22.1344 30.7519 22.1539 30.9177 22.2038 31.0466L22.9236 33.0831C22.953 33.1569 22.953 33.1939 22.953 33.2119C22.953 33.2489 22.9236 33.2678 22.8631 33.2678H21.265ZM22.0641 29.2588C21.5444 29.2588 21.3246 29.4525 21.0755 30.0977L19.1668 34.9628C19.1268 35.0555 19.1072 35.1475 19.1072 35.2214C19.1072 35.562 19.4871 35.7467 19.7968 35.7467C20.0166 35.7467 20.2462 35.6539 20.3556 35.3593L20.6653 34.5573C20.6955 34.4744 20.7356 34.4284 20.8156 34.4284H23.3125C23.3926 34.4284 23.4326 34.4744 23.4629 34.5573L23.7725 35.3593C23.882 35.6539 24.1124 35.7467 24.3322 35.7467C24.6713 35.7467 25.021 35.5341 25.021 35.2214C25.021 35.1475 25.0014 35.0555 24.9613 34.9628L23.0536 30.0977C22.8035 29.4525 22.5837 29.2588 22.0641 29.2588Z" fill="#18191D"></path><path d="M30.2257 35.0096C30.3262 34.8988 30.4161 34.797 30.4161 34.6221C30.4161 34.3644 30.0557 34.0229 29.7363 34.0229C29.5663 34.0229 29.4569 34.0968 29.327 34.2076C28.9372 34.5113 28.5279 34.5852 28.188 34.5852C27.7982 34.5852 27.429 34.5113 27.2092 34.1247C27.009 33.7742 27.009 33.2308 27.009 32.5027C27.009 31.7837 27.0188 31.2493 27.1994 30.8898C27.3987 30.5032 27.8285 30.4203 28.188 30.4203C28.6276 30.4203 28.8571 30.4843 29.2674 30.77C29.3572 30.8348 29.4569 30.8619 29.5966 30.8619C29.9062 30.8619 30.2364 30.5401 30.2364 30.2635C30.2364 30.0148 30.0762 29.8949 29.8965 29.7562C29.4471 29.4156 28.8278 29.2588 28.1382 29.2588C27.3987 29.2588 26.7892 29.3696 26.25 29.9499C25.8202 30.4203 25.6609 31.4061 25.6609 32.5027C25.6609 33.5903 25.7908 34.5483 26.25 35.0555C26.7892 35.6449 27.469 35.7467 28.1382 35.7467C29.367 35.7467 29.9863 35.2673 30.2257 35.0096Z" fill="#18191D"></path><path d="M35.5707 31.8206C35.5707 31.8855 35.5404 31.9035 35.4808 31.9035H33.0329C32.9635 31.9035 32.943 31.8855 32.943 31.8206V29.7661C32.943 29.3606 32.6031 29.2588 32.2935 29.2588C31.9945 29.2588 31.6448 29.3606 31.6448 29.7661V35.2394C31.6448 35.6449 31.9945 35.7467 32.2935 35.7467C32.6031 35.7467 32.943 35.6449 32.943 35.2394V33.1479C32.943 33.0831 32.9635 33.065 33.0329 33.065H35.4808C35.5404 33.065 35.5707 33.0831 35.5707 33.1479V35.2394C35.5707 35.6449 35.9204 35.7467 36.2194 35.7467C36.5299 35.7467 36.8689 35.6449 36.8689 35.2394V29.7661C36.8689 29.3606 36.5299 29.2588 36.2194 29.2588C35.9204 29.2588 35.5707 29.3606 35.5707 29.7661V31.8206Z" fill="#18191D"></path><path d="M39.8767 35.2391C39.8767 35.6446 40.2264 35.7464 40.5254 35.7464C40.835 35.7464 41.1749 35.6446 41.1749 35.2391V30.5398C41.1749 30.475 41.2052 30.4569 41.2648 30.4569H42.5132C42.9234 30.4569 43.0729 30.1704 43.0729 29.8757C43.0729 29.5901 42.9234 29.2954 42.5132 29.2954H38.5375C38.1282 29.2954 37.9778 29.5901 37.9778 29.8757C37.9778 30.1704 38.1282 30.4569 38.5375 30.4569H39.7868C39.8562 30.4569 39.8767 30.475 39.8767 30.5398V35.2391Z" fill="#18191D"></path><path d="M51.714 32.1432C51.714 32.1432 51.7442 32.0972 51.7843 32.0972C51.8341 32.0972 51.8341 32.1711 51.8341 32.1711V35.2394C51.8341 35.6449 52.1731 35.7467 52.4828 35.7467C52.7827 35.7467 53.1324 35.6449 53.1324 35.2394V29.9409C53.1324 29.4615 52.8725 29.2588 52.3929 29.2588C52.0432 29.2588 51.7941 29.3877 51.544 29.849L50.1052 32.4839C50.066 32.5487 50.066 32.5947 50.026 32.5947C49.9859 32.5947 49.9859 32.5487 49.9459 32.4839L48.5168 29.849C48.2677 29.3877 48.0078 29.2588 47.6581 29.2588C47.1785 29.2588 46.9187 29.4615 46.9187 29.9409V35.2394C46.9187 35.6449 47.2684 35.7467 47.5683 35.7467C47.8779 35.7467 48.2178 35.6449 48.2178 35.2394V32.1711C48.2178 32.1711 48.2178 32.0972 48.2677 32.0972C48.3077 32.0972 48.3371 32.1432 48.3371 32.1432L49.0765 33.4705C49.3764 33.9958 49.5561 34.2905 50.026 34.2905C50.4949 34.2905 50.6747 33.9958 50.9745 33.4705L51.714 32.1432Z" fill="#18191D"></path><path d="M58.2276 33.4147C58.2276 34.0418 57.8378 34.5852 56.989 34.5852C56.1294 34.5852 55.7503 34.0418 55.7503 33.4147V29.7661C55.7503 29.3606 55.4104 29.2588 55.1007 29.2588C54.8009 29.2588 54.4512 29.3606 54.4512 29.7661V33.4607C54.4512 34.8249 55.2805 35.7467 56.989 35.7467C58.6867 35.7467 59.5258 34.8249 59.5258 33.4607V29.7661C59.5258 29.3606 59.1868 29.2588 58.8772 29.2588C58.5773 29.2588 58.2276 29.3606 58.2276 29.7661V33.4147Z" fill="#18191D"></path><path d="M62.4532 35.2391C62.4532 35.6446 62.8029 35.7464 63.1019 35.7464C63.4115 35.7464 63.7514 35.6446 63.7514 35.2391V30.5398C63.7514 30.475 63.7817 30.4569 63.8413 30.4569H65.0906C65.4999 30.4569 65.6494 30.1704 65.6494 29.8757C65.6494 29.5901 65.4999 29.2954 65.0906 29.2954H61.114C60.7047 29.2954 60.5552 29.5901 60.5552 29.8757C60.5552 30.1704 60.7047 30.4569 61.114 30.4569H62.3633C62.4327 30.4569 62.4532 30.475 62.4532 30.5398V35.2391Z" fill="#18191D"></path><path d="M73.7718 30.2812C73.8715 30.1343 73.9516 30.0046 73.9516 29.8388C73.9516 29.5441 73.7816 29.2954 73.3723 29.2954H69.8157C69.4063 29.2954 69.256 29.5811 69.256 29.8757C69.256 30.1614 69.4063 30.447 69.8157 30.447H72.0037C72.0135 30.447 72.0829 30.447 72.0829 30.493C72.0829 30.5209 72.0732 30.5398 72.0536 30.5669L69.2666 34.6128C69.1065 34.8336 69.0166 34.9813 69.0166 35.1751C69.0166 35.3778 69.1367 35.7094 69.5763 35.7094H73.5316C73.9418 35.7094 74.0913 35.4238 74.0913 35.1381C74.0913 34.8426 73.9418 34.557 73.5316 34.557H70.9449C70.8941 34.557 70.8746 34.5299 70.8746 34.502C70.8746 34.465 70.9146 34.4191 70.9449 34.3731L73.7718 30.2812Z" fill="#18191D"></path><path d="M78.8163 33.4147C78.8163 34.0418 78.4274 34.5852 77.5777 34.5852C76.719 34.5852 76.339 34.0418 76.339 33.4147V29.7661C76.339 29.3606 75.9991 29.2588 75.6895 29.2588C75.3905 29.2588 75.0408 29.3606 75.0408 29.7661V33.4607C75.0408 34.8249 75.8701 35.7467 77.5777 35.7467C79.2763 35.7467 80.1154 34.8249 80.1154 33.4607V29.7661C80.1154 29.3606 79.7755 29.2588 79.4659 29.2588C79.166 29.2588 78.8163 29.3606 78.8163 29.7661V33.4147Z" fill="#18191D"></path><path d="M88.317 31.8206C88.317 31.8855 88.2868 31.9035 88.2271 31.9035H85.7792C85.7089 31.9035 85.6894 31.8855 85.6894 31.8206V29.7661C85.6894 29.3606 85.3495 29.2588 85.0398 29.2588C84.7399 29.2588 84.3911 29.3606 84.3911 29.7661V35.2394C84.3911 35.6449 84.7399 35.7467 85.0398 35.7467C85.3495 35.7467 85.6894 35.6449 85.6894 35.2394V33.1479C85.6894 33.0831 85.7089 33.065 85.7792 33.065H88.2271C88.2868 33.065 88.317 33.0831 88.317 33.1479V35.2394C88.317 35.6449 88.6667 35.7467 88.9657 35.7467C89.2754 35.7467 89.6153 35.6449 89.6153 35.2394V29.7661C89.6153 29.3606 89.2754 29.2588 88.9657 29.2588C88.6667 29.2588 88.317 29.3606 88.317 29.7661V31.8206Z" fill="#18191D"></path><path d="M92.7723 33.2678C92.7127 33.2678 92.6825 33.2489 92.6825 33.2119C92.6825 33.1939 92.6825 33.1569 92.7127 33.0831L93.4317 31.0466C93.4815 30.9177 93.5011 30.7519 93.5714 30.7519C93.6417 30.7519 93.6613 30.9177 93.7111 31.0466L94.431 33.0831C94.4603 33.1569 94.4603 33.1939 94.4603 33.2119C94.4603 33.2489 94.431 33.2678 94.3704 33.2678H92.7723ZM93.5714 29.2588C93.0517 29.2588 92.8319 29.4525 92.5828 30.0977L90.6741 34.9628C90.6341 35.0555 90.6145 35.1475 90.6145 35.2214C90.6145 35.562 90.9945 35.7467 91.3041 35.7467C91.5239 35.7467 91.7535 35.6539 91.8629 35.3593L92.1726 34.5573C92.2028 34.4744 92.2429 34.4284 92.323 34.4284H94.8198C94.8999 34.4284 94.9399 34.4744 94.9702 34.5573L95.2799 35.3593C95.3893 35.6539 95.6198 35.7467 95.8395 35.7467C96.1786 35.7467 96.5283 35.5341 96.5283 35.2214C96.5283 35.1475 96.5087 35.0555 96.4687 34.9628L94.56 30.0977C94.3108 29.4525 94.091 29.2588 93.5714 29.2588Z" fill="#18191D"></path><path d="M99.1453 29.9409C98.8054 29.4156 98.6354 29.2588 98.2065 29.2588C97.8168 29.2588 97.5374 29.4336 97.5374 29.9778V35.2394C97.5374 35.6449 97.8862 35.7467 98.186 35.7467C98.4957 35.7467 98.8356 35.6449 98.8356 35.2394V31.8576C98.8356 31.8297 98.8356 31.7558 98.8854 31.7558C98.9353 31.7558 98.9655 31.8026 98.9958 31.8576L101.064 35.0646C101.403 35.5899 101.573 35.7467 102.003 35.7467C102.392 35.7467 102.672 35.571 102.672 35.0276V29.7661C102.672 29.3606 102.322 29.2588 102.022 29.2588C101.712 29.2588 101.373 29.3606 101.373 29.7661V33.1479C101.373 33.166 101.373 33.2399 101.323 33.2399C101.273 33.2399 101.243 33.1939 101.213 33.1479L99.1453 29.9409Z" fill="#18191D"></path><path d="M105.569 34.557C105.498 34.557 105.479 34.5389 105.479 34.4741V30.5299C105.479 30.4659 105.498 30.447 105.569 30.447H106.727C106.997 30.447 107.507 30.4569 107.767 30.9354C107.956 31.2769 107.966 31.8022 107.966 32.5024C107.966 33.2116 107.956 33.746 107.767 34.0875C107.507 34.5479 106.997 34.557 106.727 34.557H105.569ZM104.749 29.2954C104.4 29.2954 104.181 29.4891 104.181 29.8388V35.1652C104.181 35.5157 104.4 35.7094 104.749 35.7094H106.727C107.557 35.7094 108.186 35.5896 108.726 35.0183C109.125 34.6038 109.315 33.7279 109.315 32.5024C109.315 31.2769 109.125 30.4011 108.726 29.9866C108.186 29.4153 107.557 29.2954 106.727 29.2954H104.749Z" fill="#18191D"></path><path d="M111.193 29.2954C110.844 29.2954 110.624 29.4891 110.624 29.8388V35.1652C110.624 35.5157 110.844 35.7094 111.193 35.7094H114.65C115.059 35.7094 115.209 35.4238 115.209 35.1381C115.209 34.8426 115.059 34.5479 114.65 34.5479H112.012C111.942 34.5479 111.922 34.5299 111.922 34.465V33.0647C111.922 32.9998 111.942 32.9818 112.012 32.9818H114.17C114.579 32.9818 114.73 32.6863 114.73 32.4006C114.73 32.106 114.579 31.8203 114.17 31.8203H112.012C111.942 31.8203 111.922 31.8022 111.922 31.7374V30.5398C111.922 30.475 111.942 30.4569 112.012 30.4569H114.55C114.959 30.4569 115.109 30.1614 115.109 29.8757C115.109 29.5811 114.959 29.2954 114.55 29.2954H111.193Z" fill="#18191D"></path><path d="M116.527 35.1655C116.527 35.516 116.747 35.7097 117.096 35.7097H120.073C120.482 35.7097 120.633 35.4241 120.633 35.1384C120.633 34.8429 120.482 34.5483 120.073 34.5483H117.915C117.845 34.5483 117.825 34.5302 117.825 34.4654V29.7661C117.825 29.3606 117.485 29.2588 117.176 29.2588C116.876 29.2588 116.527 29.3606 116.527 29.7661V35.1655Z" fill="#18191D"></path><path d="M123.29 29.9409C122.95 29.4156 122.78 29.2588 122.351 29.2588C121.961 29.2588 121.682 29.4336 121.682 29.9778V35.2394C121.682 35.6449 122.031 35.7467 122.331 35.7467C122.64 35.7467 122.98 35.6449 122.98 35.2394V31.8576C122.98 31.8297 122.98 31.7558 123.03 31.7558C123.08 31.7558 123.11 31.8026 123.14 31.8576L125.208 35.0646C125.547 35.5899 125.717 35.7467 126.147 35.7467C126.537 35.7467 126.816 35.571 126.816 35.0276V29.7661C126.816 29.3606 126.466 29.2588 126.167 29.2588C125.857 29.2588 125.518 29.3606 125.518 29.7661V33.1479C125.518 33.166 125.518 33.2399 125.467 33.2399C125.417 33.2399 125.388 33.1939 125.358 33.1479L123.29 29.9409Z" fill="#18191D"></path><path d="M14.3645 15.0417C14.5077 15.0417 14.6145 14.976 14.6145 14.8439C14.6145 14.7437 14.5789 14.678 14.5077 14.5131L11.1397 5.62339C10.9253 5.0291 10.8185 4.40116 10.5329 4.40116C10.2446 4.40116 10.1369 5.0291 9.92244 5.62339L6.55534 14.5131C6.48327 14.678 6.44856 14.7437 6.44856 14.8439C6.44856 14.976 6.55534 15.0417 6.69772 15.0417H14.3645ZM13.4328 2.58383L20.8842 21.1216C20.991 21.4196 21.0631 21.6502 21.0631 21.8817C21.0631 22.8068 20.0958 23.4356 19.0218 23.4356C18.3767 23.4356 17.7316 23.1712 17.4094 22.311L16.0845 18.7428C15.9768 18.4777 15.8336 18.3455 15.6182 18.3455H5.44484C5.23039 18.3455 5.08624 18.4777 4.97857 18.7428L3.65362 22.311C3.33151 23.1712 2.65079 23.4356 2.00567 23.4356C1.1105 23.4356 0 22.8725 0 21.8817C0 21.6502 0.0720759 21.4196 0.179745 21.1216L7.63025 2.58383C8.45423 0.502184 9.3138 0.171387 10.5329 0.171387C11.7501 0.171387 12.5732 0.46853 13.4328 2.58383Z" fill="#381956"></path><path d="M31.571 23.4356C29.1711 23.4356 26.4847 22.8068 24.5858 20.4937C23.1523 18.7757 22.8667 15.8018 22.8667 11.8035C22.8667 7.80435 23.1888 4.86411 24.5858 3.11245C26.4482 0.832161 28.9923 0.171387 31.571 0.171387C34.1141 0.171387 36.2274 0.667173 37.8042 1.8894C38.3772 2.3187 38.8791 2.71598 38.8791 3.40959C38.8791 4.20252 37.9119 5.12842 37.0514 5.12842C36.5504 5.12842 36.336 4.96343 35.9774 4.76397C34.4371 3.77322 33.5419 3.47608 31.7498 3.47608C30.2095 3.47608 28.3827 3.70673 27.5232 5.42557C26.7713 6.91292 26.7713 9.0274 26.7713 11.8035C26.7713 14.6116 26.7713 16.7277 27.5232 18.2142C28.3827 19.9322 30.1036 20.1309 31.7498 20.1309C33.1842 20.1309 34.866 19.8329 36.4072 18.577C36.8023 18.247 37.1226 18.0484 37.5533 18.0484C38.4849 18.0484 39.5233 19.0071 39.5233 19.7672C39.5233 20.2294 39.2733 20.5265 38.9503 20.891C38.1263 21.7496 36.013 23.4356 31.571 23.4356Z" fill="#381956"></path><path d="M54.4583 10.7456C56.4293 10.7456 57.7178 9.55619 57.7178 7.1774C57.7178 4.79779 56.4293 3.6084 54.4583 3.6084H47.8318C47.5791 3.6084 47.5079 3.67407 47.5079 3.90554V10.4484C47.5079 10.6799 47.5791 10.7456 47.8318 10.7456H54.4583ZM52.8816 14.3474C52.7027 14.0503 52.5941 14.0503 52.3085 14.0503H47.8318C47.5791 14.0503 47.5079 14.1159 47.5079 14.3474V21.9484C47.5079 23.1378 46.5051 23.4357 45.609 23.4357C44.7156 23.4357 43.7119 23.1378 43.7119 21.9484V1.79107C43.7119 0.700175 44.6062 0.303711 45.5022 0.303711H54.4583C58.3985 0.303711 61.6223 2.51751 61.6223 7.1774C61.6223 10.8121 59.7955 12.828 57.0726 13.7531C56.9303 13.786 56.8929 13.8853 56.8929 13.9838C56.8929 14.0503 56.9303 14.1159 56.9303 14.1159L61.3002 20.8246C61.5146 21.1554 61.6223 21.4854 61.6223 21.7497C61.6223 22.6083 60.5483 23.4357 59.5811 23.4357C59.0783 23.4357 58.5426 23.2034 58.1111 22.5427L52.8816 14.3474Z" fill="#381956"></path><path d="M70.3941 19.7009C70.3941 19.9324 70.4652 19.9981 70.7171 19.9981H81.1049C82.2875 19.9981 82.7181 20.8246 82.7181 21.6504C82.7181 22.4762 82.2875 23.3036 81.1049 23.3036H68.3884C67.4923 23.3036 66.5972 22.9063 66.5972 21.8162V1.79107C66.5972 0.700175 67.4923 0.303711 68.3884 0.303711H80.7472C81.9298 0.303711 82.3595 1.12947 82.3595 1.95606C82.3595 2.78182 81.9298 3.6084 80.7472 3.6084H70.7171C70.4652 3.6084 70.3941 3.67407 70.3941 3.90554V9.45687C70.3941 9.68834 70.4652 9.75401 70.7171 9.75401H79.3146C80.4962 9.75401 80.926 10.5806 80.926 11.4072C80.926 12.2329 80.4962 13.0587 79.3146 13.0587H70.7171C70.4652 13.0587 70.3941 13.1244 70.3941 13.3567V19.7009Z" fill="#381956"></path><path d="M96.0398 19.9981C97.7234 19.9981 99.5502 19.8002 100.374 18.0814C101.09 16.5612 101.128 14.6117 101.128 11.8036C101.128 9.02757 101.09 7.04525 100.374 5.55789C99.5502 3.83988 97.7234 3.6084 96.0398 3.6084H91.3113C91.0604 3.6084 90.9892 3.67407 90.9892 3.90554V19.7009C90.9892 19.9324 91.0604 19.9981 91.3113 19.9981H96.0398ZM96.0398 0.303711C98.7271 0.303711 101.449 0.931652 103.312 3.24477C104.709 4.9636 105.031 7.80452 105.031 11.8036C105.031 15.8019 104.709 18.6437 103.312 20.3617C101.449 22.6748 98.7271 23.3036 96.0398 23.3036H88.9826C88.0875 23.3036 87.1914 22.9063 87.1914 21.8162V1.79107C87.1914 0.700175 88.0875 0.303711 88.9826 0.303711H96.0398Z" fill="#381956"></path><path d="M109.791 1.65874C109.791 0.46853 110.795 0.171387 111.69 0.171387C112.585 0.171387 113.588 0.46853 113.588 1.65874V21.9482C113.588 23.1376 112.585 23.4356 111.69 23.4356C110.795 23.4356 109.791 23.1376 109.791 21.9482V1.65874Z" fill="#381956"></path><path d="M128.224 0.171387H128.217C127.833 0.171387 127.388 0.455396 127.125 0.626951C126.967 0.729556 122.362 3.63368 119.8 10.2316C117.216 16.8869 117.782 22.0451 117.807 22.2609C117.858 22.6968 118.127 23.0801 118.525 23.2853C118.724 23.388 118.941 23.4388 119.16 23.4388C119.344 23.4388 119.648 23.3412 119.791 23.287L128.22 20.0693L136.646 23.287C136.813 23.3453 137.072 23.4372 137.279 23.4388C137.499 23.4388 137.718 23.388 137.917 23.2853C138.315 23.0801 138.582 22.6968 138.634 22.2609C138.658 22.0451 139.225 16.8869 136.642 10.2316C134.08 3.63368 129.471 0.728735 129.316 0.626951C129.053 0.456217 128.588 0.171387 128.224 0.171387ZM128.22 4.34945C129.502 5.47646 131.655 7.75757 133.074 11.4103C134.208 14.3308 134.658 16.928 134.825 18.8044L129.7 16.8418C129.235 16.6628 128.712 16.543 128.22 16.543C127.732 16.543 127.202 16.6653 126.741 16.8418L121.616 18.8044C121.781 16.9255 122.232 14.3349 123.368 11.4095C124.779 7.77644 126.913 5.48713 128.22 4.34945Z" fill="#381956"></path></svg>