<?xml version="1.0" encoding="utf-8"?>
<!-- Generator: Adobe Illustrator 24.2.1, SVG Export Plug-In . SVG Version: 6.00 Build 0)  -->
<svg version="1.1" xmlns="http://www.w3.org/2000/svg" xmlns:xlink="http://www.w3.org/1999/xlink" x="0px" y="0px"
	 viewBox="0 0 745 196" style="enable-background:new 0 0 745 196;" xml:space="preserve">
<style type="text/css">
	.st0{fill:url(#SVGID_1_);}
	.st1{fill:url(#SVGID_2_);}
	.st2{fill-rule:evenodd;clip-rule:evenodd;fill:#319537;}
	.st3{fill:#319537;}
	.st4{fill:#929292;}
	.st5{fill:#4A4A49;}
	.st6{fill-rule:evenodd;clip-rule:evenodd;fill:#4A4A49;}
	.st7{fill:url(#SVGID_3_);}
	.st8{fill:url(#SVGID_4_);}
	.st9{fill-rule:evenodd;clip-rule:evenodd;fill:#0873A6;}
	.st10{fill:#0873A6;}
</style>
<g id="Hilflinien">
</g>
<g id="APK-Versicherung">
	<linearGradient id="SVGID_1_" gradientUnits="userSpaceOnUse" x1="4.4374" y1="168.4294" x2="263.418" y2="168.4294">
		<stop  offset="0.1198" style="stop-color:#AFCB9B"/>
		<stop  offset="0.2258" style="stop-color:#AAC997"/>
		<stop  offset="0.346" style="stop-color:#9DC38C"/>
		<stop  offset="0.4731" style="stop-color:#86B97A"/>
		<stop  offset="0.6051" style="stop-color:#66AB61"/>
		<stop  offset="0.7395" style="stop-color:#3E9A41"/>
		<stop  offset="0.7771" style="stop-color:#319437"/>
	</linearGradient>
	<path class="st0" d="M263.4,143.5c-25.3,3.1-50.5,19.3-79.4,30.2c-49.3,18.7-81,24-118,16.3c-28.6-5.8-52.3-26.3-61.6-35.4l0-0.6
		c9.4,7.2,33.1,23.6,61.7,29.4c36.9,7.7,72.9,0.3,100.5-8.7l4.2-1.3c11.3-3.9,21-7.9,28.8-11.1l8.3-3.4
		C226.9,151.3,239.8,143.3,263.4,143.5L263.4,143.5z"/>
	<radialGradient id="SVGID_2_" cx="49.7721" cy="22.9133" r="134.2469" gradientUnits="userSpaceOnUse">
		<stop  offset="0.1198" style="stop-color:#AFCB9B"/>
		<stop  offset="0.2258" style="stop-color:#AAC997"/>
		<stop  offset="0.346" style="stop-color:#9DC38C"/>
		<stop  offset="0.4731" style="stop-color:#86B97A"/>
		<stop  offset="0.6051" style="stop-color:#66AB61"/>
		<stop  offset="0.7395" style="stop-color:#3E9A41"/>
		<stop  offset="0.7771" style="stop-color:#319437"/>
	</radialGradient>
	<path class="st1" d="M16,123.3c-0.5-2.5-0.9-4.9-1.2-7.4c24.4,7.4,55.2,7.9,89.7-1c43.9-11.3,79.2-32.3,100.4-57.3
		c4.3,8.3,7.5,17.4,9.4,27.1c0.3,1.4,0.5,2.8,0.7,4.2c-23.7,20.1-56.4,36.3-95.6,44.2c-40.5,8.2-75.8,5.1-102.6-5.9
		C16.6,126,16.3,124.6,16,123.3L16,123.3z M215.2,118.7c-1.4,9.4-4.1,18.4-7.9,26.9l-0.4,1.1c-7.8,3.6-15.8,7.2-24.1,10.3
		c-48.4,18.3-79.7,23.6-115.9,16c-14.7-3-28-9.9-38.7-17.1c-1-1.7-1.8-3.5-2.5-5.4c-2-3.9-3.9-8.1-5.4-12.3
		c27.8,15.9,68.3,22,116,12.3C166.9,144.3,193.6,133,215.2,118.7L215.2,118.7z M24.4,59.6C37.9,32.2,63.6,11.1,95.9,4.8l1.5-0.3
		C89.8,24.3,69.6,43.9,40,55C34.7,56.9,29.5,58.5,24.4,59.6L24.4,59.6z M16.7,81.6c1-4.2,2.2-8.3,3.7-12.4
		c9.2-0.7,19.1-2.9,29.5-6.8C84.5,49.5,108.7,26,112.3,3c11.8-0.4,23.4,1.4,34.3,5c-10,29.4-42.9,57.9-90.6,69.3
		C42,80.7,28.7,82,16.7,81.6L16.7,81.6z M14.2,104.4c0-4.1,0.2-8.2,0.7-12.2C30.4,94.5,48.4,93.7,68,89c51.1-12.2,88.7-42,95.1-73.9
		c10.2,5.5,19.3,12.7,27.1,21.3c-20.2,27.5-55.5,51.5-101.7,63.4C60.9,107,35.6,108,14.2,104.4L14.2,104.4z"/>
	<g>
		<path class="st2" d="M395.7,77.5L365.5,20l-30.4,57.5H395.7 M440.7,122h-21.5l-13.8-26.6h-80L311.5,122H290L353,3.1h24.8
			L440.7,122z"/>
		<path class="st3" d="M544.5,58.8c15.2,0,22.8-6.1,22.8-18.2c0-13-8.1-19.6-24.2-19.6h-69.9V122h-19.7V3.1h94.3
			c12.2,0,21.8,3.4,28.9,10.2c7.1,6.7,10.7,15.7,10.7,27c0,11.8-3.7,20.9-11.2,27.1c-7.3,6.2-18.1,9.4-32.2,9.4h-46.6V58.8H544.5"/>
		<polyline class="st3" points="740.1,122 714.7,122 657.5,59.4 621.7,85.9 621.7,122 602,122 602,3.1 621.7,3.1 621.7,64.7 
			705,3.1 733.5,3.1 672.7,48.1 740.1,122 		"/>
	</g>
	<rect x="290" y="142.3" class="st4" width="450.1" height="1.8"/>
	<g>
		<polygon class="st5" points="318.9,186.9 322.4,186.9 334.1,165.9 330.9,165.9 320.7,184.4 310.5,165.9 307.3,165.9 318.9,186.9 
					"/>
		<polygon class="st5" points="345.9,186.9 366.7,186.9 366.7,184.6 348.8,184.6 348.8,177.2 365.9,177.2 365.9,174.9 348.8,174.9 
			348.8,168.2 366.6,168.2 366.6,165.9 345.9,165.9 345.9,186.9 		"/>
		<path class="st6" d="M379.3,186.9h2.8v-8.3H396c2.6,0,4.2,0.4,4.2,3.7v4.6h2.7v-5.4c0-1.9-0.7-3.4-3.6-4v-0.1c2.2-0.2,3.9-1,3.9-4
			v-1.7c0-4-1-6-7-6h-16.8V186.9L379.3,186.9z M382.1,176.3v-8.1h13c4.2,0,5.2,0.8,5.2,3.1v1.9c0,2.2-1.3,3.1-4.5,3.1H382.1
			L382.1,176.3z"/>
		<path class="st5" d="M416,181.8c0,4.6,3.7,5.3,7.8,5.3h7.9c4.2,0,8.5-0.4,8.5-5.6v-1.4c0-3.6-2.3-5.2-7.9-5.2h-8.4
			c-4.4,0-5.2-0.8-5.2-3.3c0-3.5,1.9-3.7,7.4-3.7h3c7.5,0,7.8,0.6,7.9,4h2.7v-0.7c0-3.7-1.8-5.6-8.8-5.6h-6.1
			c-5.9,0-8.7,1.1-8.7,5.9c0,5.6,2.8,6.1,11.5,6.1h5.4c3.5,0,4.6,0.7,4.6,3.3c0,3-1.2,3.9-5.3,3.9h-8.8c-3.5,0-4.6-1-4.6-3.1v-1.5
			H416V181.8L416,181.8z"/>
		<polygon class="st5" points="453.7,186.9 456.6,186.9 456.6,165.9 453.7,165.9 453.7,186.9 		"/>
		<path class="st5" d="M470.1,179.3c0,5.3,1.8,7.9,7.5,7.9h10.8c5.9,0,7.1-2.1,7.1-5.9v-1.4h-2.7v1.3c0,2.8-1.1,3.7-4.9,3.7h-10
			c-2.7,0-4.9-0.8-4.9-4.5v-7.9c0-3.7,2.2-4.5,4.9-4.5h9.9c2.6,0,4.8,0.2,4.8,3.7v1h2.5v-1.8c0-2.8-1.4-5.2-6.6-5.2h-10.9
			c-5.7,0-7.5,2.6-7.5,7.9V179.3L470.1,179.3z"/>
		<polygon class="st5" points="508.5,186.9 511.3,186.9 511.3,177.2 530.3,177.2 530.3,186.9 533.2,186.9 533.2,165.9 530.3,165.9 
			530.3,174.9 511.3,174.9 511.3,165.9 508.5,165.9 508.5,186.9 		"/>
		<polygon class="st5" points="547.2,186.9 568,186.9 568,184.6 550,184.6 550,177.2 567.2,177.2 567.2,174.9 550,174.9 550,168.2 
			567.9,168.2 567.9,165.9 547.2,165.9 547.2,186.9 		"/>
		<path class="st6" d="M580.5,186.9h2.8v-8.3h13.9c2.6,0,4.2,0.4,4.2,3.7v4.6h2.7v-5.4c0-1.9-0.7-3.4-3.6-4v-0.1
			c2.2-0.2,3.9-1,3.9-4v-1.7c0-4-1-6-7-6h-16.8V186.9L580.5,186.9z M583.4,176.3v-8.1h13c4.2,0,5.2,0.8,5.2,3.1v1.9
			c0,2.2-1.3,3.1-4.5,3.1H583.4L583.4,176.3z"/>
		<path class="st5" d="M617.8,181.6c0,4.3,2.2,5.5,7.5,5.5h9.7c5.3,0,7.5-1.2,7.5-5.5v-15.8h-2.8v15.7c0,2-0.7,3.2-4.6,3.2h-9.9
			c-3.9,0-4.6-1.2-4.6-3.2v-15.7h-2.8V181.6L617.8,181.6z"/>
		<polygon class="st5" points="656.4,186.9 659.2,186.9 659.2,168.4 678.5,186.9 682.7,186.9 682.7,165.9 679.9,165.9 679.9,184.4 
			660.6,165.9 656.4,165.9 656.4,186.9 		"/>
		<path class="st5" d="M722.4,176.5h-13.6v2.3h10.8v2.1c0,2.9-1.7,3.9-4.6,3.9h-11.1c-2.7,0-4.9-0.8-4.9-4.5v-7.9
			c0-3.7,2.2-4.5,4.9-4.5h7.4c7,0,8.2,0.3,8.2,4.2h2.7v-0.8c0-4.9-4-5.8-7.8-5.8h-10.8c-5.7,0-7.5,2.6-7.5,7.9v5.8
			c0,5.3,1.8,7.9,7.5,7.9h11.7c5.3,0,7.1-2,7.1-7.8V176.5L722.4,176.5z"/>
	</g>
</g>
<g id="APK-Pensionskasse">
</g>
</svg>
