<?xml version="1.0" encoding="utf-8"?>
<!-- Generator: Adobe Illustrator 27.5.0, SVG Export Plug-In . SVG Version: 6.00 Build 0)  -->
<svg version="1.1" xmlns="http://www.w3.org/2000/svg" xmlns:xlink="http://www.w3.org/1999/xlink" x="0px" y="0px"
	 viewBox="0 0 750 500" style="enable-background:new 0 0 750 500;" xml:space="preserve">
<g id="BACKGROUND">
	<rect id="XMLID_36_" style="fill:#E6F4FF;" width="750" height="500"/>
</g>
<g id="OBJECTS">
	<path id="XMLID_12_" style="fill:#CCE0ED;" d="M69.129,379.771l591.633,3.25C660.761,383.021,376.128,436.116,69.129,379.771z"/>
	<g id="XMLID_63_">
		<rect id="XMLID_29_" x="551.059" y="102.522" style="fill:#666666;" width="6.948" height="247.505"/>
		<polygon id="XMLID_26_" style="fill:#E8AD3A;" points="600.031,124.851 511.718,124.851 540.031,41.226 572.026,41.226 		"/>
		<path id="XMLID_32_" style="fill:#D39933;" d="M545.191,51.22l-14.716,66.418C530.475,117.638,527.8,68.532,545.191,51.22z"/>
		<path id="XMLID_41_" style="fill:#D39933;" d="M566.056,51.707l18.57,65.445C584.626,117.152,584.429,67.973,566.056,51.707z"/>
		<path id="XMLID_45_" style="fill:#D39933;" d="M554.476,45.044l1.553,68.011C556.03,113.056,568.179,65.401,554.476,45.044z"/>
	</g>
	<g id="XMLID_64_">
		<polygon id="XMLID_3_" style="fill:#7F4C28;" points="581.074,349.318 576.9,384.616 566.987,384.616 565.129,349.015 		"/>
		<polygon id="XMLID_4_" style="fill:#7F4C28;" points="149.882,349.318 154.055,384.616 163.969,384.616 165.826,349.015 		"/>
		<polygon id="XMLID_5_" style="fill:#325B6B;" points="579.137,242.039 528.448,240.634 530.443,300.524 579.137,315.873 		"/>
		<polygon id="XMLID_6_" style="fill:#325B6B;" points="148.101,241.469 198.79,240.064 196.795,299.954 148.101,315.303 		"/>
		<path id="XMLID_7_" style="fill:#48768C;" d="M542.311,301.013l-16.403-72.641c-6.133-27.159-30.261-46.447-58.104-46.447h-208.43
			c-28.149,0-52.455,19.704-58.279,47.243l-15.193,71.844H542.311z"/>
		<path id="XMLID_8_" style="fill:#608EA0;" d="M536.657,298.366H376.783h-25.474H191.436c-16.333,0-29.574,11.967-29.574,26.729
			v35.726h189.447h25.474H566.23v-35.726C566.23,310.333,552.99,298.366,536.657,298.366z"/>
		<path id="XMLID_9_" style="fill:#48768C;" d="M175.888,361.391V259.683c0-10.059-8.116-18.214-18.128-18.214h-7.41
			c-10.012,0-18.128,8.155-18.128,18.214v101.708H175.888z"/>
		<path id="XMLID_10_" style="fill:#48768C;" d="M551.35,361.391V260.167c0-10.012,8.116-18.128,18.128-18.128h7.41
			c10.012,0,18.128,8.116,18.128,18.128v101.224H551.35z"/>
		<ellipse id="XMLID_54_" style="fill:#325B6B;" cx="154.055" cy="267.279" rx="7.077" ry="7.352"/>
		<path id="XMLID_53_" style="fill:#325B6B;" d="M155.211,282.999v59.1C155.211,342.099,143.219,312.549,155.211,282.999z"/>
		<rect id="XMLID_11_" x="175.888" y="323.772" style="fill:#48768C;" width="375.462" height="37.62"/>
		<path id="XMLID_48_" style="fill:#325B6B;" d="M291.135,193.257v74.757C291.135,268.014,275.966,230.636,291.135,193.257z"/>
		<ellipse id="XMLID_27_" style="fill:#325B6B;" cx="574.257" cy="264.502" rx="7.077" ry="7.352"/>
		<path id="XMLID_13_" style="fill:#325B6B;" d="M432.06,195.626v74.757C432.06,270.384,447.229,233.005,432.06,195.626z"/>
		<path id="XMLID_51_" style="fill:#325B6B;" d="M573.101,280.221v59.1C573.101,339.321,585.093,309.771,573.101,280.221z"/>
		<path id="XMLID_58_" style="fill:#325B6B;" d="M182.233,339.321h365.732C547.966,339.321,422.904,355.362,182.233,339.321z"/>
	</g>
	<g id="XMLID_74_">
		<path id="XMLID_28_" style="fill:#DE8B2E;" d="M513.997,242.028c0,0-14.485,37.788-13.856,44.086
			c0.63,6.298,5.038,13.964,7.977,13.965l49.546,0.372c0,0,5.715-1.111,8.63-10.558c2.915-9.447,12.362-45.345,12.362-46.395
			c0-1.05,1.26-7.098-4.409-11.736c-5.668-4.639-43.036-3.49-50.174-1.279C518.845,232.102,516.806,234.521,513.997,242.028z"/>
		<path id="XMLID_49_" style="fill:#BC7228;" d="M568.558,234.678l-18.152,61.061C550.405,295.739,576.03,262.078,568.558,234.678z"
			/>
		<path id="XMLID_50_" style="fill:#BC7228;" d="M535.9,253.173l19.975-17.646C555.875,235.527,537.757,242.493,535.9,253.173z"/>
		<path id="XMLID_52_" style="fill:#BC7228;" d="M523.207,236.92l4.489,15.324C527.696,252.244,519.647,244.66,523.207,236.92z"/>
		<path id="XMLID_55_" style="fill:#BC7228;" d="M530.482,265.209l8.967,22.482C539.449,287.69,540.698,270.434,530.482,265.209z"/>
		<path id="XMLID_57_" style="fill:#BC7228;" d="M504.013,283.511l19.193-17.336C523.207,266.175,506.335,271.37,504.013,283.511z"
			/>
	</g>
	<g id="XMLID_2_">
		<g id="XMLID_61_">
			<path id="XMLID_56_" style="fill:#A38260;" d="M674.518,289.564h-41.369h-0.8H590.98c-3.509,0-6.354,1.877-6.354,4.193
				c0,2.316,2.844,4.193,6.354,4.193h39.311v79.883c-7.607,0.8-17.307,2.304-17.307,2.304v4.701h47.777v-4.701
				c0,0-9.282-1.47-16.657-2.276v-79.91h30.414c3.509,0,6.354-1.877,6.354-4.193C680.871,291.442,678.027,289.564,674.518,289.564z"
				/>
			<path id="XMLID_67_" style="fill:#8C6D51;" d="M631.753,298.056h11.335C643.088,298.056,636.994,303.296,631.753,298.056z"/>
		</g>
		<g id="XMLID_38_">
			<path id="XMLID_40_" style="fill:#787C91;" d="M605.265,266.915v5.881c0,3.956,2.936,7.217,6.746,7.747v8.128h-2.907v0.894h7.557
				v-0.894h-2.906v-8.078c4.016-0.335,7.172-3.695,7.172-7.797v-5.881H605.265z"/>
			<g id="XMLID_46_">
				<path id="XMLID_59_" style="fill:#91B0DC;" d="M644.612,256.616h-2.945v-11.701h-5.728v11.701h-2.174
					c-3.399,0-6.155,2.756-6.155,6.155v26.793h23.157v-26.793C650.767,259.372,648.011,256.616,644.612,256.616z"/>
				<rect id="XMLID_60_" x="627.609" y="265.026" style="fill:#787C91;" width="23.157" height="15.601"/>
				<rect id="XMLID_62_" x="634.428" y="242.039" style="fill:#A38260;" width="8.457" height="4.298"/>
			</g>
		</g>
	</g>
	<g id="XMLID_75_">
		<path id="XMLID_66_" style="fill:#E8AD3A;" d="M253.955,182.226c0,0-9.699-8.219-6.213-20.191
			c3.486-11.972,19.701-21.216,39.099-17.428c19.398,3.789,34.855,24.318,36.371,37.618H253.955z"/>
		<path id="XMLID_68_" style="fill:#9B6F17;" d="M318.808,155.337c0,0,4.642-4.642,12.141-4.642l-2.976,12.26L318.808,155.337z"/>
		<path id="XMLID_70_" style="fill:#9B6F17;" d="M308.096,155.784l-5.267-7.945c0,0-8.421,6.784-5.445,15.116
			C300.359,171.286,308.096,155.784,308.096,155.784z"/>
		<path id="XMLID_47_" style="fill:#E8AD3A;" d="M299.288,158.313c0,0-10.474,7.736-9.403,16.068
			c1.071,8.332,12.617,9.843,28.923,9.028c16.306-0.815,13.926-11.765,13.331-14.979
			C331.544,165.216,319.879,142.364,299.288,158.313z"/>
		<path id="XMLID_71_" style="fill:#9B6F17;" d="M300.742,163.699c0,0,1.104,3.563,5.791,3.804c4.686,0.241,4.615-3.438,4.615-3.438
			S306.287,169.181,300.742,163.699z"/>
		<path id="XMLID_72_" style="fill:#FFD068;" d="M307.581,169.979c0,0,2.435-2.022,6.728-1.362c4.292,0.66,5.572,3.178,5.861,4.21
			c0.289,1.032-1.527,5.035-6.893,4.21C307.911,176.211,304.815,172.208,307.581,169.979z"/>
		<path id="XMLID_69_" style="fill:#9B6F17;" d="M316.216,164.342c0,0,1.104,3.563,5.791,3.804c4.686,0.241,4.615-3.438,4.615-3.438
			S321.76,169.825,316.216,164.342z"/>
		<path id="XMLID_73_" style="fill:#9B6F17;" d="M312.286,169.401c0,0,2.353-0.206,3.343,0.495c0.99,0.702-1.899,2.683-1.899,2.683
			S310.511,170.185,312.286,169.401z"/>
		<path id="XMLID_76_" style="fill:#CC9533;" d="M295.355,161.901c0,0-13.921,12.707,2.913,20.325
			C298.269,182.226,287.125,175.634,295.355,161.901z"/>
		<path id="XMLID_77_" style="fill:#9B6F17;" d="M272.52,179.311c10.961-1.556,13.942-3.182,15.382,1.137
			c1.44,4.319-25.081,10.451-33.946,1.778c-8.865-8.673-6.726-17.939-6.726-17.939S251.985,182.226,272.52,179.311z"/>
	</g>
	<path id="XMLID_83_" style="fill:#47436D;" d="M372.193,258.026c0,0-2.833,31.529,5.667,42.029L372.193,258.026z"/>
	<g id="XMLID_97_">
		<g id="XMLID_65_">
			<g id="XMLID_85_">
				<path id="XMLID_95_" style="fill:#C45B51;" d="M243.54,296.465c0,0-5.07,6.37-12.48,14.79c0,0,0,0.01-0.01,0.02
					c-0.63,0.71-1.28,1.44-1.94,2.18c-2.53,2.85-6.47,2.84-10.78,1.33c-5.49-1.93-11.59-6.29-16.16-10.28
					c-2.57-2.25-4.66-4.38-5.89-5.89c0-0.01-0.01-0.01-0.02-0.02c-2.29-2.41-2.9-6.46-2.9-6.46c-1.08-0.91-1.58-4.5,2.5-2.33
					c1.68,0.9,6.18,2.2,10.87,3.42c0,0,0,0,0.01,0.01c6.69,1.74,13.79,3.32,13.79,3.32c0.78,0.18,1.56,0.48,2.28,0.82l6.3-10.24
					L243.54,296.465z"/>
				<path id="XMLID_90_" style="fill:#A0433F;" d="M202.17,304.505c-2.57-2.25-4.66-4.38-5.89-5.89c0-0.01-0.01-0.01-0.02-0.02
					c-2.29-2.41-2.9-6.46-2.9-6.46c-1.08-0.91-1.58-4.5,2.5-2.33c1.68,0.9,6.18,2.2,10.87,3.42c0,0,0,0,0.01,0.01
					C206.84,293.615,208.8,301.285,202.17,304.505z"/>
				<path id="XMLID_82_" style="fill:#A0433F;" d="M225.709,292.662c0,0-0.433,1.643,1.942,2.434c2.375,0.792,3.458,1.583,3.875,2.5
					c0.417,0.917,1.958,2.208,3.5,2.417c1.542,0.208,3.375,1.625,3.208,2.896l1.21-1.446c0,0-0.127-1.992-2.543-2.867
					c-2.417-0.875-4.292-1.833-4.75-2.708c-0.458-0.875-2.417-2.208-3.875-2.25c-1.458-0.042-1.775-2.263-1.775-2.263
					L225.709,292.662z"/>
				<path id="XMLID_84_" style="fill:#B25454;" d="M226.298,307.805c0,0,1.625-0.063,2.5-1.875s0.688-2.563,0.688-2.563
					S232.235,308.43,226.298,307.805z"/>
				<path id="XMLID_93_" style="fill:#A0433F;" d="M231.06,311.255c0,0,0,0.01-0.01,0.02c-0.63,0.71-1.28,1.44-1.94,2.18
					c-2.53,2.85-6.47,2.84-10.78,1.33c0,0,2.47-4.48,6.15-4.67C228.17,309.935,231.06,311.255,231.06,311.255z"/>
				<path id="XMLID_20_" style="fill:#843131;" d="M196.235,292.617l5.25,0.813C201.485,293.43,199.298,291.117,196.235,292.617z"/>
			</g>
			<path id="XMLID_24_" style="fill:#E2B288;" d="M493.172,273.684c0,0-23.715,40.632-52.721,35.291
				c-29.006-5.34-34.114-85.675-34.114-85.675h13.234c0,0,12.073,46.668,22.522,50.383c10.448,3.715,23.915-10.892,23.915-10.892
				S486.438,255.342,493.172,273.684z"/>
			<path id="XMLID_23_" style="fill:#E2B288;" d="M419.552,223.51c0,0,1.649-3.426,2.726-9.01c1.077-5.584-3.885-10.616-4.51-12.043
				c-0.625-1.427-3.122-0.714-1.249,5.442c1.873,6.155-2.676,1.963-5.709-2.409c-3.033-4.371-0.357-9.278-4.282-14.006
				c-3.925-4.728-3.479,3.925-2.855,6.869c0,0-2.141,1.16-2.587,3.925c-0.446,2.765,0,4.526,0,4.526s-1.427,1.54-1.249,3.949
				c0.178,2.408,0.803,2.855,0.803,2.855s-0.892,1.427-0.268,4.46c0.624,3.033,6.958,12.043,6.958,12.043L419.552,223.51z"/>
			<path id="XMLID_14_" style="fill:#E2B288;" d="M493.176,228.574l-9.318,10.612c0,0,16.674,10.18,26.043,7.605l16.435-19.185
				C526.335,227.606,500.042,233.98,493.176,228.574z"/>
			<path id="XMLID_15_" style="fill:#F0CBA5;" d="M531.131,217.495c-2.147-2.99-4.311-3.249-5.584-3.057
				c2.804-10.068,1.841-23.459-18.099-30.905c0,0-7.135,2.945-9.468,10.269c-2.333,7.324-11.645,7.513-11.645,7.513
				s-2.967,13.287-6.773,20.54c0,0,6.324,9.026,21.113,10.745c14.789,1.719,18.623-5.029,18.623-5.029
				C528.031,231.575,534.465,222.138,531.131,217.495z"/>
			<path id="XMLID_16_" style="fill:#3E3E44;" d="M504.712,177.867c0,0-0.431,8.782,9.296,15.462
				c9.727,6.68,9.836,6.282,9.836,6.282s-7.554,6.664-5.805,12.79c0,0-3.383,4.552-1.068,6.725c0,0,5.336-4.728,9.423-4.729
				c4.087-0.001,8.021,8.156-0.059,13.209c0,0-5.314,1.027-7.11-0.28c0,0-2.737,1.48-2.98,3.702
				c-0.044,0.398,1.468,5.156,2.742,5.156c0,0,10.908-3.601,16.832-8.058c5.924-4.457,15.305-14.986,10.473-23.922
				c0,0-0.956-14.98-19.456-24.314C508.336,170.557,505.062,173.77,504.712,177.867z"/>
			<path id="XMLID_17_" style="fill:#47436D;" d="M381.32,252.931l-199.985-25.927l-6.191,18.188c0,0,136.998,48.732,173.667,50.235
				C385.479,296.929,381.32,252.931,381.32,252.931z"/>
			<path id="XMLID_18_" style="fill:#D77062;" d="M483.857,239.186c0,0,19.55,7.532,27.711,5.658c0,0-0.153,25.911-17.574,44.744
				c-17.421,18.833-38.434,20.112-74.188,19.721c-34.638-0.378-36.206-2.271-36.206-2.271l-4.651-54.108l59.283-5.031
				C438.232,247.899,468.001,239.667,483.857,239.186z"/>
			<path id="XMLID_31_" style="fill:none;stroke:#FFFFFF;stroke-linecap:round;stroke-miterlimit:10;" d="M421.658,216.672
				c0,0,9.57,33.864,40.798,34.345c31.228,0.482,56.841-23.446,56.841-23.446"/>
			<path id="XMLID_21_" style="fill:#504977;" d="M379.903,252.85c0,0-33.854-31.564-66.669-41.016
				c-32.815-9.452-87.524,74.531-87.524,74.531l20.122,11.575l60.831-46.325c0,0,20.292,50.093,76.937,55.423L379.903,252.85z"/>
			<path id="XMLID_22_" style="fill:#F0CBA5;" d="M497.98,269.957c0,0-23.715,40.632-52.721,35.291
				c-29.006-5.34-34.114-85.675-34.114-85.675h13.234c0,0,12.073,46.668,22.522,50.383c10.448,3.715,23.915-10.892,23.915-10.892
				S491.246,251.615,497.98,269.957z"/>
			<path id="XMLID_25_" style="fill:#C45B51;" d="M455.491,264.076l26.207,28.636c0,0,22.087-19.074,19.765-27.763
				C499.141,256.259,486.603,239.619,455.491,264.076z"/>
			<path id="XMLID_30_" style="fill:#666666;" d="M420.386,211.094L420.386,211.094c-1.031,0.405-2.195-0.102-2.601-1.132
				l-14.401-36.616c-0.405-1.031,0.102-2.195,1.132-2.6l0,0c1.031-0.406,2.195,0.102,2.601,1.132l14.401,36.616
				C421.924,209.524,421.417,210.689,420.386,211.094z"/>
			<path id="XMLID_33_" style="fill:#F0CBA5;" d="M424.36,219.783c0,0,1.649-3.426,2.726-9.01c1.077-5.584-3.885-10.616-4.51-12.043
				c-0.624-1.427-3.122-0.714-1.249,5.442c1.873,6.155-2.676,1.963-5.709-2.409c-3.033-4.371-0.357-9.278-4.282-14.006
				c-3.925-4.728-3.479,3.925-2.855,6.869c0,0-2.141,1.16-2.587,3.925c-0.446,2.766,0,4.526,0,4.526s-1.427,1.54-1.249,3.949
				c0.178,2.409,0.803,2.855,0.803,2.855s-0.892,1.427-0.268,4.46c0.624,3.033,6.958,12.043,6.958,12.043L424.36,219.783z"/>
			<path id="XMLID_34_" style="fill:#FFFFFF;" d="M522.783,220.122c0,0-2.013,1.815-1.302,2.802c0.71,0.987-2.604,3.709-2.604,3.709
				s0.542,0.908,1.258,1.145c0,0,4.307-2.999,4.78-5.643c0.083-0.462,0.091-0.839,0.048-1.146
				C524.818,219.971,523.605,219.506,522.783,220.122L522.783,220.122z"/>
			<path id="XMLID_37_" style="fill:#666666;" d="M500.882,195.311c0,0,2.103-0.755,4.912,1.451
				c2.808,2.206,2.344,4.992,2.344,4.992S504.829,196.24,500.882,195.311z"/>
			<path id="XMLID_35_" style="fill:#666666;" d="M500.953,201.518c-1.06,1.449-2.307,2.34-2.786,1.99s-0.008-1.809,1.052-3.258
				c1.06-1.449,2.307-2.34,2.786-1.99C502.483,198.61,502.012,200.069,500.953,201.518z"/>
			<path id="XMLID_42_" style="fill:#C6826D;" d="M485.21,211.99c0,0,5.34,3.715,9.133,3.251
				C494.342,215.24,486.835,219.11,485.21,211.99z"/>
			<path id="XMLID_43_" style="fill:#47436D;" d="M307.687,236.485v12.332C307.687,248.817,314.343,242.522,307.687,236.485z"/>
			<path id="XMLID_44_" style="fill:#E2B288;" d="M447.885,271.703l1.664,11.76C449.549,283.463,454.124,277.551,447.885,271.703z"
				/>
			<g id="XMLID_86_">
				<path id="XMLID_101_" style="fill:#C45B51;" d="M180.69,229.055l-2.74,16.97c0,0-7.87-2.08-18.56-5.48c0,0-0.01,0-0.02,0
					c-0.91-0.3-1.84-0.6-2.78-0.9c-3.63-1.18-5.2-4.79-5.55-9.34c-0.35-4.67,0.58-10.34,1.9-15.4c0.32-1.22,0.66-2.4,1.01-3.53
					c1.03-3.26,2.14-6.03,3.03-7.76v-0.01c0.02-0.19,0.03-0.37,0.05-0.55c0.33-4.54,4.25-6.08,4.75-4.67
					c0.29,0.84,0.46,2.32,0.55,3.39c0.5,0.25,1.02,0.58,1.28,0.99c0.58,0.91,2.02,3.83,2.22,4.33c0.12,0.3,0.09,1.76,0.05,2.86
					c0.1,0.36,0.18,0.72,0.24,1.06c0,0,0,0-0.01,0.01c0.21,1.3,0.43,2.61,0.65,3.88c0.02,0.1,0.04,0.21,0.05,0.31
					c0.92,5.27,1.8,9.78,1.8,9.78c0.15,0.78,0.19,1.62,0.17,2.41L180.69,229.055z"/>
				<path id="XMLID_89_" style="fill:#A0433F;" d="M174.261,228.168c0,0-1.678,0.264-1.448,2.757
					c0.23,2.493-0.059,3.803-0.731,4.553c-0.672,0.75-1.235,2.681-0.806,4.176c0.429,1.495-0.131,3.744-1.362,4.102l1.81,0.527
					c0,0,1.773-0.917,1.603-3.481c-0.17-2.565-0.047-4.667,0.57-5.438c0.617-0.771,1.051-3.101,0.502-4.453
					c-0.548-1.352,1.358-2.535,1.358-2.535L174.261,228.168z"/>
				<path id="XMLID_88_" style="fill:#B25454;" d="M160.633,234.794c0,0,0.71,1.463,2.722,1.535
					c2.011,0.072,2.623-0.401,2.623-0.401S162.447,240.482,160.633,234.794z"/>
				<path id="XMLID_87_" style="fill:#A0433F;" d="M159.388,240.542c0,0-0.009,0.004-0.022-0.001
					c-0.903-0.291-1.833-0.593-2.776-0.9c-3.627-1.171-5.202-4.782-5.552-9.336c0,0,5.095,0.46,6.748,3.754
					C159.435,237.365,159.388,240.542,159.388,240.542z"/>
				<path id="XMLID_99_" style="fill:#A0433F;" d="M166.81,215.215c-6.935-4.077-11.033-1.493-13.87-0.31
					c0.32-1.22,0.66-2.4,1.01-3.53c1.03-3.26,2.14-6.03,3.03-7.76v-0.01c0.02-0.19,0.03-0.37,0.05-0.55
					c0.33-4.54,4.25-6.08,4.75-4.67c0.29,0.84,0.46,2.32,0.55,3.39c0.5,0.25,1.02,0.58,1.28,0.99c0.58,0.91,2.02,3.83,2.22,4.33
					c0.12,0.3,0.09,1.76,0.05,2.86c0.1,0.36,0.18,0.72,0.24,1.06c0,0,0,0-0.01,0.01c0.21,1.3,0.43,2.61,0.65,3.88
					C166.78,215.005,166.8,215.115,166.81,215.215z"/>
				<path id="XMLID_19_" style="fill:#843131;" d="M162.235,202.888v4.917C162.235,207.805,163.86,204.888,162.235,202.888z"/>
			</g>
		</g>
		<path id="XMLID_1_" style="fill:#5D5984;" d="M241.11,283.055l61.312-43.869c0,0-39.603,33.678-59.499,44.119
			C241.421,284.093,241.516,283.305,241.11,283.055z"/>
		<path id="XMLID_39_" style="fill:#5D5984;" d="M304.654,237.722c0,0,1.289-3.083,3.789-2.75c2.5,0.333,3.417,2.083,3.417,2.083
			l63.667,45c0,0-54.75-42.14-62.583-45.57C312.943,236.485,307.366,230.138,304.654,237.722z"/>
		<path id="XMLID_78_" style="fill:#5D5984;" d="M234.86,276.805l19.5,13C254.36,289.805,238.61,285.638,234.86,276.805z"/>
		<path id="XMLID_79_" style="fill:#5D5984;" d="M228.277,285.972l6.167-7.417C234.443,278.555,231.61,286.222,228.277,285.972z"/>
		<path id="XMLID_80_" style="fill:#5D5984;" d="M236.277,289.472l3.917-3.833C240.193,285.638,239.777,289.222,236.277,289.472z"/>
		<path id="XMLID_81_" style="fill:#5D5984;" d="M243.542,293.138l5.651-3.667C249.193,289.472,248.641,294.138,243.542,293.138z"/>
		<path id="XMLID_91_" style="fill:#3A3859;" d="M191.027,230.636l-3.667,16.586C187.36,247.222,185.887,232.345,191.027,230.636z"
			/>
		<path id="XMLID_92_" style="fill:#3A3859;" d="M182.548,228.168l7.375,1.575C189.923,229.742,185.485,231.218,182.548,228.168z"/>
		<path id="XMLID_94_" style="fill:#3A3859;" d="M180.69,236.224l5.92,1.43C186.61,237.654,182.895,239.393,180.69,236.224z"/>
		<path id="XMLID_96_" style="fill:#3A3859;" d="M179.985,243.492l6.25,1.563C186.235,245.055,181.985,245.992,179.985,243.492z"/>
	</g>
</g>
</svg>
