<svg xmlns="http://www.w3.org/2000/svg" width="337.36" height="113.477" viewBox="0 0 337.36 113.477"><path fill="#004F9F" d="M139.268 17.661c-18.816 0-31.113 11.232-35.44 24.309-4.335 13.075.512 24.305 19.332 24.305 18.805 0 31.114-11.23 35.438-24.305 4.342-13.077-.521-24.309-19.33-24.309m-4.308 13.008c5.238 0 3.855 6.526 2.261 11.301-1.571 4.771-4.519 11.298-9.749 11.298-5.236 0-3.845-6.527-2.259-11.298 1.572-4.775 4.513-11.301 9.747-11.301M191.636 18.66h-21.831l-15.457 46.648h21.818l7.441-22.445c1.572-4.782 2.98-7.965 7.194-7.965 3.69 0 3.079 2.828 1.769 6.801l-7.822 23.609h21.811l10.206-30.759c2.767-8.383 2.478-16.887-10.104-16.887-7.245 0-14.492 4.794-18.29 9.825l-.158-.185 3.423-8.642zM241.443 51.952c-2.128 0-2.755-1.406-2.74-3.182.057-1.852.653-3.977 1.105-5.303.499-1.498 1.454-4.418 2.821-6.884 1.527-2.557 3.459-4.676 6.13-4.676 2.562 0 3.096 1.758 2.961 3.795-.134 2.12-.996 4.416-1.418 5.656-.436 1.31-1.316 3.97-2.791 6.363-1.309 2.285-3.286 4.231-6.068 4.231m38.2-33.292h-22.146l-1.49 7.144-.276.176c-1.255-4.605-4.363-8.318-11.378-8.318-15.025 0-23.348 14.671-26.391 23.87-3.032 9.099-5.308 24.742 9.832 24.742 7.122 0 13.537-3.895 17.955-8.839l.154.17-3.539 7.703h21.815l15.464-46.648zM285.136 18.66l-9.101 27.465c-4.221 12.713 2.451 20.149 19.378 20.149 16.024 0 28.276-6.361 32.84-20.149l9.107-27.465h-21.82l-8.337 25.079c-1.859 5.671-3.099 8.04-6.984 8.04-3.787 0-3.433-2.48-1.572-8.04l8.32-25.079h-21.831zM1.593 36.35C-5.829 51.699 13.297 65.909 56.52 65.333c15.079-19.549-7.245-33.232 20.102-48.776-42.91 2.122-66.536 5.192-75.029 19.793"/><path fill="#E30613" d="M84.557.001L63.003 65.325h9.732L94.278.001zM102.611.001L81.067 65.325h9.72L112.322.001zM0 82.822h337.093v-5.133L0 77.677z"/><path d="M11.709 95.264l-4.341 13.135L3.02 95.264H.063l6.195 18.054h2.218l6.243-18.054zM17.397 95.264h2.855v18.053h-2.855zM25.249 95.264v18.054h12.043v-2.463h-9.18v-5.427h7.825v-2.43h-7.825v-5.273h9.18v-2.461zM52.609 95.264v12.683l-8.704-12.683h-2.622v18.054h2.861V100.62l8.705 12.698h2.621V95.264zM71.793 95.264v12.683l-8.705-12.683h-2.619v18.054h2.858V100.62l8.708 12.698h2.622V95.264zM85.524 99.35l2.86 8.005h-5.792l2.932-8.005zm-1.214-4.086l-6.901 18.054h3.04l1.298-3.624h7.427l1.301 3.624h3.042l-6.901-18.054H84.31zM102.697 95.264h2.858v18.053h-2.858zM121.879 95.264v12.683l-8.701-12.683h-2.618v18.054h2.855V100.62l8.7 12.698h2.62V95.264z"/><g><path d="M134.74 113.477c-2.833 0-4.869-.637-6.662-2.39l1.904-1.804c1.374 1.326 2.877 1.728 4.809 1.728 2.468 0 3.888-1.014 3.888-2.762 0-.784-.228-1.452-.735-1.875-.477-.437-.953-.616-2.065-.76l-2.221-.309c-1.539-.205-2.754-.708-3.577-1.445-.922-.836-1.374-1.978-1.374-3.447 0-3.145 2.383-5.304 6.3-5.304 2.484 0 4.231.606 5.849 2.057l-1.824 1.728c-1.167-1.066-2.514-1.4-4.103-1.4-2.225 0-3.442 1.218-3.442 2.816 0 .66.214 1.244.712 1.676.475.402 1.246.709 2.12.834l2.146.302c1.747.258 2.721.668 3.517 1.349 1.029.861 1.534 2.152 1.534 3.702 0 3.321-2.837 5.304-6.776 5.304M151.889 113.477c-3.836 0-6.749-2.52-6.749-6.239V95.264h2.863v11.841c0 2.415 1.53 3.906 3.886 3.906s3.911-1.491 3.911-3.906V95.264h2.862v11.974c0 3.72-2.94 6.239-6.773 6.239M170.463 97.725h-4.236v5.655h4.236c1.9 0 3.201-1.045 3.201-2.812 0-1.777-1.301-2.843-3.201-2.843m3.308 15.593l-3.966-7.601h-3.579v7.601h-2.855V95.265h7.306c3.566 0 5.842 2.204 5.842 5.277 0 2.58-1.637 4.229-3.756 4.79l4.338 7.985h-3.33z"/></g><g><path d="M186.656 99.35l2.851 8.005h-5.786l2.935-8.005zm-1.215-4.086l-6.91 18.054h3.042l1.302-3.624h7.436l1.293 3.624h3.043l-6.907-18.054h-2.299zM208.724 95.264v12.683l-8.713-12.683h-2.616v18.054h2.863V100.62l8.7 12.698h2.62V95.264z"/></g><g><path d="M222.664 113.477c-1.957 0-3.647-.694-4.941-1.933-1.862-1.776-1.827-3.776-1.827-7.255 0-3.475-.035-5.475 1.827-7.252 1.294-1.233 2.984-1.928 4.941-1.928 2.366 0 3.866.818 5.27 2.133l-1.908 1.851c-.976-.94-1.799-1.516-3.361-1.516-1.107 0-2.117.401-2.779 1.083-.921.973-1.104 2.004-1.104 5.629 0 3.627.184 4.664 1.104 5.632.662.688 1.672 1.09 2.779 1.09 1.562 0 2.386-.586 3.361-1.521l1.908 1.848c-1.404 1.321-2.904 2.139-5.27 2.139"/></g><g><path d="M231.845 95.264v18.054h12.046v-2.463h-9.184v-5.427h7.83v-2.43h-7.83v-5.273h9.184v-2.461z"/></g><g><path d="M265.53 111.396c-1.326 1.341-3.067 2.08-5.135 2.08-1.953 0-3.649-.692-4.944-1.932-1.849-1.778-1.828-3.776-1.828-7.254 0-3.477-.021-5.476 1.828-7.254 1.295-1.233 2.936-1.927 4.944-1.927 2.57 0 3.999.762 5.688 2.386l-1.926 1.854c-1.192-1.141-2.065-1.772-3.763-1.772-1.109 0-2.136.432-2.801 1.108-.931.968-1.109 1.98-1.109 5.604 0 3.626.179 4.665 1.109 5.63.665.689 1.691 1.09 2.801 1.09 1.246 0 2.283-.452 3.018-1.264.688-.741.925-1.746.925-2.871v-.984h-3.942v-2.333h6.805v2.714c0 2.333-.428 3.851-1.67 5.125M278.444 97.725h-4.235v5.655h4.235c1.9 0 3.203-1.045 3.203-2.812 0-1.777-1.302-2.843-3.203-2.843m3.31 15.593l-3.972-7.601h-3.573v7.601h-2.851V95.265h7.292c3.578 0 5.848 2.204 5.848 5.277 0 2.58-1.635 4.229-3.75 4.79l4.336 7.985h-3.33zM297.654 98.687c-.668-.679-1.694-1.109-2.807-1.109-1.108 0-2.137.431-2.805 1.109-.925.966-1.112 1.979-1.112 5.604 0 3.626.188 4.639 1.112 5.61.668.678 1.696 1.11 2.805 1.11 1.112 0 2.139-.433 2.807-1.11.927-.972 1.11-1.984 1.11-5.61.001-3.625-.183-4.638-1.11-5.604m2.164 12.857c-1.29 1.238-2.965 1.933-4.971 1.933-2.003 0-3.648-.694-4.943-1.933-1.859-1.777-1.828-3.777-1.828-7.254 0-3.476-.031-5.476 1.828-7.254 1.295-1.232 2.94-1.927 4.943-1.927 2.006 0 3.681.694 4.971 1.927 1.854 1.778 1.804 3.778 1.804 7.254 0 3.477.051 5.477-1.804 7.254M312.394 113.477c-3.834 0-6.747-2.52-6.747-6.239V95.264h2.852v11.841c0 2.415 1.538 3.906 3.896 3.906 2.354 0 3.916-1.491 3.916-3.906V95.264h2.854v11.974c-.001 3.72-2.938 6.239-6.771 6.239M330.857 97.725h-4.126v6.019h4.126c1.989 0 3.337-1.1 3.337-3.006 0-1.897-1.347-3.013-3.337-3.013m.16 8.496h-4.285v7.097h-2.856V95.264h7.142c3.681 0 6.034 2.338 6.034 5.474-.001 3.15-2.355 5.483-6.035 5.483"/></g></svg>