<?xml version="1.0" encoding="UTF-8"?>
<svg id="ERGO" xmlns="http://www.w3.org/2000/svg" viewBox="0 0 122.0881 61.421">
  <defs>
    <style>
      .cls-1 {
        fill: none;
      }

      .cls-2 {
        fill: #bf1528;
      }
    </style>
  </defs>
  <path class="cls-2" d="M89.3271,11.0187c-5.4935,0-10.9156,3.8793-10.9156,11.4213,0,7.0227,4.5674,11.3917,10.7096,11.3917,6.498,0,10.9156-4.7606,10.9156-11.3917,0-7.7435-5.4434-11.4213-10.7096-11.4213Zm-.1171,18.263c-3.1676,0-5.5103-2.6415-5.5103-6.8418,0-3.7372,1.9009-6.8401,5.5103-6.8401,3.9782,0,5.5095,3.674,5.5095,6.8401,0,3.2064-1.5314,6.8418-5.5095,6.8418Zm-12.7481-8.7252l.003,11.2015c-1.3009,.8707-4.0367,2.053-7.7693,2.053-7.3329,0-10.956-5.0594-10.956-11.2403,0-6.9588,4.9241-11.5521,11.3582-11.5521,3.1874,0,5.232,.5315,7.0455,1.4188l-1.8583,4.2876c-1.3823-.5786-2.9761-.92-4.8663-.92-4.6504,0-6.2288,2.7829-6.2288,6.6242,0,4.1469,2.1183,6.8356,5.8091,6.8356,1.3353,0,2.3389-.2859,2.6484-.4866v-3.8566h-3.747l.0061-4.3652h8.5555Zm-24.1216,4.3326v-.0966c1.0881-.6866,2.1397-1.6849,2.7655-2.6597,.7048-1.0979,1.0287-2.3814,1.0287-3.706,0-1.0036-.181-1.9472-.5421-2.83-.3414-.9033-.9033-1.726-1.6857-2.3891-.7634-.6623-1.7465-1.1847-2.9509-1.5656-1.2036-.381-2.6696-.5718-4.3956-.5718-1.3048,0-2.481,.0631-3.5235,.1605-1.1299,.1049-1.9032,.1992-2.9806,.3733v21.8458h5.1187v-7.3032c.628,.0281,1.0995,.0311,1.7846,.0121,0,0,.6599,.2334,1.5077,1.3238,1.0052,1.2919,2.224,3.3121,2.9525,5.968h6.0661c-1.3359-3.8663-2.713-7.4491-5.1453-8.5615Zm-2.4536-3.6977c-.7231,.5611-1.8622,.898-3.0863,.898-.5764,0-1.2842-.0319-1.6257-.0722v-6.2943c.2357-.0426,.987-.1102,1.2683-.1187,.2859-.0098,.7618-.0144,.8842-.0129,1.1041,.0175,2.0149,.273,2.6773,.7954,.6623,.5018,.9938,1.2417,.9938,2.1647,0,1.1246-.3885,2.0576-1.1116,2.64Zm-12.3756,7.5914l.0061,4.6671h-10.2556c-3.8407,0-5.1917-1.7724-5.1917-5.2297V11.3799h15.033l.0038,4.6967h-9.9173v3.7782h8.3928l.0053,4.4572h-8.3981v2.361c0,1.4833,.8714,2.1107,2.0073,2.1107,2.3054,0,8.3145-.0008,8.3145-.0008Zm72.159,21.0134c0,.3689,.2952,.6722,.6969,.6722,.4098,0,.7047-.3033,.7047-.6722,0-.377-.2949-.6802-.7047-.6802-.4017,0-.6969,.3033-.6969,.6802Zm-2.344-4.9179c-.5329,0-.5493,.0328-.5493,.1231v1.0572h-.5654c-.0737,0-.1065,.0164-.1065,.4098v.0575c0,.3934,.0328,.4098,.1065,.4098h.5654v2.0899c0,.5329,.1067,.8771,.3361,1.1067,.2132,.2129,.5329,.3361,.9919,.3361,.3197,0,.6802-.0739,.9427-.2049,.0981-.0492,.1065-.0984,.0164-.4017l-.0247-.082c-.0901-.3033-.1312-.3525-.2132-.3277-.1473,.0492-.2949,.082-.4261,.082-.1557,0-.2786-.0411-.3606-.1148-.0984-.0903-.1393-.2213-.1393-.459v-2.0246h.9752c.0739,0,.1067-.0164,.1067-.4098v-.0575c0-.3934-.0328-.4098-.1067-.4098h-.9752v-1.0572c0-.0903-.0492-.1231-.5329-.1231h-.0409Zm-4.9343,4.7294c-.1309,.2377-.1393,.3114-.0737,.3689,.3361,.2869,.8935,.4918,1.5245,.4918,.5982,0,1.0491-.1557,1.3524-.4509,.2621-.2541,.4181-.6146,.4181-.9919,0-1.4753-2.0983-1.1556-2.0983-1.7702,0-.0984,.0409-.1721,.1145-.2377,.1067-.0903,.2952-.1395,.5329-.1395,.3197,0,.5738,.0984,.8359,.2624,.0903,.0573,.1476,.0164,.2952-.2377l.0737-.1148c.164-.2785,.1804-.3442,.0984-.4017-.3441-.2621-.8115-.4098-1.3524-.4098-.9591,0-1.6966,.5246-1.6966,1.3852,0,1.5656,2.0983,1.172,2.0983,1.8114,0,.2213-.2541,.3853-.6886,.3853-.3442,0-.7294-.1393-1.0491-.3525-.0901-.0656-.164,.0083-.3033,.2541l-.082,.1476Zm-1.631-3.5491c-.5326,0-.549,.0328-.549,.1229v4.0819c0,.0901,.0164,.1229,.549,.1229h.0409c.4837,0,.5329-.0328,.5329-.1229v-4.0819c0-.0901-.0492-.1229-.5329-.1229h-.0409Zm-.6966-1.3277c0,.3606,.2949,.6719,.6886,.6719,.3934,0,.6883-.3113,.6883-.6719,0-.3608-.2949-.6722-.6883-.6722-.3936,0-.6886,.3114-.6886,.6722Zm-4.5439,4.0653c0,.2129-.0247,.3442-.1148,.4426-.1229,.1312-.3853,.2132-.6146,.2132-.5985,0-.9018-.41-.9018-1.1967,0-.8851,.3361-1.3115,.8854-1.3115,.2869,0,.5654,.164,.7458,.5001v1.3524Zm.549-2.7376c-.3606,0-.3606,.0328-.3853,.0901-.0164,.0411-.0573,.2541-.0653,.3361-.2705-.295-.6477-.5082-1.0903-.5082-1.0327,0-1.7869,.8278-1.795,2.2787,0,1.3441,.6638,2.1474,1.7377,2.1474,.4014,0,.7703-.1312,1.0491-.3689v.1229c0,.8771-.3361,1.1887-.9427,1.1887-.3197,0-.6802-.1067-.9671-.2377-.0903-.0411-.1393,.0245-.2541,.2949l-.0575,.1393c-.1309,.3116-.1065,.3689-.0245,.4181,.3278,.1885,.8771,.3361,1.3688,.3361,.6638,0,1.1639-.1721,1.5-.541,.3278-.3608,.4998-.9263,.4998-1.7213v-2.1474c0-.713,0-1.5164-.0737-1.7294-.0328-.0901-.0984-.0984-.4181-.0984h-.082Zm-4.8684,0c-.5329,0-.5493,.0328-.5493,.1229v4.0819c0,.0901,.0164,.1229,.5493,.1229h.0409c.4837,0,.5326-.0328,.5326-.1229v-4.0819c0-.0901-.0489-.1229-.5326-.1229h-.0409Zm-.6969-1.3277c0,.3606,.2952,.6719,.6886,.6719s.6886-.3113,.6886-.6719c0-.3608-.2952-.6722-.6886-.6722s-.6886,.3114-.6886,.6722Zm-2.4916,.1473c-.5326,0-.549,.0328-.549,.1231v1.0572h-.5657c-.0737,0-.1065,.0164-.1065,.4098v.0575c0,.3934,.0328,.4098,.1065,.4098h.5657v2.0899c0,.5329,.1065,.8771,.3361,1.1067,.213,.2129,.5326,.3361,.9916,.3361,.3197,0,.6802-.0739,.9427-.2049,.0984-.0492,.1065-.0984,.0164-.4017l-.0247-.082c-.0901-.3033-.1309-.3525-.213-.3277-.1476,.0492-.2952,.082-.4262,.082-.1559,0-.2788-.0411-.3608-.1148-.0984-.0903-.1393-.2213-.1393-.459v-2.0246h.9755c.0737,0,.1065-.0164,.1065-.4098v-.0575c0-.3934-.0328-.4098-.1065-.4098h-.9755v-1.0572c0-.0903-.0492-.1231-.5326-.1231h-.0411Zm-5.1389-.7211c-.5329,0-.5493,.0328-.5493,.1229v5.9834c0,.0901,.0164,.1229,.5493,.1229h.0409c.4837,0,.5326-.0328,.5326-.1229v-1.9181c0-.3113,0-.6146,.0164-.8031,.0164-.1968,.0575-.328,.2296-.4345,.1476-.0901,.3606-.1312,.5493-.1312,.2377,0,.4426,.0656,.549,.1885,.1312,.1476,.164,.3197,.164,.8854v2.213c0,.0901,.0164,.1229,.549,.1229h.0411c.4834,0,.5326-.0328,.5326-.1229v-2.5247c0-.6227-.1148-1.0163-.3853-1.3196-.2457-.2785-.6394-.4426-1.1392-.4426-.459,0-.8442,.1721-1.1067,.4345v-2.131c0-.0901-.0489-.1229-.5326-.1229h-.0409Zm-1.4917,2.7129c.1393-.2705,.1557-.3361,.0653-.4098-.3686-.3033-.8687-.4837-1.3933-.4837-.6722,0-1.1803,.2132-1.5409,.5821-.3853,.4014-.5982,.9916-.5982,1.6966,0,.7378,.2294,1.336,.6474,1.7213,.3442,.3197,.8442,.4918,1.4344,.4918,.5654,0,1.0736-.1804,1.4097-.41,.0737-.0489,.082-.0981-.0409-.385l-.0492-.1148c-.1393-.3197-.164-.3525-.2624-.3033-.3113,.1476-.5738,.2377-.9099,.2377-.713,0-1.0736-.4673-1.0736-1.2949,0-.8771,.4673-1.2459,1.0247-1.2459,.3522,0,.6146,.1148,.9096,.3197,.0739,.0492,.1395,.0492,.2952-.246l.082-.1557Zm-4.9999-.8114c-.5326,0-.549,.0328-.549,.1229v4.0819c0,.0901,.0164,.1229,.549,.1229h.0411c.4834,0,.5326-.0328,.5326-.1229v-4.0819c0-.0901-.0492-.1229-.5326-.1229h-.0411Zm-.6966-1.3277c0,.3606,.2952,.6719,.6886,.6719s.6883-.3113,.6883-.6719c0-.3608-.2949-.6722-.6883-.6722s-.6886,.3114-.6886,.6722Zm-6.3929,1.3277c-.5329,0-.5657,.0409-.5329,.1557l1.1556,4.0656c.0247,.0817,.1148,.1065,.5821,.1065h.082c.4918,0,.5654-.0328,.5902-.1065l.3934-1.336c.1476-.4918,.2869-1.0739,.3361-1.5737,.0492,.4754,.1885,1.0163,.3361,1.5653l.3686,1.3443c.0247,.0817,.0739,.1065,.623,.1065h.0656c.4837,0,.5654-.0083,.6066-.1148,.5162-1.2785,.9507-2.8933,1.1392-4.0817,.0164-.1067-.0737-.1312-.4754-.1312h-.0328c-.4918,0-.5162,.0245-.5326,.1312-.1557,.9591-.41,2.2375-.6886,3.131-.0492-.2869-.1885-.9835-.3525-1.6065l-.4017-1.5409c-.0245-.0739-.0817-.1148-.5246-.1148h-.0737c-.4509,0-.5162,.0245-.549,.1312l-.4264,1.5573c-.1145,.4098-.3358,1.2949-.385,1.5982-.0328-.3114-.2049-1.1637-.3197-1.6229l-.3936-1.5326c-.0245-.0984-.1065-.1312-.5654-.1312h-.0245Zm-6.5688,3.5491c-.1309,.2377-.1393,.3114-.0737,.3689,.3361,.2869,.8935,.4918,1.5245,.4918,.5985,0,1.0491-.1557,1.3524-.4509,.2624-.2541,.4181-.6146,.4181-.9919,0-1.4753-2.0983-1.1556-2.0983-1.7702,0-.0984,.0409-.1721,.1148-.2377,.1065-.0903,.295-.1395,.5326-.1395,.3197,0,.5738,.0984,.8362,.2624,.0901,.0573,.1473,.0164,.295-.2377l.0737-.1148c.164-.2785,.1804-.3442,.0984-.4017-.3442-.2621-.8115-.4098-1.3524-.4098-.9588,0-1.6966,.5246-1.6966,1.3852,0,1.5656,2.0983,1.172,2.0983,1.8114,0,.2213-.2541,.3853-.6886,.3853-.3442,0-.7294-.1393-1.0491-.3525-.0901-.0656-.1637,.0083-.3033,.2541l-.082,.1476Zm-2.1063-2.4588c.0903,.0817,.1559,.0817,.2377,.0081,.6313-.5818,1.0247-1.2704,1.0247-1.9426,0-.4834-.3033-.8114-.7294-.8114-.377,0-.631,.2952-.631,.5902,0,.4098,.3686,.4345,.3686,.8198,0,.1965-.0737,.5082-.4506,.9916-.0739,.0901-.0575,.1312,.0328,.2132l.1473,.1312Zm-2.1227-2.9917c-.5326,0-.541,.0164-.5326,.1065,.0245,.295,.0656,1.4344,.0656,2.2131v2.8441c0,.3853,.0653,.6638,.2621,.8606,.1557,.1557,.3934,.2457,.6886,.2457,.2129,0,.4262-.0409,.549-.0981,.0656-.0328,.0739-.0656,.0739-.3608v-.0737c0-.3033-.0083-.3606-.082-.3606h-.0984c-.2049,0-.2705-.0903-.2705-.2788v-2.6064c0-1.1064-.0245-2.1474-.0737-2.3851-.0164-.082-.0739-.1065-.541-.1065h-.0411Zm-2.2539,1.9014c-.5326,0-.549,.0328-.549,.1229v4.0819c0,.0901,.0164,.1229,.549,.1229h.0411c.4834,0,.5326-.0328,.5326-.1229v-4.0819c0-.0901-.0492-.1229-.5326-.1229h-.0411Zm-.6966-1.3277c0,.3606,.2949,.6719,.6886,.6719,.3934,0,.6883-.3113,.6883-.6719,0-.3608-.2949-.6722-.6883-.6722-.3936,0-.6886,.3114-.6886,.6722Zm-3.5983,3.0734c.1067-.549,.4017-.8851,.8526-.8851,.459,0,.713,.377,.7622,.8851h-1.6148Zm2.6559,.8034c.0653,0,.0817-.1067,.0817-.4262,0-1.2787-.6474-2.205-1.8934-2.205-1.254,0-2.0163,.9507-2.0163,2.2951,0,1.3933,.8198,2.1967,2.1066,2.1967,.5738,0,1.1803-.164,1.5901-.3936,.0984-.0573,.1065-.1065,.0081-.385l-.0737-.2049c-.0901-.246-.1312-.2788-.2213-.2377-.3689,.1557-.7542,.2621-1.1559,.2621-.6227,0-.9916-.3197-1.0819-.9015h2.6559Zm-10.098-2.5491c-.5329,0-.5654,.0409-.5329,.1557l1.1559,4.0656c.0245,.0817,.1148,.1065,.5818,.1065h.082c.4918,0,.5654-.0328,.5902-.1065l.3934-1.336c.1476-.4918,.2869-1.0739,.3361-1.5737,.0492,.4754,.1885,1.0163,.3361,1.5653l.3689,1.3443c.0245,.0817,.0737,.1065,.623,.1065h.0653c.4837,0,.5657-.0083,.6066-.1148,.5165-1.2785,.951-2.8933,1.1395-4.0817,.0164-.1067-.0739-.1312-.4754-.1312h-.0328c-.4918,0-.5165,.0245-.5329,.1312-.1557,.9591-.4098,2.2375-.6886,3.131-.0489-.2869-.1885-.9835-.3522-1.6065l-.4017-1.5409c-.0247-.0739-.082-.1148-.5246-.1148h-.0739c-.4506,0-.5162,.0245-.549,.1312l-.4262,1.5573c-.1148,.4098-.3361,1.2949-.3853,1.5982-.0328-.3114-.2049-1.1637-.3197-1.6229l-.3934-1.5326c-.0247-.0984-.1065-.1312-.5657-.1312h-.0245Zm-4.6506,5.8113c.0903,.0817,.1557,.0817,.2377,.0081,.6313-.5818,1.0247-1.2704,1.0247-1.9426,0-.4834-.3033-.8114-.7294-.8114-.3772,0-.6313,.2952-.6313,.5902,0,.4098,.3689,.4345,.3689,.8198,0,.1965-.0737,.5082-.4506,.9916-.0739,.0903-.0575,.1312,.0325,.2132l.1476,.1312Zm-4.1637-7.7127c-.5326,0-.549,.0328-.549,.1229v5.9834c0,.0901,.0164,.1229,.549,.1229h.0411c.4834,0,.5326-.0328,.5326-.1229v-1.9181c0-.3113,0-.6146,.0164-.8031,.0164-.1968,.0575-.328,.2296-.4345,.1476-.0901,.3606-.1312,.549-.1312,.2377,0,.4426,.0656,.5493,.1885,.1309,.1476,.1637,.3197,.1637,.8854v2.213c0,.0901,.0164,.1229,.5493,.1229h.0409c.4837,0,.5329-.0328,.5329-.1229v-2.5247c0-.6227-.1148-1.0163-.3853-1.3196-.246-.2785-.6394-.4426-1.1392-.4426-.459,0-.8442,.1721-1.1067,.4345v-2.131c0-.0901-.0492-.1229-.5326-.1229h-.0411Zm-1.4917,2.7129c.1395-.2705,.1559-.3361,.0656-.4098-.3689-.3033-.8687-.4837-1.3933-.4837-.6722,0-1.1803,.2132-1.5409,.5821-.3853,.4014-.5985,.9916-.5985,1.6966,0,.7378,.2296,1.336,.6477,1.7213,.3442,.3197,.8443,.4918,1.4342,.4918,.5657,0,1.0739-.1804,1.41-.41,.0737-.0489,.082-.0981-.0411-.385l-.0492-.1148c-.1393-.3197-.1637-.3525-.2622-.3033-.3113,.1476-.5738,.2377-.9099,.2377-.713,0-1.0736-.4673-1.0736-1.2949,0-.8771,.467-1.2459,1.0244-1.2459,.3525,0,.6149,.1148,.9099,.3197,.0737,.0492,.1393,.0492,.2952-.246l.0817-.1557Zm-5.5325,1.9506c0,.1968-.0245,.3444-.1145,.459-.1148,.1476-.3525,.246-.6149,.246-.6638,0-.8607-.5246-.8607-1.254,0-.8442,.2788-1.3196,.8771-1.3196,.2869,0,.5574,.1557,.713,.3933v1.4753Zm.0984-2.3604c-.1885-.2705-.5902-.4837-1.0327-.4837-.9835,0-1.8114,.8362-1.8114,2.3279,0,1.3441,.6638,2.1639,1.7377,2.1639,.4181,0,.8771-.1885,1.1228-.4673,.0164,.0984,.0328,.2296,.0575,.2788,.0328,.0901,.0981,.1065,.4998,.1065h.0411c.467,0,.4754-.0328,.467-.1476-.0328-.4426-.0573-1.1556-.0573-1.795v-.4998c0-.6722,.0164-1.5,.0164-1.7705,0-.0903-.0575-.1148-.4754-.1148h-.0492c-.4426,0-.4754,.0328-.4837,.1065l-.0328,.2952Zm-6.1144-.4017c-.0739,0-.1065,.0164-.1065,.4098v.0575c0,.3934,.0325,.4098,.1065,.4098h.5738v3.3278c0,.0901,.0164,.1229,.549,.1229h.0411c.4834,0,.5326-.0328,.5326-.1229v-3.3278h.9427c.0737,0,.1065-.0164,.1065-.4098v-.0575c0-.3934-.0328-.4098-.1065-.4098h-.9427v-.164c0-.3033,.0492-.5326,.1557-.6802,.1067-.1476,.2869-.2129,.5493-.2129,.1721,0,.3361,.0245,.5246,.0653,.0656,.0164,.1065-.0328,.1721-.3194l.0328-.1395c.0656-.2869,.0573-.3525-.0164-.3769-.2705-.0984-.5982-.1557-.9015-.1557-.5001,0-.9018,.1393-1.1803,.4262-.2952,.3033-.459,.7622-.459,1.3605v.1968h-.5738Zm-4.1554,0c-.4673,0-.5001,.0328-.492,.1476,.0328,.4426,.0575,1.1556,.0575,1.795v2.2623c0,.0901,.0164,.1229,.549,.1229h.0411c.4834,0,.5326-.0328,.5326-.1229v-1.9181c0-.3113,0-.6146,.0164-.8031,.0164-.1968,.0575-.328,.2296-.4345,.1473-.0901,.3606-.1312,.549-.1312,.2377,0,.4426,.0656,.5493,.1885,.1309,.1476,.1637,.3197,.1637,.8854v2.213c0,.0901,.0164,.1229,.5493,.1229h.0409c.4837,0,.5329-.0328,.5329-.1229v-2.5247c0-.6227-.1148-1.0163-.3853-1.3196-.246-.2785-.6394-.4426-1.1392-.4426-.5001,0-.9263,.2132-1.1887,.5165-.0164-.1231-.0328-.2541-.0573-.328-.0328-.0901-.1065-.1065-.5082-.1065h-.0409Zm-2.2214,0c-.5326,0-.549,.0328-.549,.1229v4.0819c0,.0901,.0164,.1229,.549,.1229h.0411c.4834,0,.5326-.0328,.5326-.1229v-4.0819c0-.0901-.0492-.1229-.5326-.1229h-.0411Zm-.6966-1.3277c0,.3606,.2952,.6719,.6886,.6719s.6886-.3113,.6886-.6719c0-.3608-.2952-.6722-.6886-.6722s-.6886,.3114-.6886,.6722Zm-4.1718-.246c-.3197,0-.3689,.0164-.3689,.1229v5.6556c0,.1065,.0492,.1228,.3689,.1228h3.1065c.1065,.0001,.1393-.0491,.1393-.4508v-.0656c0-.4178-.0247-.4342-.1393-.4342h-2.287v-1.5573h1.9098c.1067,0,.1395-.0492,.1395-.4509v-.0656c0-.4181-.0247-.4345-.1395-.4345h-1.9098v-1.4917h2.2542c.1065,0,.1393-.0492,.1393-.4506v-.0656c0-.4181-.0247-.4345-.1393-.4345h-3.0737Z"/>
  <rect class="cls-1" width="122.0881" height="61.421"/>
</svg>