<?xml version="1.0" encoding="UTF-8"?>
<svg version="1.1" xmlns="http://www.w3.org/2000/svg" width="2800" height="961">
<path d="M0 0 C0.78457581 0.00093658 1.56915161 0.00187317 2.37750244 0.00283813 C79.09505149 0.19987832 150.01382412 24.74934304 205.625 78.1875 C206.35759033 78.88721924 206.35759033 78.88721924 207.10498047 79.60107422 C213.83626963 86.0610316 219.8710349 92.85144643 225.625 100.1875 C226.39199219 101.1259375 227.15898438 102.064375 227.94921875 103.03125 C272.31788569 158.4742219 285.87864407 232.60428303 278.5 302 C270.10662708 372.24090979 237.70113127 437.43700757 181.8125 481.75 C129.55666392 522.35945946 67.50776652 540.39118198 1.6875 540.4375 C0.81671814 540.43817474 -0.05406372 540.43884949 -0.95123291 540.43954468 C-64.10648036 540.36254188 -128.7452689 523.76871659 -178.375 483.1875 C-179.26703125 482.48625 -180.1590625 481.785 -181.078125 481.0625 C-210.27124746 457.84457804 -233.04179821 429.09631545 -250.375 396.1875 C-250.71740723 395.55279785 -251.05981445 394.9180957 -251.41259766 394.26416016 C-266.73908028 365.56987519 -273.87147588 332.24050268 -277.375 300.1875 C-277.47071289 299.34574219 -277.56642578 298.50398438 -277.66503906 297.63671875 C-278.6857778 287.34884305 -278.61872278 277.01566038 -278.625 266.6875 C-278.62567474 265.68917145 -278.62634949 264.6908429 -278.62704468 263.66226196 C-278.55317755 194.67381465 -256.48817395 132.26180876 -208.375 82.1875 C-207.859375 81.64996094 -207.34375 81.11242187 -206.8125 80.55859375 C-199.72981583 73.22052434 -192.43863576 66.45545216 -184.375 60.1875 C-182.90160156 59.00607422 -182.90160156 59.00607422 -181.3984375 57.80078125 C-139.24745175 24.26691792 -85.94589193 5.1090801 -32.375 1.1875 C-31.31200684 1.10282471 -30.24901367 1.01814941 -29.15380859 0.9309082 C-19.42531197 0.20734885 -9.75187527 -0.0152109 0 0 Z M-122.77734375 151.28125 C-132.5916921 162.26151342 -140.70819613 174.07052844 -147.375 187.1875 C-147.92671875 188.26257813 -148.4784375 189.33765625 -149.046875 190.4453125 C-156.58909539 205.95740495 -160.7752406 222.19558545 -163.375 239.1875 C-163.53186279 240.17580811 -163.53186279 240.17580811 -163.69189453 241.18408203 C-164.80066199 249.36991979 -164.61895988 257.69191814 -164.625 265.9375 C-164.62567474 266.76385956 -164.62634949 267.59021912 -164.62704468 268.44161987 C-164.61044758 281.24542614 -164.06911013 293.6290042 -161.375 306.1875 C-161.20339355 307.01411133 -161.03178711 307.84072266 -160.85498047 308.69238281 C-154.18685289 340.00099969 -139.57797212 368.09044847 -117.375 391.1875 C-116.71081055 391.89036133 -116.71081055 391.89036133 -116.03320312 392.60742188 C-88.86366508 421.2677439 -50.81553179 438.76257639 -11.19702148 440.31176758 C36.50302764 441.37881626 78.49145105 429.46904792 113.625 396.1875 C114.56988281 395.30707031 115.51476563 394.42664063 116.48828125 393.51953125 C147.47209451 364.06490766 164.65750216 321.09474975 165.85806274 278.65206909 C166.24050917 261.39000132 166.31698503 244.13211242 162.625 227.1875 C162.45871094 226.40391113 162.29242187 225.62032227 162.12109375 224.81298828 C153.09007501 183.66331863 127.94966359 148.11203319 92.625 125.1875 C25.04239352 82.22870034 -67.45322448 94.42784613 -122.77734375 151.28125 Z " fill="#000000" transform="translate(998.375,235.8125)"/>
<path d="M0 0 C0.71671875 0.34611328 1.4334375 0.69222656 2.171875 1.04882812 C23.89719806 11.64998114 43.73706976 26.00350608 61.33203125 42.51953125 C63.52975844 44.56280616 65.76341064 46.51148802 68.0625 48.4375 C77.96825372 57.07433486 86.09988121 67.56107962 94 78 C94.41072754 78.53254395 94.82145508 79.06508789 95.24462891 79.61376953 C125.82188804 119.40238179 142.06509532 172.07394088 143 222 C143.02046387 222.99870117 143.04092773 223.99740234 143.06201172 225.02636719 C144.32219686 298.28374136 125.19771228 368.80629695 75.12109375 423.65625 C73.18168497 425.79924312 71.30670701 427.98344638 69.4375 430.1875 C66.58000632 433.46348246 63.52006093 436.30126528 60.203125 439.10546875 C57.73242966 441.23009152 55.3758745 443.45745013 53 445.6875 C1.80468484 492.17115841 -67.55020515 511.20625771 -135.4375 511.25 C-136.3834201 511.25067474 -137.32934021 511.25134949 -138.30392456 511.25204468 C-215.92790547 511.16460912 -286.52222197 485.3365355 -341.875 430.375 C-348.34170052 423.86823239 -354.50179363 417.35570852 -360 410 C-360.86190416 408.87884859 -361.72388867 407.75775894 -362.5859375 406.63671875 C-369.76522154 397.1836141 -376.06018092 387.27093716 -382 377 C-382.39960937 376.31212402 -382.79921875 375.62424805 -383.2109375 374.91552734 C-419.73016646 311.26729063 -424.69575243 226.86905159 -406 157 C-391.47026557 106.31808274 -360.42101262 59.67033885 -317.70507812 28.26513672 C-315.9948242 26.99615965 -314.31685134 25.69240343 -312.640625 24.37890625 C-270.89284258 -7.87272566 -219.84134396 -22.93237365 -168 -28 C-167.29214355 -28.07202637 -166.58428711 -28.14405273 -165.85498047 -28.21826172 C-110.00312523 -33.65772166 -50.46968566 -24.6750255 0 0 Z M-192 79 C-192.67933594 79.21495117 -193.35867188 79.42990234 -194.05859375 79.65136719 C-216.55236518 86.98486284 -235.98773594 99.69540083 -253 116 C-253.86753906 116.804375 -254.73507812 117.60875 -255.62890625 118.4375 C-286.93587649 148.36393528 -300.72064124 190.38662655 -302.12890625 232.890625 C-303.12345 283.87634031 -285.74585574 329.72532805 -250.45214844 366.50732422 C-221.72098859 396.04032881 -180.80545614 410.77950018 -140.13671875 411.35131836 C-126.56281863 411.46497447 -113.29688155 410.89951488 -100 408 C-99.23010742 407.83902832 -98.46021484 407.67805664 -97.66699219 407.51220703 C-67.30769903 400.97975061 -42.14135236 385.26176439 -20 364 C-19.4445752 363.46938965 -18.88915039 362.9387793 -18.31689453 362.39208984 C-14.01891994 358.20556618 -10.24749389 353.778963 -6.625 349 C-6.06337158 348.25943359 -5.50174316 347.51886719 -4.9230957 346.75585938 C23.77615975 308.33158825 33.93079808 258.97483621 28.12060547 211.67919922 C23.10662282 177.3600375 9.94795228 147.19105209 -14 122 C-14.50128418 121.46616699 -15.00256836 120.93233398 -15.51904297 120.38232422 C-44.71100432 89.4624082 -84.46445039 72.73989234 -126.82373047 70.87573242 C-149.06489628 70.26579045 -170.73446534 72.25562217 -192 79 Z " fill="#000000" transform="translate(1746,267)"/>
<path d="M0 0 C0 30.36 0 60.72 0 92 C-12.11392405 89.79746835 -12.11392405 89.79746835 -16.5703125 88.96484375 C-17.48683594 88.79533203 -18.40335937 88.62582031 -19.34765625 88.45117188 C-21.20747294 88.10719734 -23.06684704 87.76082158 -24.92578125 87.41210938 C-25.83972656 87.24388672 -26.75367188 87.07566406 -27.6953125 86.90234375 C-28.49984863 86.75273193 -29.30438477 86.60312012 -30.13330078 86.44897461 C-37.15546136 85.34918298 -44.07483895 84.835059 -51.1796875 84.796875 C-52.03192902 84.79117493 -52.88417053 84.78547485 -53.76223755 84.77960205 C-55.55892726 84.77021515 -57.3556337 84.76364342 -59.15234375 84.75976562 C-61.83365984 84.75014828 -64.5141784 84.71910084 -67.1953125 84.6875 C-82.47357185 84.59296121 -97.54795794 86.08254338 -112.1875 90.6875 C-113.00935791 90.94168701 -113.83121582 91.19587402 -114.67797852 91.45776367 C-128.06578582 95.78229854 -139.81666298 102.53526425 -151 111 C-152.12148438 111.84304687 -152.12148438 111.84304687 -153.265625 112.703125 C-180.57249804 134.84964408 -186.39253196 174.53278764 -190 207 C-190.33 219.21 -190.66 231.42 -191 244 C-134.57 244 -78.14 244 -20 244 C-19.4103039 282.33024673 -19 320.66521742 -19 359 C-74.11 359 -129.22 359 -186 359 C-185.9896875 384.03488281 -185.979375 409.06976563 -185.96875 434.86328125 C-185.96628442 451.38232802 -185.96428267 467.90136519 -185.96875 484.42041016 C-185.96901876 485.46369422 -185.96928753 486.50697829 -185.96956444 487.58187702 C-185.98386614 540.40238528 -186.09038379 593.2226297 -186.21875 646.04296875 C-186.22285487 647.73490308 -186.22285487 647.73490308 -186.22704268 649.46101791 C-186.29654092 678.06767391 -186.37016338 706.67431874 -186.44538212 735.2809602 C-186.48887727 751.83826452 -186.53118393 768.3955716 -186.57275391 784.95288086 C-186.5772344 786.73726386 -186.5772344 786.73726386 -186.58180541 788.55769499 C-186.59680491 794.53365689 -186.61178586 800.50961884 -186.62675762 806.4855808 C-186.74830168 854.99039489 -186.87337408 903.49519887 -187 952 C-226.27 952 -265.54 952 -306 952 C-306.01620983 918.28227349 -306.01620983 918.28227349 -306.0222168 905.20053101 C-306.02259079 904.38620357 -306.02296478 903.57187613 -306.0233501 902.7328721 C-306.04809083 848.78223295 -306.07043273 794.83159398 -306.08468628 740.88095093 C-306.08496239 739.83851516 -306.08523851 738.79607938 -306.08552299 737.72205465 C-306.09150955 715.06418787 -306.09704981 692.40632101 -306.10213066 669.74845401 C-306.10462521 658.63617635 -306.10721834 647.52389872 -306.10986328 636.41162109 C-306.1101248 635.30584755 -306.11038632 634.20007401 -306.11065576 633.06079218 C-306.11917027 597.25418047 -306.13418677 561.4475751 -306.15259444 525.64096722 C-306.17148472 488.82851299 -306.1837767 452.01606225 -306.18782998 415.20360325 C-306.18840624 409.99768796 -306.18905752 404.79177267 -306.18975449 399.58585739 C-306.18988933 398.56131273 -306.19002418 397.53676807 -306.19016311 396.48117661 C-306.1925216 380.0245406 -306.20178434 363.56791545 -306.21366407 347.11128386 C-306.22547419 330.54520393 -306.22992707 313.97913471 -306.22700275 297.41305073 C-306.22548782 287.58488197 -306.22948108 277.7567526 -306.24159509 267.928591 C-306.24915231 261.34422636 -306.2492874 254.75988721 -306.24366363 248.17552075 C-306.2406741 244.43613406 -306.24064779 240.69682127 -306.24976636 236.95744283 C-306.30128507 214.52002727 -305.54058509 192.16430544 -302.25 169.9375 C-302.08153564 168.78886475 -301.91307129 167.64022949 -301.73950195 166.45678711 C-296.21220968 130.57247313 -284.65103108 93.90870892 -262 65 C-261.33742188 64.13375 -260.67484375 63.2675 -259.9921875 62.375 C-226.39188932 19.72369899 -175.02466643 -1.43892052 -122.1875 -7.8125 C-83.84462543 -11.8642236 -36.9462 -12.3154 0 0 Z " fill="#000000" transform="translate(306,9)"/>
<path d="M0 0 C2.45597326 0.00056544 4.91194686 0.00024496 7.36791992 -0.00088501 C12.6147168 -0.00133704 17.86146846 0.00424952 23.10825157 0.01559067 C30.69383372 0.03197639 38.27939193 0.0370669 45.86498985 0.03956665 C58.17774789 0.04392348 70.49047913 0.05717738 82.80322266 0.07617188 C94.75048694 0.09458317 106.69774389 0.10871384 118.64501953 0.1171875 C119.38378968 0.11771295 120.12255984 0.11823839 120.88371696 0.11877976 C124.59060861 0.1213902 128.2975003 0.12391753 132.00439203 0.12640357 C162.66481669 0.14707327 193.32519207 0.18390871 223.9855957 0.22705078 C223.9855957 34.87705078 223.9855957 69.52705078 223.9855957 105.22705078 C216.26838135 105.2416333 208.55116699 105.25621582 200.60009766 105.27124023 C175.8762266 105.32005179 151.15241361 105.38347586 126.42860152 105.45603706 C122.58488832 105.46730452 118.74117475 105.47844309 114.89746094 105.48950195 C114.13228298 105.49170564 113.36710502 105.49390932 112.57873984 105.49617978 C100.20736783 105.53150186 87.83599586 105.55639468 75.4645922 105.5773978 C62.75975981 105.59920048 50.05499255 105.63229311 37.35021561 105.67575234 C29.51779133 105.70219231 21.68544814 105.71994395 13.85298147 105.72639682 C7.83563843 105.73230028 1.8184544 105.75395124 -4.19883347 105.78132629 C-6.65896005 105.79009009 -9.11911069 105.79383255 -11.57925224 105.79205894 C-36.40874889 105.26397949 -36.40874889 105.26397949 -57.63549805 116.78564453 C-62.40400038 122.68613555 -64.40225497 130.6694352 -64.0769043 138.16455078 C-62.77358523 146.87183135 -58.47852648 155.12859633 -51.4831543 160.53173828 C-50.26112305 161.37091797 -50.26112305 161.37091797 -49.0144043 162.22705078 C-48.0347168 162.91025391 -47.0550293 163.59345703 -46.0456543 164.29736328 C-19.52095135 181.84757179 14.00931263 188.76291454 44.4230957 196.53955078 C96.98561573 209.98471536 152.26371639 225.8891178 195.9855957 259.22705078 C196.9137207 259.93087891 197.8418457 260.63470703 198.7980957 261.35986328 C225.26342367 282.20900247 242.77684994 309.91347339 247.6105957 343.51635742 C248.36160178 350.94769944 248.33231101 358.3892722 248.2980957 365.85205078 C248.29594055 366.69531921 248.2937854 367.53858765 248.29156494 368.40740967 C248.24165506 380.56032203 248.00091262 392.38974688 244.9855957 404.22705078 C244.79223633 405.01563477 244.59887695 405.80421875 244.3996582 406.61669922 C237.16922342 435.28180256 221.86667875 461.37724856 197.9855957 479.22705078 C197.19540039 479.86642578 196.40520508 480.50580078 195.59106445 481.16455078 C158.89856835 509.82514616 111.99368664 513.40709064 67.29223633 513.34057617 C64.61995849 513.34029366 61.94768339 513.34040941 59.27540588 513.34101868 C53.55220569 513.34153964 47.829017 513.33843788 42.1058197 513.33278084 C33.83133167 513.32460737 25.55684914 513.32204467 17.28235751 513.32079285 C3.85319288 513.31861145 -9.57596564 513.31197626 -23.00512695 513.30249023 C-36.03995737 513.29329241 -49.07478612 513.28622321 -62.10961914 513.28198242 C-62.91489137 513.2817197 -63.72016359 513.28145697 -64.54983801 513.28118629 C-68.59019116 513.27988113 -72.63054432 513.27861745 -76.67089748 513.27737439 C-110.11873851 513.26703022 -143.56656815 513.24860735 -177.0144043 513.22705078 C-177.0144043 478.57705078 -177.0144043 443.92705078 -177.0144043 408.22705078 C-168.82297607 408.21246826 -160.63154785 408.19788574 -152.19189453 408.18286133 C-125.9427678 408.13404018 -99.69369569 408.07061347 -73.44462445 407.9980645 C-69.36314837 407.98679717 -65.28167196 407.97565858 -61.20019531 407.96459961 C-59.98144055 407.96129408 -59.98144055 407.96129408 -58.73806448 407.95792178 C-45.60499285 407.92260865 -32.47192127 407.8977108 -19.33881985 407.87670376 C-5.84975158 407.85489392 7.63925542 407.82179458 21.12827152 407.77834922 C29.44282782 407.75192152 37.75730787 407.73416087 46.07190406 407.72770474 C51.78379443 407.72242354 57.49558908 407.70611573 63.20742805 407.68138512 C66.49635039 407.66746294 69.78506979 407.65980653 73.07402611 407.66204262 C97.32400479 407.98253889 97.32400479 407.98253889 119.9855957 400.22705078 C120.60821289 399.90349609 121.23083008 399.57994141 121.87231445 399.24658203 C128.02572618 395.54919581 131.39488691 388.97989585 133.63012695 382.30126953 C135.56284235 371.02355664 133.75666337 361.47810452 127.3605957 352.10205078 C105.10263757 324.61016685 59.91545982 316.47872328 27.5480957 307.53955078 C-126.88927621 264.87624166 -126.88927621 264.87624166 -162.0144043 204.22705078 C-179.8523247 172.08179231 -181.16265186 133.27032378 -171.55737305 98.25830078 C-161.95926079 65.66141591 -140.30830031 39.69890867 -110.92211914 23.07592773 C-76.71539272 4.47300342 -38.31739824 -0.12497538 0 0 Z " fill="#000000" transform="translate(2552.014404296875,252.77294921875)"/>
<path d="M0 0 C39.27 0 78.54 0 119 0 C119 33.66 119 67.32 119 102 C184.67 102 250.34 102 318 102 C318 136.65 318 171.3 318 207 C252.33 207 186.66 207 119 207 C118.9175 239.773125 118.835 272.54625 118.75 306.3125 C118.71358398 316.61251221 118.67716797 326.91252441 118.63964844 337.5246582 C118.62626033 346.85945627 118.62626033 346.85945627 118.6182251 356.19425964 C118.61453919 360.31149646 118.59971501 364.42852126 118.57769775 368.54570007 C118.35840305 411.46073345 118.8576362 458.59970756 150.875 491.375 C156.0711413 496.48229024 161.60175978 500.48368668 168 504 C168.91007812 504.52078125 169.82015625 505.0415625 170.7578125 505.578125 C182.88317432 512.11987334 196.36039615 515.50762604 210 517 C211.42699219 517.16628906 211.42699219 517.16628906 212.8828125 517.3359375 C243.67224554 520.31037359 275.62892823 517.13200949 306 512 C309.96 511.34 313.92 510.68 318 510 C318 544.65 318 579.3 318 615 C140.68439144 643.75388247 140.68439144 643.75388247 73.3125 595.875 C68.30764665 592.20448382 63.64166374 588.18592032 59.10546875 583.953125 C57.38742539 582.35939276 55.65134665 580.88541074 53.8125 579.4375 C28.95372419 557.89322763 14.43649273 523.18277107 7 492 C6.71068604 490.78691162 6.71068604 490.78691162 6.41552734 489.54931641 C-0.41377044 459.84455036 -0.4415624 429.49770344 -0.34819686 399.20305026 C-0.33503333 393.82590451 -0.33964004 388.44876686 -0.34190369 383.0716095 C-0.34346381 373.79310031 -0.33418811 364.51465525 -0.31719017 355.23616219 C-0.29263136 341.82163509 -0.2849778 328.40713845 -0.2812262 314.99259131 C-0.27468793 293.21940861 -0.25479866 271.44625996 -0.22631836 249.6730957 C-0.19870938 228.54386564 -0.17750944 207.41464489 -0.16479492 186.28540039 C-0.16400675 184.97926676 -0.16321858 183.67313314 -0.16240653 182.32741971 C-0.15849093 175.77381808 -0.15469992 169.22021639 -0.15097082 162.66661465 C-0.11995679 108.44437951 -0.06469837 54.22220746 0 0 Z " fill="#000000" transform="translate(1981,151)"/>
<path d="M0 0 C104.94 0 209.88 0 318 0 C318 34.65 318 69.3 318 105 C252.33 105 186.66 105 119 105 C119 239.64 119 374.28 119 513 C79.73 513 40.46 513 0 513 C0 343.71 0 174.42 0 0 Z " fill="#000000" transform="translate(370,253)"/>
</svg>
