<svg width="144" height="40" viewBox="0 0 144 40" fill="none" xmlns="http://www.w3.org/2000/svg">
    <g clip-path="url(#clip0_16_291)">
        <path d="M35.4578 0H11.9964L0 19.9986L11.9964 40H35.4578L47.4542 20.0014L35.4578 0Z" fill="#003460"/>
        <path d="M23.7243 33.5284C30.9291 33.5284 36.7698 27.6878 36.7698 20.483C36.7698 13.2782 30.9291 7.4375 23.7243 7.4375C16.5195 7.4375 10.6788 13.2782 10.6788 20.483C10.6788 27.6878 16.5195 33.5284 23.7243 33.5284Z" fill="white" stroke="#003460" stroke-miterlimit="10"/>
        <path d="M62.4427 6.59058C64.1081 6.62773 65.7085 7.2444 66.9683 8.3344C67.0073 8.36233 67.0396 8.3985 67.063 8.44033C67.0865 8.48217 67.1004 8.52864 67.1038 8.57646C67.1072 8.62428 67.1001 8.67227 67.0829 8.71702C67.0657 8.76177 67.0389 8.80219 67.0043 8.8354L65.5373 10.3938C65.4693 10.4553 65.3819 10.491 65.2903 10.4946C65.1987 10.4981 65.1088 10.4693 65.0363 10.4131C64.3747 9.80845 63.5017 9.4883 62.606 9.52186C61.6373 9.5507 60.718 9.95644 60.0439 10.6527C59.3698 11.349 58.994 12.2809 58.9965 13.2501C58.9991 14.2192 59.3797 15.1491 60.0574 15.8419C60.7352 16.5347 61.6565 16.9356 62.6254 16.9594C63.193 16.9695 63.7571 16.8689 64.2862 16.6632V15.5976H63.1181C63.0728 15.5994 63.0276 15.5922 62.9852 15.5762C62.9428 15.5602 62.9041 15.5359 62.8713 15.5046C62.8385 15.4734 62.8123 15.4359 62.7943 15.3943C62.7763 15.3527 62.7669 15.3079 62.7665 15.2626V13.4275C62.765 13.3809 62.773 13.3345 62.7902 13.2911C62.8073 13.2478 62.8331 13.2084 62.8661 13.1755C62.899 13.1425 62.9384 13.1167 62.9817 13.0996C63.0251 13.0824 63.0715 13.0744 63.1181 13.0759H66.8465C66.9366 13.0802 67.0215 13.1192 67.0834 13.1848C67.1454 13.2503 67.1795 13.3373 67.1787 13.4275L67.1981 18.4098C67.2016 18.468 67.1896 18.5261 67.1633 18.5781C67.1371 18.6301 67.0975 18.6743 67.0486 18.706C65.6445 19.4973 64.06 19.9129 62.4482 19.9128C61.5624 19.9309 60.6819 19.772 59.8583 19.4455C59.0346 19.119 58.2844 18.6315 57.6516 18.0114C57.0187 17.3913 56.5159 16.6512 56.1727 15.8344C55.8295 15.0176 55.6527 14.1405 55.6527 13.2545C55.6527 12.3685 55.8295 11.4914 56.1727 10.6746C56.5159 9.85776 57.0187 9.11764 57.6516 8.49756C58.2844 7.87749 59.0346 7.38992 59.8583 7.06342C60.6819 6.73692 61.5624 6.57805 62.4482 6.59611L62.4427 6.59058Z" fill="#003460"/>
        <path d="M68.5986 19.2707L74.4114 6.78711C74.4416 6.72846 74.4866 6.67872 74.542 6.6428C74.5973 6.60688 74.6611 6.58602 74.7269 6.58228H74.9124C74.9783 6.58574 75.0422 6.60649 75.0976 6.64245C75.153 6.6784 75.1979 6.72829 75.2279 6.78711L81.0407 19.2707C81.069 19.3226 81.0826 19.3811 81.0802 19.4402C81.0778 19.4992 81.0595 19.5565 81.0271 19.6059C80.9947 19.6554 80.9495 19.6951 80.8963 19.7209C80.8432 19.7466 80.784 19.7575 80.7251 19.7523H78.6381C78.3059 19.7523 78.1565 19.6416 77.9904 19.2873L77.3233 17.823H72.2884L71.6213 19.3067C71.5705 19.4413 71.4789 19.5566 71.3593 19.6365C71.2396 19.7165 71.098 19.7569 70.9542 19.7523H68.9142C68.8553 19.7575 68.7962 19.7466 68.743 19.7209C68.6898 19.6951 68.6446 19.6554 68.6123 19.6059C68.5799 19.5565 68.5615 19.4992 68.5591 19.4402C68.5567 19.3811 68.5704 19.3226 68.5986 19.2707ZM76.2216 15.3014L74.8127 12.24H74.7934L73.4094 15.3014H76.2216Z" fill="#003460"/>
        <path d="M82.8759 7.1192C82.8759 7.02597 82.9129 6.93655 82.9789 6.87063C83.0448 6.8047 83.1342 6.76767 83.2274 6.76767H88.7634C89.2945 6.75534 89.8227 6.85022 90.3164 7.04665C90.8101 7.24308 91.2591 7.53701 91.6366 7.91089C92.0141 8.28477 92.3123 8.73091 92.5135 9.22266C92.7146 9.71441 92.8146 10.2417 92.8074 10.7729C92.8074 12.4808 91.786 13.8537 90.0616 14.5014L92.6026 19.2069C92.6365 19.2614 92.6549 19.3241 92.6557 19.3883C92.6565 19.4524 92.6398 19.5156 92.6073 19.5709C92.5748 19.6262 92.5277 19.6716 92.4713 19.7021C92.4148 19.7326 92.3511 19.7471 92.287 19.7439H89.8207C89.7612 19.7446 89.7024 19.7296 89.6505 19.7005C89.5985 19.6713 89.5551 19.629 89.5246 19.5779L87.0583 14.6619H85.7795V19.3979C85.7761 19.4901 85.7379 19.5775 85.6727 19.6427C85.6075 19.7079 85.5201 19.746 85.428 19.7495H83.2136C83.1204 19.7495 83.0309 19.7124 82.965 19.6465C82.8991 19.5806 82.8621 19.4912 82.8621 19.3979L82.8759 7.1192ZM88.5336 12.3119C88.7243 12.3095 88.9126 12.2689 89.0873 12.1925C89.262 12.1161 89.4197 12.0056 89.551 11.8673C89.6823 11.729 89.7846 11.5658 89.8519 11.3874C89.9191 11.2089 89.9499 11.0188 89.9425 10.8283C89.9491 10.6414 89.9171 10.4551 89.8487 10.2811C89.7802 10.107 89.6768 9.94888 89.5446 9.8165C89.4125 9.68413 89.2546 9.58032 89.0807 9.51153C88.9068 9.44274 88.7206 9.41043 88.5336 9.41662H85.7878V12.3147L88.5336 12.3119Z" fill="#003460"/>
        <path d="M94.0751 19.2707L99.8879 6.78711C99.9181 6.72846 99.9631 6.67872 100.018 6.6428C100.074 6.60688 100.138 6.58602 100.203 6.58228H100.389C100.455 6.58574 100.519 6.60649 100.574 6.64245C100.629 6.6784 100.674 6.72829 100.704 6.78711L106.517 19.2707C106.545 19.3226 106.559 19.3811 106.557 19.4402C106.554 19.4992 106.536 19.5565 106.504 19.6059C106.471 19.6554 106.426 19.6951 106.373 19.7209C106.32 19.7466 106.26 19.7575 106.202 19.7523H104.142C103.807 19.7523 103.661 19.6416 103.495 19.2873L102.827 17.823H97.7676L97.1005 19.3067C97.0497 19.4413 96.9581 19.5566 96.8385 19.6365C96.7189 19.7165 96.5772 19.7569 96.4334 19.7523H94.3934C94.3344 19.7581 94.2748 19.7476 94.2212 19.722C94.1676 19.6965 94.122 19.6568 94.0893 19.6073C94.0566 19.5578 94.0379 19.5003 94.0354 19.441C94.0329 19.3816 94.0467 19.3228 94.0751 19.2707ZM101.698 15.3014L100.289 12.24H100.27L98.8859 15.3014H101.698Z" fill="#003460"/>
        <path d="M108.336 6.91445C108.342 6.82585 108.382 6.74302 108.447 6.68284C108.513 6.62265 108.598 6.58966 108.687 6.5906H108.964C109.15 6.5906 109.28 6.72069 109.429 6.86739L116.559 13.7043V7.11928C116.559 7.02605 116.596 6.93663 116.662 6.87071C116.728 6.80478 116.818 6.76775 116.911 6.76775H119.125C119.217 6.77117 119.305 6.80931 119.37 6.87451C119.435 6.9397 119.473 7.02714 119.477 7.11928V19.6001C119.478 19.6456 119.469 19.6908 119.452 19.7328C119.434 19.7748 119.408 19.8127 119.375 19.844C119.342 19.8753 119.302 19.8993 119.259 19.9145C119.216 19.9297 119.171 19.9357 119.125 19.9322H118.94C118.852 19.9349 118.765 19.9181 118.685 19.8832C118.604 19.8483 118.533 19.796 118.475 19.7302L111.259 12.4781H111.239V19.398C111.239 19.4912 111.202 19.5807 111.136 19.6466C111.07 19.7125 110.981 19.7495 110.888 19.7495H108.673C108.581 19.7461 108.494 19.708 108.429 19.6428C108.363 19.5776 108.325 19.4902 108.322 19.398L108.336 6.91445Z" fill="#003460"/>
        <path d="M124.838 9.49403H122.187C122.094 9.49403 122.004 9.457 121.938 9.39107C121.872 9.32515 121.835 9.23573 121.835 9.1425V7.11911C121.835 7.02588 121.872 6.93647 121.938 6.87054C122.004 6.80461 122.094 6.76758 122.187 6.76758H130.421C130.515 6.76758 130.604 6.80461 130.67 6.87054C130.736 6.93647 130.773 7.02588 130.773 7.11911V9.1425C130.773 9.23573 130.736 9.32515 130.67 9.39107C130.604 9.457 130.515 9.49403 130.421 9.49403H127.77V19.3978C127.766 19.49 127.728 19.5774 127.663 19.6426C127.598 19.7078 127.51 19.7459 127.418 19.7494H125.204C125.112 19.7459 125.024 19.7078 124.959 19.6426C124.894 19.5774 124.856 19.49 124.852 19.3978L124.838 9.49403Z" fill="#003460"/>
        <path d="M130.79 19.2707L136.602 6.78711C136.633 6.72846 136.678 6.67872 136.733 6.6428C136.788 6.60688 136.852 6.58602 136.918 6.58228H137.103C137.169 6.58574 137.233 6.60649 137.289 6.64245C137.344 6.6784 137.389 6.72829 137.419 6.78711L143.232 19.2707C143.26 19.3226 143.274 19.3811 143.271 19.4402C143.269 19.4992 143.25 19.5565 143.218 19.6059C143.186 19.6554 143.14 19.6951 143.087 19.7209C143.034 19.7466 142.975 19.7575 142.916 19.7523H140.857C140.525 19.7523 140.375 19.6416 140.209 19.2873L139.534 17.823H134.482L133.815 19.3067C133.764 19.4413 133.673 19.5566 133.553 19.6365C133.433 19.7165 133.292 19.7569 133.148 19.7523H131.108C131.049 19.7581 130.989 19.7476 130.936 19.722C130.882 19.6965 130.836 19.6568 130.804 19.6073C130.771 19.5578 130.752 19.5003 130.75 19.441C130.747 19.3816 130.761 19.3228 130.79 19.2707ZM138.426 15.2986L137.018 12.2372H136.998L135.614 15.2986H138.426Z" fill="#003460"/>
        <path fill-rule="evenodd" clip-rule="evenodd" d="M13.7237 17.3165L13.6185 17.7317L14.316 18.4929L13.4856 18.2853L13.397 18.6451L15.3595 19.1351L15.4481 18.7752L14.5264 18.5455L15.5948 18.1884L15.7028 17.7511L14.4821 18.2161L13.7237 17.3165ZM15.3485 16.0626C15.3814 15.9548 15.3734 15.8387 15.3258 15.7365C15.2783 15.6343 15.1947 15.5533 15.091 15.509C14.7589 15.3457 14.5042 15.4952 14.3465 15.819L14.0697 16.3865L15.8882 17.2722L16.0515 16.94L15.2654 16.5553L15.3014 16.4778C15.3245 16.4173 15.3694 16.3676 15.4273 16.3384C15.4851 16.3092 15.5518 16.3027 15.6142 16.32L16.2923 16.428L16.4667 16.0737L15.6557 15.9713C15.4592 15.9491 15.3789 16.0045 15.3485 16.0709M15.0717 16.3006L15.0052 16.4363L14.4682 16.1761L14.5347 16.0405C14.626 15.855 14.7312 15.7637 14.9388 15.8716C14.9766 15.887 15.0108 15.9101 15.039 15.9395C15.0673 15.9689 15.0891 16.004 15.1029 16.0423C15.1167 16.0807 15.1223 16.1216 15.1193 16.1623C15.1163 16.203 15.1048 16.2426 15.0855 16.2785M16.9124 15.4758L16.6356 15.0578L17.0729 14.5042L17.5407 14.7008L17.7787 14.4046L15.7803 13.6489L15.5284 13.9617L16.6743 15.7637L16.9124 15.4758ZM15.8965 14.006L16.7906 14.4046L16.4501 14.8225L15.8965 14.006ZM18.4098 13.9174L17.8784 13.2144L18.3766 12.8407L18.1995 12.6054L17.7012 12.9791L17.3691 12.539L17.8895 12.1487L17.7123 11.9106L16.8819 12.5279L18.0998 14.1444L18.4098 13.9174ZM19.016 11.4595L19.7634 13.0123L20.0983 12.849L19.3399 11.2961L19.744 11.0996L19.6139 10.8228L18.4707 11.3764L18.6008 11.6532L19.016 11.4595ZM21.4795 12.3369L21.2525 11.4844L21.856 11.3238L21.7785 11.047L21.175 11.2076L21.0339 10.6761L21.6622 10.5073L21.5847 10.2305L20.5965 10.5073L21.1197 12.4615L21.4795 12.3369ZM22.9715 11.5729L23.6662 11.548L23.8323 12.0297H24.2143L23.4918 10.0312H23.0849L22.4788 12.0767H22.8497L22.9715 11.5729ZM23.2787 10.3329L23.5555 11.2712L23.0379 11.2961L23.2787 10.3329ZM25.2163 11.2685L25.8031 11.3847L25.6343 12.2594L25.9969 12.3286L26.3844 10.344L26.0467 10.2748L25.8889 11.0802L25.2993 10.9668L25.4571 10.1585L25.0917 10.0893L24.7042 12.0739L25.0696 12.1459L25.2163 11.2685ZM27.2867 11.8857L27.3615 11.9189C27.4208 11.9434 27.4698 11.9876 27.5001 12.0442C27.5304 12.1007 27.5401 12.166 27.5275 12.229L27.4307 12.9099L27.7877 13.076L27.8735 12.2677C27.8957 12.0684 27.8348 11.9909 27.7711 11.9605C27.8813 11.9929 27.9997 11.9824 28.1024 11.931C28.2051 11.8797 28.2846 11.7913 28.3247 11.6837C28.4825 11.3487 28.3247 11.0969 28.0036 10.9446L27.4334 10.6678L26.6003 12.5168L26.938 12.6718L27.2867 11.8857ZM27.6549 11.0969L27.7933 11.1577C27.9815 11.2463 28.0701 11.3515 27.9704 11.5619C27.9571 11.6039 27.9339 11.6422 27.9028 11.6734C27.8717 11.7047 27.8335 11.7281 27.7916 11.7416C27.7496 11.7551 27.705 11.7585 27.6615 11.7513C27.6179 11.7441 27.5768 11.7266 27.5414 11.7003L27.403 11.6394L27.6549 11.0969ZM28.2278 13.3306L29.2354 14.0641L29.4125 13.8288L28.7593 13.3361L30.2568 12.6857L30.4422 12.4393L29.479 11.7141L29.3018 11.9494L29.9218 12.431L28.441 13.0704L28.2278 13.3306ZM30.4422 15.3761L30.6637 15.1768L30.1986 14.6454L30.6415 14.244L31.0816 14.7312L31.3003 14.5347L30.863 14.0475L31.2643 13.6877L31.7293 14.2025L31.948 14.0032L31.2366 13.2144L29.7336 14.5679L30.4422 15.3761ZM33.1908 16.0847L33.0164 15.7581L31.8594 16.3726C31.5633 16.5304 31.4165 16.4889 31.3058 16.3034C31.1951 16.118 31.2532 15.9713 31.5494 15.8135L32.7064 15.1962L32.5348 14.8696L31.3778 15.4841C31.292 15.5229 31.215 15.5789 31.1517 15.6486C31.0883 15.7183 31.0399 15.8002 31.0095 15.8893C30.9791 15.9785 30.9672 16.0729 30.9747 16.1668C30.9821 16.2607 31.0088 16.352 31.0529 16.4352C31.0971 16.5184 31.1578 16.5917 31.2314 16.6505C31.305 16.7093 31.3898 16.7524 31.4807 16.7771C31.5716 16.8019 31.6666 16.8077 31.7598 16.7943C31.853 16.7809 31.9425 16.7486 32.0227 16.6992L33.1908 16.0847ZM33.8662 18.0223C33.787 17.765 33.6111 17.5483 33.3755 17.4179C33.1399 17.2875 32.863 17.2535 32.6028 17.323C32.3426 17.3925 32.1196 17.5601 31.9804 17.7907C31.8413 18.0212 31.7969 18.2967 31.8567 18.5593C31.8965 18.7443 31.98 18.917 32.1002 19.0631L33.1216 18.7863L32.9666 18.1441L32.6898 18.2161L32.7701 18.515L32.2442 18.6562C32.2011 18.5973 32.17 18.5306 32.1528 18.4597C32.0532 18.0915 32.2802 17.8203 32.7064 17.7012C33.1327 17.5822 33.4815 17.7012 33.5839 18.0943C33.6267 18.2529 33.6267 18.4201 33.5839 18.5787L33.9105 18.5123C33.928 18.3449 33.913 18.1757 33.8662 18.014M18.3323 26.9158C18.1199 26.7475 17.8502 26.6688 17.5806 26.6962C17.311 26.7237 17.0627 26.8552 16.8886 27.0629C16.7145 27.2706 16.6282 27.538 16.6482 27.8082C16.6681 28.0785 16.7927 28.3303 16.9954 28.5102C17.1337 28.6396 17.3006 28.7344 17.4826 28.787L18.1607 27.976L17.6597 27.5552L17.477 27.7739L17.7123 27.9704L17.3608 28.3884C17.2913 28.3656 17.2273 28.3289 17.1726 28.2804C16.8819 28.0369 16.9096 27.6826 17.203 27.3338C17.4964 26.985 17.8452 26.8992 18.1469 27.1511C18.2737 27.2552 18.3695 27.3921 18.4237 27.5469L18.6534 27.3033C18.5714 27.1569 18.4625 27.0273 18.3323 26.9214M18.4707 29.5288L19.4368 30.0436L19.5752 29.7834L18.9385 29.443L19.2153 28.9171L19.7938 29.2243L19.9322 28.9641L19.3537 28.6569L19.6056 28.1808L20.2173 28.5046L20.3557 28.2445L19.4146 27.7462L18.4707 29.5288ZM22.0387 30.3232L22.0663 28.7344L21.6235 28.6403L21.0007 30.1018L21.0477 28.5157L20.7073 28.4438L20.6879 30.5087L21.1169 30.6L21.7729 29.0472L21.7231 30.7301L22.1577 30.8242L22.9881 28.9337L22.6587 28.8645L22.0387 30.3232ZM23.9596 30.6277L23.9402 30.0298L24.5935 30.0077V29.7115L23.9402 29.7336L23.9209 29.1939L24.6129 29.1717V28.8783L23.55 28.9143L23.6192 30.9349L24.7125 30.8962V30.6L23.9596 30.6277ZM26.3761 29.5399C26.4796 29.4956 26.563 29.4145 26.6101 29.3121C26.6571 29.2098 26.6645 29.0937 26.6307 28.9863C26.5366 28.6292 26.257 28.5351 25.911 28.6264L25.2993 28.7897L25.8225 30.7439L26.1823 30.6471L25.9581 29.8167L26.0384 29.7945C26.0995 29.775 26.1654 29.7773 26.225 29.8011C26.2846 29.8248 26.334 29.8685 26.365 29.9246L26.7276 30.5087L27.1096 30.4062L26.6556 29.7309C26.5449 29.5648 26.4536 29.5509 26.3788 29.562M26.0328 29.5122L25.8861 29.5509L25.7311 28.9752L25.8751 28.9364C26.0771 28.8811 26.21 28.906 26.2709 29.1302C26.2843 29.171 26.2885 29.2142 26.2834 29.2568C26.2782 29.2994 26.2638 29.3404 26.2411 29.3768C26.2184 29.4132 26.188 29.4442 26.152 29.4676C26.116 29.491 26.0753 29.5062 26.0328 29.5122ZM28.3939 28.643C28.471 28.5723 28.5209 28.4769 28.5351 28.3733C28.5492 28.2697 28.5267 28.1644 28.4714 28.0756C28.3109 27.7739 28.0673 27.7241 27.7019 27.9206L27.1788 28.1974L28.131 29.9855L28.6846 29.7087C28.7594 29.6797 28.827 29.6347 28.8828 29.577C28.9385 29.5192 28.981 29.45 29.0074 29.3742C29.0337 29.2983 29.0432 29.2177 29.0353 29.1378C29.0273 29.0579 29.0021 28.9807 28.9614 28.9115C28.9151 28.8099 28.8333 28.7287 28.7313 28.6833C28.6293 28.6379 28.5142 28.6315 28.4078 28.6652M27.6327 28.286L27.7933 28.2002C27.8251 28.18 27.8608 28.1665 27.898 28.1606C27.9353 28.1547 27.9734 28.1564 28.0099 28.1658C28.0465 28.1751 28.0807 28.1918 28.1106 28.2149C28.1404 28.2379 28.1653 28.2668 28.1836 28.2998C28.2056 28.333 28.2203 28.3706 28.2265 28.4099C28.2327 28.4493 28.2303 28.4895 28.2196 28.5279C28.2088 28.5663 28.1898 28.6019 28.164 28.6323C28.1382 28.6626 28.1062 28.6871 28.0701 28.7039L27.9012 28.7925L27.6327 28.286ZM28.5019 29.4845L28.3192 29.5814L28.0285 29.0278L28.2002 28.9364C28.2365 28.9166 28.2764 28.9042 28.3176 28.8998C28.3587 28.8954 28.4004 28.8992 28.4401 28.9109C28.4798 28.9225 28.5168 28.9419 28.549 28.9679C28.5812 28.9939 28.608 29.026 28.6278 29.0624C28.6476 29.0987 28.6601 29.1386 28.6645 29.1798C28.6689 29.221 28.6651 29.2626 28.6534 29.3023C28.6417 29.342 28.6223 29.379 28.5963 29.4112C28.5703 29.4435 28.5382 29.4702 28.5019 29.49M30.1986 28.1808L29.7973 27.7379L30.2844 27.3006L30.0879 27.0791L29.6008 27.5192L29.2409 27.1207L29.7558 26.6556L29.5565 26.4342L28.7676 27.1456L30.1211 28.6513L30.9322 27.9178L30.7356 27.6992L30.1986 28.1808ZM23.7271 8.49219C21.3562 8.49219 19.0385 9.19521 17.0672 10.5124C15.0958 11.8295 13.5593 13.7016 12.6518 15.892C11.7444 18.0824 11.5068 20.4926 11.9692 22.818C12.4315 25.1434 13.573 27.2795 15.2493 28.9562C16.9256 30.6328 19.0614 31.7748 21.3867 32.2377C23.7119 32.7006 26.1223 32.4636 28.3128 31.5566C30.5034 30.6497 32.3759 29.1136 33.6935 27.1425C35.0111 25.1715 35.7147 22.854 35.7152 20.4831C35.7152 17.3034 34.4523 14.2539 32.2041 12.0052C29.956 9.75657 26.9068 8.49292 23.7271 8.49219ZM31.8594 28.6071C29.9796 30.4866 27.5063 31.6562 24.8608 31.9166C22.2153 32.1769 19.5614 31.512 17.3513 30.0349C15.1411 28.5579 13.5115 26.3603 12.74 23.8164C11.9686 21.2726 12.1031 18.5399 13.1205 16.0841C14.138 13.6283 15.9755 11.6012 18.32 10.3483C20.6645 9.09544 23.3709 8.69423 25.978 9.21306C28.5851 9.73189 30.9317 11.1387 32.6179 13.1937C34.3041 15.2487 35.2255 17.8248 35.2253 20.4831C35.2273 21.9922 34.9309 23.4868 34.3533 24.881C33.7756 26.2752 32.9281 27.5415 31.8594 28.6071ZM19.2901 14.7201C18.8724 15.1231 18.5219 15.5903 18.2521 16.1041C18.0971 16.3809 17.9504 16.6577 17.8147 16.9345C17.7483 17.0757 17.5185 17.6182 17.4604 17.7428C17.4023 17.8673 16.8238 18.1469 16.7961 18.634V24.4274C16.7961 24.6848 16.7407 25.0917 17.0535 25.1941C17.3201 25.2561 17.5944 25.2776 17.8673 25.2578C18.1211 25.2774 18.3765 25.2549 18.623 25.1914C18.8998 25.0945 18.8998 24.8177 18.8998 24.5575V23.5223C20.317 23.6219 21.9667 23.6718 23.6053 23.6718H23.6358C25.2661 23.6718 26.9158 23.6219 28.3413 23.5223V24.5547C28.3413 24.8149 28.3164 25.0917 28.6181 25.1886C28.8647 25.2521 29.12 25.2746 29.3738 25.255C29.6467 25.2748 29.921 25.2534 30.1876 25.1914C30.5003 25.089 30.445 24.6821 30.445 24.4247V18.6368C30.4173 18.1469 29.8554 17.9005 29.7834 17.7455C29.7115 17.5905 29.5066 17.0757 29.4264 16.9373C29.2935 16.6605 29.1496 16.3837 28.9918 16.1069C28.7212 15.5928 28.3698 15.1255 27.951 14.7229C27.5321 14.3402 27.0072 14.0932 26.4453 14.0143C25.7838 13.9386 25.1176 13.9127 24.4523 13.9368H22.7888C22.1235 13.9127 21.4573 13.9386 20.7958 14.0143C20.2339 14.0932 19.709 14.3402 19.2901 14.7229M17.7649 20.1924C17.7649 20.0817 17.8784 20.0845 17.9448 20.0762C18.2355 20.0762 19.0769 20.126 19.1987 20.1288H19.7025C19.801 20.1331 19.8957 20.168 19.9735 20.2284C20.0513 20.2889 20.1085 20.3721 20.1371 20.4664C20.1834 20.5882 20.1993 20.7194 20.1833 20.8487C20.1674 20.978 20.1202 21.1014 20.0457 21.2083C19.899 21.3605 19.5364 21.3467 19.315 21.3411C19.16 21.3411 18.9939 21.3411 18.8499 21.3411C18.5475 21.3253 18.2615 21.1981 18.0472 20.9841C17.9407 20.8824 17.86 20.7568 17.8119 20.6176C17.7638 20.4785 17.7495 20.3299 17.7704 20.1841M28.8922 22.6531C28.1559 22.7445 27.5635 22.8137 26.7082 22.8607C25.4433 22.9299 23.9402 22.9521 23.6026 22.9549C23.2649 22.9576 21.7646 22.9299 20.4969 22.8607C19.6444 22.8137 19.0492 22.7445 18.313 22.6531C17.8258 22.5923 17.6763 22.249 18.313 22.321C18.7835 22.3736 19.315 22.4317 19.7468 22.4649C21.0975 22.5729 23.1375 22.6033 23.5776 22.6089H23.6081C24.051 22.6089 26.0993 22.5729 27.439 22.4649C27.868 22.4317 28.3995 22.3763 28.87 22.321C29.5177 22.249 29.3682 22.5978 28.87 22.6531M23.597 20.6547H23.5749C23.0213 20.6547 22.6919 20.6547 22.1245 20.627C21.6096 20.6104 20.8069 20.5606 20.8069 20.5606C20.7598 20.5638 20.7133 20.5489 20.6768 20.519C20.6634 20.5056 20.6527 20.4897 20.6456 20.4721C20.6385 20.4545 20.635 20.4356 20.6353 20.4166C20.6339 20.397 20.6369 20.3773 20.644 20.359C20.6512 20.3407 20.6623 20.3241 20.6766 20.3106C20.6909 20.2971 20.708 20.287 20.7267 20.2809C20.7454 20.2748 20.7652 20.2729 20.7848 20.2755C20.7848 20.2755 21.593 20.3253 22.1106 20.3474C22.6808 20.3696 23.0019 20.3779 23.5721 20.3806H23.6136C24.1838 20.3806 24.5049 20.3806 25.0751 20.3474C25.5927 20.328 26.4037 20.2755 26.4037 20.2755C26.423 20.2734 26.4426 20.2756 26.4609 20.2819C26.4793 20.2881 26.496 20.2984 26.51 20.3118C26.524 20.3253 26.5349 20.3416 26.5419 20.3597C26.5488 20.3778 26.5518 20.3973 26.5504 20.4166C26.5511 20.4354 26.5481 20.4542 26.5414 20.4717C26.5348 20.4893 26.5247 20.5054 26.5117 20.519C26.4749 20.5484 26.4286 20.5632 26.3816 20.5606C26.3816 20.5606 25.5789 20.6104 25.064 20.627C24.5105 20.6464 24.1783 20.6547 23.6136 20.6547H23.5915H23.597ZM20.7598 21.1114L21.7148 21.164L22.0857 21.1806C22.667 21.2027 22.9936 21.211 23.5749 21.2138H23.6164C24.1977 21.2138 24.5243 21.2138 25.1056 21.1806L25.4765 21.164L26.4314 21.1114C26.4554 21.1085 26.4797 21.1119 26.5019 21.1211C26.5242 21.1303 26.5438 21.1451 26.5588 21.164C26.5753 21.1895 26.584 21.2194 26.5837 21.2498C26.5837 21.3328 26.5283 21.3937 26.4148 21.3937C26.4148 21.3937 25.6093 21.4408 25.0945 21.4601C24.5188 21.4823 24.1949 21.4878 23.6192 21.4878H23.5776C23.0019 21.4878 22.6781 21.4878 22.1023 21.4601C21.5875 21.4435 20.782 21.3937 20.782 21.3937C20.6657 21.3937 20.6131 21.3328 20.6131 21.2498C20.6123 21.2193 20.621 21.1893 20.6381 21.164C20.6526 21.1453 20.6717 21.1306 20.6935 21.1214C20.7153 21.1122 20.7391 21.1088 20.7626 21.1114M29.4319 20.1924C29.453 20.3382 29.4389 20.4869 29.3908 20.626C29.3426 20.7652 29.2618 20.8908 29.1551 20.9924C28.9406 21.2032 28.6557 21.3274 28.3552 21.3411C28.2112 21.3411 28.0479 21.3411 27.8902 21.3411C27.6659 21.3411 27.3061 21.3605 27.1594 21.2083C27.0847 21.1015 27.0373 20.978 27.0214 20.8487C27.0055 20.7194 27.0215 20.5881 27.0681 20.4664C27.1001 20.3784 27.1573 20.3018 27.2326 20.2462C27.308 20.1906 27.398 20.1584 27.4916 20.1537H27.9981C28.1171 20.1537 28.9614 20.1011 29.252 20.1011C29.3184 20.1011 29.4181 20.1011 29.4291 20.2173M23.597 14.4046C24.4274 14.4046 25.208 14.4046 25.5346 14.4323C25.86 14.4359 26.1844 14.4701 26.5034 14.5347C27.069 14.6823 27.582 14.9853 27.9843 15.4094C28.3611 15.8142 28.6629 16.2828 28.8755 16.7933C29.0365 17.1046 29.169 17.4298 29.2714 17.7649C29.2714 17.7649 28.2112 17.6071 27.9704 17.5878C27.5414 17.5545 27.0902 17.4881 26.6446 17.4549C26.1989 17.4217 24.5326 17.3303 24.1036 17.3276H23.0877C22.6587 17.3276 20.9508 17.4217 20.5467 17.4549C20.1011 17.4881 19.6499 17.5518 19.2209 17.5878C18.98 17.6071 17.9171 17.7649 17.9171 17.7649C18.0201 17.4296 18.1535 17.1043 18.3157 16.7933C18.5278 16.2825 18.8297 15.8138 19.207 15.4094C19.6069 14.9738 20.1224 14.6608 20.6934 14.507C21.0124 14.4426 21.3368 14.4083 21.6622 14.4046C21.9833 14.388 22.7694 14.3769 23.5998 14.3769" fill="#003460"/>
        <path d="M112.773 24.8786C112.773 24.851 112.778 24.8237 112.789 24.7981C112.799 24.7726 112.815 24.7494 112.834 24.7299C112.854 24.7104 112.877 24.6949 112.903 24.6843C112.928 24.6737 112.956 24.6683 112.983 24.6683H116.141C116.455 24.6661 116.767 24.7258 117.058 24.8439C117.349 24.9621 117.614 25.1364 117.837 25.357C118.061 25.5775 118.239 25.8399 118.361 26.1293C118.483 26.4186 118.547 26.7291 118.55 27.0432C118.55 28.059 117.877 28.8867 116.916 29.2742L118.428 32.0781C118.449 32.1105 118.461 32.1481 118.462 32.1868C118.463 32.2255 118.453 32.2637 118.433 32.2971C118.414 32.3305 118.385 32.3578 118.351 32.3758C118.317 32.3939 118.278 32.402 118.24 32.3992H117.08C117.044 32.4013 117.008 32.393 116.977 32.3754C116.945 32.3577 116.919 32.3314 116.903 32.2996L115.433 29.3738H114.207V32.1889C114.207 32.2447 114.184 32.2982 114.145 32.3376C114.106 32.3771 114.052 32.3992 113.996 32.3992H112.98C112.925 32.3992 112.871 32.3771 112.832 32.3376C112.792 32.2982 112.77 32.2447 112.77 32.1889L112.773 24.8786ZM116.006 28.1808C116.21 28.1731 116.408 28.1108 116.58 28.0004C116.751 27.89 116.89 27.7355 116.982 27.5531C117.073 27.3708 117.114 27.1671 117.1 26.9635C117.086 26.7599 117.018 26.5637 116.903 26.3955C116.817 26.2747 116.706 26.1748 116.576 26.1033C116.447 26.0319 116.303 25.9908 116.155 25.9831H114.218V28.1808H116.006Z" fill="#003460"/>
        <path d="M106.11 24.6709H110.603C110.63 24.6709 110.658 24.6763 110.683 24.6869C110.709 24.6975 110.732 24.713 110.751 24.7325C110.771 24.752 110.786 24.7752 110.797 24.8008C110.808 24.8263 110.813 24.8536 110.813 24.8813V25.7864C110.813 25.8422 110.791 25.8957 110.751 25.9351C110.712 25.9746 110.658 25.9968 110.603 25.9968H107.334V27.807H110.06C110.116 27.807 110.169 27.8292 110.209 27.8686C110.248 27.9081 110.271 27.9616 110.271 28.0174V28.9336C110.271 28.9894 110.248 29.0429 110.209 29.0823C110.169 29.1218 110.116 29.1439 110.06 29.1439H107.334V31.0815H110.603C110.658 31.0815 110.712 31.1037 110.751 31.1431C110.791 31.1826 110.813 31.2361 110.813 31.2919V32.197C110.813 32.2528 110.791 32.3063 110.751 32.3458C110.712 32.3852 110.658 32.4074 110.603 32.4074H106.11C106.054 32.4074 106.001 32.3852 105.962 32.3458C105.922 32.3063 105.9 32.2528 105.9 32.197V24.8785C105.901 24.8232 105.923 24.7704 105.962 24.7315C106.002 24.6927 106.055 24.6709 106.11 24.6709Z" fill="#003460"/>
        <path d="M97.322 24.8786C97.3234 24.8232 97.346 24.7705 97.3852 24.7314C97.4243 24.6922 97.477 24.6696 97.5324 24.6682H98.5676C98.6234 24.6682 98.6769 24.6904 98.7164 24.7298C98.7558 24.7693 98.778 24.8228 98.778 24.8786V27.8043H102.255V24.8786C102.255 24.851 102.26 24.8236 102.271 24.7981C102.281 24.7726 102.297 24.7494 102.316 24.7298C102.336 24.7103 102.359 24.6948 102.384 24.6842C102.41 24.6737 102.437 24.6682 102.465 24.6682H103.481C103.536 24.6696 103.589 24.6922 103.628 24.7314C103.667 24.7705 103.69 24.8232 103.691 24.8786V32.1888C103.69 32.2442 103.667 32.2968 103.628 32.336C103.589 32.3752 103.536 32.3978 103.481 32.3992H102.443C102.415 32.3992 102.388 32.3937 102.362 32.3832C102.337 32.3726 102.314 32.3571 102.294 32.3376C102.274 32.318 102.259 32.2948 102.248 32.2693C102.238 32.2438 102.232 32.2164 102.232 32.1888V29.144H98.7697V32.1888C98.7697 32.2164 98.7642 32.2438 98.7537 32.2693C98.7431 32.2948 98.7276 32.318 98.7081 32.3376C98.6885 32.3571 98.6653 32.3726 98.6398 32.3832C98.6143 32.3937 98.5869 32.3992 98.5593 32.3992H97.5324C97.477 32.3978 97.4243 32.3752 97.3852 32.336C97.346 32.2968 97.3234 32.2442 97.322 32.1888V24.8786Z" fill="#003460"/>
        <path d="M92.9236 24.5603C93.4145 24.5476 93.9031 24.6318 94.3614 24.808C94.8197 24.9842 95.2388 25.249 95.5947 25.5873C95.617 25.6065 95.6348 25.6303 95.6471 25.657C95.6593 25.6838 95.6657 25.7128 95.6657 25.7423C95.6657 25.7717 95.6593 25.8007 95.6471 25.8275C95.6348 25.8542 95.617 25.878 95.5947 25.8973L94.9221 26.592C94.9055 26.6128 94.8845 26.6296 94.8605 26.6411C94.8365 26.6526 94.8103 26.6586 94.7837 26.6586C94.7571 26.6586 94.7309 26.6526 94.7069 26.6411C94.683 26.6296 94.6619 26.6128 94.6453 26.592C94.175 26.1786 93.5719 25.9477 92.9458 25.9416C92.2809 25.9634 91.6506 26.2429 91.188 26.7209C90.7255 27.199 90.4668 27.8381 90.4668 28.5033C90.4668 29.1685 90.7255 29.8077 91.188 30.2857C91.6506 30.7637 92.2809 31.0432 92.9458 31.0651C93.5647 31.0593 94.1621 30.837 94.6342 30.4367C94.6717 30.4015 94.7212 30.3819 94.7726 30.3819C94.8241 30.3819 94.8736 30.4015 94.911 30.4367L95.5947 31.1426C95.6145 31.1621 95.6302 31.1854 95.6409 31.2111C95.6516 31.2367 95.6571 31.2643 95.6571 31.2921C95.6571 31.3198 95.6516 31.3474 95.6409 31.373C95.6302 31.3987 95.6145 31.422 95.5947 31.4415C94.8771 32.1387 93.913 32.5237 92.9126 32.5127C91.8584 32.5127 90.8474 32.094 90.1019 31.3485C89.3565 30.6031 88.9377 29.5921 88.9377 28.5379C88.9377 27.4837 89.3565 26.4727 90.1019 25.7273C90.8474 24.9819 91.8584 24.5631 92.9126 24.5631L92.9236 24.5603Z" fill="#003460"/>
        <path d="M85.8182 24.8786C85.8182 24.8228 85.8404 24.7693 85.8799 24.7298C85.9193 24.6904 85.9728 24.6682 86.0286 24.6682H87.0555C87.1113 24.6682 87.1648 24.6904 87.2043 24.7298C87.2437 24.7693 87.2659 24.8228 87.2659 24.8786V32.186C87.2659 32.2418 87.2437 32.2953 87.2043 32.3348C87.1648 32.3742 87.1113 32.3964 87.0555 32.3964H86.0286C85.9728 32.3964 85.9193 32.3742 85.8799 32.3348C85.8404 32.2953 85.8182 32.2418 85.8182 32.186V24.8786Z" fill="#003460"/>
        <path d="M79.0451 31.6462C78.9344 31.5577 78.8901 31.4912 78.9897 31.3141L79.3883 30.6304C79.4062 30.5986 79.4306 30.5711 79.4601 30.5496C79.4895 30.5281 79.5232 30.5132 79.5589 30.5059C79.5946 30.4985 79.6314 30.4989 79.6669 30.507C79.7024 30.5151 79.7358 30.5308 79.7648 30.5529C80.2187 30.8961 80.7142 31.2366 81.4255 31.2366C81.9985 31.2366 82.4303 30.8601 82.4303 30.3868C82.4303 29.8332 81.9542 29.4374 81.0269 29.0609C79.989 28.6402 78.951 27.9787 78.951 26.675C78.951 25.6923 79.6789 24.5547 81.4421 24.5547C82.2387 24.5676 83.0119 24.8256 83.6565 25.2937C83.7109 25.3356 83.7478 25.3961 83.7601 25.4636C83.7724 25.5311 83.7591 25.6008 83.723 25.6591L83.3022 26.2874C83.2869 26.3229 83.2644 26.3547 83.2361 26.3809C83.2078 26.4071 83.1743 26.4271 83.1379 26.4396C83.1014 26.4521 83.0627 26.4568 83.0242 26.4535C82.9858 26.4502 82.9485 26.4389 82.9147 26.4203C82.4386 26.1214 81.9874 25.8141 81.3812 25.8141C80.7751 25.8141 80.4097 26.1684 80.4097 26.5864C80.4097 27.104 80.8193 27.4583 81.7134 27.8237C82.7846 28.2555 84.0219 28.8949 84.0219 30.3148C84.0219 31.4525 83.0393 32.5015 81.4837 32.5015C80.5908 32.5421 79.717 32.2356 79.0451 31.6462Z" fill="#003460"/>
        <path d="M71.5992 24.8786C71.5992 24.851 71.6046 24.8237 71.6152 24.7981C71.6258 24.7726 71.6413 24.7494 71.6608 24.7299C71.6804 24.7104 71.7035 24.6949 71.7291 24.6843C71.7546 24.6737 71.7819 24.6683 71.8096 24.6683H74.9678C75.2819 24.6661 75.5933 24.7258 75.8843 24.8439C76.1753 24.9621 76.4402 25.1364 76.6638 25.357C76.8874 25.5775 77.0654 25.8399 77.1876 26.1293C77.3098 26.4186 77.3738 26.7291 77.376 27.0432C77.376 28.059 76.7034 28.8867 75.7429 29.2742L77.2542 32.0781C77.2754 32.1105 77.2872 32.1481 77.2882 32.1868C77.2892 32.2255 77.2794 32.2637 77.2598 32.2971C77.2402 32.3305 77.2117 32.3578 77.1774 32.3758C77.1432 32.3939 77.1046 32.402 77.066 32.3992H75.9062C75.8702 32.4013 75.8344 32.393 75.803 32.3754C75.7716 32.3577 75.7459 32.3314 75.729 32.2996L74.2592 29.3738H73.033V32.1889C73.033 32.2447 73.0109 32.2982 72.9714 32.3376C72.9319 32.3771 72.8784 32.3992 72.8226 32.3992H71.8068C71.751 32.3992 71.6975 32.3771 71.658 32.3376C71.6186 32.2982 71.5964 32.2447 71.5964 32.1889L71.5992 24.8786ZM74.846 28.2002C75.05 28.1925 75.2481 28.1302 75.4198 28.0198C75.5915 27.9094 75.7303 27.7549 75.822 27.5725C75.9136 27.3901 75.9546 27.1865 75.9407 26.9829C75.9267 26.7793 75.8584 26.5831 75.7429 26.4149C75.6576 26.2941 75.5461 26.1942 75.4166 26.1227C75.2872 26.0513 75.1432 26.0102 74.9955 26.0024H73.0579V28.1808L74.846 28.2002Z" fill="#003460"/>
        <path d="M64.9228 24.6709H69.4152C69.4428 24.6709 69.4702 24.6763 69.4957 24.6869C69.5212 24.6975 69.5444 24.713 69.5639 24.7325C69.5835 24.752 69.599 24.7752 69.6095 24.8008C69.6201 24.8263 69.6256 24.8536 69.6256 24.8813V25.7864C69.6256 25.8422 69.6034 25.8957 69.5639 25.9351C69.5245 25.9746 69.471 25.9968 69.4152 25.9968H66.149V27.807H68.8754C68.9312 27.807 68.9847 27.8292 69.0242 27.8686C69.0636 27.9081 69.0858 27.9616 69.0858 28.0174V28.9336C69.0858 28.9894 69.0636 29.0429 69.0242 29.0823C68.9847 29.1218 68.9312 29.1439 68.8754 29.1439H66.149V31.0815H69.418C69.4738 31.0815 69.5273 31.1037 69.5667 31.1431C69.6062 31.1826 69.6283 31.2361 69.6283 31.2919V32.197C69.6283 32.2528 69.6062 32.3063 69.5667 32.3458C69.5273 32.3852 69.4738 32.4074 69.418 32.4074H64.9228C64.867 32.4074 64.8135 32.3852 64.774 32.3458C64.7346 32.3063 64.7124 32.2528 64.7124 32.197V24.8785C64.7131 24.8232 64.7356 24.7704 64.775 24.7315C64.8144 24.6927 64.8675 24.6709 64.9228 24.6709Z" fill="#003460"/>
        <path d="M55.8522 24.956C55.8376 24.9254 55.8312 24.8916 55.8338 24.8578C55.8364 24.824 55.8477 24.7915 55.8668 24.7635C55.8858 24.7355 55.9119 24.713 55.9423 24.6982C55.9728 24.6834 56.0066 24.6768 56.0404 24.6792H57.167C57.2068 24.6786 57.246 24.6899 57.2795 24.7116C57.313 24.7332 57.3393 24.7644 57.3552 24.801L59.4865 29.548H59.5419L61.6732 24.801C61.6891 24.7644 61.7154 24.7332 61.7489 24.7116C61.7824 24.6899 61.8215 24.6786 61.8614 24.6792H62.988C63.0218 24.6768 63.0556 24.6834 63.0861 24.6982C63.1165 24.713 63.1426 24.7355 63.1616 24.7635C63.1807 24.7915 63.192 24.824 63.1946 24.8578C63.1972 24.8916 63.1908 24.9254 63.1762 24.956L59.7495 32.388C59.7339 32.4248 59.7077 32.4561 59.6741 32.4779C59.6405 32.4996 59.6012 32.5107 59.5613 32.5098H59.4505C59.4106 32.5107 59.3712 32.4996 59.3377 32.4779C59.3041 32.4561 59.2778 32.4248 59.2623 32.388L55.8522 24.956Z" fill="#003460"/>
        <path d="M140.58 24.5518C141.572 24.5631 142.528 24.9271 143.276 25.5788C143.297 25.5987 143.314 25.6227 143.325 25.6494C143.337 25.676 143.343 25.7047 143.343 25.7338C143.343 25.7628 143.337 25.7915 143.325 25.8182C143.314 25.8448 143.297 25.8688 143.276 25.8888L142.592 26.6057C142.575 26.6248 142.553 26.6401 142.529 26.6505C142.505 26.6609 142.48 26.6663 142.454 26.6663C142.428 26.6663 142.402 26.6609 142.378 26.6505C142.354 26.6401 142.333 26.6248 142.315 26.6057C141.856 26.1921 141.259 25.9642 140.641 25.9663C139.965 25.9663 139.318 26.2346 138.84 26.7121C138.362 27.1897 138.094 27.8374 138.094 28.5128C138.094 29.1882 138.362 29.8359 138.84 30.3135C139.318 30.7911 139.965 31.0593 140.641 31.0593C141.093 31.054 141.54 30.96 141.956 30.7826V29.3681H141.073C141.046 29.3692 141.019 29.3649 140.993 29.3554C140.968 29.346 140.945 29.3315 140.925 29.3129C140.906 29.2943 140.89 29.272 140.879 29.2473C140.868 29.2225 140.863 29.1958 140.862 29.1688V28.3966C140.862 28.3408 140.884 28.2873 140.924 28.2478C140.963 28.2084 141.017 28.1862 141.073 28.1862H143.182C143.238 28.1862 143.291 28.2084 143.33 28.2478C143.37 28.2873 143.392 28.3408 143.392 28.3966V31.5991C143.396 31.634 143.389 31.6691 143.373 31.7005C143.358 31.7318 143.334 31.7581 143.304 31.7763C142.467 32.2469 141.523 32.4939 140.563 32.4932C139.51 32.4932 138.499 32.0747 137.755 31.3298C137.01 30.5849 136.591 29.5746 136.591 28.5211C136.591 27.4677 137.01 26.4574 137.755 25.7125C138.499 24.9676 139.51 24.5491 140.563 24.5491L140.58 24.5518Z" fill="#003460"/>
        <path d="M128.719 24.552H128.863C128.906 24.5523 128.948 24.5612 128.987 24.5784C129.026 24.5955 129.061 24.6204 129.09 24.6516L133.58 29.4347H133.602V24.8592C133.602 24.8035 133.624 24.7499 133.663 24.7105C133.703 24.671 133.756 24.6489 133.812 24.6489H134.828C134.884 24.6489 134.937 24.671 134.977 24.7105C135.016 24.7499 135.038 24.8035 135.038 24.8592V32.283C135.038 32.3387 135.016 32.3923 134.977 32.4317C134.937 32.4712 134.884 32.4933 134.828 32.4933H134.695C134.651 32.4935 134.608 32.4844 134.568 32.4668C134.528 32.4491 134.492 32.4233 134.463 32.3909L129.956 27.4335H129.934V32.1833C129.934 32.2391 129.912 32.2926 129.873 32.3321C129.833 32.3715 129.78 32.3937 129.724 32.3937H128.719C128.663 32.3937 128.61 32.3715 128.57 32.3321C128.531 32.2926 128.509 32.2391 128.509 32.1833V24.7624C128.509 24.7066 128.531 24.6531 128.57 24.6136C128.61 24.5742 128.663 24.552 128.719 24.552Z" fill="#003460"/>
        <path d="M126.272 24.6654H125.223C125.167 24.6654 125.114 24.6875 125.074 24.727C125.035 24.7664 125.013 24.8199 125.013 24.8757V29.4374C125.013 30.3757 124.459 31.0677 123.352 31.0677C122.245 31.0677 121.691 30.3757 121.691 29.4374V24.873C121.691 24.8172 121.669 24.7637 121.63 24.7242C121.59 24.6848 121.537 24.6626 121.481 24.6626H120.432C120.376 24.664 120.324 24.6866 120.285 24.7258C120.245 24.7649 120.223 24.8176 120.221 24.873V29.5121C120.221 31.1895 121.467 32.5015 123.338 32.5015C125.209 32.5015 126.455 31.1895 126.455 29.5121V24.873C126.454 24.8225 126.435 24.774 126.401 24.7361C126.368 24.6981 126.322 24.6731 126.272 24.6654Z" fill="#003460"/>
    </g>
    <defs>
        <clipPath id="clip0_16_291">
            <rect width="143.409" height="40" fill="white"/>
        </clipPath>
    </defs>
</svg>