<svg width="75" height="60" viewBox="0 0 75 60" fill="none" xmlns="http://www.w3.org/2000/svg"><path fill-rule="evenodd" clip-rule="evenodd" d="M61.028 39.864l1.588-.582c2.258-.915 2.592-1.498 2.425-2.995v-5.991c1.672 4.327 3.344 7.322 6.604 7.322.418 0 .92-.083 1.421-.166l1.254-.25-.92-.998c-.585-.583-.835-1.082-1.17-1.665-.167-.25-.25-.499-.418-.748-.752-1.248-2.591-1.664-4.096-.999-.669-1.331-1.338-3.079-2.174-5.242l-.167-.416c-.167-.333-.25-.666-.418-.998v-.084c-.501-1.164-1.087-2.246-1.672-3.328-.585-.998-1.17-1.83-1.84-2.579-1.755-1.997-4.012-3.245-6.77-3.744-1.923-.333-3.261-.416-5.017-.5-.334 0-.752 0-1.086-.083-.753-.083-2.341-.166-3.93-.332-1.086-.084-2.09-.167-2.926-.25.084-.25.084-.5.084-.749 0-.333 0-.665-.084-.915h11.036c2.842 0 4.932-1.248 6.102-3.744 2.843 0 4.85-1.332 6.103-3.745h.418c2.926 0 5.016-1.33 6.27-3.993l.418-.75H34.778c-2.425 0-4.515 1.582-5.35 4.078V5.5c-.67-1.747-1.756-3.245-3.261-4.16-2.09-1.248-4.431-1.664-6.27-1.082-.585.167-1.254.416-1.756.749-.418.333-1.087.749-1.505 1.331-.501.583-.92 1.331-1.254 1.997-.25.167-.418.333-.501.5l-.418.831v.084c-.502 1.164-1.17 1.997-1.672 2.662-.502.583-.502 1.165-.502 1.498.084.416.251.749.502.998a1.6 1.6 0 00-.251.832c0 .999.836 1.748 1.923 1.748.752 0 1.421-.333 2.09-.832.25-.167 1.003-.666 1.254-.666a.57.57 0 01.585.582c0 .832-1.003 1.248-1.756 1.248l-1.504.167c-1.087.083-1.589.665-1.589 1.165 0 .499.251.832.418.998l.084.083.418.333-1.756 2.663c-1.17-1.082-2.508-1.664-3.678-1.747-.753 0-1.421.166-1.923.665-.167.166-.25.25-.334.416-1.254 0-2.258.666-2.76 1.415-.584.832-.334 2.246.335 3.328l-4.18 1.165v19.303h74.404v-3.827H61.028v-.084zm9.614-5.241c.167.25.25.499.418.665.167.25.334.5.501.832-1.17-.083-2.09-.749-2.842-1.913.669-.333 1.589-.084 1.923.416zM54.507 18.148c2.425.416 4.347 1.498 5.852 3.162.335.333.585.749.92 1.165-4.013-.5-5.434-1.082-7.691-4.493.334 0 .585.083.92.166zm-1.755-5.824h-7.608c.669-.583 1.17-1.332 1.588-2.164h10.283c-.836 1.498-2.257 2.164-4.263 2.164zm6.019-3.661h-7.608a6.606 6.606 0 001.672-2.247h10.283c-.836 1.498-2.257 2.247-4.347 2.247zm.585-5.741h10.2c-1.004 1.33-2.342 1.997-4.264 1.997h-7.608c.669-.583 1.254-1.249 1.672-1.997zm-41.466.332c.251-.332.67-.665 1.087-.998.335-.25.836-.5 1.338-.582.752-.167 1.588-.167 2.424 0L19.98 3.338c-.334 0-.668-.084-1.003-.084-.501 0-.92 0-1.254.084.084 0 .084 0 .167-.084zm-3.176 11.982c0-.083.083-.167.167-.167l1.337.084c1.589-.084 3.26-.75 3.428-2.413 0-1.165-.836-2.247-1.923-2.247-.585 0-1.337.416-2.09.915-.501.333-.92.583-1.17.583-.167 0-.335-.166-.335-.25v-.083l.836-1.165-.752-.499c-.167-.083-.418-.333-.418-.416 0-.083.084-.166.084-.25a6.145 6.145 0 001.003-1.33c.25-.334.334-.5.669-.5.334 0 .668.25.668.666 0 .25.251.416.586.416.334 0 .501-.25.668-.416 0 0 .753-.666.335-.999-.418-.333-2.257.416-1.756-1.248l.167-.25c.168-.25 1.087-.915 2.843-.915.334 0 .669 0 1.087.083h.25l3.846-2.33c0 .084.084.167.084.167.167 1.165-.502 2.496-1.672 3.162l-.502.25.334 1.747c-1.003.333-1.672 1.081-1.672 1.997 0 .332.084.748.168 1.165.083.582.25 1.164.25 1.747 0 1.83-2.508 2.995-4.598 2.912h-.083c-.084 0-1.421-.083-1.756-.333-.083.083-.083 0-.083-.083zm-9.53 5.658c.334-.5 1.002-.832 1.838-.749l.67.083.25-.582c.084-.167.167-.333.25-.416.168-.167.502-.25.837-.25.92 0 2.09.666 3.01 1.664.334.333.668.832.919 1.248.084.084.084.167.167.25.084.083.167.25.167.25 0 .083.502.748.502.832.334-.416.669-.916.92-1.332v-.083c-.084-.166-.251-.416-.335-.582l-.083-.084s-.084-.083-.084-.166a2.588 2.588 0 00-.334-.5l2.006-3.161c.502.083.92.083 1.17.083h.084c2.842 0 5.768-1.664 5.768-4.326v-.084c0-.748-.167-1.414-.25-1.997-.084-.416-.168-.748-.168-.915 0-.333.418-.665 1.004-.665h.92l-.419-2.33c1.254-.915 2.09-2.496 2.007-3.91 1.42 1.08 2.34 2.911 2.508 4.825.083.583-.084 1.331-.251 2.163l-.084.333c-.334 1.332-.836 2.746-1.087 3.412l-.25.582.585.333c1.003.582 1.672.998 1.672 2.33 0 1.58-1.421 2.745-2.759 2.995l-1.923.333L26 21.559c.501.333.836.916.836 1.498 0 .999-.836 1.748-1.84 1.748h-.585l-.167.499c-.585 1.83-1.17 2.745-3.177 2.995v-1.914-.832l-.083-1.747-1.254 1.248c-.418.416-1.17.749-2.007.915v-1.497l-8.778-2.33-3.093.832c-.669-.666-.836-1.83-.669-2.08zm-2.509 18.97L9.03 38.2l6.353 1.664H2.675zm13.543-1.33L8.945 36.62l-7.273 1.913V25.637l7.273-1.914 7.273 1.914v12.896zm3.428-2.497c-.669.915-.752 2.247-.25 3.828h-1.59V27.55a6.965 6.965 0 001.756-.499c0 .5-.083.998-.167 1.498 0 .166-.083.25-.083.416l-.168.915h.92c1.338 0 2.34-.25 3.177-.582v5.158c0 .167-.084.25-.251.25h-.25c-1.338-.083-2.509.416-3.094 1.331zm16.72.333c-.585.666-1.087 1.747-.752 3.495h-9.447c1.003-.084 1.755-.333 2.257-.833.585-.665.669-1.497.669-2.163 0-.083.083-.25.585-.5l.836-.332-.502-.749c-.836-1.248-.418-3.91-.167-5.408h.084c3.177 0 5.267-.666 7.44-1.331.585-.167 1.17-.333 1.756-.583 0 0 .669-.166 1.505-.416l3.093 5.076v.083c.334.416.334.749-.251 1.331l-1.505 1.664-2.508-.499c-1.087-.166-2.34.333-3.093 1.165zm.836 3.495c-.25-1.082-.167-1.914.334-2.497.502-.582 1.17-.665 1.756-.665l2.926.499h.502l2.09-2.247c.334-.416 1.42-1.664.334-3.245l-2.759-4.493c.418-.083.92-.083 1.338-.083 0 0 1.421 0 2.926.832.167.416.501.999.752 1.664.585 1.165 1.338 2.663 1.505 3.245.084.167.25.75-.418 1.498l-5.267 5.575h-6.019v-.084zm18.058 0H45.228l4.263-4.494c.836-.915 1.17-1.997.753-2.995-.168-.582-.753-1.747-1.338-2.995 1.672.749 4.264 1.497 9.53 1.913.67.084.836.25.92.832l.25 2.247-2.758.582c-.92.167-1.672.75-2.006 1.665-.335.998-.168 2.163.418 3.245zm1.086-2.663c.168-.416.418-.666.836-.749l4.097-.915-.335-3.661v-.083c-.083-.5-.418-1.914-2.34-2.08-7.357-.583-9.03-1.665-10.868-2.83l-.084-.083c-1.923-1.248-3.846-1.248-4.013-1.248-2.09 0-4.681.832-4.932.915-.669.167-1.254.417-1.84.583-2.34.749-4.263 1.415-7.607 1.248h-.585l-.167.582c-.084.416-1.087 4.16-.168 6.49-.836.666-.836 1.332-.836 1.498 0 .832-.167.999-.25 1.082-.418.416-1.672.416-2.76.416h-.417l-.251.333c-.669.915-2.09 1.164-3.01.915-.418-1.248-.418-2.163 0-2.746.502-.666 1.422-.749 1.84-.749h.25a1.762 1.762 0 001.756-1.747V27.8c.334-.416.502-.999.752-1.581 1.589-.25 2.843-1.581 2.843-3.245 0-.666-.167-1.248-.502-1.747 1.505-.75 2.759-2.164 2.759-4.077 0-1.914-1.003-2.83-1.923-3.328.251-.75.669-1.997 1.003-3.329l1.254-4.576c.586-1.83 2.09-2.995 3.846-2.995h22.74c-1.004 1.33-2.342 1.997-4.264 1.997H39.543l-.753 1.497h12.373c-1.003 1.498-2.424 2.247-4.43 2.247h-8.946l-.752 1.497h7.942c-1.003 1.498-2.341 2.164-4.347 2.164h-4.85l-.752 1.498h5.1c.084.083.167.332.167.915 0 .998-.836 1.747-1.839 1.747-.334 0-.669-.083-1.17-.333-.251-.083-.418-.166-.67-.25l-1.17 1.082c.251.083.418.167.67.25 1.002.416 1.588.665 2.34.665.92 0 1.756-.415 2.424-.998.836.083 2.258.166 3.679.25 1.672.166 3.177.25 4.013.333.418 0 .752 0 1.17.083.669 0 1.338.083 1.923.083 3.093 4.992 4.681 5.658 10.7 6.407.418.748.837 1.58 1.17 2.412V36.953c-.25.25-1.17.666-1.42.75l-5.1 2.08c-.669-.916-.92-1.831-.669-2.58zM14.63 27.633l-4.849-1.248v1.581l4.849 1.248v-1.58zM3.344 29.214l4.849-1.248v-1.58l-4.849 1.247v1.581zm0 3.162l4.849-1.248v-1.58l-4.849 1.247v1.581zm11.286-1.58l-4.849-1.249v1.581l4.849 1.248v-1.58zm0 3.161l-4.849-1.248v1.58l4.849 1.249v-1.581zm-11.286 1.58l4.849-1.247v-1.581l-4.849 1.248v1.58zM68.301 55.34c-.418 3.495-1.338 3.994-3.846 3.994h-.167v-11.15h1.589v-.581h-5.183v.582h1.588v11.233h-1.254L56.43 47.27h-.669s-3.845 10.983-3.845 11.066c0 0-.251.915-.92 1.082-.585 0-.502-.25-.502-.416v-2.164c0-.582-.083-1.83-.585-2.413-.669-.665-1.755-.665-1.755-.749 0 0 2.842-.582 2.842-3.245 0-1.913-1.338-2.828-3.511-2.912h-6.187v.583h1.589v11.232h-1.589v.583h5.1v-.583H44.81v-5.408h2.09c3.678.333-.67 5.99 4.18 5.99h3.01v-.582c-.168 0-1.255 0-1.338-.748-.084-.583.752-2.58.752-2.58h4.18s1.254 3.328 1.338 3.328H57.6v.583h11.286V55.34h-.585zm-21.485-1.996H44.81v-5.16H47.4c1.505.25 1.589 1.998 1.589 2.497 0 1.331-.586 2.663-2.174 2.663zm7.022 2.163l1.84-5.325 1.922 5.325h-3.762zm-18.726-7.405c3.177 0 4.43-.167 4.932 3.744h.335v-4.327H27.672v.583h.334c.418 0 1.505 0 1.588.998v7.156l-5.935-8.737h-3.26v.583h.501c.669 0 1.505 0 1.588.998v9.153c0 .915-1.337 1.248-1.922 1.248v.416h4.43V59.5c-.585 0-1.922-.333-1.922-1.248v-8.071c2.34 3.328 6.771 9.735 6.855 9.735h.25V49.1c.084-.915 1.087-.998 1.589-.998h1.421v11.232h-1.672v.583h9.029V55.34h-.418c-.418 3.495-1.338 3.994-3.846 3.994h-1.17v-5.408h.669c1.087 0 1.755.666 2.006 2.58h.418v-5.659h-.418s-.083 2.413-2.006 2.413h-.585v-5.158h-.084zm39.375.083v-.666h-5.1v.666h1.59v11.15h-1.59v.582h5.1v-.583h-1.671v-11.15h1.671zM14.296 53.26v-5.075c3.176 0 4.347-.166 4.932 3.744h.334v-4.327h-8.778v.583h1.505v11.233h-1.672V60h9.029v-4.576h-.418c-.418 3.494-1.338 3.994-3.846 3.994h-1.17v-5.409h.669c1.087 0 1.755.666 2.006 2.58h.418V50.93h-.418s-.083 2.413-2.006 2.413h-.585v-.084zm-3.595.167H5.768v.582H7.44v3.994c-.25.998-1.839 1.415-2.257 1.415-3.177 0-2.926-4.577-2.926-5.825 0-1.081-.083-5.824 2.926-5.824 2.174 0 3.26 2.08 3.679 3.994h.334V47.27s-1.505 1.081-1.505.998c0 0-.669-.998-2.591-.998-3.679 0-5.1 3.66-5.1 6.24 0 2.33 1.087 6.407 5.1 6.407 1.254 0 2.09-.666 2.591-1.331l1.589 1.248v-5.908h1.337v-.5h.084z" fill="#C21B17"/></svg>