<svg width="1024" height="1024" viewBox="0 0 1024 1024" fill="none" xmlns="http://www.w3.org/2000/svg">
<rect width="1024" height="1024" fill="white"/>
<rect x="601" y="234" width="88" height="658" fill="#E1B964"/>
<circle cx="332" cy="609.565" r="233" fill="white" stroke="black" stroke-width="90"/>
<path d="M855 549.565H969V887.565H855C855 887.565 857.102 556.816 855 549.565Z" fill="black"/>
<rect x="710.761" y="300.711" width="135.472" height="721.137" transform="rotate(32.6918 710.761 300.711)" fill="white"/>
<path d="M640.5 438.098C673.5 385.632 660.5 588.565 660.5 588.565C522.629 794.182 445.999 900.24 324 887.065C324 887.065 315 833.065 385 790.065C455 747.065 607.5 490.565 640.5 438.098Z" fill="black"/>
<path d="M969.5 557.065C974.17 402.044 827.312 193.579 645 432.422L660 589.065C673.68 571.981 682.749 554.393 693.5 540.598C804.12 371.154 853.53 453.565 856.5 589.065C859.47 724.565 964.83 712.086 969.5 557.065Z" fill="black"/>
<path d="M646 106L728 271C650.309 239.369 628.807 239.165 555 271L646 106Z" fill="#E1B964"/>
<path d="M324.938 483.029C328.55 493.676 335.558 505.341 327.095 510.22C306.287 522.1 283.215 532.591 269.846 559.113C249.685 599.057 243.427 694.094 210.069 715.117C236.268 717.166 258.418 706.33 268.768 691.291C272.595 709.78 286.341 727.408 302.729 736.949C299.926 721.316 301.759 704.929 312.971 687.086C321.866 699.43 329.736 719.052 352.754 727.677C343.913 712.853 345.369 699.215 346.986 682.288C351.73 696.789 367.74 709.241 386.284 714.039C377.227 704.013 373.4 689.512 374.963 678.461C382.834 691.884 398.359 699.161 411.134 699.862C328.496 603.046 384.882 542.671 453.936 595.068C453.666 568.277 437.009 559.113 417.711 543.48C417.226 535.178 412.536 527.685 408.277 520.106C379.33 514.721 342.781 497.46 324.938 483.029ZM368.71 523.394C382.78 529.248 393.615 535.555 399.113 542.509C390.165 540.569 377.659 540.623 361.379 541.916C369.465 536.688 370.273 530.219 368.71 523.394Z" fill="#E1B964"/>
</svg>
