<?xml version="1.0" encoding="UTF-8"?>
<!DOCTYPE svg PUBLIC "-//W3C//DTD SVG 1.1//EN" "http://www.w3.org/Graphics/SVG/1.1/DTD/svg11.dtd">
<!-- Creator: CorelDRAW 2019 (64-Bit) -->
<svg xmlns="http://www.w3.org/2000/svg" xml:space="preserve" width="402.912mm" height="120.308mm" version="1.1" style="shape-rendering:geometricPrecision; text-rendering:geometricPrecision; image-rendering:optimizeQuality; fill-rule:evenodd; clip-rule:evenodd"
viewBox="0 0 43448.83 12973.6"
 xmlns:xlink="http://www.w3.org/1999/xlink"
 xmlns:xodm="http://www.corel.com/coreldraw/odm/2003">
 <defs>
  <style type="text/css">
   <![CDATA[
    .fil1 {fill:#0098A7}
    .fil0 {fill:#003366;fill-rule:nonzero}
    .fil2 {fill:#292929;fill-rule:nonzero}
   ]]>
  </style>
 </defs>
 <g id="Ebene_x0020_1">
  <metadata id="CorelCorpID_0Corel-Layer"/>
  <g id="_2171634689168">
   <path class="fil0" d="M38178.24 0c-116.24,8.67 -216.98,48.93 -303.22,122.2 -97.32,82.02 -181.73,194.17 -253.77,337.36l-3948.87 7560.96c-53.72,127.65 12.33,264.83 156.74,264.83l933.05 0c178.51,0 255.13,-119.06 319.75,-253.3 1542.38,-2999.03 1384.25,-2691.36 2986.55,-5807.7 43.52,-81.91 164.1,-103.57 215.39,-8.08 1606.76,3124.92 1446.97,2814.17 2990.7,5815.77 64.62,134.24 141.23,253.3 319.75,253.3l933.05 0c144.42,0 210.47,-137.18 156.73,-264.83l-3948.86 -7560.96c-72.05,-143.19 -156.45,-255.34 -253.77,-337.36 -86.24,-73.28 -186.98,-113.53 -303.22,-122.2zm-6264.21 39.5l1004.46 0c116.56,0 211.86,95.34 211.86,211.86 0,2427.05 -0.2,4854.11 -0.2,7281.16 0,269.68 -65.73,479.54 -196.82,629.28 -131.27,150.17 -341.29,225.64 -551.15,225.64 -232.84,0 -477.95,-101.69 -680.34,-304.28l-5745.7 -5779.72c0,1922.37 10.86,3846.39 10.86,5770.27 0,116.51 -95.34,211.85 -211.86,211.85l-1004.47 0c-116.51,0 -211.85,-95.3 -211.85,-211.85 0,-2403.37 3.33,-4806.42 3.33,-7209.67 0,-262.04 66.41,-470.87 197.51,-624.43 130.9,-153 348.59,-230.17 573.4,-230.17 105.43,0 206.57,22.21 303.57,67.64 97.32,45.07 211.5,119.54 315.97,224.29l5769.22 5724.12c0,-1924.99 0.36,-3849.41 0.36,-5774.12 0,-116.56 95.3,-211.86 211.86,-211.86zm-10304.16 70.7l1004.46 0c116.56,0 211.86,95.3 211.86,211.86l0 7751.64c0,116.55 -95.3,211.85 -211.86,211.85l-1004.46 0c-116.56,0 -211.86,-95.3 -211.86,-211.85l0 -7751.64c0,-116.56 95.3,-211.86 211.86,-211.86zm-21397.92 0l1004.46 0c116.56,0 211.86,95.3 211.86,211.86l0 7751.64c0,116.55 -95.3,211.85 -211.86,211.85l-1004.46 0c-116.56,0 -211.86,-95.3 -211.86,-211.85l0 -7751.64c0,-116.56 95.3,-211.86 211.86,-211.86zm10221.86 -70.7l1004.46 0c116.56,0 211.86,95.34 211.86,211.86 0,2427.05 -0.19,4854.11 -0.19,7281.16 0,269.68 -65.74,479.54 -196.83,629.28 -131.26,150.17 -341.28,225.64 -551.15,225.64 -232.83,0 -477.94,-101.69 -680.34,-304.28l-5745.69 -5779.72c0,1922.37 10.85,3846.39 10.85,5770.27 0,116.51 -95.34,211.85 -211.86,211.85l-1004.46 0c-116.52,0 -211.86,-95.3 -211.86,-211.85 0,-2403.37 3.34,-4806.42 3.34,-7209.67 0,-262.04 66.41,-470.87 197.5,-624.43 130.9,-153 348.59,-230.17 573.4,-230.17 105.43,0 206.57,22.21 303.57,67.64 97.32,45.07 211.5,119.54 315.97,224.29l5769.22 5724.12c0,-1924.99 0.36,-3849.41 0.36,-5774.12 0,-116.56 95.3,-211.86 211.86,-211.86zm2968.6 70.9l631.9 0 372.56 0 5520.33 0c116.56,0 211.86,95.33 211.86,211.85l0 1004.46c0,116.52 -95.38,211.86 -211.86,211.86l-5308.48 0 0 2116.57 4045.63 0c103.24,0 187.65,84.52 187.65,187.65l0 889.69c0,103.17 -84.52,187.66 -187.65,187.66l-4045.63 0 0 3168.19c0,116.47 -95.37,211.85 -211.86,211.85l-1004.46 0c-116.47,0 -211.86,-95.3 -211.86,-211.85l0 -7766.07c0,-116.55 95.3,-211.85 211.86,-211.85z"/>
   <path class="fil1" d="M42364.15 2200.78l1050.66 1253.72c42.55,50.8 49.58,146.1 -4.21,199.93 -2371.79,2518.32 -6655.6,2944.62 -9726.79,1402.1 -82,-47.34 -95.89,-124.77 -76.34,-180.96l112.83 -324.99c29.63,-85.49 119.74,-127.1 196.09,-98.74 3060.33,1136.63 6156.44,265.97 8205.58,-2254.76 60.52,-62.58 160.52,-81.89 242.18,3.7z"/>
   <path class="fil2" d="M1588.61 11105.67c0,-318.78 -82.04,-550.26 -246.16,-695.41 -164.67,-144.66 -403.98,-217.29 -718.58,-217.29l-357.17 0 0 1814.32 401.91 0c300.36,0 528.64,-75.73 684.87,-227.78 156.78,-151.51 235.13,-376.09 235.13,-673.84zm285.13 -7.88c0,370.82 -105.19,653.84 -315.64,849 -210.93,195.16 -504.44,293.01 -881.61,293.01l-676.49 0 0 -2279.34 631.76 0c189.89,0 359.82,22.12 510.25,66.8 149.93,44.74 279.86,112.59 390.33,203.6 110.47,91 195.16,209.89 253.55,356.13 58.93,146.24 87.85,316.66 87.85,510.79zm696.55 -548.69l0 1690.7 -258.83 0 0 -1690.7 258.83 0zm0 -614.91l0 305.09 -258.83 0 0 -305.09 258.83 0zm1458.68 926.85c-75.78,-89.93 -178.86,-134.66 -310.37,-134.66 -131.51,0 -238.82,46.32 -322.48,139.39 -83.12,93.12 -132.05,220.44 -146.24,381.41l892.16 0c0,-167.28 -37.34,-296.17 -113.08,-386.14zm-259.85 1413.99c-245.18,0 -438.77,-77.85 -580.23,-234.09 -141.01,-156.23 -212.01,-369.77 -212.01,-641.21 0,-261.98 68.39,-474.49 205.16,-637.04 136.78,-163.08 316.67,-245.66 539.72,-248.82 209.35,0 375.6,71.55 498.13,214.63 123.07,143.63 184.13,335.09 184.13,574.4 0,12.12 0,34.75 -0.55,67.9 -0.49,32.61 -1.04,56.26 -1.04,70.45l-1160.43 0c3.15,192.55 52.57,341.95 148.85,449.26 96.28,107.31 225.17,161.51 387.72,161.51 178.86,0 358.2,-47.34 537.6,-142.04l40.5 208.32c-172.01,104.64 -367.71,156.73 -587.56,156.73zm2247.16 -35.23l-687.53 -2279.34 278.77 0 564.46 1961.59 563.91 -1920 300.36 0 547.1 1921.63 568.65 -1963.21 278.78 0 -696.45 2279.34 -290.9 0 -554.99 -1915.82 -582.83 1915.82 -289.33 0zm2753.83 -841.66c0,200.44 44.69,360.87 133.62,481.83 88.89,120.48 218.27,180.97 389.25,180.97 168.36,0 295.62,-59.96 381.35,-180.43 85.78,-119.93 128.36,-281.93 128.36,-485.02 0,-206.7 -42.08,-369.24 -126.77,-488.13 -85.19,-118.35 -214.09,-177.82 -387.67,-177.82 -168.85,0 -297.2,60.51 -385.59,182.01 -88.35,121.01 -132.54,283.56 -132.54,486.6zm1299.28 -4.24c0,261.98 -69.96,474 -209.35,637.04 -139.93,163.08 -332.98,244.09 -579.68,244.09 -237.24,0 -426.1,-82.04 -566.56,-246.16 -139.89,-164.67 -209.85,-375.6 -209.85,-633.38 0,-263.01 69.96,-476.07 210.93,-638.07 140.96,-162.54 334.01,-243.55 579.14,-243.55 241.48,0 431.37,81.55 569.18,244.1 137.32,163.04 206.19,374.51 206.19,635.94zm1502.92 845.89l0 -1021.54c0,-169.94 -26.85,-293.03 -81.05,-370.38 -53.61,-76.77 -148.31,-115.19 -282.47,-115.19 -129.39,0 -238.83,32.12 -327.71,96.82 -88.89,64.69 -146.78,148.85 -173.59,251.43 -8.96,76.81 -13.7,162.54 -13.7,257.24l0 901.61 -257.24 0 0 -2347.19 257.24 -15.23 0 687c0,58.92 -2.12,130.96 -6.31,217.24 145.2,-178.32 337.22,-267.75 576.53,-267.75 377.17,0 565.49,221.48 565.49,663.83l0 1062.1 -257.2 0zm574.9 0l0 -1690.7 215.71 0 32.62 241.98c66.82,-83.08 149.88,-150.42 250.4,-200.93 99.92,-51.04 208.28,-76.27 324.01,-76.27 195.71,0 339.88,54.69 433.49,164.13 93.12,109.43 139.93,277.74 139.93,504.49l0 1057.31 -257.19 0c0,-678.07 -0.55,-1041.54 -1.59,-1089.43 -4.24,-144.12 -33.2,-249.32 -86.86,-316.13 -54.2,-66.8 -144.11,-99.96 -270.9,-99.96 -132.59,0 -243.05,31.59 -331.39,95.24 -87.85,63.66 -145.74,146.72 -172.55,248.27 -10.01,68.93 -15.27,147.81 -15.27,237.24l0 924.78 -260.4 0zm2593.94 -1511.84c-163.58,0 -288.24,56.31 -375.06,168.85 -87.3,112.58 -130.47,277.74 -130.47,495.52 0,445.56 167.83,668.61 503.95,668.61 83.12,0 156.23,-17.34 219.35,-51.54 63.66,-34.2 113.13,-82.58 149.94,-144.66 36.31,-62.62 63.66,-132.59 81.55,-210.43 17.88,-78.39 26.8,-165.16 26.8,-260.4 0,-129.92 -15.23,-242.46 -45.23,-339.28 -30.5,-96.77 -82.04,-175.16 -155.16,-235.67 -72.63,-60.51 -164.67,-91 -275.67,-91zm26.31 -214.09c149.94,0 279.32,37.89 388.21,114.17 108.88,75.73 190.43,178.86 245.12,309.28 54.2,130.47 81.54,280.4 81.54,448.71 0,174.67 -26.8,328.24 -81,460.84 -53.66,132.54 -135.75,237.24 -245.12,313.51 -109.43,76.81 -239.9,114.65 -391.91,114.65 -112.04,0 -214.08,-24.19 -306.66,-72.04 -92.59,-48.43 -169.4,-114.17 -231.48,-197.29l-25.76 234.09 -220.4 0 0 -2347.19 257.2 -15.23 0 559.19c0,137.8 -2.07,256.16 -6.31,354.5 59.47,-85.19 136.77,-152.55 231.97,-202.51 95.24,-49.96 196.74,-74.7 304.6,-74.7zm1541.3 1553.38c122.05,0 229.85,-33.65 322.43,-101 93.13,-67.31 153.09,-157.82 179.94,-271.93l0 -285.13c-5.26,0 -36.31,2.61 -93.12,7.88 -57.35,4.73 -94.7,7.88 -112.04,8.96 -223.05,19.46 -378.21,56.27 -466.06,109.39 -87.85,53.65 -132.05,139.43 -132.05,257.24 0,90.46 26.81,158.85 80.46,205.16 53.16,46.27 126.78,69.43 220.44,69.43zm559.19 172.55c-15.28,-65.78 -30.01,-136.78 -44.74,-212.5 -93.61,93.07 -181.47,157.81 -263.55,194.07 -82.04,35.77 -178.86,53.66 -289.81,53.66 -157.82,0 -285.13,-40.99 -381.41,-123.62 -95.74,-83.07 -144.12,-201.96 -144.12,-357.17 0,-172.55 65.78,-300.36 196.74,-383.48 130.97,-83.12 319.82,-135.2 566.52,-155.69 33.71,-3.16 84.71,-7.4 153.1,-13.16 68.38,-5.77 119.43,-10.01 153.62,-13.16l0 -149.39c0,-119.44 -27.89,-207.78 -83.66,-265.14 -55.23,-57.35 -142.55,-86.27 -261.98,-86.27 -166.2,0 -334.01,41.04 -503.94,123.07 -4.73,-12.07 -18.39,-47.84 -39.96,-106.77 -21.58,-59.42 -32.62,-89.91 -33.66,-92.04 74.7,-42.08 164.13,-75.78 267.2,-100.46 103.12,-25.28 208.32,-37.89 315.1,-37.89 210.97,0 362.44,45.78 455.56,137.82 93.13,92.09 139.39,248.28 139.39,469.21l0 1118.91 -200.38 0zm585.98 -563.91l0 -1126.79 258.83 0 0 1129.95c0,73.65 10.55,136.23 31.59,187.77 21.04,51.59 51.54,91 91,119.44 39.41,28.43 84.16,48.39 134.12,60.99 49.46,12.12 106.77,18.43 171.5,18.43 133.58,0 237.74,-29.46 312.44,-87.85 74.2,-58.38 111.55,-158.3 111.55,-298.77l0 -1129.95 258.78 0 0 1126.79c0,86.28 -12.07,163.58 -36.8,232.52 -24.74,68.93 -57.84,126.23 -99.43,172 -41.54,45.78 -91.5,83.12 -150.43,113.08 -58.38,30.01 -120.46,51.59 -185.71,64.75 -65.23,13.65 -135.2,19.95 -210.39,19.95 -73.65,0 -143.62,-6.3 -209.4,-19.95 -65.73,-13.16 -128.35,-35.28 -187.23,-65.24 -58.93,-30.5 -109.98,-68.38 -152.55,-114.16 -42.63,-45.78 -76.33,-103.12 -101.01,-172.01 -24.74,-68.93 -36.86,-145.69 -36.86,-230.93zm1665.97 -202.01l0 -226.69 770.65 0 0 226.69 -770.65 0zm1438.23 765.92l-266.71 0 0 -2279.34 1265.14 0 -10.55 235.66 -987.88 0 0 800.13 941.57 0 0 226.2 -941.57 0 0 1017.36zm1593.39 -1690.7l0 1690.7 -258.83 0 0 -1690.7 258.83 0zm0 -614.91l0 305.09 -258.83 0 0 -305.09 258.83 0zm483.89 2305.61l0 -1690.7 215.72 0 32.61 241.98c66.82,-83.08 149.88,-150.42 250.4,-200.93 99.92,-51.04 208.28,-76.27 324.01,-76.27 195.71,0 339.83,54.69 433.45,164.13 93.12,109.43 139.93,277.74 139.93,504.49l0 1057.31 -257.2 0c0,-678.07 -0.54,-1041.54 -1.57,-1089.43 -4.24,-144.12 -33.16,-249.32 -86.82,-316.13 -54.2,-66.8 -144.11,-99.96 -270.89,-99.96 -132.6,0 -243.06,31.59 -331.4,95.24 -87.85,63.66 -145.74,146.72 -172.55,248.27 -10,68.93 -15.27,147.81 -15.27,237.24l0 924.78 -260.4 0zm2313.59 -172.55c122.05,0 229.85,-33.65 322.43,-101 93.13,-67.31 153.09,-157.82 179.94,-271.93l0 -285.13c-5.27,0 -36.31,2.61 -93.12,7.88 -57.36,4.73 -94.7,7.88 -112.04,8.96 -223.05,19.46 -378.21,56.27 -466.06,109.39 -87.85,53.65 -132.05,139.43 -132.05,257.24 0,90.46 26.81,158.85 80.46,205.16 53.16,46.27 126.77,69.43 220.44,69.43zm559.19 172.55c-15.28,-65.78 -30.01,-136.78 -44.74,-212.5 -93.61,93.07 -181.47,157.81 -263.55,194.07 -82.04,35.77 -178.86,53.66 -289.81,53.66 -157.82,0 -285.19,-40.99 -381.46,-123.62 -95.74,-83.07 -144.12,-201.96 -144.12,-357.17 0,-172.55 65.78,-300.36 196.75,-383.48 131.01,-83.12 319.87,-135.2 566.56,-155.69 33.71,-3.16 84.71,-7.4 153.09,-13.16 68.39,-5.77 119.44,-10.01 153.64,-13.16l0 -149.39c0,-119.44 -27.89,-207.78 -83.66,-265.14 -55.23,-57.35 -142.55,-86.27 -261.98,-86.27 -166.2,0 -334.01,41.04 -504,123.07 -4.73,-12.07 -18.38,-47.84 -39.96,-106.77 -21.58,-59.42 -32.61,-89.91 -33.65,-92.04 74.69,-42.08 164.17,-75.78 267.24,-100.46 103.12,-25.28 208.32,-37.89 315.09,-37.89 210.98,0 362.44,45.78 455.57,137.82 93.13,92.09 139.39,248.28 139.39,469.21l0 1118.91 -200.38 0zm644.37 0l0 -1690.7 215.71 0 32.62 241.98c66.8,-83.08 149.88,-150.42 250.4,-200.93 99.92,-51.04 208.27,-76.27 324.01,-76.27 195.7,0 339.83,54.69 433.44,164.13 93.13,109.43 139.93,277.74 139.93,504.49l0 1057.31 -257.19 0c0,-678.07 -0.55,-1041.54 -1.59,-1089.43 -4.24,-144.12 -33.16,-249.32 -86.81,-316.13 -54.2,-66.8 -144.12,-99.96 -270.9,-99.96 -132.59,0 -243.05,31.59 -331.4,95.24 -87.84,63.66 -145.74,146.72 -172.54,248.27 -10.01,68.93 -15.28,147.81 -15.28,237.24l0 924.78 -260.39 0zm2912.68 0l-1180.45 0 0 -194.13 864.81 -1292.98 -841.65 0 0 -203.6 1129.94 0 0 203.6 -863.23 1283.52 890.58 0 0 203.59zm229.85 -765.92l0 -226.69 770.65 0 0 226.69 -770.65 0zm1171.52 765.92l0 -2279.34 1306.68 0 -10.55 235.66 -1029.42 0 0 745.93 978.43 0 0 233.05 -978.43 0 0 829.04 1063.12 0 -12.12 235.67 -1317.71 0zm2160.94 -860.07l-596.53 -830.62 294.06 0 451.87 644.42 452.95 -644.42 294.55 0 -598.11 833.77 613.38 856.93 -285.13 0 -476.06 -679.65 -476.55 679.65 -294.05 0 619.63 -860.07zm1182.02 1593.87l0 -2424.5 226.75 0 24.73 229.91c147.82,-176.74 325.59,-265.14 532.88,-265.14 154.12,0 284.59,38.39 391.36,115.2 106.77,77.31 185.71,181.47 236.7,312.98 51.04,131.55 76.27,285.13 76.27,460.83 0,168.31 -27.84,318.25 -83.08,449.26 -55.77,130.96 -136.78,234.08 -244.63,309.82 -107.32,75.73 -232.52,113.08 -376.63,113.08 -108.89,0 -210.93,-24.19 -306.72,-73.12 -95.19,-48.93 -172,-113.08 -229.3,-193.58 5.77,111.01 8.92,219.35 8.92,324.05l0 623.88 -257.24 17.34zm749.07 -915.81c77.9,0 147.87,-17.34 209.41,-53.11 61.54,-35.28 111.5,-83.67 149.39,-145.75 38.39,-61.54 66.82,-131.51 86.28,-210.39 19.95,-78.39 29.46,-163.63 29.46,-254.64 0,-193.53 -40.55,-351.89 -121.55,-475.52 -81.55,-124.16 -199.9,-185.7 -356.13,-185.7 -326.67,0 -490.25,210.97 -490.25,633.38 0,228.82 38.38,401.85 115.19,517.6 76.27,116.28 202.56,174.12 378.21,174.12zm2076.9 -1196.75c-75.79,-89.93 -178.86,-134.66 -310.37,-134.66 -131.51,0 -238.82,46.32 -322.48,139.39 -83.17,93.12 -132.1,220.44 -146.29,381.41l892.21 0c0,-167.28 -37.35,-296.17 -113.08,-386.14zm-259.87 1413.99c-245.17,0 -438.81,-77.85 -580.27,-234.09 -141.01,-156.23 -212.01,-369.77 -212.01,-641.21 0,-261.98 68.39,-474.49 205.16,-637.04 136.78,-163.08 316.72,-245.66 539.77,-248.82 209.35,0 375.6,71.55 498.14,214.63 123.07,143.63 184.12,335.09 184.12,574.4 0,12.12 0,34.75 -0.54,67.9 -0.5,32.61 -1.04,56.26 -1.04,70.45l-1160.49 0c3.15,192.55 52.57,341.95 148.9,449.26 96.28,107.31 225.16,161.51 387.72,161.51 178.85,0 358.2,-47.34 537.6,-142.04l40.49 208.32c-172,104.64 -367.71,156.73 -587.56,156.73zm1750.61 -1741.16c46.26,0 88.39,3.16 126.77,8.92l-9.46 237.79c-47.35,-8.43 -88.39,-12.62 -123.07,-12.62 -144.18,0 -260.94,49.96 -350.91,150.42 -89.93,99.98 -134.67,224.09 -134.67,371.91l0 949.5 -257.19 0c-1.09,-1037.85 -1.57,-1601.27 -1.57,-1690.7l214.08 0 24.74 303.56c58.38,-95.24 133.08,-172.55 223.55,-230.93 89.97,-58.93 186.19,-87.85 287.74,-87.85zm931.09 1736.97c-166.24,0 -284.59,-41.04 -354.07,-122.05 -69.91,-81.01 -107.31,-212.02 -110.95,-392.94l0 -1015.78 -251.49 0 11.09 -169.39 238.83 -21.59 87.84 -386.63 169.35 -6.31 0 392.94 470.3 0 0 190.98 -470.3 0 0 969.46c0,128.35 19.46,218.87 58.44,271.44 38.93,52.07 105.69,78.39 200.38,78.39 34.2,0 107.32,-7.88 220.44,-24.73l11.04 203.59c-122.59,21.58 -216.2,32.62 -280.89,32.62zm1512.88 -1409.81c-75.78,-89.93 -178.86,-134.66 -310.37,-134.66 -131.51,0 -238.82,46.32 -322.48,139.39 -83.12,93.12 -132.05,220.44 -146.24,381.41l892.16 0c0,-167.28 -37.35,-296.17 -113.08,-386.14zm-259.85 1413.99c-245.18,0 -438.77,-77.85 -580.23,-234.09 -141.01,-156.23 -212.01,-369.77 -212.01,-641.21 0,-261.98 68.38,-474.49 205.16,-637.04 136.78,-163.08 316.67,-245.66 539.72,-248.82 209.35,0 375.6,71.55 498.13,214.63 123.07,143.63 184.13,335.09 184.13,574.4 0,12.12 0,34.75 -0.55,67.9 -0.49,32.61 -1.04,56.26 -1.04,70.45l-1160.43 0c3.15,192.55 52.57,341.95 148.85,449.26 96.28,107.31 225.16,161.51 387.72,161.51 178.86,0 358.2,-47.34 537.6,-142.04l40.5 208.32c-172.01,104.64 -367.71,156.73 -587.56,156.73zm992.56 -35.23l0 -1690.7 215.72 0 32.61 241.98c66.82,-83.08 149.89,-150.42 250.4,-200.93 99.92,-51.04 208.28,-76.27 324.02,-76.27 195.7,0 339.82,54.69 433.44,164.13 93.12,109.43 139.93,277.74 139.93,504.49l0 1057.31 -257.2 0c0,-678.07 -0.54,-1041.54 -1.57,-1089.43 -4.24,-144.12 -33.16,-249.32 -86.82,-316.13 -54.2,-66.8 -144.11,-99.96 -270.89,-99.96 -132.6,0 -243.06,31.59 -331.4,95.24 -87.85,63.66 -145.74,146.72 -172.55,248.27 -10,68.93 -15.27,147.81 -15.27,237.24l0 924.78 -260.4 0z"/>
  </g>
 </g>
</svg>
