<?xml version="1.0" encoding="utf-8"?>
<!-- Generator: Adobe Illustrator 27.5.0, SVG Export Plug-In . SVG Version: 6.00 Build 0)  -->
<svg version="1.1" xmlns="http://www.w3.org/2000/svg" xmlns:xlink="http://www.w3.org/1999/xlink" x="0px" y="0px"
	 viewBox="0 0 1501.89 1122" style="enable-background:new 0 0 1501.89 1122;" xml:space="preserve">
<g id="background">
	<g>
		<rect x="-0.055" style="fill:#FFFFFF;" width="1502" height="1122"/>
	</g>
</g>
<g id="shadow">
	<path style="opacity:0.12;fill:#606060;" d="M1283.774,880.797H324.456c-30.344,0-55.171,15.042-55.171,33.427l0,0
		c0,12.731,11.909,23.854,29.306,29.495h-84.476c-30.344,0-55.171,15.042-55.171,33.427l0,0c0,18.385,24.827,33.427,55.171,33.427
		h29.435c-8.221,5.841-13.209,13.397-13.209,21.629v13.371c0,18.385,24.827,33.427,55.171,33.427h945.038
		c30.344,0,55.171-15.042,55.171-33.427v-13.371c0-18.385-24.827-33.427-55.171-33.427l-64.257,0.743
		c4.895,0,12.842-2.339,18.174-7.043c9.349-8.247,9.763-20.799,5.193-31.189c-2.963-6.736-7.71-12.077-19.472-14.086l113.586,0.451
		c30.344,0,55.17-15.042,55.17-33.427l0,0C1338.945,895.839,1314.118,880.797,1283.774,880.797z"/>
</g>
<g id="object">
	<g>
		<g>
			<polygon style="fill:#8AAD9F;" points="786.516,521.627 791.721,591.384 813.586,603.878 832.327,587.22 806.703,515.186 			"/>
		</g>
		<g>
			<polygon style="fill:#DEC2A7;" points="998.117,649.976 1011.406,662.183 1008.282,676.759 990.583,673.636 985.356,660.485 			
				"/>
		</g>
		<g>
			<polygon style="fill:#EACDB0;" points="753.313,454.993 755.396,470.61 748.779,480.79 738.043,479.211 736.655,461.24 
				751.231,453.951 			"/>
		</g>
		<g>
			<polygon style="fill:#A1BDCC;" points="643.877,458.116 713.749,542.45 728.326,476.857 755.396,482.063 739.778,580.973 
				713.522,599.213 643.992,552.862 			"/>
		</g>
		<g>
			<g>
				<g>
					<g>
						<polygon style="fill:#8C9498;" points="701.509,650.851 705.135,805.579 678.34,1005.452 655.917,1005.718 639.571,821.78 
							606.702,638.039 						"/>
					</g>
					<g>
						<polygon style="fill:#3A3029;" points="656.015,1003.048 656.159,1015.172 680.55,1027.008 692.531,1014.74 680.263,1002.76 
													"/>
					</g>
				</g>
				<g>
					<polygon style="fill:#3A3029;" points="579.711,1008.889 598.992,1025.277 594.171,1034.918 558.502,1027.205 
						558.502,1008.889 					"/>
				</g>
				<g>
					<polygon style="fill:#8C9498;" points="623.752,711.718 607.726,861.694 586.579,1011.185 556.42,1009.751 557.52,854.669 
						539.365,710.832 582.003,690.971 					"/>
				</g>
			</g>
			<g>
				<path style="fill:#A1BDCC;" d="M562.293,446.838l58.585-10.994c0,0,39.869,25.651,70.102,103.281
					c30.786,79.047,26.434,200.123,26.434,200.123s-161.203,2.578-187.605,3.2l15.372-167.463L562.293,446.838z"/>
			</g>
			<g>
				<g>
					<path style="fill:#EACDB0;" d="M602.128,447.511c-6.985-0.249-13.97-0.498-20.955-0.747c-0.419-5.558-0.394-11.15,0.077-16.704
						c-5.914-1.668-12.793-4.296-14.183-10.281c-0.438-1.885-0.232-3.853-0.023-5.777c0.862-7.955,1.724-15.91,2.586-23.865
						c0.298-2.751,0.621-5.585,1.954-8.01c2.338-4.256,7.265-6.365,11.988-7.496c12.051-2.886,25.496-1.086,35.449,6.297
						c2.649,1.965,5.084,4.374,6.389,7.404c2.011,4.67,1.067,10.022,0.088,15.012c-0.903,4.606-1.806,9.212-2.709,13.818
						c-1.039,5.298-2.639,11.347-7.537,13.618c-2.6,1.206-5.767,1.102-8.083,2.79C603.082,436.546,604.055,442.838,602.128,447.511z
						"/>
				</g>
				<g>
					<path style="fill:#3A3029;" d="M665.088,364.642c-0.199-5.405-1.296-10.817-2.678-15.671
						c-2.376-8.341-12.587-11.523-21.259-11.588c-18.73-0.14-37.252-7.48-55.061,0.173c-10.18,4.375-24.106,6.136-33.201,11.979
						c-3.798,2.44-6.723,6.062-8.932,9.999c-7.654,13.639-6.558,31.708,2.688,44.322c2.075,2.83,4.504,5.383,7.041,7.807
						c5.251,5.018,11.544,11.228,18.428,12.775c-0.221-6.057-6.935-24.774-2.605-30.024c6.872-8.33,23.708-6.641,32.972-5.283
						c10.105,1.481,19.44,7.981,29.422,8.864c7.182,0.636,16.041-3.427,21.858-7.487
						C662.875,384.145,665.447,374.407,665.088,364.642z"/>
				</g>
			</g>
			<g>
				<path style="fill:#FFFFFF;" d="M604.707,446.887l57.152,130.475l22.123,161.971l-81.857,1.717c0,0,9.408-119.988,6.027-135.653
					c-3.381-15.665-10.09-48.196-17.359-84.793c-1.674-8.427-13.899-73.045-13.983-72.659L604.707,446.887z"/>
			</g>
		</g>
		<g>
			<g>
				<polygon style="fill:#8AAD9F;" points="863.214,462.937 854.034,460.57 836.491,470.61 786.516,591.384 802.133,610.125 
					844.82,554.944 				"/>
			</g>
			<g>
				<g>
					<polygon style="fill:#514943;" points="939.902,1002.716 940.873,1012.317 923.458,1024.289 913.294,1015.873 
						921.516,1005.087 938.931,993.115 					"/>
				</g>
				<g>
					<polygon style="fill:#CAB5A1;" points="939.468,709.176 942.417,738.334 916.301,838.515 940.551,999.498 922.701,1005.659 
						875.632,848.491 868.162,802.768 868.435,705.975 					"/>
				</g>
			</g>
			<g>
				<g>
					<polygon style="fill:#CAB5A1;" points="802.178,741.674 839.724,1011.425 856.791,1011.425 859.862,838.515 890.924,717.151 
											"/>
				</g>
				<g>
					<polygon style="fill:#514943;" points="856.693,1009.292 856.693,1018.981 838.237,1028.671 829.009,1018.981 
						838.237,1009.292 					"/>
				</g>
			</g>
			<g>
				<path style="fill:#8AAD9F;" d="M943.378,626.4c-9.709-56.296-24.741-110.942-30.177-168.28c-14.361,0-34.187-6.667-49.139-2.697
					l-0.002-0.004c0,0-0.254,0.057-0.717,0.214c-5.434,1.587-10.193,4.632-13.752,10.026c-0.04,0.061-0.075,0.125-0.115,0.186
					c-5.321,5.828-11.432,14.827-17.15,28.713c-14.576,35.399-72.881,243.631-73.922,297.771c0.182,0.043,0.361,0.085,0.542,0.129
					c12.273,3.821,25.649,6.679,39.593,8.803c0.013,0.003,0.032,0.007,0.032,0.007h0.013c40.775,6.208,86.399,6.148,123.51,5.52
					c4.899-0.083,56.832,1.611,56.102-1.746C965.298,745.756,953.689,686.191,943.378,626.4z"/>
			</g>
			<g>
				<polygon style="fill:#8AAD9F;" points="910.934,460.719 925.684,469.8 961.43,567.438 1000.994,647.607 983.294,662.183 
					931.237,589.302 900.522,490.913 				"/>
			</g>
			<g>
				<path style="fill:#9E6652;" d="M839.338,368.899c0,0-11.061,9.048-5.856,42.365c5.206,33.317,2.082,55.181,2.082,55.181
					s11.453,5.206,19.782,0c8.329-5.206,11.453-6.247,8.329-19.782c-3.123-13.535-9.37-78.087-9.37-78.087L839.338,368.899z"/>
			</g>
			<g>
				<path style="fill:#9E6652;" d="M866.777,380.156c-12.647,3.465-22.603,15.188-23.99,28.247
					c-6.912-6.449-10.44-16.351-9.167-25.726s7.313-17.974,15.693-22.34c7.841,4.168,13.92,11.542,16.523,20.042L866.777,380.156z"
					/>
			</g>
			<g>
				<path style="fill:#EACDB0;" d="M841.051,397.129c6.535-34.557,49.64-28.585,62.005-0.602
					c7.032,15.913,5.389,47.012-14.401,52.218c-0.302,3.059-0.699,8.794-3.033,10.839c-2.529,2.215-10.496,0.104-13.617-0.62
					c-0.866-0.201-1.77-0.45-2.398-1.079c-0.786-0.788-0.918-2.9-0.933-5.24c-2.292-0.156-4.639-0.603-7.028-1.389
					c-10.026-3.297-17.287-12.593-20.29-22.726C838.354,418.399,839.087,407.513,841.051,397.129z"/>
			</g>
			<g>
				<path style="fill:#9E6652;" d="M850.141,360.247c0,0-4.165,18.741,19.782,23.947c23.947,5.206,39.498,23.947,35.367,43.729
					c-4.132,19.782-21.831,34.358-12.461,39.564c9.37,5.206,43.729,0,43.729,0s20.823-69.758-7.288-99.951
					C901.158,337.342,860.553,336.301,850.141,360.247z"/>
			</g>
		</g>
		<g>
			<g>
				<g>
					<path style="fill:#59595B;" d="M768.985,64.324c0-3.401,0-6.802,0-10.203l-4.699-9.615c-1.167-1.325-3.628-1.272-4.707,0.101
						l-3.933,9.514v10.203c-3.704,0-9.735,2.903-9.735,6.483s3.003,6.483,6.707,6.483h3.029v345.764
						c0,19.508-10.314,35.735-25.128,35.387c-11.48-0.27-21.492-10.029-23.179-25.96c-0.374-3.529-3.386-6.242-7.056-6.242h-0.265
						c-4.242,0-7.565,3.584-7.039,7.652c2.93,22.657,20.909,38.866,37.978,38.866c13.337,0,24.275-6.18,30.645-17.323
						c7.886-13.794,7.381-28.96,7.381-44.096c0-14.339,0-28.678,0-43.017c0-20.02,0-40.041,0-60.061c0-22.827,0-45.654,0-68.481
						c0-22.759,0-45.519,0-68.278c0-19.817,0-39.634,0-59.451c0-11.586,0-23.172,0-34.758h2.077c3.704,0,6.707-2.903,6.707-6.483
						S772.689,64.324,768.985,64.324z"/>
				</g>
				<g style="opacity:0.26;">
					<polygon points="768.985,258.151 755.507,244.142 755.507,220.998 768.985,220.998 					"/>
				</g>
			</g>
			<g>
				<g>
					<path style="fill:none;" d="M864.06,290.49c0.526,0.254,1.052,0.507,1.569,0.766c0.75-0.259,1.505-0.514,2.265-0.766h-2.401
						H864.06z"/>
				</g>
				<g>
					<path style="fill:#6596C1;" d="M663.238,288.477l2.404-14.801c8.328-51.265,28.03-100.015,57.659-142.671l37.444-53.908
						c-91.164,3.862-169.327,57.914-207.58,135.241c-11.673,23.597-19.614,49.363-23.091,76.526
						c19.726-5.899,42.573-9.283,67.019-9.283C621,279.581,643.561,282.817,663.238,288.477z"/>
				</g>
				<g>
					<path style="fill:#6596C1;" d="M859.076,258.717l6.417,31.772h2.401c20.856-6.9,45.571-10.909,72.18-10.909
						c26.519,0,51.381,3.981,72.488,10.838c-4.209-34.685-15.722-67.117-32.953-95.715
						c-42.544-70.613-119.953-117.845-208.4-117.845c-2.606,0-5.199,0.055-7.785,0.137l29.913,43.737
						C830.006,165.836,846.843,211.526,859.076,258.717z"/>
				</g>
				<g>
					<path style="fill:#5A8FB7;" d="M665.643,273.676l-2.404,14.801c0.216,0.062,0.43,0.125,0.645,0.188
						c25.242-11.222,59.835-17.659,98.042-17.659c40.233,0,76.539,7.136,102.135,19.483h1.432l-6.417-31.772
						c-12.232-47.191-29.069-92.881-65.738-137.985l-29.913-43.737c-0.895,0.028-1.787,0.064-2.679,0.102l-37.444,53.908
						C693.673,173.661,673.971,222.411,665.643,273.676z"/>
				</g>
				<g>
					<path style="fill:#FFFFFF;" d="M663.238,288.477l-0.083,0.51c0.24-0.109,0.486-0.214,0.728-0.322
						C663.668,288.602,663.454,288.539,663.238,288.477z"/>
				</g>
			</g>
		</g>
		<g>
			<polygon style="fill:#EACDB0;" points="730.408,476.857 723.787,465.119 724.161,446.663 730.408,448.746 732.49,458.116 
				743.943,468.528 740.568,479.211 			"/>
		</g>
		<g>
			<polygon style="fill:#EACDB0;" points="730.61,461.725 732.112,449.631 744.435,440.47 752.874,447.011 750.907,457.074 			"/>
		</g>
		<g>
			<polygon style="fill:#A1BDCC;" points="562.667,446.663 538.883,466.049 479.374,573.685 510.609,613.249 530.391,607.002 
				577.243,502.886 			"/>
		</g>
		<g>
			<polygon style="fill:#EACDB0;" points="568.914,590.343 576.202,606.93 576.202,668.538 565,669.471 549.132,616.264 			"/>
		</g>
		<g>
			<polygon style="fill:#EACDB0;" points="592.86,580.973 604.313,591.384 618.889,651.771 609.519,656.977 585.572,609.084 
				568.914,595.549 572.037,580.973 			"/>
		</g>
		<g>
			<path style="fill:#C2969C;" d="M501.103,490.065c0,0-8.334,2.649-11.982,9.946s-13.378,38.918-8.513,60.809
				c4.865,21.891,7.297,49.864,54.728,59.593c23.107,2.432,19.459-17.027,36.486-21.891c17.027-4.865,33.242-2.027,25.134-28.378
				c-8.108-26.351-26.351-28.783-42.161-56.755C538.984,485.417,521.599,476.471,501.103,490.065z"/>
		</g>
		<g>
			<polygon style="fill:#C2969C;" points="495.238,493.127 459.592,514.339 431.481,524.75 434.604,537.244 463.757,535.162 
				492.909,522.668 			"/>
		</g>
		<g>
			<polygon style="fill:#C2969C;" points="530.391,482.063 560.584,486.227 582.32,472.884 587.654,479.98 568.914,500.804 
				547.049,507.051 			"/>
		</g>
		<g>
			<g>
				<path style="fill:#754C3D;" d="M511.718,429.578c0,0,20.02,7.815,22.157,25.624c0,0,9.532-11.685,1.856-23.48
					c-7.676-11.795-12.048-16.153-23.632-10.839C500.515,426.196,511.718,429.578,511.718,429.578z"/>
			</g>
			<g>
				<path style="fill:#EACDB0;" d="M531.614,445.508c-7.691-25.567-39.757-17.619-46.859,4.494
					c-4.038,12.575-0.317,35.922,15.04,38.272c0.472,2.285,1.229,6.583,3.155,7.941c2.086,1.47,7.932-0.759,10.231-1.555
					c0.638-0.221,1.301-0.481,1.724-1.006c0.53-0.658,0.461-2.263,0.286-4.03c1.718-0.301,3.454-0.826,5.195-1.61
					c7.306-3.289,12.046-10.887,13.504-18.776C535.348,461.351,533.925,453.191,531.614,445.508z"/>
			</g>
			<g>
				<path style="fill:#754C3D;" d="M517.283,435.554c-7.015,11.422-21.231,15.098-27.875,26.153c0,0-4.343,7.232,0.17,21.283
					c0,0-14.902,3.849-24.699-9.73c-9.797-13.579-0.929-46.362-0.929-46.362s15.034-16.744,39.55-16.249
					c8.318,0.168,16.728,4.612,16.928,14.004C520.513,428.67,519.283,432.298,517.283,435.554z"/>
			</g>
		</g>
		<g>
			<g>
				<path style="fill:#BCAC98;" d="M478.404,992.133c0,0,1.19,9.798,13.189,9.962s16.889,8.232,5.89,8.081
					c-10.999-0.151-24.094,1.946-28.45-6.253C464.678,995.725,475.159,986.307,478.404,992.133z"/>
			</g>
			<g>
				<path style="fill:#D3C2A4;" d="M441.526,948.345c0,0-4.283,0.918-6.393,8.89c-2.109,7.972-51.927-5.712-69.089,6.054
					c-17.163,11.766-19.392,21.726-21.546,39.708c-4.553,38.003,63.542,33.874,86.663,25.19
					c23.121-8.684,62.172-12.149,51.735-53.296C480.91,973.864,441.526,948.345,441.526,948.345z"/>
			</g>
			<g>
				<path style="fill:#37454D;" d="M486.218,971.059l-3.433,2.699c0,0-17.044,5.505-36.378-16.329
					c-7.609-11.581-5.174-13.524-5.174-13.524l4.332,0.965C445.565,944.87,453.562,970.092,486.218,971.059z"/>
			</g>
			<g>
				<path style="fill:#4F3C22;" d="M469.994,911.412c0,0,1.703-2.596,6.538-2.702c4.834-0.106,12.178,7.812,13.956,8.456
					c1.778,0.644,6.072,1.701,1.753,3.326C487.922,922.116,472.097,916.314,469.994,911.412z"/>
			</g>
			<g>
				<path style="fill:#DACAAF;" d="M453.322,921.967c0,0,7.678-10.525,19-10.604c6.689-0.046,12.693,2.763,17.713,7.039
					c2.557,2.178,4.574,4.807,6.974,7.119c1.592,1.534,3.578,2.233,5.129,3.906c3.672,3.959,5.422,11.09,4.001,16.3
					c-1.422,5.209,4.491,20.5-12.952,24.241c-17.444,3.741-40.55-6.789-45.472-15.842
					C442.792,945.073,438.379,935.895,453.322,921.967z"/>
			</g>
			<g>
				<path style="fill:#4F3C22;" d="M456.158,923.252c0,0-5.181-3.139-9.515-0.995c-4.334,2.144-7.766,1.366-7.659,6.2
					c0.106,4.834-0.709,16.915,5.063,20.629c5.772,3.714,4.415-6.214,7.356-9.636C454.343,936.028,459.311,924.728,456.158,923.252z
					"/>
			</g>
			<g>
				<path style="fill:#D3C2A4;" d="M478.555,994.934c0,0,0.943,13.996,7.929,15.091c6.986,1.096,23.888,8.328,20.834,12.287
					c-3.055,3.958-7.999-0.11-12.999-0.178c-5-0.069-19.572,2.012-31.736-2.795c-11.439-1.437-16.638,3.661-16.638,3.661
					L478.555,994.934z"/>
			</g>
			<g>
				<path style="fill:#BCAC98;" d="M352.568,984.305c-1.717-0.508-10.865-3.027-11.233-13.776
					c-0.368-10.749,6.697-19.487,17.465-19.289c10.768,0.198,10.568,9.947,8.335,11.383c-2.233,1.436-15.395,3.019-13.48,14.848
					C355.15,982.517,352.568,984.305,352.568,984.305z"/>
			</g>
		</g>
		<g>
			<path style="fill:#F2D263;" d="M494.991,493.515c0,0,1.041,13.535,8.329,13.535s22.735-6.367,24.988-9.37
				c3.123-4.165-2.774-13.023-2.774-13.023l4.856-2.594c0,0,34.358,43.729,16.659,55.181c-17.7,11.453-41.646,18.741-48.934,4.165
				c-7.288-14.576-7.764-44.702-7.764-44.702L494.991,493.515z"/>
		</g>
		<g>
			<polygon style="fill:#3A3029;" points="577.243,667.389 586.613,674.677 583.49,678.842 566.831,675.718 564.749,668.43 			"/>
		</g>
		<g>
			<polygon style="fill:#3A3029;" points="608.478,654.895 617.848,648.127 626.177,647.607 628.26,653.854 610.56,660.101 			"/>
		</g>
		<g>
			<polygon style="fill:#AECCDC;" points="479.448,573.194 515.024,568.819 599.508,585.383 599.274,604.966 511.031,613.705 
				483.679,604.736 			"/>
		</g>
		<g>
			<polygon style="fill:#DEC2A7;" points="599.49,586.949 612.251,590.67 618.766,607.838 610.56,617.413 607.436,603.878 
				599.298,602.95 			"/>
		</g>
		<g>
			<polygon style="fill:#EACDB0;" points="431.818,526.098 416.905,525.791 416.905,528.915 428.357,535.162 426.275,537.244 
				428.357,538.285 434.145,535.407 			"/>
		</g>
		<g>
			<polygon style="fill:#EACDB0;" points="582.881,473.829 585.572,468.528 592.86,467.487 595.984,472.692 593.901,478.939 
				587.545,479.598 			"/>
		</g>
		<g>
			<g>
				<polygon style="fill:#B26650;" points="1079.081,718.406 1038.476,710.076 1016.612,673.636 1006.2,681.965 1021.817,730.9 
					1056.176,751.723 				"/>
			</g>
			<g>
				<polygon style="fill:#2E4661;" points="1043.682,889.156 1043.682,999.518 1060.34,999.518 1070.752,932.884 1080.122,881.867 
									"/>
			</g>
			<g>
				<polygon style="fill:#2E4661;" points="1080.122,877.703 1086.369,925.596 1094.698,1002.642 1111.357,1001.601 
					1111.357,942.255 1119.686,881.867 				"/>
			</g>
			<g>
				<path style="fill:#B26650;" d="M1072.313,716.844c0,0-17.7-3.123-24.988,23.947c-7.288,27.07-27.07,106.198-28.111,147.844
					c-1.041,41.646,26.029,14.576,58.305,19.782c32.276,5.206,58.825,5.726,58.825-13.014S1147.797,717.365,1072.313,716.844z"/>
			</g>
			<g>
				<g>
					<g>
						<path style="fill:#EACDB0;" d="M1062.154,663.039c14.742-25.998,47.77-9.363,50.033,16.537
							c1.287,14.729-8.571,39.289-25.917,38.043c-1.083,2.377-2.976,6.881-5.415,7.885c-2.642,1.087-8.47-2.797-10.782-4.237
							c-0.641-0.399-1.3-0.848-1.632-1.526c-0.415-0.85,0.058-2.584,0.688-4.47c-1.8-0.755-3.565-1.759-5.271-3.046
							c-7.158-5.404-10.446-14.874-10.079-23.847C1054.146,679.405,1057.724,670.851,1062.154,663.039z"/>
					</g>
				</g>
				<g>
					<path style="fill:#754C3D;" d="M1082.729,656.283c0,0,23.589,5.897,23.589,15.726c0,14.776,0.983,24.692,0,33.478l16.709-9.889
						l9.829-27.521c0,0-1.966-22.606-13.76-26.538c-11.795-3.932-36.366-7.863-36.366-7.863l-18.675,5.897l-13.76-0.983
						l4.757,41.281C1055.052,679.872,1061.106,650.385,1082.729,656.283z"/>
				</g>
			</g>
			<g>
				<polygon style="fill:#B26650;" points="1090.534,720.488 1119.686,730.9 1145.715,795.451 1166.538,842.303 1155.086,849.592 
					1121.769,802.739 				"/>
			</g>
			<g>
				<polygon style="fill:#EACDB0;" points="1155.086,849.592 1162.374,860.003 1166.538,855.839 1179.032,855.839 1166.538,842.303 
									"/>
			</g>
			<g>
				<polygon style="fill:#8C9498;" points="1043.682,999.518 1034.311,1008.889 1038.476,1015.136 1057.217,1008.889 
					1057.217,999.518 				"/>
			</g>
			<g>
				<polygon style="fill:#8C9498;" points="1097.475,1002.468 1100.945,1016.177 1112.398,1020.341 1118.645,1017.218 
					1108.948,1001.751 				"/>
			</g>
		</g>
		<g>
			<polygon style="fill:#EACDB0;" points="1016.612,673.636 1006.2,666.348 993.706,669.471 995.788,676.759 1007.406,681 			"/>
		</g>
		<g>
			<polygon style="fill:#DEC2A7;" points="1005.159,680.18 1009.323,671.814 1000.994,667.649 989.235,670.244 991.624,675.718 			
				"/>
		</g>
		<g>
			<g>
				<polygon style="fill:#B26650;" points="894.555,779.72 617.705,815.923 592.247,621.247 720.604,526.15 869.098,585.044 				"/>
			</g>
			<g>
				<path style="fill:#2E4661;" d="M937.976,569.517c-23.782-9.408-47.563-18.816-71.345-28.223
					c-38.458-15.213-76.914-30.426-115.372-45.64c-9.292-3.676-18.525-7.621-27.915-11.043c-5.948-2.168-11.565-1.235-16.532,2.486
					c-3.174,2.377-6.275,4.859-9.41,7.286c-30.252,23.424-60.503,46.848-90.755,70.272c-24.543,19.004-49.43,37.638-73.662,57.037
					c-0.402,0.321-0.814,0.63-1.221,0.945c-6.153,4.765-7.34,14.08-2.571,20.234c4.785,6.174,14.054,7.357,20.234,2.571
					c19.907-15.414,39.814-30.829,59.722-46.243c31.579-24.452,63.158-48.904,94.737-73.356c5.105-3.953,10.21-7.906,15.316-11.859
					c21.559,8.529,43.118,17.057,64.677,25.585c38.759,15.333,77.517,30.665,116.276,45.997c8.872,3.51,17.745,7.02,26.618,10.53
					c7.241,2.865,15.819-0.404,18.892-7.688C948.648,581.335,945.241,572.391,937.976,569.517z"/>
			</g>
			<g>
				
					<rect x="647.582" y="669.965" transform="matrix(0.9916 -0.1297 0.1297 0.9916 -89.6195 94.5923)" style="fill:#FFFFF1;" width="68.08" height="131.147"/>
			</g>
			<g>
				<g>
					
						<rect x="754.337" y="657.611" transform="matrix(0.9916 -0.1297 0.1297 0.9916 -80.7923 105.8972)" style="fill:#FFFFF1;" width="37.032" height="31.581"/>
				</g>
				<g>
					
						<rect x="802.402" y="651.325" transform="matrix(0.9916 -0.1297 0.1297 0.9916 -79.5715 112.0766)" style="fill:#FFFFF1;" width="37.032" height="31.581"/>
				</g>
				<g>
					
						<rect x="759.94" y="700.462" transform="matrix(0.9916 -0.1297 0.1297 0.9916 -86.3013 106.9856)" style="fill:#FFFFF1;" width="37.032" height="31.581"/>
				</g>
				<g>
					
						<rect x="808.006" y="694.177" transform="matrix(0.9916 -0.1297 0.1297 0.9916 -85.0806 113.165)" style="fill:#FFFFF1;" width="37.032" height="31.581"/>
				</g>
			</g>
		</g>
		<g>
			<polygon style="fill:#EACDB0;" points="808.776,518.146 802.328,508.938 785.344,507.051 775.909,521.204 774.022,534.413 
				788.175,537.244 802.957,517.744 			"/>
		</g>
	</g>
</g>
</svg>
