<?xml version="1.0" encoding="utf-8"?>
<!-- Generator: Adobe Illustrator 27.5.0, SVG Export Plug-In . SVG Version: 6.00 Build 0)  -->
<svg version="1.1" xmlns="http://www.w3.org/2000/svg" xmlns:xlink="http://www.w3.org/1999/xlink" x="0px" y="0px"
	 viewBox="0 0 650 500" style="enable-background:new 0 0 650 500;" xml:space="preserve">
<g id="BACKGROUND">
	<rect style="fill:#FFFFFF;" width="650" height="500"/>
</g>
<g id="OBJECTS">
	<g>
		<g>
			<g>
				<path style="fill:#C2ECFD;" d="M376.21,348.607c8.29-16.84,21.666-30.775,36.455-42.096c11.93-9.132,25.41-18.01,39.535-23.255
					c12.523-4.651,15.303,6.289,25.414,10.032c6.461,2.392,13.632-1.266,18.712-5.92c4.902-4.491,8.957-10.122,14.805-13.481
					c4.316-2.479,10.756-3.713,15.282-1.058c5.623,3.299,4.668,11.416,12.26,12.343c3.539,0.432,7.064-0.839,10.265-2.409
					c7.53-3.693,14.992-7.108,23.07-9.479c7.302-2.143,16.759-2.854,20.975,3.481c4.045,6.078,0.203,14.322-4.665,19.762
					c-11.718,13.095-29.043,20.164-46.462,22.482c-4.751,0.633-9.641,0.969-14.026,2.902c-4.386,1.933-8.262,5.917-8.441,10.707
					c-0.096,2.579,0.871,5.095,0.904,7.675c0.09,7.16-6.978,12.51-13.958,14.107c-17.967,4.111-29.666-11.67-46.563-14.091
					c-19.156-2.744-48.644,0.246-61.946,16.373"/>
			</g>
			
				<path style="opacity:0.5;fill:none;stroke:#FFFFFF;stroke-width:1.7443;stroke-linecap:round;stroke-linejoin:round;stroke-miterlimit:10;" d="
				M407.782,340.728c18.511-17.267,43.082-28.717,68.771-32.046c16.008-2.075,32.238-1.08,48.312-2.535
				c16.073-1.455,32.737-5.791,44.316-16.509"/>
		</g>
		<g>
			<path style="fill:#C2ECFD;" d="M491.681,269.484c9.569-5.532,19.847-13.23,17.132-24.966c-0.891-3.851-3.729-7.357-3.241-11.28
				c0.322-2.586,2.042-4.74,3.299-7.023c2.99-5.429,3.407-12.206,1.106-17.96c-2.473-6.183-7.702-10.832-10.968-16.635
				c-2.668-4.74-3.97-10.238-3.713-15.671c-10.108,1.063-18.839,7.437-28.621,10.195c-7.482,2.109-15.471,2.068-22.857,4.492
				c-13.47,4.423-23.607,17.562-24.468,31.714c-6.483-0.511-13.14,2.418-17.141,7.545c-4.255,5.451-6.256,12.825-5.197,19.659
				c4.405,28.46,19.052,51.09,37.791,72.2c-4.077-4.593,8.437-18.86,10.858-21.639c10.521-12.083,24.954-19.042,38.746-26.615
				C486.605,272.292,489.118,270.966,491.681,269.484z"/>
			<g style="opacity:0.5;">
				
					<path style="fill:none;stroke:#FFFFFF;stroke-width:1.7443;stroke-linecap:round;stroke-linejoin:round;stroke-miterlimit:10;" d="
					M437.073,283.543c-2.383-12.202,0.805-24.771,4.709-36.575c3.805-11.504,8.355-22.856,14.927-33.035
					c6.572-10.18,15.284-19.19,26.028-24.791"/>
				
					<path style="fill:none;stroke:#FFFFFF;stroke-width:1.7443;stroke-linecap:round;stroke-linejoin:round;stroke-miterlimit:10;" d="
					M440.302,200.649c-0.261,11.097,1.839,24.245,5.677,34.659"/>
				
					<path style="fill:none;stroke:#FFFFFF;stroke-width:1.7443;stroke-linecap:round;stroke-linejoin:round;stroke-miterlimit:10;" d="
					M447.673,231.188c11.803-9.193,30.648-15.846,45.601-16.356"/>
				
					<path style="fill:none;stroke:#FFFFFF;stroke-width:1.7443;stroke-linecap:round;stroke-linejoin:round;stroke-miterlimit:10;" d="
					M417.195,236.052c15.681,4.983,18.337,27.126,19.318,33.396"/>
				
					<path style="fill:none;stroke:#FFFFFF;stroke-width:1.7443;stroke-linecap:round;stroke-linejoin:round;stroke-miterlimit:10;" d="
					M439.335,254.955c10.793-9.345,29.363-19.32,41.931-17.356"/>
				
					<path style="fill:none;stroke:#FFFFFF;stroke-width:1.7443;stroke-linecap:round;stroke-linejoin:round;stroke-miterlimit:10;" d="
					M437.053,282.404c8.58-11.439,32.006-25.419,44.575-23.456"/>
				
					<path style="fill:none;stroke:#FFFFFF;stroke-width:1.7443;stroke-linecap:round;stroke-linejoin:round;stroke-miterlimit:10;" d="
					M465.401,192.6c-3.08,4.603-3.478,9.78-2.807,13.273"/>
				
					<path style="fill:none;stroke:#FFFFFF;stroke-width:1.7443;stroke-linecap:round;stroke-linejoin:round;stroke-miterlimit:10;" d="
					M465.596,202.443c5.075-3.216,12.138-4.494,19.929-3.281"/>
			</g>
		</g>
		<g>
			<g>
				<path style="fill:#C2ECFD;" d="M297.316,369.124c-12.948-35.469-46.147-68.565-78.842-87.456
					c-7.973-4.605-19.609-8.089-23.26,2.908c-2.35,7.073-10.588,5.232-15.294,1.963c-5.835-4.054-9.237-10.628-14.19-15.577
					c-3.984-3.981-9.048-7.03-14.608-7.925c-5.56-0.895-11.61,0.555-15.687,4.44c-3.092,2.946-4.948,7.095-8.372,9.649
					c-5.743,4.284-14.093,2.69-20.2-1.056c-6.107-3.746-10.917-9.289-16.838-13.325c-5.92-4.035-13.896-6.425-20.195-3.011
					c-8.347,4.524-9.111,16.581-5.567,25.389c2.188,5.438,5.646,13.326,9.801,17.587c5.901,6.051,14.485,10.073,22.695,11.685
					c6.049,1.187,12.304,1.153,18.302,2.579c2.165,0.515,4.655,1.431,5.088,3.927c0.626,3.606-3.834,5.815-6.438,7.127
					c-4.508,2.272-8.968,7.22-6.865,11.809c1.319,2.877,4.694,4.161,7.814,4.692c9.371,1.593,18.667-1.112,27.553-3.85
					c5.406-1.668,10.15-5.046,15.695-6.481c2.884-0.745,10.266-1.071,9.469,3.8c-0.249,1.524-1.335,2.775-2.508,3.779
					c-1.173,1.004-2.488,1.865-3.468,3.057c-4.26,5.183-0.036,11.285,5.562,12.63c4.299,1.034,8.787-0.068,13.093-1.074
					c28.158-6.576,57.67-9.124,86.01-3.38c6.037,1.223,12.636,3.286,15.66,8.652"/>
			</g>
			
				<path style="opacity:0.5;fill:none;stroke:#FFFFFF;stroke-width:1.7443;stroke-linecap:round;stroke-linejoin:round;stroke-miterlimit:10;" d="
				M266.959,346.769c-20.711-19.16-48.15-31.808-76.798-35.4c-17.851-2.238-35.937-1.055-53.858-2.602
				c-17.921-1.547-36.514-6.303-49.469-18.196"/>
			<g>
				<path style="opacity:0.25;fill:#EECAB0;" d="M273.395,349.518c0,0-49.234-32.749-63.138-65.971
					c9.394,2.54,15.466,5.591,22.057,10.962c7.111,10.052,24.047,25.467,35.533,35.474
					C269.484,335.471,271.322,341.908,273.395,349.518z"/>
				<path style="fill:#C2ECFD;" d="M271.533,338.27c-1.846-11.567-6.946-23.047-8.946-34.809
					c-3.206-18.85-3.704-37.803-0.222-56.531c2.968-15.964,7.906-32.675,2.499-48.826c-1.436-4.291-4.084-8.925-9.648-8.881
					c-2.23,0.018-4.346,0.949-5.953,2.373c-4.057,3.596-4.804,8.766-5.464,13.704l-2.206,16.507
					c-0.718,5.369-8.897,6.013-10.536,0.785c-0.014-0.044-0.027-0.088-0.041-0.132c-1.338-4.39-1.097-9.026-0.743-13.552
					c0.771-9.847,2.027-19.77,0.52-29.58c-1.824-11.87-8.333-23.906-21.018-28.364c-4.497-1.581-9.469-1.78-14.014-0.481
					c-12.703,3.63-15.273,15.6-12.725,25.63c1.794,7.057,5.774,13.454,9.414,19.883c8.89,15.705,4.086,30.633,6.315,48.194
					C203.49,281.395,239.892,317.351,271.533,338.27z"/>
				
					<path style="opacity:0.5;fill:none;stroke:#FFFFFF;stroke-width:1.7443;stroke-linecap:round;stroke-linejoin:round;stroke-miterlimit:10;" d="
					M201.993,172.023c26.602,32.188,16.987,108.184,63.347,149.205"/>
				
					<path style="opacity:0.5;fill:none;stroke:#FFFFFF;stroke-width:1.7443;stroke-linecap:round;stroke-linejoin:round;stroke-miterlimit:10;" d="
					M253.912,209.818c3.039,16.271-7.42,34.531-9.847,44.656c-2.427,10.126-3.71,27.364-1.106,37.535"/>
			</g>
		</g>
		<g>
			<path style="fill:#ECF8FF;" d="M177.512,368.792c-1.149-6.506-19.315-47.06-40.342-36.2c-12.491,6.451-10.244,30.205,9.266,48.15
				c-3.829-3.704-8.251-7.903-13.476-8.941c-2.823-0.56-6.277,0.739-8.392,2.691c-1.881,1.737-2.435,4.481-2.522,7.04
				c-0.316,9.308,4.537,18.626,12.344,23.703c-4.315-2.411-8.054-5.43-12.979-5.853c-1.6-0.137-4.313,0.779-5.053,2.204
				c-0.806,1.552-0.75,7.366,8.75,11.708c-38.72-7.344-40.979,9.161-27.061,9.161c13.918,0,114.15,0,114.15,0"/>
		</g>
		<g>
			<path style="fill:#DFF5FF;" d="M250.074,336.589c-1.839-10.415-21.022-75.887-54.686-58.501
				c-19.996,10.328-16.4,48.356,14.834,77.086c-6.13-5.929-13.21-12.653-21.575-14.314c-4.519-0.897-10.049,1.183-13.435,4.308
				c-3.012,2.781-3.898,7.173-4.037,11.27c-0.506,14.901,7.263,29.819,19.761,37.947c-6.908-3.86-12.894-8.693-20.779-9.37
				c-2.562-0.22-6.904,1.247-8.09,3.528c-1.29,2.484-1.2,11.792,14.007,18.744c-61.988-11.757-65.604,14.667-43.322,14.667
				c22.282,0,147.257,0,147.257,0"/>
		</g>
		<g>
			<path style="fill:#ECF8FF;" d="M503.564,368.792c1.149-6.506,19.315-47.06,40.342-36.2c12.491,6.451,10.245,30.205-9.266,48.15
				c3.829-3.704,8.251-7.903,13.476-8.941c2.823-0.56,6.278,0.739,8.392,2.691c1.881,1.737,2.435,4.481,2.522,7.04
				c0.316,9.308-4.537,18.626-12.344,23.703c4.315-2.411,8.054-5.43,12.979-5.853c1.6-0.137,4.313,0.779,5.054,2.204
				c0.806,1.552,0.749,7.366-8.75,11.708c38.72-7.344,40.979,9.161,27.061,9.161c-13.918,0-114.15,0-114.15,0"/>
		</g>
		<g>
			<path style="fill:#DFF5FF;" d="M431.002,336.589c1.839-10.415,21.022-75.887,54.686-58.501
				c19.996,10.328,16.4,48.356-14.833,77.086c6.13-5.929,13.209-12.653,21.575-14.314c4.519-0.897,10.049,1.183,13.435,4.308
				c3.012,2.781,3.898,7.173,4.037,11.27c0.505,14.901-7.263,29.819-19.761,37.947c6.908-3.86,12.894-8.693,20.779-9.37
				c2.562-0.22,6.904,1.247,8.089,3.528c1.29,2.484,1.2,11.792-14.007,18.744c61.988-11.757,65.604,14.667,43.322,14.667
				c-22.282,0-147.257,0-147.257,0"/>
		</g>
	</g>
	<g>
		<g>
			<g>
				<g>
					<polyline style="fill:#D7EDFC;" points="282.523,121.151 291.656,126.022 287.09,114.148 					"/>
				</g>
				<circle style="fill:#D7EDFC;" cx="273.488" cy="105.97" r="19.303"/>
			</g>
		</g>
		<g>
			<g>
				<path style="fill:#87C0EC;" d="M272.355,95.048c3.895-0.346,7.345,2.542,7.69,6.437c0.1,1.126-0.093,2.266-0.572,3.389
					l-0.672,1.667l-2.36,6.109l-2.505,0.222l-2.504,0.222l-3.357-5.602l-0.996-1.518c-0.67-1.021-1.06-2.109-1.16-3.236
					C265.572,98.843,268.46,95.393,272.355,95.048 M272.258,93.965c-4.499,0.399-7.823,4.37-7.423,8.869
					c0.123,1.39,0.618,2.645,1.334,3.736l4.69,7.666l3.173-0.281l3.173-0.282l3.267-8.372c0.512-1.2,0.779-2.522,0.655-3.912
					C280.728,96.889,276.758,93.566,272.258,93.965L272.258,93.965z"/>
			</g>
			<g>
				<path style="fill:#87C0EC;" d="M274.57,120.012L274.57,120.012c-1.758,0.156-3.31-1.143-3.466-2.901l-0.207-2.328l6.366-0.565
					l0.207,2.328C277.627,118.304,276.328,119.856,274.57,120.012z"/>
			</g>
			<g>
				<path style="fill:#87C0EC;" d="M269.61,103.951c-0.278,0-0.516-0.213-0.541-0.496c-0.026-0.298,0.194-0.563,0.494-0.589
					l6.917-0.615c0.298-0.02,0.563,0.194,0.589,0.494c0.027,0.298-0.194,0.563-0.494,0.589l-6.917,0.615
					C269.642,103.951,269.626,103.951,269.61,103.951z"/>
			</g>
			<g>
				<path style="fill:#87C0EC;" d="M273.982,113.93c-0.278,0-0.516-0.213-0.541-0.496l-0.913-10.286
					c-0.027-0.298,0.194-0.563,0.494-0.589c0.305-0.032,0.563,0.194,0.589,0.494l0.913,10.286c0.027,0.298-0.194,0.563-0.494,0.589
					C274.014,113.929,273.998,113.93,273.982,113.93z"/>
			</g>
		</g>
	</g>
	<g>
		<g>
			<g>
				<g>
					<polyline style="fill:#D7EDFC;" points="382.384,139.416 374.052,143.86 378.218,133.029 					"/>
				</g>
				<circle style="fill:#D7EDFC;" cx="390.625" cy="125.568" r="17.609"/>
			</g>
		</g>
		<path style="fill:#87C0EC;" d="M400.393,127.371c0.195-0.729,0.299-1.495,0.299-2.285c0-0.734-0.09-1.447-0.259-2.129l-1.618,0.18
			c-0.199-0.826-0.519-1.606-0.943-2.319l1.285-1.028c-0.378-0.652-0.846-1.266-1.405-1.825c-0.217-0.218-0.444-0.422-0.678-0.612
			c-0.061-0.051-0.123-0.1-0.185-0.148c-0.266-0.205-0.542-0.393-0.826-0.564l-1.026,1.285c-0.081-0.05-0.164-0.099-0.246-0.147
			c-0.093-0.054-0.187-0.106-0.283-0.156c-0.556-0.292-1.148-0.523-1.768-0.686l0.182-1.632c-0.729-0.195-1.495-0.298-2.284-0.298
			c-0.734,0-1.447,0.089-2.13,0.259l0.182,1.625c-0.829,0.195-1.61,0.512-2.324,0.931l-1.023-1.28
			c-0.653,0.377-1.268,0.845-1.827,1.403c-0.519,0.52-0.959,1.088-1.322,1.689l1.274,1.019c-0.439,0.705-0.774,1.48-0.989,2.304
			l-1.621-0.182c-0.195,0.729-0.299,1.495-0.299,2.284c0,0.734,0.09,1.448,0.259,2.13l1.613-0.18
			c0.196,0.829,0.515,1.611,0.937,2.327l-1.275,1.019c0.378,0.654,0.846,1.268,1.404,1.827c0.519,0.519,1.087,0.96,1.689,1.323
			l1.014-1.267c0.706,0.439,1.482,0.778,2.306,0.994l-0.179,1.61c0.728,0.195,1.493,0.299,2.284,0.299
			c0.734,0,1.446-0.09,2.129-0.259l-0.178-1.602c0.832-0.196,1.616-0.516,2.333-0.939l1.011,1.265
			c0.652-0.377,1.268-0.845,1.827-1.404c0.519-0.519,0.959-1.087,1.322-1.689l-1.264-1.01c0.437-0.707,0.772-1.484,0.986-2.31
			L400.393,127.371z M395.796,125.252c-0.086,2.709-2.292,4.915-5.001,5.001c-2.99,0.095-5.436-2.349-5.34-5.34
			c0.086-2.709,2.292-4.915,5.001-5.001C393.447,119.817,395.891,122.262,395.796,125.252z"/>
	</g>
	<g>
		<g>
			<rect x="281.518" y="364.845" style="fill:#FFFFFF;" width="161.791" height="48.742"/>
			
				<rect x="180.251" y="364.845" transform="matrix(-1 -1.224647e-16 1.224647e-16 -1 461.769 778.4318)" style="fill:#EDEDED;" width="101.267" height="48.742"/>
			<path style="fill:#5C87C7;" d="M269.098,356.369v12.252h159.529c6.019,0,10.898,4.88,10.898,10.899v19.392
				c0,6.019-4.879,10.898-10.898,10.898H269.098v12.252h165.331c10.421,0,18.869-8.448,18.869-18.869v-27.955
				c0-10.421-8.448-18.869-18.869-18.869H269.098z"/>
			<rect x="170.957" y="356.369" style="fill:#4061B0;" width="98.141" height="12.252"/>
			<rect x="170.957" y="409.81" style="fill:#4061B0;" width="98.141" height="12.252"/>
			<g>
				
					<line style="fill:none;stroke:#CCCCCC;stroke-width:4.3508;stroke-miterlimit:10;" x1="180.251" y1="378.503" x2="281.518" y2="378.503"/>
				
					<line style="fill:none;stroke:#CCCCCC;stroke-width:4.3508;stroke-miterlimit:10;" x1="180.251" y1="391.98" x2="281.518" y2="391.98"/>
				
					<line style="fill:none;stroke:#CCCCCC;stroke-width:4.3508;stroke-miterlimit:10;" x1="180.251" y1="403.16" x2="281.518" y2="403.16"/>
			</g>
			<g>
				<g>
					<polygon style="fill:#E2E2E2;" points="409.324,378.503 281.518,380.679 281.518,376.328 					"/>
				</g>
				<g>
					<polygon style="fill:#E2E2E2;" points="422.523,391.98 281.518,394.155 281.518,389.805 					"/>
				</g>
				<g>
					<polygon style="fill:#E2E2E2;" points="409.324,403.16 281.518,405.335 281.518,400.984 					"/>
				</g>
			</g>
		</g>
		<g>
			<path style="fill:#DB9821;" d="M209.744,356.369h129.312v-82.58H209.744c-7.839,0-14.193,6.355-14.193,14.193v54.193
				C195.551,350.015,201.905,356.369,209.744,356.369z"/>
			
				<rect x="292.884" y="282.265" transform="matrix(-1 -1.224647e-16 1.224647e-16 -1 722.4927 630.1592)" style="fill:#FFFFFF;" width="136.725" height="65.628"/>
			<path style="fill:#E2B659;" d="M442.029,273.79v12.252H307.566c-6.019,0-10.898,4.88-10.898,10.899v36.279
				c0,6.019,4.88,10.899,10.898,10.899h134.463v12.252H301.764c-10.421,0-18.869-8.448-18.869-18.869v-44.841
				c0-10.421,8.448-18.869,18.869-18.869H442.029z"/>
			<g>
				<g>
					<polygon style="fill:#E5E5E5;" points="326.869,295.924 429.609,293.748 429.609,298.099 					"/>
				</g>
				<g>
					<polygon style="fill:#E5E5E5;" points="305.595,304.773 429.609,302.597 429.609,306.948 					"/>
				</g>
				<g>
					<polygon style="fill:#E5E5E5;" points="313.671,326.287 429.609,324.112 429.609,328.462 					"/>
				</g>
				<g>
					<polygon style="fill:#E5E5E5;" points="326.869,337.467 429.609,335.291 429.609,339.642 					"/>
				</g>
			</g>
		</g>
		<g>
			<rect x="242.567" y="258.087" style="fill:#FFFFFF;" width="183.572" height="16.925"/>
			<rect x="242.567" y="201.186" style="fill:#6D8EAF;" width="183.572" height="16.925"/>
			<rect x="232.965" y="184.26" style="fill:#E2B659;" width="199.195" height="16.925"/>
			<rect x="247.123" y="218.11" style="fill:#CE631A;" width="179.015" height="16.925"/>
			<rect x="255.667" y="235.036" style="fill:#6F6865;" width="168.681" height="23.051"/>
			
				<line style="fill:none;stroke:#A6A3A3;stroke-width:7.8116;stroke-miterlimit:10;" x1="274.789" y1="246.561" x2="294.969" y2="246.561"/>
			
				<line style="fill:none;stroke:#A6A3A3;stroke-width:7.8116;stroke-miterlimit:10;" x1="306.035" y1="246.561" x2="404.82" y2="246.561"/>
			
				<line style="fill:none;stroke:#D29075;stroke-width:7.8116;stroke-miterlimit:10;" x1="261.526" y1="226.573" x2="404.82" y2="226.573"/>
			
				<line style="fill:none;stroke:#F0EFE1;stroke-width:7.8116;stroke-miterlimit:10;" x1="333.172" y1="209.648" x2="418.978" y2="209.648"/>
			
				<line style="fill:none;stroke:#F0EFE1;stroke-width:7.8116;stroke-miterlimit:10;" x1="242.567" y1="192.723" x2="418.978" y2="192.723"/>
		</g>
	</g>
	<g>
		<path style="opacity:0.2;fill:#649DE1;" d="M209.44,339.716c-6.37-1.755-11.218-7.159-11.598-13.756
			c-0.015-0.322-0.029-0.636-0.029-0.951c0-0.088,0-0.19,0.015-0.285c-0.015-0.088-0.015-0.19-0.015-0.285
			c0-0.314,0.015-0.629,0.029-0.951c0.38-6.596,5.229-12,11.598-13.756c23.994-6.64,41.625-28.637,41.625-54.744
			c0-3.51-0.314-6.947-0.936-10.282c-0.102-0.57-0.212-1.133-0.336-1.689c-0.088-0.41-0.176-0.819-0.278-1.229
			c0-0.022-0.007-0.051-0.015-0.073c-0.051-0.212-0.102-0.424-0.161-0.636c-0.095-0.41-0.197-0.804-0.314-1.207
			c-0.168-0.614-0.344-1.221-0.534-1.828h-1.938c0.066,0.197,0.132,0.395,0.183,0.592c0.015,0.037,0.029,0.066,0.037,0.102
			c0.11,0.344,0.212,0.687,0.307,1.031c0.066,0.227,0.132,0.446,0.183,0.673c0.102,0.358,0.197,0.709,0.285,1.068
			c0.059,0.227,0.117,0.453,0.161,0.673c0.095,0.366,0.176,0.724,0.249,1.09c0.029,0.124,0.059,0.249,0.08,0.373
			c0.007,0.044,0.022,0.095,0.029,0.146c0.088,0.417,0.168,0.834,0.241,1.251c0.6,3.232,0.907,6.574,0.907,9.946
			c0,24.623-16.564,46.4-40.265,52.96c-7.335,2.026-12.542,8.22-12.951,15.438c-0.022,0.351-0.029,0.702-0.029,1.053
			c0,0.095,0,0.197,0.007,0.285c-0.007,0.095-0.007,0.197-0.007,0.285c0,0.351,0.007,0.702,0.029,1.053
			c0.41,7.218,5.616,13.419,12.951,15.438c23.701,6.56,40.265,28.345,40.265,52.96c0,3.371-0.307,6.721-0.907,9.953
			c-0.826,4.607-2.26,9.09-4.263,13.346h-99.55c-2.004-4.256-3.437-8.739-4.271-13.353c-0.6-3.225-0.899-6.574-0.899-9.946
			c0-24.615,16.564-46.4,40.265-52.96c7.335-2.018,12.534-8.22,12.951-15.438c0.022-0.351,0.029-0.702,0.029-1.053
			c0-0.088,0-0.19-0.007-0.285c0.007-0.088,0.007-0.19,0.007-0.285c0-0.351-0.007-0.702-0.029-1.053
			c-0.417-7.218-5.616-13.412-12.951-15.438c-23.701-6.56-40.265-28.337-40.265-52.96c0-3.371,0.3-6.713,0.899-9.946
			c0.102-0.578,0.219-1.148,0.344-1.726c0-0.015,0.007-0.029,0.007-0.044c0.124-0.556,0.249-1.112,0.388-1.667
			c0.007-0.029,0.015-0.059,0.022-0.095c0.11-0.424,0.219-0.856,0.344-1.272c0.007-0.037,0.022-0.066,0.029-0.102
			c0.037-0.161,0.088-0.329,0.139-0.49c0.08-0.307,0.176-0.607,0.271-0.907c0.007-0.037,0.022-0.066,0.037-0.102
			c0.051-0.197,0.117-0.395,0.183-0.592h-1.938c-0.19,0.607-0.366,1.214-0.534,1.828c-0.117,0.402-0.219,0.797-0.314,1.207
			c-0.059,0.212-0.11,0.424-0.161,0.636c-0.007,0.022-0.015,0.051-0.015,0.073c-0.102,0.41-0.19,0.819-0.278,1.229
			c-0.124,0.556-0.234,1.119-0.336,1.689c-0.622,3.335-0.936,6.772-0.936,10.282c0,26.107,17.624,48.104,41.625,54.744
			c6.362,1.755,11.218,7.159,11.591,13.756c0.022,0.322,0.029,0.636,0.029,0.951c0,0.095,0,0.197-0.007,0.285
			c0.007,0.095,0.007,0.197,0.007,0.285c0,0.314-0.007,0.629-0.029,0.951c-0.373,6.596-5.229,12-11.591,13.756
			c-24.001,6.647-41.625,28.637-41.625,54.744c0,3.51,0.314,6.947,0.936,10.282c0.951,5.251,2.633,10.238,4.922,14.867h101.876
			c2.289-4.629,3.971-9.616,4.922-14.867c0.622-3.335,0.936-6.772,0.936-10.282C251.065,368.353,233.433,346.363,209.44,339.716z"/>
		<path style="fill:#FFFFFF;" d="M249.215,394.46c0,3.371-0.307,6.721-0.907,9.953c-0.826,4.607-2.26,9.09-4.263,13.346h-99.55
			c-2.004-4.256-3.437-8.739-4.271-13.353c-0.6-3.225-0.899-6.574-0.899-9.946c0-24.615,16.564-46.4,40.265-52.96
			c7.335-2.018,12.534-8.22,12.951-15.438c0.022-0.351,0.029-0.702,0.029-1.053c0-0.088,0-0.19-0.007-0.285
			c0.007-0.088,0.007-0.19,0.007-0.285c0-0.351-0.007-0.702-0.029-1.053c-0.417-7.218-5.616-13.412-12.951-15.438
			c-23.701-6.56-40.265-28.337-40.265-52.96c0-3.371,0.3-6.713,0.899-9.946c0.102-0.578,0.219-1.148,0.344-1.726
			c0-0.015,0.007-0.029,0.007-0.044c0.117-0.556,0.249-1.112,0.388-1.667c0.007-0.029,0.015-0.059,0.022-0.095
			c0.117-0.461,0.234-0.914,0.373-1.375c0.124-0.468,0.263-0.936,0.41-1.397c0.073-0.234,0.146-0.468,0.219-0.695h104.567
			c0.073,0.227,0.146,0.461,0.219,0.695c0.11,0.344,0.212,0.687,0.307,1.031c0.066,0.227,0.132,0.446,0.183,0.673
			c0.102,0.358,0.197,0.709,0.285,1.068c0.059,0.227,0.117,0.453,0.161,0.673c0.095,0.366,0.176,0.724,0.249,1.09
			c0.037,0.168,0.073,0.344,0.11,0.519c0.088,0.417,0.168,0.834,0.241,1.251c0.6,3.232,0.907,6.574,0.907,9.946
			c0,24.623-16.564,46.4-40.265,52.96c-7.335,2.026-12.542,8.22-12.951,15.438c-0.022,0.351-0.029,0.702-0.029,1.053
			c0,0.095,0,0.197,0.007,0.285c-0.007,0.095-0.007,0.197-0.007,0.285c0,0.351,0.007,0.702,0.029,1.053
			c0.41,7.218,5.616,13.419,12.951,15.438C232.651,348.06,249.215,369.845,249.215,394.46z"/>
		<path style="opacity:0.5;fill:#DBEAF8;" d="M249.215,394.46c0,3.371-0.307,6.721-0.907,9.953c-0.826,4.607-2.26,9.09-4.263,13.346
			h-99.55c-2.004-4.256-3.437-8.739-4.271-13.353c-0.6-3.225-0.899-6.574-0.899-9.946c0-24.615,16.564-46.4,40.265-52.96
			c7.335-2.018,12.534-8.22,12.951-15.438c0.022-0.351,0.029-0.702,0.029-1.053c0-0.088,0-0.19-0.007-0.285
			c0.007-0.088,0.007-0.19,0.007-0.285c0-0.351-0.007-0.702-0.029-1.053c-0.417-7.218-5.616-13.412-12.951-15.438
			c-23.701-6.56-40.265-28.337-40.265-52.96c0-3.371,0.3-6.713,0.899-9.946c0.102-0.578,0.219-1.148,0.344-1.726
			c0-0.015,0.007-0.029,0.007-0.044c0.117-0.556,0.249-1.112,0.388-1.667c0.007-0.029,0.015-0.059,0.022-0.095
			c0.117-0.461,0.234-0.914,0.373-1.375c0.124-0.468,0.263-0.936,0.41-1.397c0.073-0.234,0.146-0.468,0.219-0.695h104.567
			c0.073,0.227,0.146,0.461,0.219,0.695c0.11,0.344,0.212,0.687,0.307,1.031c0.066,0.227,0.132,0.446,0.183,0.673
			c0.102,0.358,0.197,0.709,0.285,1.068c0.059,0.227,0.117,0.453,0.161,0.673c0.095,0.366,0.176,0.724,0.249,1.09
			c0.037,0.168,0.073,0.344,0.11,0.519c0.088,0.417,0.168,0.834,0.241,1.251c0.6,3.232,0.907,6.574,0.907,9.946
			c0,24.623-16.564,46.4-40.265,52.96c-7.335,2.026-12.542,8.22-12.951,15.438c-0.022,0.351-0.029,0.702-0.029,1.053
			c0,0.095,0,0.197,0.007,0.285c-0.007,0.095-0.007,0.197-0.007,0.285c0,0.351,0.007,0.702,0.029,1.053
			c0.41,7.218,5.616,13.419,12.951,15.438C232.651,348.06,249.215,369.845,249.215,394.46z"/>
		<path style="fill:#E6983C;" d="M148.951,287.349c0,0,8.666,14.202,29.446,20.732c5.321,1.564,7.114,2.717,10.177,5.542
			c3.064,2.825,4.109,7.789,3.99,11.716c-0.041,3.041,1.703,47.537,1.703,53.08c0,5.229,0.677,1.356,0.527,0.231
			c0.539-31.486,1.18-54.652,1.18-54.652s1.883-9.898,4.797-11.265c2.914-1.366,13.483-6.275,17.81-7.487
			s14.781-10.739,14.781-10.739s13.28-18.938,14.088-21.363c0.808-2.425-6.005-2.656-6.005-2.656L148.951,287.349z"/>
		
			<ellipse transform="matrix(0.9879 -0.155 0.155 0.9879 -40.6793 33.9491)" style="fill:#F0CD46;" cx="197.423" cy="277.908" rx="51.012" ry="10.538"/>
		<g style="opacity:0.5;">
			<g>
				<path style="fill:#FFFFFF;" d="M179.321,300.977c-0.597,0-1.204-0.097-1.801-0.302c-3.973-1.364-7.652-3.102-10.937-5.166
					c-2.592-1.628-3.373-5.05-1.745-7.642c1.628-2.591,5.05-3.374,7.642-1.745c2.565,1.611,5.472,2.98,8.64,4.068
					c2.895,0.994,4.436,4.147,3.442,7.043C183.774,299.531,181.623,300.977,179.321,300.977z"/>
			</g>
			<g>
				<path style="fill:#FFFFFF;" d="M157.646,284.624c-1.832,0-3.625-0.908-4.682-2.568c-9.665-15.189-7.177-32.245-7.066-32.963
					c0.466-3.026,3.3-5.103,6.321-4.635c3.02,0.465,5.093,3.285,4.638,6.304c-0.033,0.226-1.889,13.794,5.46,25.344
					c1.643,2.582,0.882,6.008-1.701,7.652C159.694,284.344,158.664,284.624,157.646,284.624z"/>
			</g>
		</g>
		<g style="opacity:0.5;">
			<g>
				<path style="fill:#FFFFFF;" d="M179.321,347.858c-0.597,0-1.204,0.097-1.801,0.302c-3.973,1.364-7.652,3.102-10.937,5.166
					c-2.592,1.628-3.373,5.05-1.745,7.642c1.628,2.591,5.05,3.374,7.642,1.745c2.565-1.611,5.472-2.98,8.64-4.068
					c2.895-0.994,4.436-4.147,3.442-7.043C183.774,349.303,181.623,347.858,179.321,347.858z"/>
			</g>
			<g>
				<path style="fill:#FFFFFF;" d="M157.646,364.21c-1.832,0-3.625,0.908-4.682,2.568c-9.665,15.189-7.177,32.245-7.066,32.963
					c0.466,3.026,3.3,5.103,6.321,4.635c3.02-0.465,5.093-3.285,4.638-6.304c-0.033-0.226-1.889-13.794,5.46-25.344
					c1.643-2.582,0.882-6.008-1.701-7.652C159.694,364.491,158.664,364.21,157.646,364.21z"/>
			</g>
		</g>
		<path style="fill:#C0DBF4;" d="M209.44,339.716c-6.37-1.755-11.218-7.159-11.598-13.756c-0.015-0.322-0.029-0.636-0.029-0.951
			c0-0.088,0-0.19,0.015-0.285c-0.015-0.088-0.015-0.19-0.015-0.285c0-0.314,0.015-0.629,0.029-0.951
			c0.38-6.596,5.229-12,11.598-13.756c23.994-6.64,41.625-28.637,41.625-54.744c0-3.51-0.314-6.947-0.936-10.282
			c-0.102-0.57-0.212-1.133-0.336-1.689c-0.088-0.41-0.176-0.819-0.278-1.229c0-0.022-0.007-0.051-0.015-0.073
			c-0.051-0.212-0.102-0.424-0.161-0.636c-0.095-0.41-0.197-0.804-0.314-1.207c-0.168-0.614-0.344-1.221-0.534-1.828h-1.938
			c0.066,0.19,0.124,0.395,0.183,0.592c0.015,0.037,0.029,0.066,0.037,0.102c0.11,0.344,0.212,0.687,0.307,1.031
			c0.066,0.227,0.132,0.446,0.183,0.673c0.102,0.358,0.197,0.709,0.285,1.068c0.059,0.227,0.117,0.453,0.161,0.673
			c0.095,0.366,0.176,0.724,0.249,1.09c0.029,0.124,0.051,0.249,0.08,0.373c0.007,0.044,0.022,0.095,0.029,0.146
			c0.088,0.417,0.168,0.834,0.241,1.251c0.6,3.232,0.907,6.574,0.907,9.946c0,24.623-16.564,46.4-40.265,52.96
			c-7.335,2.026-12.542,8.22-12.951,15.438c-0.022,0.351-0.029,0.702-0.029,1.053c0,0.095,0,0.197,0.007,0.285
			c-0.007,0.095-0.007,0.197-0.007,0.285c0,0.351,0.007,0.702,0.029,1.053c0.41,7.218,5.616,13.419,12.951,15.438
			c23.701,6.56,40.265,28.345,40.265,52.96c0,3.371-0.307,6.721-0.907,9.953c-0.826,4.607-2.26,9.09-4.263,13.346h-99.55
			c-2.004-4.256-3.437-8.739-4.271-13.353c-0.6-3.225-0.899-6.574-0.899-9.946c0-24.615,16.564-46.4,40.265-52.96
			c7.335-2.018,12.534-8.22,12.951-15.438c0.022-0.351,0.029-0.702,0.029-1.053c0-0.088,0-0.19-0.007-0.285
			c0.007-0.088,0.007-0.19,0.007-0.285c0-0.351-0.007-0.702-0.029-1.053c-0.417-7.218-5.616-13.412-12.951-15.438
			c-23.701-6.56-40.265-28.337-40.265-52.96c0-3.371,0.3-6.713,0.899-9.946c0.102-0.578,0.219-1.155,0.344-1.726
			c0-0.015,0.007-0.029,0.007-0.044c0.124-0.556,0.249-1.112,0.388-1.667c0.007-0.029,0.015-0.059,0.022-0.095
			c0.11-0.424,0.219-0.856,0.344-1.272c0.007-0.037,0.022-0.066,0.029-0.102c0.044-0.161,0.088-0.329,0.139-0.49
			c0.08-0.307,0.176-0.607,0.271-0.907c0.007-0.037,0.022-0.066,0.037-0.102c0.059-0.197,0.117-0.402,0.183-0.592h-1.938
			c-0.19,0.607-0.366,1.214-0.534,1.828c-0.117,0.402-0.219,0.797-0.314,1.207c-0.059,0.212-0.11,0.424-0.161,0.636
			c-0.007,0.022-0.015,0.051-0.015,0.073c-0.102,0.41-0.19,0.819-0.278,1.229c-0.124,0.556-0.234,1.119-0.336,1.689
			c-0.622,3.335-0.936,6.772-0.936,10.282c0,26.107,17.624,48.104,41.625,54.744c6.362,1.755,11.218,7.159,11.591,13.756
			c0.022,0.322,0.029,0.636,0.029,0.951c0,0.095,0,0.197-0.007,0.285c0.007,0.095,0.007,0.197,0.007,0.285
			c0,0.314-0.007,0.629-0.029,0.951c-0.373,6.596-5.229,12-11.591,13.756c-24.001,6.647-41.625,28.637-41.625,54.744
			c0,3.51,0.314,6.947,0.936,10.282c0.951,5.251,2.633,10.238,4.922,14.867h101.876c2.289-4.629,3.971-9.616,4.922-14.867
			c0.622-3.335,0.936-6.772,0.936-10.282C251.065,368.353,233.433,346.363,209.44,339.716z"/>
		<path style="fill:#345375;" d="M265.059,416.589L265.059,416.589c0,2.967-2.405,5.372-5.372,5.372H128.849
			c-2.967,0-5.372-2.405-5.372-5.372l0,0c0-2.967,2.405-5.372,5.372-5.372h130.839C262.654,411.217,265.059,413.622,265.059,416.589
			z"/>
		<g>
			<path style="fill:#E6983C;" d="M237.751,272.173c0.086,0.406-1.008,0.98-2.443,1.284c-1.435,0.304-2.668,0.221-2.754-0.185
				c-0.086-0.406,1.008-0.98,2.443-1.284C236.432,271.685,237.665,271.767,237.751,272.173z"/>
			<path style="fill:#E6983C;" d="M234.447,276.838c0.086,0.406-0.587,0.891-1.503,1.085c-0.916,0.194-1.728,0.022-1.814-0.383
				c-0.086-0.406,0.587-0.891,1.503-1.085C233.549,276.261,234.361,276.433,234.447,276.838z"/>
			<path style="fill:#E6983C;" d="M230.251,275.607c0.086,0.405-0.587,0.891-1.503,1.085c-0.916,0.194-1.728,0.022-1.814-0.383
				c-0.086-0.406,0.587-0.891,1.503-1.085C229.354,275.029,230.166,275.201,230.251,275.607z"/>
			<path style="fill:#E6983C;" d="M201.282,279.334c0.046,0.219-0.317,0.481-0.812,0.586c-0.495,0.105-0.933,0.012-0.979-0.207
				c-0.046-0.219,0.317-0.481,0.812-0.586C200.797,279.022,201.236,279.115,201.282,279.334z"/>
			<path style="fill:#E6983C;" d="M223.666,272.533c0.046,0.219-0.317,0.481-0.812,0.586s-0.933,0.012-0.979-0.207
				c-0.046-0.219,0.317-0.481,0.812-0.586C223.182,272.221,223.62,272.314,223.666,272.533z"/>
			<path style="fill:#E6983C;" d="M215.552,280.347c0.046,0.219-0.317,0.481-0.812,0.586c-0.495,0.105-0.933,0.012-0.979-0.207
				c-0.046-0.219,0.317-0.481,0.812-0.586C215.067,280.035,215.505,280.128,215.552,280.347z"/>
			<path style="fill:#E6983C;" d="M204.725,285.522c0.046,0.219-0.317,0.481-0.812,0.586c-0.494,0.105-0.933,0.012-0.979-0.207
				c-0.046-0.219,0.317-0.481,0.812-0.586C204.24,285.211,204.679,285.303,204.725,285.522z"/>
		</g>
		<path style="fill:#E6983C;" d="M194.897,372.785l-0.379-0.148l-0.379,0.148c0,0-3.271,25.578-38.375,38.432
			c19.229,0,31.385,0,39.004,0c10.195,0,12.266,0,12.266,0c5.694,0,14.028,0,26.237,0
			C198.168,398.363,194.897,372.785,194.897,372.785z"/>
		<path style="fill:#C1D9ED;" d="M248.667,238.625c0,2.854-24.355,5.167-54.398,5.167s-54.398-2.314-54.398-5.167
			c0-2.854,24.355-5.167,54.398-5.167S248.667,235.771,248.667,238.625z"/>
		<path style="fill:#345375;" d="M259.687,230.67H128.852c-1.485,0-2.83,0.6-3.803,1.572s-1.572,2.318-1.572,3.803
			c0,2.962,2.406,5.368,5.375,5.368h11.196h1.938h104.567h1.938h11.196c2.969,0,5.375-2.406,5.375-5.368
			C265.062,233.076,262.656,230.67,259.687,230.67z"/>
	</g>
	<g id="XMLID_20_">
		<path id="XMLID_79_" style="fill:#345375;" d="M565.351,419.781l-55.197-55.568l7.262-7.213l55.197,55.568
			c1.992,2.005,1.981,5.245-0.024,7.237l0,0C570.583,421.797,567.343,421.786,565.351,419.781z"/>
		<path id="XMLID_22_" style="fill:#5C87C7;" d="M568.621,415.812l-55.569-55.943l2.583-2.566l55.569,55.943
			c0.709,0.713,0.705,1.866-0.009,2.575l0,0C570.482,416.529,569.33,416.525,568.621,415.812z"/>
		
			<rect id="XMLID_78_" x="471.351" y="315.143" transform="matrix(0.7047 0.7095 -0.7095 0.7047 390.3 -250.345)" style="fill:#E6B64E;" width="49.128" height="57.182"/>
		
			<rect id="XMLID_68_" x="482.176" y="306.589" transform="matrix(0.7047 0.7095 -0.7095 0.7047 381.6905 -246.7659)" style="fill:#EEC067;" width="10.269" height="57.182"/>
		<path id="XMLID_80_" style="fill:#345375;" d="M487.862,385.149l-33.416-33.641c-1.776-1.788-1.767-4.678,0.022-6.454l0.285-0.283
			c1.788-1.776,4.678-1.767,6.454,0.022l33.416,33.641c1.776,1.788,1.767,4.678-0.022,6.454l-0.285,0.283
			C492.528,386.947,489.639,386.938,487.862,385.149z"/>
		<polygon id="XMLID_81_" style="fill:#223B51;" points="487.577,388.91 450.684,351.769 454.319,350.429 488.941,385.284 		"/>
		<path id="XMLID_82_" style="fill:#345375;" d="M484.423,393.76l-38.61-38.87c-0.995-1.002-0.99-2.621,0.012-3.616l0.384-0.382
			c1.002-0.995,2.621-0.99,3.616,0.012l38.61,38.87c0.995,1.002,0.99,2.621-0.012,3.616l-0.384,0.382
			C487.037,394.767,485.418,394.762,484.423,393.76z"/>
		<path id="XMLID_85_" style="fill:#345375;" d="M537.346,335.997l-33.416-33.641c-1.776-1.788-4.666-1.798-6.454-0.022
			l-0.285,0.283c-1.788,1.776-1.798,4.666-0.022,6.454l33.416,33.641c1.776,1.788,4.666,1.798,6.454,0.022l0.285-0.283
			C539.112,340.675,539.122,337.786,537.346,335.997z"/>
		<polygon id="XMLID_84_" style="fill:#223B51;" points="541.108,335.737 504.215,298.596 502.851,302.222 537.473,337.077 		"/>
		<path id="XMLID_83_" style="fill:#345375;" d="M545.979,332.615l-38.61-38.87c-0.995-1.002-2.614-1.007-3.616-0.012l-0.384,0.382
			c-1.002,0.995-1.007,2.614-0.012,3.616l38.61,38.87c0.995,1.002,2.614,1.007,3.616,0.012l0.384-0.382
			C546.969,335.236,546.974,333.617,545.979,332.615z"/>
		<path id="XMLID_88_" style="fill:#E6B64E;" d="M436.052,394.678h65.688c9.711,0,17.584,7.873,17.584,17.584v0H418.468v0
			C418.468,402.551,426.341,394.678,436.052,394.678z"/>
		<path id="XMLID_89_" style="fill:#C49236;" d="M519.098,414.544H418.694c-0.964,0-1.745-0.781-1.745-1.745l0,0
			c0-0.964,0.781-1.745,1.745-1.745h100.404c0.964,0,1.745,0.781,1.745,1.745l0,0C520.843,413.763,520.062,414.544,519.098,414.544z
			"/>
		<path id="XMLID_87_" style="fill:#345375;" d="M520.612,422.061H417.18c-2.706,0-4.899-2.194-4.899-4.899l0,0
			c0-2.706,2.194-4.899,4.899-4.899h103.433c2.706,0,4.899,2.194,4.899,4.899l0,0C525.512,419.868,523.318,422.061,520.612,422.061z
			"/>
		<path id="XMLID_21_" style="fill:#F0CD46;" d="M507.807,399.41c0,0.417-0.338,0.755-0.755,0.755h-43.507
			c-0.834,0-1.51-0.676-1.51-1.51l0,0c0-0.834,0.676-1.51,1.51-1.51h41.997C506.793,397.145,507.807,398.159,507.807,399.41
			L507.807,399.41z"/>
	</g>
	<g>
		<path style="fill:none;stroke:#263238;stroke-width:0.546;stroke-miterlimit:10;" d="M103.895,345.683c0,0,35.717,27.527,69.387,0
			"/>
		<path style="fill:none;stroke:#263238;stroke-width:0.546;stroke-miterlimit:10;" d="M173.055,345.683c0,0,35.717,27.527,69.387,0
			"/>
		<path style="fill:none;stroke:#263238;stroke-width:0.546;stroke-miterlimit:10;" d="M241.911,345.683c0,0,35.717,27.527,69.387,0
			"/>
		<g>
			<g>
				<rect x="102.86" y="345.906" style="fill:#407BFF;" width="2.275" height="3.672"/>
				<rect x="102.86" y="345.906" style="opacity:0.2;enable-background:new    ;" width="2.275" height="3.672"/>
			</g>
			<path style="fill:#5C87C7;" d="M105.218,346.648c0.093-0.185,0.151-0.391,0.151-0.613c0-0.757-0.614-1.37-1.37-1.37
				c-0.757,0-1.371,0.614-1.371,1.37c0,0.221,0.058,0.428,0.151,0.613H105.218z"/>
			<g>
				<rect x="102.737" y="360.829" style="fill:#3C5C85;" width="2.523" height="72.415"/>
			</g>
			<g style="opacity:0.17;">
				<rect x="102.737" y="355.626" width="2.523" height="8.063"/>
			</g>
			<g>
				<path style="fill:#5C87C7;" d="M107.52,351.555c0,1.945-1.577,3.521-3.521,3.521c-1.945,0-3.521-1.577-3.521-3.521
					c0-1.945,1.577-3.521,3.521-3.521C105.943,348.033,107.52,349.61,107.52,351.555z"/>
				<path style="opacity:0.29;fill:#83B2EA;" d="M100.772,351.918c0,0.064,0.016,0.125,0.019,0.188
					c0.445,0.203,0.935,0.323,1.457,0.323c1.945,0,3.521-1.577,3.521-3.521c0-0.064-0.016-0.125-0.019-0.188
					c-0.445-0.203-0.935-0.323-1.457-0.323C102.349,348.397,100.772,349.974,100.772,351.918z"/>
			</g>
			<polygon style="fill:#5C87C7;" points="105.658,361.582 102.338,361.582 101.611,354.13 106.385,354.13 			"/>
			<path style="fill:#345375;" d="M102.613,428.417L102.613,428.417h2.77l0,0c0.619,1.326,1.507,2.238,2.5,2.566l1.004,0.332h-9.778
				l1.004-0.332C101.107,430.654,101.995,429.743,102.613,428.417z"/>
			<path style="fill:#3C5C85;" d="M110.422,432.76H97.574v-0.693c0-0.458,0.372-0.83,0.83-0.83h11.188c0.458,0,0.83,0.372,0.83,0.83
				V432.76z"/>
			<g>
				<path style="fill:#345375;" d="M111.235,433.447H96.761v-0.898c0-0.263,0.213-0.476,0.476-0.476h13.523
					c0.263,0,0.476,0.213,0.476,0.476V433.447z"/>
			</g>
		</g>
		<g>
			<g>
				<rect x="172.069" y="345.906" style="fill:#407BFF;" width="2.275" height="3.672"/>
				<rect x="172.069" y="345.906" style="opacity:0.2;enable-background:new    ;" width="2.275" height="3.672"/>
			</g>
			<path style="fill:#5C87C7;" d="M174.426,346.648c0.093-0.185,0.151-0.391,0.151-0.613c0-0.757-0.614-1.37-1.37-1.37
				c-0.757,0-1.371,0.614-1.371,1.37c0,0.221,0.058,0.428,0.151,0.613H174.426z"/>
			<g>
				<rect x="171.945" y="360.829" style="fill:#3C5C85;" width="2.523" height="72.415"/>
			</g>
			<g style="opacity:0.17;">
				<rect x="171.945" y="355.626" width="2.523" height="8.063"/>
			</g>
			<g>
				<path style="fill:#5C87C7;" d="M176.728,351.555c0,1.945-1.577,3.521-3.521,3.521s-3.521-1.577-3.521-3.521
					c0-1.945,1.577-3.521,3.521-3.521S176.728,349.61,176.728,351.555z"/>
				<path style="opacity:0.29;fill:#83B2EA;" d="M169.98,351.918c0,0.064,0.016,0.125,0.019,0.188
					c0.445,0.203,0.935,0.323,1.457,0.323c1.945,0,3.521-1.577,3.521-3.521c0-0.064-0.016-0.125-0.019-0.188
					c-0.445-0.203-0.935-0.323-1.457-0.323C171.557,348.397,169.98,349.974,169.98,351.918z"/>
			</g>
			<polygon style="fill:#5C87C7;" points="174.866,361.582 171.546,361.582 170.819,354.13 175.593,354.13 			"/>
			<path style="fill:#345375;" d="M171.821,428.417L171.821,428.417h2.77l0,0c0.619,1.326,1.507,2.238,2.5,2.566l1.004,0.332h-9.778
				l1.004-0.332C170.315,430.654,171.203,429.743,171.821,428.417z"/>
			<path style="fill:#3C5C85;" d="M179.63,432.76h-12.848v-0.693c0-0.458,0.372-0.83,0.83-0.83H178.8c0.458,0,0.83,0.372,0.83,0.83
				V432.76z"/>
			<g>
				<path style="fill:#345375;" d="M180.444,433.447h-14.475v-0.898c0-0.263,0.213-0.476,0.476-0.476h13.523
					c0.263,0,0.476,0.213,0.476,0.476V433.447z"/>
			</g>
		</g>
		<g>
			<g>
				<rect x="241.277" y="345.906" style="fill:#407BFF;" width="2.275" height="3.672"/>
				<rect x="241.277" y="345.906" style="opacity:0.2;enable-background:new    ;" width="2.275" height="3.672"/>
			</g>
			<path style="fill:#5C87C7;" d="M243.634,346.648c0.093-0.185,0.151-0.391,0.151-0.613c0-0.757-0.614-1.37-1.37-1.37
				c-0.757,0-1.371,0.614-1.371,1.37c0,0.221,0.058,0.428,0.151,0.613H243.634z"/>
			<g>
				<rect x="241.153" y="360.829" style="fill:#3C5C85;" width="2.523" height="72.415"/>
			</g>
			<g style="opacity:0.17;">
				<rect x="241.153" y="355.626" width="2.523" height="8.063"/>
			</g>
			<g>
				<path style="fill:#5C87C7;" d="M245.936,351.555c0,1.945-1.577,3.521-3.521,3.521s-3.521-1.577-3.521-3.521
					c0-1.945,1.577-3.521,3.521-3.521S245.936,349.61,245.936,351.555z"/>
				<path style="opacity:0.29;fill:#83B2EA;" d="M239.188,351.918c0,0.064,0.016,0.125,0.019,0.188
					c0.445,0.203,0.935,0.323,1.457,0.323c1.945,0,3.521-1.577,3.521-3.521c0-0.064-0.016-0.125-0.019-0.188
					c-0.445-0.203-0.935-0.323-1.457-0.323C240.765,348.397,239.188,349.974,239.188,351.918z"/>
			</g>
			<polygon style="fill:#5C87C7;" points="244.074,361.582 240.755,361.582 240.027,354.13 244.801,354.13 			"/>
			<path style="fill:#345375;" d="M241.03,428.417L241.03,428.417h2.77l0,0c0.619,1.326,1.507,2.238,2.5,2.566l1.004,0.332h-9.778
				l1.004-0.332C239.523,430.654,240.411,429.743,241.03,428.417z"/>
			<path style="fill:#3C5C85;" d="M248.838,432.76H235.99v-0.693c0-0.458,0.372-0.83,0.83-0.83h11.188c0.458,0,0.83,0.372,0.83,0.83
				V432.76z"/>
			<g>
				<path style="fill:#345375;" d="M249.652,433.447h-14.475v-0.898c0-0.263,0.213-0.476,0.476-0.476h13.523
					c0.263,0,0.476,0.213,0.476,0.476V433.447z"/>
			</g>
		</g>
		<g>
			<g>
				<rect x="310.485" y="345.906" style="fill:#407BFF;" width="2.275" height="3.672"/>
				<rect x="310.485" y="345.906" style="opacity:0.2;enable-background:new    ;" width="2.275" height="3.672"/>
			</g>
			<path style="fill:#5C87C7;" d="M312.842,346.648c0.093-0.185,0.151-0.391,0.151-0.613c0-0.757-0.614-1.37-1.37-1.37
				c-0.757,0-1.371,0.614-1.371,1.37c0,0.221,0.058,0.428,0.151,0.613H312.842z"/>
			<g>
				<rect x="310.361" y="360.829" style="fill:#3C5C85;" width="2.523" height="72.415"/>
			</g>
			<g style="opacity:0.17;">
				<rect x="310.361" y="355.626" width="2.523" height="8.063"/>
			</g>
			<g>
				<path style="fill:#5C87C7;" d="M315.144,351.555c0,1.945-1.577,3.521-3.521,3.521c-1.945,0-3.521-1.577-3.521-3.521
					c0-1.945,1.577-3.521,3.521-3.521C313.567,348.033,315.144,349.61,315.144,351.555z"/>
				<path style="opacity:0.29;fill:#83B2EA;" d="M308.397,351.918c0,0.064,0.016,0.125,0.019,0.188
					c0.445,0.203,0.935,0.323,1.457,0.323c1.945,0,3.521-1.577,3.521-3.521c0-0.064-0.016-0.125-0.019-0.188
					c-0.445-0.203-0.935-0.323-1.457-0.323C309.973,348.397,308.397,349.974,308.397,351.918z"/>
			</g>
			<polygon style="fill:#5C87C7;" points="313.282,361.582 309.963,361.582 309.235,354.13 314.01,354.13 			"/>
			<path style="fill:#345375;" d="M310.238,428.417L310.238,428.417h2.77l0,0c0.619,1.326,1.507,2.238,2.5,2.566l1.004,0.332h-9.778
				l1.004-0.332C308.731,430.654,309.619,429.743,310.238,428.417z"/>
			<path style="fill:#3C5C85;" d="M318.047,432.76h-12.848v-0.693c0-0.458,0.372-0.83,0.83-0.83h11.188
				c0.458,0,0.83,0.372,0.83,0.83V432.76z"/>
			<g>
				<path style="fill:#345375;" d="M318.86,433.447h-14.475v-0.898c0-0.263,0.213-0.476,0.476-0.476h13.523
					c0.263,0,0.476,0.213,0.476,0.476V433.447z"/>
			</g>
		</g>
	</g>
	<g>
		<g>
			<path style="fill:#E6A897;" d="M312.328,134.019c1.261,1.34,2.939,2.288,4.761,2.433c2.201,0.173,4.995-1.118,5.613-3.406
				c-1.392-0.082-1.297-1.948-1.343-3.011c-0.046-1.052-0.005-2.136,0.046-2.916c0.041-0.657,0.087-1.093,0.087-1.093
				s-8.26-5.252-8.26-5.252c0.41,2.494,0.629,5.031,0.57,7.56c-0.04,1.729,0.02,4.518-2.471,4.414
				C311.624,133.199,311.958,133.626,312.328,134.019z"/>
			<path style="fill:#D99789;" d="M316.406,125.266c0,0,2.269,3.255,4.954,4.769c-0.046-1.052-0.005-2.136,0.046-2.916
				L316.406,125.266z"/>
			<path style="fill:#E6A897;" d="M327.936,114.725c0,0,1.156,12.029-3.234,14.692c-1.978,1.199-8.442-4.276-8.442-4.276
				s-4.234-3.656-3.509-7.894C314.122,109.243,326.698,106.759,327.936,114.725z"/>
			<path style="fill:#2F3D6A;" d="M330.064,110.15c-0.12-0.084-1.144,0.692-4.549-1.987c-1.379-1.085-3.865-1.635-6.678-0.944
				c-2.499,0.614-3.245,2.634-3.245,2.634s-1.963-0.418-3.52,1.561c-3.452,4.386,1.068,14.412,1.658,14.563
				c0.59,0.151-0.74-6.566,2.074-6.487c1.672,0.047,2.199,2.943,2.468,2.674c0.269-0.269-0.023-3.614,0.246-4.35
				c0.069-0.187,0.55-0.548,1.069-0.481c1.307,0.171,1.038-2.025,2.115-2.354c0.676-0.207,2.759-0.153,4.157,0.216
				C331.357,116.649,331.963,111.47,330.064,110.15z"/>
			<path style="fill:#D99789;" d="M315.566,120.549c0.232-0.105,0.619-0.135,0.908,0.459c0.295,0.607,0.048,0.56-0.016,0.93
				c-0.064,0.371,0.293,0.356,0.395,0.676c0.102,0.32-0.021,1.074-0.682,0.933c-0.66-0.141-0.814-1.148-0.891-1.45
				C315.204,121.796,315.076,120.77,315.566,120.549z"/>
		</g>
		<path style="fill:#5392B8;" d="M306.183,172.119c0,0,13.322,1.513,16.389,1.576c3.067,0.063,2.915-1.538,2.915-1.538
			c0.156-3.376,0.728-11.331,1.362-14.027c0.592-2.517,0.855-3.447,1.371-5.839c1.146-5.316,1.095-6.331,2.309-12.893l-7.957-6.396
			c0,0-0.823,2.448-4.159,2.49c-4.458,0.057-5.845-3.067-5.845-3.067l-10.853,7.206l-1.018,17.529l4.079,13.422"/>
		<g>
			<g>
				<path style="fill:#D89A80;" d="M342.966,217.007c0,0-0.427,2.56-0.767,3.435c-0.341,0.875-3.213,0.068-3.402-0.497
					c-0.19-0.566,0.904-4.729,0.904-4.729"/>
				<path style="fill:#3D3D3D;" d="M337.796,220.668c-0.249,0.944-0.562,2.755-0.562,2.755l2.87,1.25l0.471-0.442
					c0,0,0.712,0.863,1.592,1.27c0.654,0.302,2.063,0.693,2.779,0.771c2.506,0.27,4.35-0.201,4.499-0.549
					c0.622-1.451-2.703-1.841-3.363-2.014c-1.895-0.499-2.948-2.107-3.15-3.156c-0.147-0.761,0.042-0.895-0.383-0.871
					c0,0-0.372-0.019-0.718,0.337c-0.53,0.547-1.329,0.797-2.039,0.474c-0.406-0.184-0.791-0.454-1.018-0.847
					C338.775,219.645,338.044,219.724,337.796,220.668z"/>
			</g>
			<g>
				<g>
					<path style="fill:#2F3D6A;" d="M330.278,183.542c4.488,0.882,9.92,1.536,14.455,0.938c-0.634,1.817-1.988,3.557-2.58,6.117
						c-1.956,8.453-2.635,19.807-3.131,26.832c0,0,0.939,1.803,3.947,0.43c4.495-11.101,12.343-33.6,12.27-38.481
						c-0.092-6.214-15.602-7.714-26.968-9.245"/>
				</g>
				<g style="opacity:0.5;">
					<path style="fill:#48546C;" d="M310.466,171.101c-3.574,2.61,19.812,12.441,19.812,12.441c2.594,0.51,5.12,0.738,7.665,0.732
						c0.241-0.464,0.466-0.939,0.57-1.451c0.138-0.679,0.064-1.385,0.183-2.068c0.231-1.328,1.184-2.45,2.336-3.149
						c1.152-0.699,2.491-1.024,3.822-1.238c3.162-0.51,8.683-0.152,8.683-0.152c-7.028-5.181-20.699-4.013-27.397-4.439
						C324.857,173.891,310.979,170.727,310.466,171.101z"/>
				</g>
			</g>
			<g style="opacity:0.2;">
				<path style="fill:#595959;" d="M340.974,219.375c-0.1,0.54-0.24,1.22-0.38,1.77c0.07-0.01,0.13-0.01,0.13-0.01
					c0.43-0.02,0.24,0.11,0.38,0.87c0.21,1.05,1.26,2.66,3.15,3.16c0.66,0.17,3.99,0.56,3.37,2.01c-0.15,0.35-2,0.82-4.5,0.55
					c-0.72-0.08-2.13-0.47-2.78-0.77c-0.88-0.41-1.59-1.27-1.59-1.27l-0.48,0.44l-2.87-1.25c0,0,0.32-1.81,0.57-2.75
					c0.24-0.95,0.98-1.03,0.98-1.03c0.02-0.45,0.17-1.26,0.35-2.06c-0.07-0.09-0.11-0.16-0.11-0.16c0.5-7.02,1.18-18.37,3.13-26.83
					c0.34-1.46,0.93-2.66,1.49-3.75c0.42-0.82,0.82-1.58,1.09-2.36c-2.09,0.27-4.38,0.27-6.68,0.12c-0.02,0.71-0.05,1.46-0.08,2.24
					c-0.45,9.97-2.11,24.92-1.87,36.76c0,0-0.19,0.16-0.55,0.32c-0.01,0.54-0.03,1.19-0.07,1.74c0.07-0.03,0.13-0.04,0.13-0.04
					c0.41-0.1,0.25,0.07,0.53,0.79c0.38,1,1.69,2.4,3.65,2.56c0.68,0.06,4.02-0.13,3.66,1.4c-0.09,0.37-1.82,1.15-4.34,1.32
					c-0.72,0.05-2.17-0.09-2.87-0.27c-0.94-0.25-1.79-0.98-1.79-0.98l-0.39,0.52l-3.04-0.74c0,0,0-1.83,0.08-2.81
					c0.08-0.97,0.78-1.17,0.78-1.17h0.01c-0.06-0.47-0.05-1.36-0.01-2.23c-0.28-0.09-0.56-0.19-0.86-0.32
					c-0.75-8.14-5.26-26.52-3.05-36.85c0.17-0.81,0.38-1.56,0.64-2.26c-8.44,1.12-15.71,2.17-23.38-0.37
					c-0.82-0.27-1.36-0.66-1.82-1.19h51.28c-0.24,1.12-0.57,2.41-0.97,3.82c-2.49,8.97-7.49,22.98-10.75,31.01
					C341.084,219.335,341.034,219.355,340.974,219.375z"/>
			</g>
			<g>
				<path style="fill:#D89A80;" d="M335.553,222.915c0,0,0.023,2.595-0.16,3.516c-0.184,0.921-3.152,0.624-3.437,0.1
					c-0.285-0.524,0.07-4.814,0.07-4.814"/>
				<path style="fill:#3D3D3D;" d="M331.096,227.417c-0.081,0.973-0.076,2.811-0.076,2.811l3.044,0.734l0.387-0.517
					c0,0,0.85,0.727,1.789,0.975c0.696,0.184,2.152,0.325,2.87,0.277c2.514-0.168,4.249-0.952,4.336-1.32
					c0.361-1.537-2.981-1.344-3.661-1.401c-1.953-0.163-3.268-1.564-3.649-2.562c-0.276-0.724-0.114-0.888-0.529-0.792
					c0,0-0.37,0.046-0.649,0.456c-0.428,0.631-1.171,1.015-1.926,0.82c-0.432-0.111-0.858-0.31-1.149-0.658
					C331.883,226.24,331.177,226.444,331.096,227.417z"/>
			</g>
			<g>
				<path style="fill:#2F3D6A;" d="M302.667,170.584c-0.726,1.69-1.131,3.552-1.306,5.378c-0.151,1.582,0.03,3.218,0.63,4.696
					c0.685,1.686,2.028,3.134,3.786,3.733c2.198,0.749,4.534,1.099,6.842,1.277c4.648,0.359,9.306-0.206,13.91-0.811
					c0.693-0.091,1.385-0.183,2.077-0.275c-3.574,9.657,1.607,30.342,2.414,39.111c3.245,1.44,5.08-0.092,5.08-0.092
					c-0.368-17.85,3.61-42.782,1.202-47.047c-1.464-2.593-18.934-6.016-19.281-5.97"/>
			</g>
		</g>
		<g>
			<path style="fill:#5392B8;" d="M339.408,166.06c-4.653-6.706-7.138-11.99-11.188-19.076l-5.648-13.981
				c0,0,1.903,0.105,2.274,0.135c1.587,0.126,3.203,0.335,4.704,0.89c2.159,0.799,4.387,2.268,5.438,4.376
				c0.937,1.881,1.509,3.924,2.303,5.866c0.886,2.169,1.826,4.316,2.773,6.46c1.879,4.255,3.805,8.498,5.388,12.874"/>
		</g>
		<polygon style="opacity:0.2;fill:#101010;" points="329.002,148.363 329.76,143.826 335.329,156.03 333.485,156.48 		"/>
		<g>
			<g>
				<path d="M301.668,139.399c-0.761,10.927-0.721,22.605,1.738,33.337c0.069,0.301,0.582,0.243,0.549-0.074
					c-0.573-5.538-1.434-11.013-1.734-16.582c-0.299-5.555-0.27-11.127,0.016-16.681
					C302.256,139.031,301.693,139.036,301.668,139.399L301.668,139.399z"/>
			</g>
		</g>
		<g>
			<rect x="309.224" y="171.819" style="fill:#ADBBDF;" width="43.037" height="1.547"/>
			<path style="fill:#ADBBDF;" d="M359.938,173.367h-34.451l6.177-20.138c0.341-1.112,1.368-1.871,2.531-1.871h30.17
				c1.155,0,1.98,1.117,1.642,2.221L359.938,173.367z"/>
			<path style="fill:#E1E6F7;" d="M360.37,173.367h-33.932l6.177-20.138c0.341-1.112,1.368-1.871,2.531-1.871h30.17
				c1.155,0,1.981,1.117,1.642,2.221l-5.918,19.292C360.951,173.165,360.678,173.367,360.37,173.367z"/>
		</g>
		<g style="opacity:0.2;">
			<path style="fill:#101010;" d="M306.711,143.043c1.774,8.023,2.513,17.281,3.014,23.017c6.655,0.491,8.521,3.045,14.617,5.759
				c0,0,4.814-0.8,5.32,1.016c0.292,1.047-5.636,1.881-5.636,1.881c-5.65,0.026-19.341-2.62-20.35-2.897
				c-1.009-0.277-5.153-20.7-5.27-30.979c-0.017-1.46,0.035-3.044,0.948-4.183c0.48-0.599,1.155-1.01,1.839-1.359
				c3.976-2.033,6.92-2.588,11.376-2.871"/>
		</g>
		<g>
			<path style="fill:#D89A80;" d="M323.501,173.062c0.67-0.843,1.89-0.965,2.967-0.939c0.797,0.02,1.592,0.083,2.382,0.19
				c0.36,0.049,0.774,0.133,0.812,0.523c0.038,0.39-1.746-0.001-2.682,0.27c1.833,0.157,3.675,0.207,5.513,0.15
				c0.214-0.007,0.435-0.014,0.634,0.065c0.199,0.079,0.371,0.269,0.357,0.483c-0.011,0.167-0.128,0.307-0.252,0.419
				c-0.514,0.462-1.216,0.645-1.896,0.764c-2.811,0.492-5.766,0.407-8.38-0.74"/>
		</g>
		<g>
			<path style="fill:#5392B8;" d="M306.889,143.049c0.147,8.577,1.372,16.363,1.205,24.939c6.655,0.491,10.037,1.784,16.132,4.497
				c0,0,0.363,1.21-0.201,2.231c-0.465,0.17-19.906-0.651-21.505-2.124c-1.438-1.325-3.998-21.473-4.116-31.753
				c-0.017-1.46,0.035-3.044,0.948-4.183c0.48-0.599,1.155-1.01,1.839-1.359c3.976-2.033,6.92-2.588,11.376-2.871"/>
		</g>
		<path style="fill:#FFFFFF;" d="M344.733,161.84c0,1.985,1.609,3.594,3.594,3.594c1.985,0,3.594-1.609,3.594-3.594
			c0-1.985-1.609-3.594-3.594-3.594C346.342,158.246,344.733,159.855,344.733,161.84z"/>
	</g>
	<g>
		<g style="opacity:0.7;">
			<g>
				<path style="fill:#C3E0FD;" d="M336.733,63.457l1.309-0.09c0.262-0.018,0.49,0.18,0.508,0.442
					c0.018,0.261-0.178,0.488-0.439,0.508l-0.03,0.002l-1.247,0.094l-0.031,0.002c-0.265,0.02-0.495-0.178-0.515-0.443
					c-0.02-0.265,0.178-0.495,0.443-0.515L336.733,63.457z"/>
				<path style="fill:#C3E0FD;" d="M340.03,63.377c0.882,0.04,1.759,0.125,2.631,0.249c0.252,0.036,0.428,0.269,0.392,0.521
					c-0.036,0.251-0.267,0.426-0.518,0.393c-0.845-0.114-1.695-0.19-2.544-0.224c-0.259-0.01-0.461-0.229-0.451-0.488
					s0.229-0.461,0.488-0.451L340.03,63.377z"/>
				<path style="fill:#C3E0FD;" d="M344.61,63.967c0.861,0.18,1.713,0.395,2.555,0.647c0.236,0.07,0.37,0.319,0.3,0.555
					c-0.07,0.235-0.317,0.369-0.552,0.301c-0.82-0.238-1.649-0.443-2.486-0.611c-0.246-0.05-0.406-0.29-0.356-0.536
					c0.05-0.246,0.29-0.406,0.536-0.356L344.61,63.967z"/>
				<path style="fill:#C3E0FD;" d="M349.042,65.239c0.825,0.305,1.637,0.646,2.431,1.026c0.215,0.103,0.306,0.36,0.203,0.574
					c-0.102,0.214-0.358,0.305-0.572,0.204c-0.772-0.362-1.562-0.688-2.365-0.979c-0.228-0.083-0.346-0.335-0.264-0.563
					s0.335-0.346,0.563-0.264L349.042,65.239z"/>
				<path style="fill:#C3E0FD;" d="M353.228,67.186c0.764,0.44,1.507,0.921,2.217,1.448c0.184,0.137,0.223,0.397,0.086,0.582
					c-0.136,0.183-0.395,0.222-0.579,0.087c-0.685-0.502-1.403-0.961-2.144-1.38c-0.204-0.115-0.276-0.374-0.16-0.578
					c0.115-0.204,0.374-0.276,0.578-0.16L353.228,67.186z"/>
				<path style="fill:#C3E0FD;" d="M356.981,69.902c0.653,0.6,1.263,1.252,1.808,1.957c0.135,0.175,0.103,0.426-0.072,0.562
					c-0.174,0.135-0.424,0.103-0.56-0.07c-0.52-0.662-1.102-1.277-1.729-1.845c-0.167-0.152-0.18-0.411-0.028-0.578
					c0.152-0.167,0.411-0.18,0.578-0.028L356.981,69.902z"/>
				<path style="fill:#C3E0FD;" d="M359.897,73.533c0.434,0.782,0.784,1.615,1.026,2.48c0.057,0.205-0.062,0.417-0.267,0.475
					c-0.204,0.057-0.416-0.061-0.474-0.265c-0.23-0.803-0.561-1.576-0.972-2.306c-0.107-0.189-0.04-0.43,0.15-0.537
					s0.43-0.04,0.537,0.15L359.897,73.533z"/>
				<path style="fill:#C3E0FD;" d="M361.285,77.998c0.079,0.894,0.046,1.795-0.082,2.679c-0.029,0.202-0.217,0.342-0.419,0.313
					c-0.201-0.029-0.341-0.216-0.313-0.417c0.116-0.832,0.14-1.674,0.061-2.506c-0.02-0.208,0.133-0.393,0.341-0.413
					c0.208-0.02,0.393,0.133,0.413,0.341L361.285,77.998z"/>
				<path style="fill:#C3E0FD;" d="M360.762,82.63c-0.258,0.851-0.593,1.674-0.982,2.467c-0.086,0.176-0.299,0.248-0.475,0.162
					c-0.175-0.086-0.248-0.297-0.163-0.473c0.369-0.765,0.684-1.555,0.924-2.364c0.057-0.193,0.259-0.302,0.452-0.245
					c0.193,0.057,0.302,0.259,0.245,0.452L360.762,82.63z"/>
				<path style="fill:#C3E0FD;" d="M358.806,86.829c-0.475,0.745-1.005,1.455-1.584,2.122c-0.122,0.141-0.336,0.156-0.477,0.034
					c-0.14-0.122-0.156-0.334-0.035-0.475c0.553-0.646,1.057-1.332,1.509-2.052c0.102-0.163,0.317-0.212,0.479-0.11
					s0.212,0.317,0.11,0.479L358.806,86.829z"/>
				<path style="fill:#C3E0FD;" d="M355.839,90.376c-0.649,0.599-1.343,1.149-2.074,1.644c-0.147,0.1-0.347,0.061-0.447-0.086
					c-0.099-0.147-0.061-0.346,0.084-0.446c0.701-0.482,1.365-1.016,1.986-1.597c0.134-0.125,0.343-0.118,0.468,0.016
					s0.118,0.343-0.016,0.468L355.839,90.376z"/>
				<path style="fill:#C3E0FD;" d="M352.062,93.037c-0.782,0.409-1.596,0.757-2.431,1.04c-0.16,0.054-0.333-0.031-0.387-0.191
					c-0.054-0.159,0.031-0.332,0.189-0.387c0.804-0.279,1.585-0.621,2.336-1.02c0.154-0.082,0.344-0.023,0.426,0.13
					c0.082,0.154,0.023,0.344-0.13,0.426L352.062,93.037z"/>
				<path style="fill:#C3E0FD;" d="M347.717,94.602c-0.865,0.181-1.748,0.29-2.639,0.292c-0.16,0-0.29-0.129-0.291-0.289
					c0-0.159,0.129-0.289,0.288-0.291c0.843-0.007,1.687-0.117,2.517-0.297c0.161-0.035,0.32,0.067,0.355,0.229
					c0.035,0.161-0.067,0.32-0.229,0.355L347.717,94.602z"/>
				<path style="fill:#C3E0FD;" d="M343.079,94.684c-0.877-0.198-1.732-0.566-2.453-1.128c-0.12-0.093-0.142-0.265-0.049-0.385
					c0.092-0.119,0.265-0.141,0.385-0.05c0.652,0.502,1.429,0.832,2.241,1.01c0.153,0.033,0.25,0.185,0.216,0.337
					c-0.033,0.153-0.185,0.25-0.337,0.216L343.079,94.684z"/>
				<path style="fill:#C3E0FD;" d="M339.271,92.039c-0.477-0.773-0.783-1.621-0.966-2.502c-0.029-0.14,0.061-0.277,0.201-0.307
					c0.14-0.029,0.276,0.06,0.306,0.199l0.002,0.008c0.174,0.812,0.472,1.618,0.911,2.317c0.079,0.125,0.042,0.291-0.083,0.37
					s-0.291,0.042-0.37-0.083L339.271,92.039z"/>
				<path style="fill:#C3E0FD;" d="M338.303,87.502c0.175-0.896,0.59-1.728,1.135-2.439c0.082-0.107,0.234-0.128,0.342-0.046
					c0.107,0.081,0.127,0.234,0.047,0.341c-0.503,0.666-0.875,1.43-1.027,2.24c-0.026,0.137-0.158,0.227-0.295,0.202
					c-0.137-0.026-0.227-0.158-0.202-0.295L338.303,87.502z"/>
				<path style="fill:#C3E0FD;" d="M340.843,83.637c0.691-0.558,1.449-1.021,2.238-1.41c0.113-0.056,0.25-0.009,0.306,0.104
					c0.056,0.112,0.009,0.249-0.102,0.305c-0.761,0.382-1.487,0.834-2.142,1.37c-0.101,0.083-0.251,0.068-0.334-0.033
					c-0.083-0.101-0.068-0.251,0.033-0.334L340.843,83.637z"/>
				<path style="fill:#C3E0FD;" d="M344.907,81.47c0.83-0.286,1.68-0.508,2.54-0.674c0.115-0.022,0.227,0.053,0.249,0.168
					c0.022,0.115-0.053,0.226-0.167,0.249c-0.84,0.168-1.67,0.391-2.476,0.675c-0.115,0.041-0.242-0.02-0.282-0.135
					s0.02-0.242,0.135-0.282L344.907,81.47z"/>
				<path style="fill:#C3E0FD;" d="M349.395,80.517c0.871-0.083,1.747-0.112,2.621-0.088c0.109,0.003,0.194,0.094,0.191,0.202
					c-0.003,0.108-0.093,0.194-0.201,0.191c-0.858-0.018-1.717,0.017-2.571,0.103c-0.113,0.012-0.214-0.071-0.226-0.184
					c-0.012-0.113,0.071-0.214,0.184-0.226L349.395,80.517z"/>
				<path style="fill:#C3E0FD;" d="M353.977,80.574c0.868,0.104,1.73,0.262,2.578,0.475c0.097,0.024,0.156,0.123,0.132,0.22
					c-0.024,0.097-0.122,0.156-0.219,0.132c-0.834-0.204-1.681-0.353-2.534-0.449c-0.104-0.012-0.179-0.106-0.168-0.21
					s0.106-0.179,0.21-0.168L353.977,80.574z"/>
				<path style="fill:#C3E0FD;" d="M358.435,81.623c0.822,0.297,1.625,0.65,2.397,1.06c0.081,0.043,0.112,0.143,0.069,0.224
					c-0.043,0.081-0.142,0.111-0.223,0.069c-0.761-0.397-1.551-0.738-2.36-1.024c-0.091-0.032-0.139-0.132-0.107-0.223
					s0.132-0.139,0.223-0.107L358.435,81.623z"/>
				<path style="fill:#C3E0FD;" d="M362.516,83.699c0.722,0.493,1.407,1.041,2.045,1.639c0.061,0.057,0.064,0.152,0.007,0.212
					c-0.056,0.06-0.151,0.064-0.212,0.008c-0.631-0.583-1.306-1.116-2.019-1.596c-0.073-0.049-0.092-0.148-0.043-0.221
					C362.343,83.669,362.442,83.649,362.516,83.699L362.516,83.699z"/>
				<path style="fill:#C3E0FD;" d="M365.915,86.762c0.565,0.667,1.078,1.377,1.537,2.119c0.039,0.063,0.02,0.146-0.044,0.185
					c-0.063,0.039-0.146,0.02-0.185-0.043c-0.457-0.728-0.967-1.423-1.527-2.075c-0.052-0.06-0.045-0.151,0.015-0.202
					C365.772,86.695,365.862,86.701,365.915,86.762L365.915,86.762z"/>
				<path style="fill:#C3E0FD;" d="M368.394,90.602c0.379,0.786,0.704,1.596,0.98,2.422c0.021,0.062-0.013,0.13-0.075,0.151
					c-0.062,0.021-0.129-0.013-0.15-0.074c-0.279-0.815-0.606-1.614-0.985-2.386c-0.031-0.063-0.005-0.14,0.059-0.171
					C368.286,90.512,368.362,90.538,368.394,90.602L368.394,90.602z"/>
				<path style="fill:#C3E0FD;" d="M369.914,94.907c0.205,0.846,0.361,1.705,0.454,2.572c0.006,0.058-0.036,0.11-0.094,0.117
					c-0.058,0.006-0.11-0.036-0.116-0.093c-0.097-0.856-0.256-1.705-0.463-2.542c-0.015-0.06,0.022-0.122,0.082-0.137
					C369.838,94.81,369.899,94.846,369.914,94.907L369.914,94.907z"/>
				<path style="fill:#C3E0FD;" d="M370.466,99.438c-0.01,0.872-0.094,1.745-0.263,2.602c-0.01,0.051-0.059,0.084-0.11,0.074
					c-0.051-0.01-0.083-0.059-0.074-0.11c0.162-0.845,0.241-1.706,0.246-2.567c0-0.056,0.046-0.1,0.101-0.1
					C370.422,99.337,370.467,99.382,370.466,99.438L370.466,99.438z"/>
				<path style="fill:#C3E0FD;" d="M369.679,103.93c-0.297,0.821-0.68,1.609-1.137,2.352c-0.024,0.038-0.074,0.05-0.112,0.027
					c-0.038-0.023-0.05-0.073-0.027-0.112c0.447-0.736,0.821-1.516,1.109-2.327c0.016-0.046,0.067-0.07,0.113-0.054
					C369.671,103.833,369.695,103.884,369.679,103.93L369.679,103.93z"/>
				<path style="fill:#C3E0FD;" d="M367.398,107.873c-0.557,0.67-1.173,1.289-1.83,1.859c-0.029,0.025-0.073,0.022-0.098-0.007
					c-0.025-0.029-0.022-0.072,0.007-0.098c0.649-0.569,1.256-1.186,1.804-1.852c0.027-0.033,0.075-0.037,0.107-0.01
					C367.42,107.792,367.425,107.84,367.398,107.873L367.398,107.873z"/>
				<path style="fill:#C3E0FD;" d="M364.025,110.934c-0.712,0.5-1.453,0.954-2.216,1.371c-0.028,0.015-0.062,0.005-0.078-0.023
					c-0.015-0.028-0.005-0.062,0.023-0.077c0.757-0.419,1.492-0.875,2.197-1.375c0.029-0.021,0.069-0.014,0.089,0.015
					S364.054,110.913,364.025,110.934L364.025,110.934z"/>
				<path style="fill:#C3E0FD;" d="M360.063,113.18c-0.789,0.363-1.593,0.691-2.407,0.992c-0.023,0.009-0.049-0.003-0.058-0.027
					c-0.009-0.023,0.003-0.049,0.026-0.058c0.81-0.304,1.61-0.636,2.394-1.002c0.026-0.012,0.057-0.001,0.069,0.025
					C360.101,113.137,360.089,113.168,360.063,113.18L360.063,113.18z"/>
				<path style="fill:#C3E0FD;" d="M355.81,114.801l-2.503,0.708c-0.017,0.005-0.036-0.005-0.041-0.023
					c-0.005-0.017,0.007-0.036,0.024-0.041l2.495-0.72c0.021-0.007,0.044,0.004,0.051,0.024s-0.004,0.044-0.024,0.051
					L355.81,114.801z"/>
				<path style="fill:#C3E0FD;" d="M351.407,115.952l-2.554,0.485c-0.011,0.002-0.022-0.005-0.024-0.017
					c-0.002-0.011,0.006-0.022,0.017-0.024l2.55-0.499c0.015-0.004,0.03,0.006,0.034,0.02c0.004,0.015-0.005,0.03-0.02,0.034
					L351.407,115.952z"/>
				<path style="fill:#C3E0FD;" d="M346.924,116.728l-2.583,0.295c-0.005,0.001-0.009-0.003-0.01-0.008
					c-0.001-0.005,0.003-0.009,0.008-0.01l2.581-0.309c0.008-0.001,0.016,0.004,0.018,0.013S346.934,116.727,346.924,116.728
					L346.924,116.728z"/>
				<polygon style="fill:#C3E0FD;" points="342.394,117.173 341.114,117.229 342.394,117.166 342.398,117.169 342.394,117.173 				
					"/>
			</g>
		</g>
		<g>
			<path style="fill:#BDE0F4;" d="M321.95,54.165c-0.125-0.075,8.098-0.706,8.098-0.706l5.501,10.607l-7.99-5.1l-8.33,3.952
				l-17.584-2.179L321.95,54.165z"/>
			<polygon style="fill:#87C0EC;" points="301.644,60.739 335.549,64.066 327.559,58.966 			"/>
			<polygon style="fill:#D7EDFC;" points="301.644,60.739 332.984,46.661 330.048,53.459 301.644,60.739 327.559,58.966 
				322.753,70.784 			"/>
		</g>
	</g>
</g>
</svg>
