<?xml version="1.0" encoding="utf-8"?>
<!-- Generator: Adobe Illustrator 27.5.0, SVG Export Plug-In . SVG Version: 6.00 Build 0)  -->
<svg version="1.1" id="Layer_1" xmlns="http://www.w3.org/2000/svg" xmlns:xlink="http://www.w3.org/1999/xlink" x="0px" y="0px"
	 viewBox="0 0 3501.003 2000" style="enable-background:new 0 0 3501.003 2000;" xml:space="preserve">
<rect x="-0.001" style="fill:#FFFFFF;" width="3501.002" height="2000"/>
<g>
	<path style="fill:#FCECDB;" d="M401.871,1860.797c-429.906-810.077-50.333-1664.663,753.25-1691.19
		c655.965-21.654,596.892,282.69,1195.426,98.971c860.063-212,1214.675,883.78,664.12,1592.22
		C1314.566,1860.797,401.871,1860.797,401.871,1860.797z"/>
	<g>
		<path style="fill:#D9935C;" d="M2458.725,452.097l21.665,11.073l4.342-15.03c0,0-2.761-5.202-4.009-13.723
			c-0.522-3.583-0.781-7.753-0.449-12.372l-17.651,9.039c0,0,0.421,1.632,0.703,4.041c0.3,2.603,0.435,6.112-0.306,9.446
			C2462.381,447.432,2461.101,450.164,2458.725,452.097z"/>
		<path style="fill:#D9935C;" d="M2497.398,455.153c0,0,19.995-25.89,29.727-33.925c0,0,13.505-33.081,14.585-35.244
			c1.082-2.163,7.487,2.357,7.487,2.357s-4.578,31.611-9.733,41.068c-5.156,9.457-21.144,41.196-32.427,42.375
			C2495.752,472.963,2497.398,455.153,2497.398,455.153z"/>
		<path style="fill:#2C3A64;" d="M2437.017,698.739c0,0-2.258,4.408-7.263,5.498c-3.152,0.687-5.852,2.327-7.531,4.627
			c-1.419,1.944-0.046,4.679,2.361,4.679h25.401c2.164,0,3.852-1.866,3.636-4.018c-0.189-1.882-0.388-4.073-0.474-5.754
			c-0.188-3.669-3.862-6.622-3.862-6.622L2437.017,698.739z"/>
		<path style="fill:#35488B;" d="M2436.405,699.849c0,0,6.095,3.601,16.405,1.427c0,0,17.531-44.828,18.569-65.923
			c0.047-0.847,0.062-1.654,0.047-2.422c-0.354-19.84,17.966-71.505,13.025-82.091c-4.941-10.589-44.868,4.758-44.868,4.758
			l-0.793,36.001L2436.405,699.849z"/>
		<path style="fill:#2C3A64;" d="M2439.584,555.598l-0.057,2.563c12.642,20.778,25.604,39.977,34.181,56.553
			c4.664-23.549,14.528-55.765,10.744-63.874c-0.15-0.321-0.342-0.628-0.569-0.924
			C2477.037,541.202,2439.584,555.598,2439.584,555.598z"/>
		<path style="fill:#D9935C;" d="M2457.18,457.429c0,0-28.845-25.73-30.605-29.268c-1.761-3.536-9.944-35.143-9.944-35.143
			l-6.874,0.841c0,0,1.312,37.901,4.207,45.285c2.896,7.383,36.873,38.778,36.873,38.778L2457.18,457.429z"/>
		<path style="fill:#2C3A64;" d="M2502.602,698.739c0,0-2.259,4.408-7.264,5.498c-3.152,0.687-5.851,2.327-7.53,4.627
			c-1.42,1.944-0.047,4.679,2.36,4.679h25.402c2.163,0,3.852-1.866,3.635-4.018c-0.189-1.882-0.387-4.073-0.474-5.754
			c-0.188-3.669-3.862-6.622-3.862-6.622L2502.602,698.739z"/>
		<path style="fill:#35488B;" d="M2462.938,556.451c0,0,35.286,131.68,36.366,144.566c0,0,6.883,3.531,18.056-2.706
			c0,0,6.487-59.02,0-75.148c-6.487-16.128,1.288-64.879-15.214-75.876C2485.643,536.291,2462.938,556.451,2462.938,556.451z"/>
		<path style="fill:#FFB93E;" d="M2440.721,471.185c-0.12-1.803-10.968-9.131-10.968-9.131c-2.282-13.697,6.434-23.56,6.434-23.56
			l13.064,9.294c2.522,0.15,3.604,1.069,3.604,1.069c2.162-0.583,8.199,0,8.199,0c-0.096,3.115,1.145,5.957,6.611,6.672
			c7.271,0.948,13.773-4.014,17.066-7.388c0,0,4.404-0.383,9.931,1.418c0,0,2.676-1.368,5.527-1.453l10.693-9.613
			c0,0,12.528,3.617,14.505,22.499c0,0-14.066,10.704-15.081,19.16l0,0l-0.386,3.204l-1.363,11.355l-2.398,19.915l7.143,39.667
			c0.062,0.348,0.096,0.695,0.096,1.036c0,2.651-1.813,5.037-4.479,5.678c0,0-0.613,0.102-1.744,0.259
			c-7.572,1.063-38.311,4.73-62.41-1.813c-5.419-1.472-8.99-6.645-8.54-12.247l5.099-63.987l0,0
			C2441.323,483.218,2440.841,472.986,2440.721,471.185z"/>
		<path style="fill:#FFA412;" d="M2497.422,531.318c0.477,13.835,1.833,25.564,9.753,29.947c1.131-0.157,1.744-0.259,1.744-0.259
			c2.665-0.641,4.479-3.026,4.479-5.678c0-0.341-0.034-0.688-0.096-1.036l-7.143-39.666l2.398-19.915
			c-0.115-0.348-0.177-0.532-0.177-0.532S2496.815,513.598,2497.422,531.318z"/>
		<path style="fill:#CB7D45;" d="M2463.02,444.57c10.037-0.269,17.703-10.153,17.703-10.153l-17.397,0.708
			C2463.625,437.728,2463.76,441.236,2463.02,444.57z"/>
		<g>
			<path style="fill:#D9935C;" d="M2458.151,438.978c0,0,20.021,5.287,26.929-10.635c7.453-17.182-0.724-29.701-7.523-30.545
				c-13.559-1.684-21.434,3.485-23.816,8.95C2451.357,412.212,2447.104,436.159,2458.151,438.978z"/>
			<path style="fill:#FFFFFF;" d="M2464.743,428.933c0,0-0.447,2.443-4.712,1.691c0,0-2.897-0.594-2.852-2.795
				C2457.18,427.829,2459.556,427.396,2464.743,428.933z"/>
			<path style="fill:#2C3A64;" d="M2484.718,385.01c5.236,1.657,9.129,4.202,11.801,7.31c0.259-1.193,0.279-2.27,0.279-2.27
				c0.519,1.029,0.603,2.235,0.532,3.274c0.03,0.04,0.059,0.081,0.088,0.122c1.02,0.106,2.541,0.523,3.438,1.984
				c0,0-1.095-0.734-2.51-0.599c7.062,11.653-0.111,29.052-16.842,39.082c0,0,2.349-6.892,2.067-10.57c0,0,5.226-6.662,2.182-8.311
				c-3.045-1.649-4.688,2.292-5.386,1.519c-0.697-0.773-1.786-13.865-5.483-13.452s-17.375,4.653-23.371-0.519
				C2445.517,397.41,2460.064,377.206,2484.718,385.01z"/>
		</g>
		<path style="fill:#D9935C;" d="M2416.63,393.018c0,0-0.136-2.978,0.826-5.485c0.964-2.506,0.396-9.016-0.833-8.649
			c-1.229,0.366-0.68,2.705-2.055,2.429c-1.375-0.275-3.576-7.839-5.364-7.152c-1.788,0.688-3.089,3.232-2.539,8.734
			c0.551,5.502,3.091,10.964,3.091,10.964C2412.732,394.842,2415.347,395.158,2416.63,393.018z"/>
		<path style="fill:#D9935C;" d="M2541.668,386.194c0,0,0.724-3.275,0.14-6.239c-0.584-2.963,1.297-10.069,2.589-9.426
			c1.293,0.643,0.232,3.128,1.811,3.089c1.577-0.04,5.473-8.001,7.321-6.895c1.85,1.107,2.802,4.177,1.133,10.168
			s-5.536,11.557-5.536,11.557C2546.759,388.692,2544.247,387.726,2541.668,386.194z"/>
		<g>
			<path style="fill:#2C3A64;" d="M2474.318,418.383c0.09,0,0.179-0.038,0.241-0.112c0.11-0.133,0.093-0.33-0.04-0.441
				c-3.217-2.681-7.604-1.572-7.791-1.523c-0.166,0.044-0.267,0.215-0.223,0.382c0.044,0.168,0.214,0.271,0.382,0.224
				c0.041-0.01,4.267-1.074,7.23,1.397C2474.177,418.359,2474.248,418.383,2474.318,418.383z"/>
		</g>
		<g>
			<path style="fill:#2C3A64;" d="M2459.796,415.671c0.077,0,0.153-0.039,0.207-0.113c0.096-0.132,0.079-0.33-0.035-0.441
				c-2.768-2.681-6.544-1.572-6.703-1.522c-0.145,0.043-0.229,0.214-0.192,0.381c0.037,0.167,0.185,0.27,0.329,0.224
				c0.035-0.01,3.671-1.073,6.223,1.397C2459.674,415.647,2459.734,415.671,2459.796,415.671z"/>
		</g>
		<path style="fill:#FFB93E;" d="M2452.854,448.856c2.162-0.583,8.645-0.118,8.645-0.118c-0.096,3.115,0.699,6.075,6.166,6.79
			L2452.854,448.856z"/>
	</g>
	<g>
		<g>
			<polygon style="fill:#823108;" points="1001.869,1248.192 1002.194,1525.609 2097.113,1524.334 2096.926,1361.031 			"/>
			<g>
				<path style="fill:#2B478B;" d="M2747.302,1626.845c-0.151-128.95-104.808-233.36-233.759-233.21
					c-128.951,0.151-233.363,104.805-233.213,233.756c0.148,128.951,104.805,233.366,233.756,233.215
					C2643.037,1860.455,2747.449,1755.796,2747.302,1626.845z"/>
				<path style="fill:#233862;" d="M2627.929,1626.99c-0.07-63.024-51.224-114.057-114.248-113.986
					c-63.024,0.076-114.055,51.227-113.983,114.251c0.073,63.025,51.227,114.058,114.251,113.981
					C2576.973,1741.166,2628.005,1690.015,2627.929,1626.99z"/>
			</g>
			<g>
				<path style="fill:#2B478B;" d="M1657.246,1626.845c-0.15-128.951-104.81-233.361-233.755-233.21
					c-128.951,0.15-233.366,104.805-233.215,233.756c0.151,128.951,104.805,233.365,233.756,233.215
					S1657.397,1755.796,1657.246,1626.845z"/>
				<path style="fill:#233862;" d="M1537.874,1626.988c-0.071-63.025-51.221-114.058-114.246-113.986
					c-63.025,0.076-114.057,51.227-113.981,114.251c0.071,63.024,51.221,114.057,114.246,113.981
					C1486.918,1741.162,1537.95,1690.013,1537.874,1626.988z"/>
			</g>
			<path style="fill:#EBC9B3;" d="M1114.051,909.823c190-52.382,474-120.64,570-112.511s174,38.873,174,38.873
				c240-128.744,264.013-79.398,470.007-24.071c-248.007,227.327-218.007,223.327-248.007,227.327
				C1276.051,1069.441,1114.051,909.823,1114.051,909.823z"/>
			<path style="fill:#EA8439;" d="M2812.506,850.61c-15.738,0.019-421.375,0.491-421.375,0.491l-294.205,509.93l-1173.659-80.286
				l-0.463-399.413l1315.33-1.53l128.571-166.397l433.837-0.51L2812.506,850.61z"/>
			<path style="fill:#DD7833;" d="M2096.926,1361.031l-2.407,194.476l155.546,7.018c28.461-119.119,135.547-207.723,263.426-207.872
				s235.202,88.206,263.938,207.26l157.893-0.184l-0.342-295.129l-79.686,0.092l-108.832-371.737l-383.723,0.452L2096.926,1361.031z
				"/>
			<polygon style="fill:#C9631F;" points="2712.745,939.36 2786.581,1188.736 2541.473,1189.044 2541.093,939.562 			"/>
			
				<rect x="1699.69" y="1393.047" transform="matrix(1 -0.0012 0.0012 1 -1.7804 2.2366)" style="fill:#C9631F;" width="456.464" height="286.921"/>
		</g>
	</g>
	<g id="P297LW_3_">
		<path style="fill:#D9935C;" d="M786.785,1349.68c0.634-3.9,0.759-7.09,1.223-8.137c3.816-8.607,4.776-5.408,3.709-0.929
			c6.932-3.413,12.158-14.185,15.091-13.171c1.855,0.641,2.251,10.085,0.773,16.157c-0.881,3.618-4.806,10.965-11.065,12.798
			c-14.074,22.508-30.182,43.193-50.445,56.14l-10.452-22.012C735.62,1390.526,784.315,1353.339,786.785,1349.68z"/>
		<path style="fill:#EB9309;" d="M747.998,1378.688c0,0-14.18,10.965-18.72,13.626c-4.54,2.66-65.056,5.169-65.056,5.169
			s-24.198,0.026-30.58,12.583c-5.545,10.913-2.323,20.208,2.666,27.006c5.947,8.101,16.485,11.369,26.473,8.354
			c22.419-6.77,67.032-20.574,75.484-25.743c18.813-11.503,24.656-17.106,24.656-17.106
			C762.922,1394.473,753.75,1376.769,747.998,1378.688z"/>
		<path style="fill:#D9935C;" d="M655.656,1393.976l-0.019,3.503c0,0,0.954,10.957-12.537,12.557
			c-13.492,1.604-23.713-4.272-23.347-12.728c1.215-6.546,2.549-11.042,2.64-16.458c0.033-2.014-0.105-4.149-0.48-6.562
			l26.144-0.522l7.7,1.259L655.656,1393.976z"/>
		<path style="fill:#CB7D45;" d="M655.755,1375.024l-0.1,18.951c-2.777,1.291-5.91,2.079-9.423,2.079
			c-12.015,0-19.782-8.811-23.84-15.205c0.033-2.014-0.105-4.149-0.48-6.562l26.144-0.522L655.755,1375.024z"/>
		<path style="fill:#233862;" d="M632.612,1859.589c0,0-1.269-9.885-4.208-15.763c-2.938-5.877-21.639-2.137-21.639-2.137
			s-3.74,3.206-4.542,18.166L632.612,1859.589z"/>
		<path style="fill:#233862;" d="M696.327,1859.455c-4.394-2.682-1.894-22.69-1.894-22.69s20.476-16.38,23.291-3.84
			c2.815,12.542,19.452,18.173,28.922,19.708c6.537,1.061,8.56,4.681,9.188,6.822H696.327z"/>
		<path style="fill:#2B478B;" d="M653.915,1710.772c0.834,4.592,1.363,8.359,1.503,11.06
			c1.903,37.128,31.253,122.019,36.502,123.998c8.123,3.065,20.914-3.45,27.606-5.582c2.773-0.886,4.645-3.683,4.027-6.52
			c-14.535-66.818-19.877-163.033-21.82-219.996c-0.982-28.693-5.907-48.513-5.907-48.513s-71.582-19.099-72.007,5.062
			C623.444,1591.66,647.531,1675.504,653.915,1710.772z"/>
		<path style="fill:#233862;" d="M653.915,1710.772l47.819-97.04c-0.982-28.693-5.907-48.513-5.907-48.513
			s-71.582-19.099-72.007,5.062C623.444,1591.66,647.531,1675.504,653.915,1710.772z"/>
		<path style="fill:#2B478B;" d="M669.842,1570.365L632,1844.628c0,0-16.618,4.007-29.543,0.802c0,0-11.079-145.865-10.155-181.13
			c0.923-35.265-7.951-94.36,2.025-100.878C604.304,1556.904,669.842,1570.365,669.842,1570.365z"/>
		<path style="fill:#FFA412;" d="M697.888,1570.873c0,0-19.336,11.274-47.345,10.956c-10.919-0.123-20.418-0.939-28.479-2.142
			c-22.464-3.332-33.801-9.604-33.71-11.938c0.076-2.108,0.223-9.11,0.489-12.12c3.57-41.168,1.724-73.188,6.527-97.242
			c0.057-0.29,0.114-0.58,0.176-0.864c6.356-30.582,16.321-48.151,21.268-55.358c1.809-2.63,2.882-4.856,2.939-4.856
			c0,5.706,12.214,11.617,22.122,10.972c8.346-0.547,13.762-6.894,13.762-10.33l0.01-0.01c0.684,0,37.646,25.692,37.679,49.566
			C693.454,1554.499,699.938,1570.91,697.888,1570.873z"/>
		<path style="fill:#E27F2B;" d="M622.116,1579.337c-0.019,0.118-0.033,0.237-0.052,0.351c-22.464-3.332-33.801-9.604-33.71-11.938
			c0.076-2.108,0.223-9.11,0.489-12.12c3.57-41.168,1.724-73.188,6.527-97.242C607.163,1474.147,631.402,1515.425,622.116,1579.337z
			"/>
		<g>
			<path style="fill:#E9F3FE;" d="M683.651,1528.163l-3.02,10.045l-3,9.97l-130.313-39.198c-0.185,0.01-0.366-0.009-0.537-0.062
				c-0.18-0.053-0.346-0.139-0.503-0.247c-1.643-1.163-1.941-5.421-0.679-10.221c0.066-0.267,0.142-0.532,0.223-0.803
				c1.524-5.16,4.296-8.977,6.423-9.01c0.176-0.005,0.342,0.019,0.508,0.066c0.171,0.052,0.328,0.128,0.479,0.232L683.651,1528.163z
				"/>
			<path style="fill:#BED4F4;" d="M680.631,1538.208l-3,9.97l-130.313-39.198c-0.185,0.01-0.366-0.009-0.537-0.062
				c-0.18-0.053-0.346-0.139-0.503-0.247c-1.643-1.163-1.941-5.421-0.679-10.221c5.326,3.997,30.767,21.681,74.19,30.282
				C664.676,1537.625,678.566,1538.18,680.631,1538.208z"/>
			<path style="fill:#AFCDFB;" d="M684.861,1539.379c-1.649,5.583-4.752,9.587-6.932,8.943s-2.609-5.691-0.961-11.273
				c1.649-5.583,4.753-9.587,6.932-8.943S686.51,1533.796,684.861,1539.379z"/>
		</g>
		<g>
			<path style="fill:#E9F3FE;" d="M673.245,1504.577l-1.676,10.354l-1.666,10.273l-134.324-21.795
				c-0.185,0.033-0.365,0.038-0.542,0.01c-0.185-0.028-0.36-0.091-0.531-0.181c-0.015-0.01-0.033-0.019-0.053-0.033
				c-0.901-0.508-1.562-1.865-1.903-3.731c-0.313-1.742-0.356-3.921-0.057-6.275c0.033-0.275,0.071-0.546,0.118-0.826
				c0.836-5.317,3.082-9.462,5.189-9.774c0.171-0.029,0.337-0.024,0.508,0c0.18,0.027,0.341,0.085,0.508,0.166l15.362,2.492
				L673.245,1504.577z"/>
			<path style="fill:#BED4F4;" d="M671.568,1514.931l-1.666,10.273l-134.324-21.795c-0.185,0.033-0.365,0.038-0.542,0.01
				c-0.185-0.028-0.36-0.091-0.531-0.181c-0.015-0.01-0.033-0.019-0.053-0.033c-0.441-0.304-1.182-1.69-1.903-3.731
				c-0.313-1.742-0.356-3.921-0.057-6.275c0.033-0.275,0.071-0.546,0.118-0.826c0.836-5.317,3.082-9.462,5.189-9.774
				c0.171-0.029,0.337-0.024,0.508,0c0.18,0.027,0.341,0.085,0.508,0.166l15.362,2.492c11.873,11.208,27.102,26.399,55.832,28.246
				C655.675,1516.44,669.518,1515.173,671.568,1514.931z"/>
			<path style="fill:#AFCDFB;" d="M675.916,1515.536c-0.904,5.751-3.456,10.126-5.701,9.773c-2.245-0.353-3.332-5.3-2.428-11.051
				c0.903-5.751,3.456-10.127,5.7-9.774C675.731,1504.838,676.819,1509.785,675.916,1515.536z"/>
		</g>
		<path style="fill:#D9935C;" d="M625.701,1544.012c-31.156-4.955-51.75-18.01-60.205-24.324c-2.886-2.155-4.358-3.527-4.358-3.527
			c-15.965-33.563,12.917-92.41,18.196-102.384c5.697-10.758,40.418-16.469,40.418-16.469s-5.493,17.323-7.663,38.624
			c-2.169,21.301-25.317,62.82-24.367,66.305c0.237,0.879,3.033,2.721,7.111,5.047c12.091,6.883,34.136,21.333,35.556,23.939
			C632.289,1534.701,625.701,1544.012,625.701,1544.012z"/>
		<path style="fill:#FFA412;" d="M612.726,1437.025c-2.169,21.301-25.953,61.727-25.003,65.211c0.237,0.879,3.033,2.721,7.111,5.047
			c-0.256,0.019-0.518,0.023-0.783,0.014c-18.211-0.802-26.452,9.271-28.555,12.391c-2.886-2.155-4.358-3.527-4.358-3.527
			c-15.965-33.563,12.917-92.41,18.196-102.384c5.697-10.758,40.418-16.469,40.418-16.469S614.896,1415.725,612.726,1437.025z"/>
		<path style="fill:#D9935C;" d="M658.925,1380.83c0,0-31.417,13.411-39.467-6.282c-8.051-19.692-17.528-31.225,2.19-40.62
			c19.718-9.396,26.712-3.484,30.998,2.436C656.932,1342.283,666.889,1376.834,658.925,1380.83z"/>
		<path style="fill:#233862;" d="M622.392,1380.85c0,0-10.196-12.748-16.726-17.66c-6.53-4.913-9.865-35.545,13.161-39.31
			c23.026-3.766,34.579,10.883,35.465,13.957c0.887,3.073-18.112,4.501-22.313,9.631c-4.2,5.13,1.999,10.862-3.271,14.459
			c-5.27,3.597-9.889,4.564-7.779,9.629C623.301,1377.248,622.392,1380.85,622.392,1380.85z"/>
		<path style="fill:#FFA412;" d="M660.717,1332.993c0,0-11.336,6.779-15.553,7.976c-1.255,0.356-19.933,5.581-19.933,5.581
			c-8.33,5.311-17.039,9.376-26.669,10.611c0,0-9.656-19.429,1.208-35.141l0.003-0.005c0.272-0.396,0.56-0.79,0.857-1.177
			c3.005-3.914,7.362-7.55,13.554-10.543C645.563,1295.132,660.33,1331.823,660.717,1332.993z"/>
		<g>
			<path style="fill:#E27F2B;" d="M645.412,1340.312l-5.085,1.78c-5.21-4.56-24.222-20.181-40.751-19.657
				c0.067-0.164,0.132-0.299,0.195-0.414l0.003-0.005c0.205-0.392,0.394-0.605,0.686-1.185c0.059,0.003,0.113,0.006,0.171,0.008
				C622.051,1321.5,640.963,1336.22,645.412,1340.312z"/>
		</g>
		<path style="fill:#FFA412;" d="M625.231,1346.55c0,0-2.73,4.767-2.857,8.833c-0.128,4.066-17.622,10.112-19.278,8.354
			s-4.533-6.575-4.533-6.575L625.231,1346.55z"/>
		<path style="fill:#E27F2B;" d="M625.231,1346.55c0,0,33.243-6.238,46.729-17.341c1.027-0.846,0.479-2.518-0.852-2.565
			c-2.389-0.085-6.392,0.099-12.827,1.187C658.281,1327.83,648.464,1340.124,625.231,1346.55z"/>
		<path style="fill:#E27F2B;" d="M591.202,1504.886c0,0-23.262-1.899-30.857,11.631c0,0,0.649,4.563,5.151,3.171
			c0,0,19.678-13.449,29.338-12.404C594.834,1507.283,593.339,1504.926,591.202,1504.886z"/>
		<path style="fill:#D9935C;" d="M630.39,1531.223c0,0,4.562,0.488,7.82-1.63s10.101-2.77,14.336-3.258
			c4.236-0.489,0.977,2.443-2.28,3.747c-3.259,1.303-4.519,3.501-4.519,3.501s5.288,4.284,8.463,5.917
			c5.97,3.07,11.633,4.511,11.01,4.944c-10.015,6.963-39.52-0.433-39.52-0.433L630.39,1531.223z"/>
		<path style="fill:#D97A29;" d="M759.694,1393.848c-2.218-6.719-7.316-13.56-11.696-15.159c-0.114-1.707,3.918-2.56,5.421-2.24
			c1.504,0.32,7.049,6.933,9.396,15.145c2.346,8.212,1.6,10.825,0.693,11.411c-0.907,0.587-1.405,0.299-1.405,0.299
			C762.495,1400.604,761.266,1398.61,759.694,1393.848z"/>
	</g>
	<g>
		<path style="fill:#FFB27D;" d="M1075.811,762.689c0,0-37.323,16.038-41.474,16.143c-4.15,0.106-37.888-6.145-37.888-6.145
			l-2.254,6.921c0,0,36.679,15.593,44.998,16.115c8.318,0.523,50.149-18.651,50.149-18.651L1075.811,762.689z"/>
		<path style="fill:#FFB27D;" d="M996.449,772.687c0,0-2.898-1.193-4.857-3.225c-1.959-2.031-8.41-4.384-8.608-3.049
			c-0.198,1.333,2.273,1.849,1.4,3.036c-0.873,1.188-9.056-0.077-9.196,1.931c-0.139,2.009,1.706,4.378,7.19,6.299
			c5.484,1.921,11.816,1.929,11.816,1.929C996.106,777.616,996.74,775.277,996.449,772.687z"/>
		<path style="fill:#B24940;" d="M1074.047,761.648c-8.834,4.047-14.18,6.599-19.342,8.435c0,0,3.95,18.341,8.235,21.998
			c3.581-0.768,10.362-2.102,12.395-2.716C1077.933,786.596,1074.047,761.648,1074.047,761.648z"/>
		<g>
			<g>
				<g>
					<path style="fill:#D3AA89;" d="M1041.867,891.292l-2.873,18.531c-2.654-5.505-6.387-7.608-8.609-8.402l0.878-10.129H1041.867z"
						/>
				</g>
			</g>
			<path style="fill:#FFB27D;" d="M1074.578,754.325l21.271,10.87l4.262-14.755c0,0-2.71-5.105-3.937-13.47
				c-0.512-3.518-0.764-7.615-0.439-12.149l-17.33,8.877c0,0,0.415,1.6,0.691,3.964c0.024,0.2,0.045,0.404,0.065,0.615
				c0.242,2.478,0.304,5.644-0.366,8.658c-0.083,0.363-0.173,0.723-0.276,1.082C1077.827,750.426,1076.61,752.673,1074.578,754.325z
				"/>
			<path style="fill:#2C3A64;" d="M1069.73,971.083c0,0,0.163,5.579-4.188,9.371c-2.74,2.389-4.515,5.474-4.925,8.657
				c-0.346,2.69,2.493,4.645,4.87,3.338l25.082-13.787c2.136-1.174,2.79-3.933,1.408-5.941c-1.208-1.755-2.593-3.811-3.59-5.424
				c-2.177-3.521-7.408-4.443-7.408-4.443L1069.73,971.083z"/>
			<path style="fill:#2C3A64;" d="M997.385,963.313c0,0-3.618,4.249-9.388,4.149c-3.635-0.064-7.019,1.037-9.456,3.125
				c-2.06,1.765-1.262,5.119,1.377,5.741l27.856,6.574c2.372,0.561,4.706-1.05,5.026-3.466c0.28-2.112,0.63-4.567,0.97-6.432
				c0.744-4.072-2.521-8.262-2.521-8.262L997.385,963.313z"/>
			<path style="fill:#2C3A64;" d="M1131.189,841.74c0,0,14.053,29.395,5.459,37.374c-8.593,7.978-95.324,7.139-97.844,7.139
				s2.334,31.545-24.96,81.936c0,0-13.763-0.715-20.437-5.335c0,0,17.514-88.298,22.974-94.177
				c5.459-5.878,72.98-24.217,72.98-24.217L1131.189,841.74z"/>
			<path style="fill:#35488B;" d="M1139.432,842.485c0,0,7.542,33.27,2.379,38.729c-5.162,5.459-78.667,20.732-81.374,22.653
				s14.976,12.948,26.907,62.127c0,0-13.887,8.025-20.925,6.346c0,0-44.986-64.812-41.415-78.975
				c4.313-17.101,56.035-37.766,74.391-42.805C1117.752,845.519,1139.432,842.485,1139.432,842.485z"/>
			<path style="fill:#C65447;" d="M1065.346,815.655c0.559,10.504,1.41,20.074,2.053,26.479c0.508,5.067,0.888,8.15,0.888,8.15
				s11.098,14.863,68.343,14.749c3.93-0.006,7.41-2.33,7.39-6.259c-0.131-24.9-18.495-78.004-24.786-96.108
				c-3.273-9.419-12.931-15.021-22.736-13.224c-6.775,1.241-14.679,2.886-21.92,4.884
				C1066.104,763.168,1063.943,789.324,1065.346,815.655z"/>
			<path style="fill:#E8945B;" d="M1078.519,748.017c13.241-1.075,17.562-11.721,17.562-11.721
				c-7.524-1.386-13.176,0.194-16.919,1.981c0.242,2.478,0.304,5.644-0.366,8.658
				C1078.712,747.298,1078.622,747.657,1078.519,748.017z"/>
			<g>
				<path style="fill:#FFB27D;" d="M1074.857,744.964c0,0,20.265,1.636,24.178-14.947c4.223-17.896-5.85-28.576-12.566-28.212
					c-13.394,0.724-20.107,7.085-21.462,12.779C1063.651,720.278,1063.693,744.156,1074.857,744.964z"/>
				<path style="fill:#FFFFFF;" d="M1080.973,734.926c0,0-0.451,2.141-5.756,1.937c0,0-4.454-0.171-4.373-2.514
					C1070.844,734.348,1075.117,732.582,1080.973,734.926z"/>
				<g>
					<path style="fill:#2C3A64;" d="M1096.546,736.019c0,0,0.528-6.396,0.165-10.572c0,0,3.894-7.344,0.666-8.409
						c-3.228-1.065-4.131,3.028-4.94,2.401c-0.808-0.626-4.13-13.088-7.632-12.048c-3.501,1.041-15.983,7.509-22.674,3.552
						c-6.691-3.957,3.863-26.003,29.039-22.737C1116.347,691.473,1116.236,718.833,1096.546,736.019z"/>
					<path style="fill:#2C3A64;" d="M1104.787,696.485c0,0,0.502-3.412-1.069-5.503c0,0,0.511,3.177-0.479,4.809
						C1102.248,697.424,1104.787,696.485,1104.787,696.485z"/>
					<path style="fill:#2C3A64;" d="M1103.887,694.323c0,0,2.887-0.862,4.685,1.154c0,0-2.328-1.031-4.159,0.834L1103.887,694.323z"
						/>
				</g>
			</g>
			<path style="fill:#B24940;" d="M1065.375,816.198c0.089,1.008,2.351,28.544,2.815,33.275
				c15.458-7.733,25.894-21.734,27.983-25.015c11.593-18.2,12.508-46.814,12.508-46.814l-24.471-1.72l-13.816,33.533
				C1070.395,809.457,1066.57,815.007,1065.375,816.198z"/>
			<path style="fill:#FFB27D;" d="M1090.678,767.841c0,0-16.864,40.98-20.02,44.229c-3.155,3.249-34.229,24.115-34.229,24.115
				l3.523,7.115c0,0,40.494-15.827,47.379-21.767c6.885-5.939,24.87-52.804,24.87-52.804L1090.678,767.841z"/>
			<path style="fill:#FFB27D;" d="M1036.429,836.185c0,0-3.17,1.279-6.248,1.191c-3.077-0.088-9.902,2.998-9.038,4.19
				c0.863,1.19,3.184-0.293,3.409,1.299c0.226,1.592-7.12,6.849-5.697,8.522c1.424,1.672,4.67,2.111,10.412-0.575
				c5.742-2.687,10.685-7.511,10.685-7.511C1039.922,840.289,1038.632,837.983,1036.429,836.185z"/>
			<path style="fill:#C65447;" d="M1082.971,776.774c0,0,9.572-26.41,24.757-18.615c14.049,7.212,2.543,32.471,2.543,32.471
				S1085.042,791.173,1082.971,776.774z"/>
		</g>
	</g>
	<path style="fill:#2E3552;" d="M307.318,1864.838h2832.417c1.691,0,3.075-1.384,3.075-3.075v-0.359
		c0-1.692-1.384-3.076-3.076-3.076H307.319c-1.692,0-3.076,1.384-3.076,3.076v0.359
		C304.243,1863.454,305.627,1864.838,307.318,1864.838z"/>
	<g>
		<path style="fill:#A56941;" d="M1382.044,617.969c0,0-31.868-22.256-34.047-25.578c-2.18-3.321-14.117-33.906-14.117-33.906
			l-6.764,1.659c0,0,5.825,37.689,9.597,44.716c3.771,7.027,41.438,34.327,41.438,34.327L1382.044,617.969z"/>
		<path style="fill:#A56941;" d="M1435.123,644.599c0,0,24.473,30.198,25.65,33.993c1.177,3.794,4.193,36.487,4.193,36.487
			l6.958,0.276c0,0,4.82-37.83,3.139-45.626c-1.682-7.796-30.333-44.444-30.333-44.444L1435.123,644.599z"/>
		<path style="fill:#A56941;" d="M1423.051,803.713l13.061,64.07h13.361c0,0,9.447-60.263,0.715-68.602
			C1441.455,790.842,1423.051,803.713,1423.051,803.713z"/>
		<path style="fill:#A56941;" d="M1383.382,800.833l0.411,67.054l11.59-0.986c0,0,22.267-54.805,15.482-64.793
			C1404.081,792.119,1383.382,800.833,1383.382,800.833z"/>
		<path style="fill:#35488B;" d="M1383.755,866.59c0,0-2.271,4.432-7.304,5.528c-3.17,0.691-5.884,2.34-7.573,4.653
			c-1.428,1.955-0.046,4.705,2.374,4.705h25.544c2.176,0,3.873-1.877,3.655-4.041c-0.19-1.892-0.389-4.097-0.476-5.786
			c-0.188-3.689-3.884-6.659-3.884-6.659L1383.755,866.59z"/>
		<path style="fill:#35488B;" d="M1438.463,799.455c-0.734,5.629-2.806,9.746-6.472,11.366c-10.197,4.508-21.759,4.155-31.635,2.285
			c-2.159-0.409-4.237-0.892-6.205-1.415c-9.991-2.632-17.077-6.238-17.077-6.238l8.587-85.22
			c9.74-1.974,23.054,2.464,35.938,22.025C1433.248,759.945,1440.378,784.814,1438.463,799.455z"/>
		<path style="fill:#2C3A64;" d="M1438.463,799.455c-0.734,5.629-2.806,9.746-6.472,11.366c-10.197,4.508-21.759,4.155-31.635,2.285
			c-2.159-0.409-4.237-0.892-6.205-1.415c-1.963-37.438,11.823-71.891,15.913-76.682
			C1423.144,754.871,1437.843,783.564,1438.463,799.455z"/>
		<path style="fill:#35488B;" d="M1436.701,866.59c0,0-2.272,4.432-7.305,5.528c-3.17,0.691-5.884,2.34-7.573,4.653
			c-1.428,1.955-0.047,4.705,2.374,4.705h25.544c2.175,0,3.873-1.877,3.656-4.041c-0.19-1.892-0.39-4.097-0.477-5.786
			c-0.188-3.689-3.883-6.659-3.883-6.659L1436.701,866.59z"/>
		<path style="fill:#2C3A64;" d="M1428.245,567.095c0.757-6.984-1.774-11.771-5.47-16.231c-3.545-4.277-7.771-3.975-12.278-7.417
			c-4.244-3.242-11.621-4.825-17.261-4.152c-18.051,2.154-32.364,15.071-26.564,33.385c1.842,5.819,1.446,10.625,7.103,17.01
			c7.061,7.968,15.217,14.067,26.985,12.662c6.244-0.745,11.544-2.838,15.816-7.964c2.326-2.792,6.05-3.545,8.036-6.519
			C1428.623,581.863,1427.419,574.723,1428.245,567.095z"/>
		<path style="fill:#35488B;" d="M1402.166,723.523l11.277,93.061c0,0,23.888,5.62,50.142-2.61c0,0-7.822-89.203-14.112-95.707
			C1443.182,711.764,1402.166,723.523,1402.166,723.523z"/>
		<path style="fill:#A56941;" d="M1385.68,616.814l23.868,8.814l2.646-16.145c0,0-3.51-5.059-5.862-13.752
			c-0.986-3.656-1.772-7.954-1.999-12.792l-17.209,11.573c0,0,0.639,1.643,1.23,4.109c0.634,2.665,1.208,6.292,0.853,9.846
			C1388.899,611.518,1387.908,614.513,1385.68,616.814z"/>
		<path style="fill:#EA8439;" d="M1442.683,675.867l0.023-20.977l0-0.777c3.601-3.92,18.81-11.719,18.81-11.719
			s-12.12-20.332-18.779-26.768l0-0.002c-0.001-0.001-0.003-0.002-0.005-0.002c-1.916-1.849-5.248-3.14-9.033-4.041
			c-3.123-0.752-6.555-1.234-9.743-1.545c-6.37-0.618-11.762-0.554-11.762-0.554l0.001,0.001h0c-3,3.911-9.138,9.869-16.806,9.786
			c-5.765-0.066-7.017-2.91-7.304-6.156c-0.789,0.198-1.562,0.438-2.315,0.71v-0.001l-19.327-6.959c0,0-9.682,19.235-0.512,32.59
			c0,0,8.513,2.678,10.405,10.329l5.858,59.701c0.227,5.873-3.516,19.68,2.292,20.536c25.836,3.809,57.3-3.808,65.031-5.85
			c1.155-0.303,1.78-0.485,1.78-0.485c2.688-0.995,4.274-3.697,3.946-6.45c-0.042-0.354-0.12-0.71-0.227-1.063L1442.683,675.867z"/>
		<path style="fill:#D97530;" d="M1427.286,690.506c2.031,14.334,13.464,30.096,22.23,33.664c1.155-0.303,1.779-0.485,1.779-0.485
			c2.688-0.995,4.275-3.697,3.946-6.45c-0.042-0.354-0.12-0.71-0.227-1.063l-12.332-40.305l0.023-20.977
			c-0.163-0.347-0.249-0.53-0.249-0.53S1423.697,665.183,1427.286,690.506z"/>
		<path style="fill:#8E512F;" d="M1389.207,608.467c10.39-1.523,17.125-12.736,17.125-12.736l-17.978,2.891
			C1388.988,601.286,1389.563,604.913,1389.207,608.467z"/>
		<path style="fill:#A56941;" d="M1387.464,602.289c0,0,23.364,0.059,21.919-16.224c-1.445-16.283-12.297-25.647-18.69-24.762
			c-12.748,1.764-14.239,7.178-15.079,12.731C1374.775,579.585,1376.726,602.41,1387.464,602.289z"/>
		<path style="fill:#FFFFFF;" d="M1392.508,592.203c0,0-0.26,2.083-5.349,2.313c0,0-4.271,0.193-4.381-2.054
			C1382.778,592.462,1386.722,590.432,1392.508,592.203z"/>
		<path style="fill:#2C3A64;" d="M1385.011,562.134c0,0,19.679-2.361,16.77,11.689c-1.834,8.857,7.802,9.05,7.802,9.05l2.932-14.194
			l-4.125-10.293L1385.011,562.134z"/>
		<path style="fill:#A56941;" d="M1333.88,558.485c0,0-0.491-2.958,0.172-5.576c0.663-2.617-0.678-9.049-1.863-8.537
			c-1.185,0.512-0.356,2.782-1.763,2.671c-1.406-0.11-4.505-7.402-6.209-6.503c-1.703,0.9-2.699,3.596-1.494,9.024
			c1.205,5.428,4.392,10.58,4.392,10.58C1329.7,560.694,1331.921,560.029,1333.88,558.485z"/>
		<path style="fill:#A56941;" d="M1464.966,715.078c0,0-0.346,2.978-1.707,5.311c-1.36,2.332-1.85,8.885-0.57,8.72
			c1.279-0.165,1.112-2.575,2.432-2.079c1.321,0.495,2.283,8.358,4.169,7.965c1.885-0.393,3.587-2.709,3.93-8.259
			c0.343-5.55-1.296-11.382-1.296-11.382C1469.989,713.403,1467.54,713.94,1464.966,715.078z"/>
	</g>
</g>
</svg>
