<?xml version="1.0" encoding="utf-8"?>
<!-- Generator: Adobe Illustrator 27.5.0, SVG Export Plug-In . SVG Version: 6.00 Build 0)  -->
<svg version="1.1" id="Layer_1" xmlns="http://www.w3.org/2000/svg" xmlns:xlink="http://www.w3.org/1999/xlink" x="0px" y="0px"
	 viewBox="0 0 3300 2000" style="enable-background:new 0 0 3300 2000;" xml:space="preserve">
<rect x="0" style="fill:#FFFFFF;" width="3300" height="2000"/>
<g>
	<path style="fill:#DAF2F1;" d="M344.626,1860.007c0,0-165.686-235.164-137.132-568.129
		c52.6-613.364,602.591-856.452,1141.039-806.982c122.124,11.22,268.261,25.046,333.638-42.733
		c147.927-153.363,372.268-264.461,688.764-263.649c232.63,0.597,427.175,91.659,590.988,348
		c163.813,256.341,138.646,654.84,20.625,922.159c-127.063,287.799-232.324,411.333-232.324,411.333H344.626z"/>
	<path style="fill:#D6884F;" d="M952.764,1517.805c194.041-176,866.666-729.35,906.666-733.35s388,232,388,232
		c-264,516-732.157,697.869-732.157,697.869C1308.742,1737.75,952.764,1517.805,952.764,1517.805z"/>
	<g>
		<path style="fill:#21111D;" d="M952.765,1519.805c-0.545,0-1.088-0.221-1.482-0.656c-0.742-0.818-0.681-2.083,0.138-2.825
			c145.313-131.803,580.589-493.44,794.194-656.221c0.879-0.671,2.135-0.499,2.803,0.378c0.669,0.879,0.5,2.134-0.379,2.803
			c-213.539,162.731-648.669,524.248-793.931,656.003C953.725,1519.634,953.243,1519.805,952.765,1519.805z"/>
	</g>
	<path style="fill:#FEC786;" d="M344.626,1860.007h2405.597c0,0,105.261-123.534,232.324-411.333
		c23-52.096,42.473-109.175,57.709-169.213c-233.987-256.265-559.934-621.151-590.521-604.72
		c-47.99,25.78-920.229,971.888-920.229,971.888s-629.18-417.831-649.79-405.834c-16.426,9.562-618.588,448.579-618.588,448.579
		C300.054,1796.736,344.626,1860.007,344.626,1860.007z"/>
	<g>
		<path style="fill:#21111D;" d="M261.132,1691.374c-0.617,0-1.227-0.285-1.618-0.822c-0.65-0.892-0.454-2.144,0.437-2.794
			c24.591-17.928,602.434-439.188,618.761-448.692c2.807-1.632,8.638-5.033,127.94,67.909c0.942,0.576,1.239,1.807,0.663,2.749
			c-0.576,0.942-1.807,1.24-2.749,0.663c-103.434-63.238-121.112-68.542-123.902-67.829
			c-17.473,10.375-612.342,444.047-618.356,448.432C261.952,1691.249,261.54,1691.374,261.132,1691.374z"/>
	</g>
	<g>
		<path style="fill:#21111D;" d="M1725.235,1437.074c-0.487,0-0.975-0.177-1.36-0.533c-0.81-0.752-0.857-2.017-0.106-2.827
			c256.313-276.342,691.333-742.637,725.021-760.734c6.467-3.477,23.372,1.727,97.24,73.403
			c45.369,44.023,107.552,108.639,190.102,197.541c0.751,0.81,0.704,2.075-0.104,2.827c-0.813,0.751-2.076,0.703-2.827-0.105
			c-82.502-88.85-144.637-153.417-189.955-197.391c-26.328-25.547-47.511-44.633-62.96-56.727
			c-21.828-17.088-27.974-16.899-29.603-16.024c-33.178,17.824-467.838,483.771-723.98,759.932
			C1726.308,1436.859,1725.771,1437.074,1725.235,1437.074z"/>
	</g>
	<path style="fill:#258D8C;" d="M706.241,1857.608c0,0-194.262-493.287-271.014-310.787c0,0-60.632-130.327-109.895-84.169
		c-49.263,46.157,25.959,264.309,25.959,264.309s-63.603-74.764-88.433-13.94c-22.502,55.121,64.216,146.986,64.216,146.986h150.595
		L706.241,1857.608z"/>
	<g>
		<path style="fill:#7FC6A6;" d="M761.991,1782.165c0,0-26.609-17.753-34.212-5.918c0,0-61.67-107.128-140.648-107.012
			c-34.239,0.05-42.654,26.909-41.316,51.203c1.139,20.694,8.644,42.668,18.78,63.185c-52.213-9.973-78.324,25.364,0.134,76.857
			c0,0,26.125,0.673,53.389-0.863c0.332,0.326,0.662,0.647,0.985,0.958c2.534,0.493,307.61-0.418,307.61-0.418
			S790.359,1680.931,761.991,1782.165z"/>
		<path d="M624.348,1683.213c0.116,0,0.231-0.043,0.302-0.123c0.116-0.13,0.075-0.308-0.092-0.399
			c-0.047-0.025-4.716-2.537-11.285-4.71c-6.079-2.011-15.081-4.137-23.445-2.849c-0.199,0.031-0.329,0.182-0.29,0.337
			c0.04,0.155,0.235,0.255,0.432,0.225c15.675-2.416,33.985,7.368,34.168,7.467C624.203,1683.197,624.276,1683.213,624.348,1683.213
			z"/>
		<path d="M614.132,1683.213c0.117,0,0.232-0.043,0.303-0.124c0.115-0.13,0.073-0.309-0.094-0.398
			c-0.084-0.045-8.586-4.51-23.508-4.003c-0.203,0.007-0.36,0.14-0.352,0.299c0.009,0.158,0.177,0.281,0.384,0.273
			c14.652-0.497,22.976,3.859,23.058,3.903C613.988,1683.197,614.06,1683.213,614.132,1683.213z"/>
		<path d="M667.595,1770.45c0.098,0,0.196-0.03,0.269-0.091c0.139-0.116,0.131-0.297-0.018-0.405l-11.273-8.203
			c-0.148-0.108-0.381-0.102-0.52,0.013c-0.139,0.116-0.131,0.297,0.018,0.405l11.273,8.203
			C667.414,1770.424,667.505,1770.45,667.595,1770.45z"/>
		<path d="M668.828,1774.948c0.119,0,0.235-0.045,0.307-0.127c0.113-0.132,0.067-0.309-0.102-0.397
			c-2.285-1.185-11.145-7.284-11.234-7.346c-0.152-0.105-0.385-0.094-0.519,0.024c-0.135,0.119-0.12,0.3,0.032,0.404
			c0.366,0.252,8.987,6.186,11.313,7.394C668.687,1774.932,668.758,1774.948,668.828,1774.948z"/>
	</g>
	<g>
		<path style="fill:#258D8C;" d="M2338.666,1859.261c0,0,188.049-399.874,262.346-251.933c0,0,58.692-105.647,106.38-68.23
			c47.688,37.417-24.944,231.102-24.944,231.102s78.501-75.567,52.823,36.683c0,0,33.015-25.025,54.291-16.915
			c21.276,8.111,2.935,71.238,2.935,71.238h-232.569L2338.666,1859.261z"/>
		<path style="fill:#258D8C;" d="M2661.018,1859.663c0,0,125.216-266.263,174.688-167.754c0,0,39.082-70.347,70.835-45.432
			c31.754,24.915-16.61,153.883-16.61,153.883s52.271-50.318,35.173,24.426c0,0,21.984-16.663,36.151-11.263
			c14.167,5.401,1.954,47.435,1.954,47.435h-154.86L2661.018,1859.663z"/>
		<path style="fill:#258D8C;" d="M2236.363,1862.516c4.26-4.26,37.49-63.903,60.495-33.229c0,0,37.596-86.482,85.204-69.547
			c0,0,30.354,17.573,8.307,61.346c0,0,73.488-4.686,72.53,41.43H2236.363z"/>
		<g>
			<g>
				<path style="fill:#7FC6A6;" d="M2548.045,1863.49c2.531-2.026,44.055-83.046,71.399-45.068c0,0,41.017-139.253,97.224-132.67
					c56.207,6.583,8.608,109.884,8.608,109.884s48.106-19.749,36.966,32.408c0,0,61.271-11.141,56.714,32.914L2548.045,1863.49z"/>
			</g>
			<g>
				<path style="fill:#7FC6A6;" d="M2778.223,1729.864c-7.495,9.043-9.645,19.629-4.801,23.645
					c4.845,4.016,14.848-0.06,22.345-9.103c7.495-9.043,9.645-19.629,4.801-23.645
					C2795.723,1716.746,2785.719,1720.821,2778.223,1729.864z"/>
			</g>
			<g>
				<path style="fill:#7FC6A6;" d="M2789.659,1765.451c-4.437,5.353-5.71,11.62-2.841,13.997c2.867,2.377,8.79-0.035,13.227-5.389
					s5.71-11.62,2.842-13.998C2800.019,1757.685,2794.096,1760.097,2789.659,1765.451z"/>
			</g>
			<path d="M2695.45,1706.646c-0.147,0-0.294-0.056-0.409-0.166c-0.233-0.225-0.24-0.598-0.014-0.831
				c0.41-0.426,10.174-10.411,20.646-10.411h0.003c0.327,0,0.591,0.264,0.591,0.589c0,0.324-0.263,0.587-0.588,0.587h-0.006
				c-9.969,0-19.702,9.952-19.8,10.052C2695.758,1706.586,2695.604,1706.646,2695.45,1706.646z"/>
			<path d="M2703.295,1705.844c-0.148,0-0.297-0.055-0.411-0.167c-0.233-0.227-0.238-0.599-0.011-0.832
				c0.188-0.193,4.712-4.742,14.182-6.188c0.324-0.048,0.621,0.172,0.671,0.493c0.049,0.321-0.172,0.621-0.493,0.67
				c-9.084,1.387-13.474,5.801-13.517,5.845C2703.601,1705.784,2703.448,1705.844,2703.295,1705.844z"/>
			<path d="M2584.865,1829.442c-0.147,0-0.294-0.055-0.409-0.165c-0.234-0.226-0.24-0.598-0.014-0.832
				c0.41-0.425,10.175-10.411,20.646-10.411c0.338,0.008,0.594,0.261,0.594,0.589c0,0.325-0.263,0.588-0.588,0.588h-0.006
				c-9.977,0-19.703,9.951-19.8,10.051C2585.173,1829.382,2585.02,1829.442,2584.865,1829.442z"/>
			<path d="M2592.71,1828.639c-0.148,0-0.297-0.056-0.411-0.167c-0.232-0.227-0.237-0.598-0.01-0.831
				c0.188-0.193,4.711-4.741,14.181-6.187c0.326-0.048,0.621,0.172,0.671,0.493c0.049,0.322-0.172,0.621-0.493,0.671
				c-9.053,1.382-13.474,5.801-13.517,5.845C2593.015,1828.58,2592.863,1828.639,2592.71,1828.639z"/>
		</g>
		<path d="M2346.313,1776.071c-0.147,0-0.292-0.065-0.389-0.189c-0.169-0.215-0.132-0.526,0.083-0.695
			c0.492-0.387,12.16-9.487,22.826-10.766c0.273-0.032,0.518,0.161,0.55,0.432c0.032,0.271-0.161,0.518-0.432,0.55
			c-10.387,1.246-22.213,10.468-22.332,10.561C2346.528,1776.036,2346.42,1776.071,2346.313,1776.071z"/>
		<path d="M2346.313,1781.808c-0.144,0-0.287-0.063-0.385-0.183c-0.172-0.212-0.139-0.524,0.073-0.696
			c0.079-0.064,8.076-6.487,18.279-9.463c0.261-0.076,0.537,0.074,0.614,0.336c0.076,0.262-0.075,0.537-0.337,0.614
			c-10.005,2.918-17.855,9.219-17.933,9.282C2346.533,1781.772,2346.423,1781.808,2346.313,1781.808z"/>
	</g>
	<path style="fill:#DAF2F1;" d="M1408.884,266.886c-30.945,23.422-120.021,31.964-119.499,95.964
		c0.344,42.224,64.609,89.811,188.963,82.105c124.355-7.706,275.013-119.967,262.028-177.022
		C1713.745,150.921,1505.477,193.775,1408.884,266.886z"/>
	<path style="fill:#DAF2F1;" d="M1255.976,230.473c-4.106-27.012,13.427-52.792,39.949-59.36c4.369-1.082,9.173-1.888,14.449-2.328
		c46.214-3.851,66.57,33.56,48.415,57.218c-18.156,23.657-66.57,40.163-87.476,27.508
		C1260.859,247.184,1257.282,239.069,1255.976,230.473z"/>
	<path style="fill:#FFFFFF;" d="M789.555,876.983c42.695-0.918,188.961-2.52,288.387,15.406
		c12.897,2.325,21.634-12.945,12.969-22.777c-5.068-5.75-13.868-10.579-28.876-12.101c0,0,8.091-93.091-62.156-101.466
		c-80.565-9.607-84.403,81.979-84.403,81.979s-35.631-36.004-63.493,7.363c0,0-44.942-27.881-69.553,20.256
		C779.746,870.893,783.661,877.11,789.555,876.983z"/>
	<path style="fill:#FFFFFF;" d="M2665.483,716.352c41.501-3.412,138.825-9.982,223.699-4.94
		c35.114,2.085,64.674-26.656,63.014-61.793c-0.679-14.382-6.256-30.992-20.082-49.629c-53.237-71.759-140.896,0.207-139.117,37.258
		c0,0-19.456-55.375-74.102-44.24c-54.645,11.134-33.22,91.839-33.22,91.839s-17.805-3.303-29.875,5.382
		C2643.931,698.77,2650.909,717.549,2665.483,716.352z"/>
	<path style="fill:#FFFFFF;" d="M1752.725,491.339c79.143-6.892,272.273-20.92,389.059-5.664
		c16.878,2.205,27.692-17.735,16.418-30.489c-8.131-9.196-22.417-16.789-47.34-17.459c0,0,21.124-108.503-83.612-116.845
		c-107.631-8.572-107.101,105.14-107.101,105.14s-63.867-58.515-93.017,15.822c0,0-66.863-27.868-96.315,8.707
		C1716.944,467.78,1730.688,493.258,1752.725,491.339z"/>
	<path style="fill:#FFFFFF;" d="M522.982,1167.669c-79.143-6.892-272.273-20.919-389.059-5.664
		c-16.878,2.205-27.692-17.735-16.418-30.489c8.13-9.196,22.417-16.789,47.34-17.459c0,0-21.124-108.503,83.612-116.845
		c107.631-8.572,107.101,105.14,107.101,105.14s63.867-58.515,93.017,15.822c0,0,66.863-27.868,96.315,8.707
		C558.763,1144.111,545.019,1169.588,522.982,1167.669z"/>
	<g>
		<g>
			<circle style="fill:#122330;" cx="1115.1" cy="1714.472" r="146.702"/>
		</g>
		<g>
			
				<ellipse transform="matrix(0.982 -0.1891 0.1891 0.982 -304.0992 241.8093)" style="fill:#122330;" cx="1115.1" cy="1714.472" rx="87.136" ry="87.136"/>
		</g>
		<g style="opacity:0.3;">
			<g>
				
					<ellipse transform="matrix(0.982 -0.1891 0.1891 0.982 -304.0993 241.8094)" style="fill:#FFFFFF;" cx="1115.1" cy="1714.472" rx="62.136" ry="62.136"/>
			</g>
		</g>
		<g>
			<circle style="fill:#122330;" cx="1910.1" cy="1714.472" r="146.702"/>
		</g>
		<g>
			
				<ellipse transform="matrix(0.982 -0.1891 0.1891 0.982 -289.7545 392.1499)" style="fill:#122330;" cx="1910.1" cy="1714.472" rx="87.136" ry="87.136"/>
		</g>
		<g style="opacity:0.3;">
			<g>
				
					<ellipse transform="matrix(0.982 -0.1891 0.1891 0.982 -289.7546 392.1501)" style="fill:#FFFFFF;" cx="1910.1" cy="1714.472" rx="62.136" ry="62.136"/>
			</g>
		</g>
		<g>
			<path style="fill:#ED2B47;" d="M944.61,1465.481c-11.969,26.316,4.11,36.775,4.11,36.775s20.587-14.17,20.388-16.869
				c-0.199-2.699-0.939-36.684-0.939-36.684l0.939-1.317C969.109,1447.386,956.578,1439.165,944.61,1465.481z"/>
		</g>
		<g>
			<path style="fill:#FD7583;" d="M989.701,1437.898c0,0-10.132-5.807-21.531,10.805c-4.202,6.124-8.576,15.294-12.679,28.924
				c-15.232,50.608,0,50.608,0,50.608l25.566-10.121c0,0,24.484-58.03,23.033-62.754
				C1002.638,1450.636,989.701,1437.898,989.701,1437.898z"/>
		</g>
		<g>
			<path style="fill:#FFFFFF;" d="M1841.506,1517.768h-5.765c0,0-19.981,35.096-15.629,31.048c4.352-4.049,16.32,24.52,16.32,24.52
				h26.838v-35.32C1863.271,1526.833,1853.527,1517.768,1841.506,1517.768z"/>
		</g>
		<g>
			<path style="fill:#122330;" d="M1824.333,1505.84c-76.125-27.885-108.152-249.504-108.152-249.504l-56-2
				c42.433,107.288,55.481,367.018,55.481,367.018c-13.452,22.003-38.567,35.594-65.778,35.594h-174.133
				c-141.988-7.085-146.884-98.685-124.036-159.414c22.849-60.729,51.083-75.237,51.083-75.237s-348.66,38.799-395.747,50.763
				c-29.682,7.542-46.034,41.843-54.067,66.172c-4.144,12.551,5.855,25.281,19.967,25.482l257.448,3.67
				c21.76,140.92,110.979,133.604,110.979,133.604h379.723l115.331-122.652v-56.651
				C1836.433,1515.31,1831.71,1508.542,1824.333,1505.84z"/>
		</g>
		<g>
			<path style="fill:#ED2B47;" d="M986.871,1480.929c0.351,0.549,0.715,1.099,1.094,1.649h369.876l3.782-8.097
				c20.352-41.484,41.175-52.184,41.175-52.184h-379.372C991.08,1422.296,970.345,1455.062,986.871,1480.929z"/>
		</g>
		<g>
			<path style="fill:#FD7583;" d="M1148.435,1458.487c-108.81-14.735-174.607,112.429-200.648,183.02
				c-6.806,18.448,2.343,40.828,16.676,40.828h276.364c29.697,0,50.549-42.832,40.797-83.858
				C1266.896,1536.531,1232.676,1469.896,1148.435,1458.487z"/>
		</g>
		<g>
			<path style="fill:#ED2B47;" d="M1693.79,1150.578c-33.303,6.549-68.261,33.237-68.261,65.165
				c0,31.928,34.958,58.616,68.261,65.165c7.83,1.54,15.118-4.452,15.118-12.431v-105.467
				C1708.908,1155.03,1701.62,1149.038,1693.79,1150.578z"/>
		</g>
		<g>
			<path style="fill:#FFFFFF;" d="M1708.908,1163.292v104.901c22.239-7.064,38.354-27.872,38.354-52.45
				S1731.147,1170.357,1708.908,1163.292z"/>
		</g>
		<g>
			<path style="fill:#FD7583;" d="M1188.455,1522.336h-116.103c-1.747,0-3.164,1.416-3.164,3.164s1.417,3.164,3.164,3.164h116.103
				c1.747,0,3.163-1.416,3.163-3.164S1190.202,1522.336,1188.455,1522.336z"/>
		</g>
		<g>
			<path style="fill:#FD7583;" d="M1188.455,1538.343h-116.103c-1.747,0-3.164,1.416-3.164,3.164c0,1.747,1.417,3.163,3.164,3.163
				h116.103c1.747,0,3.163-1.416,3.163-3.163C1191.618,1539.759,1190.202,1538.343,1188.455,1538.343z"/>
		</g>
		<g>
			<path style="fill:#FD7583;" d="M1188.455,1554.35h-116.103c-1.747,0-3.164,1.417-3.164,3.164c0,1.747,1.417,3.164,3.164,3.164
				h116.103c1.747,0,3.163-1.416,3.163-3.164C1191.618,1555.767,1190.202,1554.35,1188.455,1554.35z"/>
		</g>
		<g style="opacity:0.8;">
			<g>
				<path style="fill:#FFFFFF;" d="M981.725,1823.895c0,0-10.796-34.413-126.182-47.897
					c-115.386-13.484-39.137,43.174-39.137,43.174c-129.556-1.349,0,38.739,0,38.739h283.403
					C1004.667,1783.289,981.725,1823.895,981.725,1823.895z"/>
			</g>
		</g>
		<g style="opacity:0.8;">
			<g>
				<path style="fill:#FFFFFF;" d="M1541.156,1823.076c0,0-178.396-36.896-69.461,34.023l184.314-1.338
					C1656.008,1855.761,1555.326,1797.772,1541.156,1823.076z"/>
			</g>
		</g>
		<g style="opacity:0.8;">
			<g>
				<path style="fill:#FFFFFF;" d="M1910.1,1746.2c-106.197-41.498-11.641,78.119-11.641,78.119l-57.934-19.413
					c-95.327-21.255-54.079,31.823-54.079,31.823c-63.608-12.575-34.688,22.098-34.688,22.098h323.245
					C2075.003,1858.827,2016.298,1787.699,1910.1,1746.2z"/>
			</g>
		</g>
		<g style="opacity:0.8;">
			<g>
				<path style="fill:#FFFFFF;" d="M1223.185,1844.954c-31.057-12.146-19.963,12.146-19.963,12.146h85.433
					C1181.367,1763.307,1223.185,1844.954,1223.185,1844.954z"/>
			</g>
		</g>
		<g>
			<path style="fill:#ED2B47;" d="M1935.444,1559.274c-1.258-0.237-2.507-0.464-3.748-0.681
				c-62.428-10.918-125.567,15.621-159.001,65.864l-12.175,18.295c-18.375,27.613-50.801,44.416-85.711,44.416h-327.636
				c-10.149,0-19.725-4.373-25.933-11.842c-49.026-58.992-125.541-92.971-205.636-90.058c-15.83,0.576-31.77,2.114-47.119,5.006
				c-53.395,10.06-84.957,43.209-101.207,66.879c-7.531,10.97,0.886,25.344,14.877,25.344l130.686,0
				c21.035,0,41.475,4.65,59.786,13.267c44.854,21.108,41.623,39.194,89.687,41.449v0.596h462.95c17.84,0,33.902-10.07,40.554-25.47
				c12.727-29.463,31.769-86.99,97.229-111.005c71.257-26.142,142.906,15.042,170.632,27.876c2.088,0.967,4.214-1.239,2.962-3.069
				C2020.391,1602.473,1988.83,1569.333,1935.444,1559.274z"/>
		</g>
		<g>
			<path style="fill:#FD7583;" d="M1419.988,1368.363h-313.255c-10.986,0-19.892,8.906-19.892,19.892v15.317
				c0,10.986,8.906,19.892,19.892,19.892h313.255c10.986,0,19.892-8.906,19.892-19.892v-15.317
				C1439.88,1377.269,1430.974,1368.363,1419.988,1368.363z"/>
		</g>
		<g>
			<g>
				<g>
					<g>
						<g>
							<g>
								<g>
									<g>
										<g>
											<g>
												<polygon style="fill:#FE9F73;" points="1537.141,1556.177 1537.844,1638.447 1607.532,1638.106 1606.59,1546.178 
																									"/>
											</g>
										</g>
									</g>
								</g>
							</g>
						</g>
					</g>
				</g>
				<g>
					<g>
						<g>
							<g>
								<g>
									<path style="fill:#F99247;" d="M1673.577,1646.009h-9.444l-43.848-26.788l-23.973,26.788h-59.13
										c-1.476,0-2.672,1.228-2.672,2.742v9.188c0,1.036,0.819,1.876,1.829,1.876h137.488c4.152,0,7.426-3.858,6.602-8.27
										C1679.815,1648.267,1676.832,1646.009,1673.577,1646.009z"/>
								</g>
							</g>
						</g>
					</g>
					<g>
						<g>
							<g>
								<g>
									<path style="fill:#D82A43;" d="M1656.177,1633.793l-50.203-22.844c-20.216,20.197-43.15,3.507-43.15,3.507
										c-15.162-7.019-25.12,6.732-25.12,6.732v24.899h135.965C1669.942,1638.513,1656.177,1633.793,1656.177,1633.793z"/>
								</g>
							</g>
						</g>
					</g>
					<g>
						<g>
							<g>
								<g>
									<g>
										<g>
											<rect x="1537.201" y="1621.188" width="1.007" height="24.775"/>
										</g>
									</g>
								</g>
							</g>
						</g>
					</g>
					<g>
						<g>
							<g>
								<g>
									<g>
										<g>
											<path d="M1563.109,1614.03l-0.57,0.851c8.074,5.699,16.448,6.577,20.839,6.577c1.922,0,3.079-0.168,3.117-0.174
												l-0.149-1.021C1586.229,1620.28,1574.378,1621.985,1563.109,1614.03z"/>
										</g>
									</g>
								</g>
							</g>
						</g>
					</g>
					<g>
						<g>
							<g>
								<g>
									<g>
										<g>
											<polygon points="1543.51,1637 1549.923,1641.436 1550.485,1640.579 1544.072,1636.143 											"/>
										</g>
									</g>
								</g>
							</g>
						</g>
					</g>
					<g>
						<g>
							<g>
								<g>
									<g>
										<g>
											<polygon points="1548.109,1635.745 1554.521,1640.181 1555.083,1639.326 1548.672,1634.89 											"/>
										</g>
									</g>
								</g>
							</g>
						</g>
					</g>
					<g>
						<g>
							<g>
								<g>
									<g>
										<g>
											<g>
												<g>
													<g>
														<g>
															<g>
																<g>
																	<path d="M1673.827,1645.539h-135.944c-2.139,0-3.877,1.785-3.877,3.978v6.883h1.007v-6.883
																		c0-1.624,1.287-2.945,2.87-2.945h135.944c3.433,0,6.226,2.865,6.226,6.387c0,1.879-0.801,3.655-2.199,4.872
																		l0.651,0.786c1.623-1.413,2.555-3.475,2.555-5.658C1681.059,1648.868,1677.814,1645.539,1673.827,1645.539z"/>
																</g>
															</g>
														</g>
													</g>
												</g>
											</g>
										</g>
									</g>
								</g>
							</g>
						</g>
					</g>
					<g>
						<g>
							<g>
								<g>
									<g>
										<g>
											<path d="M1661.139,1635.306c-10.098-4.418-54.513-24.626-54.96-24.83l-0.409,0.944
												c0.448,0.203,44.871,20.415,54.975,24.835c9.887,4.326,12.602,9.964,12.627,10.02l0.91-0.441
												C1674.17,1645.591,1671.415,1639.802,1661.139,1635.306z"/>
										</g>
									</g>
								</g>
							</g>
						</g>
					</g>
				</g>
			</g>
			<g>
				<g>
					<g>
						<g>
							<g>
								<g>
									<g>
										<g>
											<g>
												<polygon style="fill:#FE9F73;" points="1449.128,1556.177 1449.83,1638.447 1519.519,1638.106 1518.576,1546.178 
																									"/>
											</g>
										</g>
									</g>
								</g>
							</g>
						</g>
					</g>
				</g>
				<g>
					<g>
						<g>
							<g>
								<g>
									<path style="fill:#F99247;" d="M1585.563,1646.009h-9.444l-43.849-26.788l-23.973,26.788h-59.13
										c-1.476,0-2.673,1.228-2.673,2.742v9.188c0,1.036,0.819,1.876,1.829,1.876h137.488c4.152,0,7.427-3.858,6.601-8.27
										C1591.801,1648.267,1588.818,1646.009,1585.563,1646.009z"/>
								</g>
							</g>
						</g>
					</g>
					<g>
						<g>
							<g>
								<g>
									<path style="fill:#EF3A4C;" d="M1568.163,1633.793l-50.203-22.844c-20.217,20.197-43.15,3.507-43.15,3.507
										c-15.162-7.019-25.121,6.732-25.121,6.732v24.899h135.966C1581.929,1638.513,1568.163,1633.793,1568.163,1633.793z"/>
								</g>
							</g>
						</g>
					</g>
					<g>
						<g>
							<g>
								<g>
									<g>
										<g>
											<rect x="1449.187" y="1621.188" width="1.007" height="24.775"/>
										</g>
									</g>
								</g>
							</g>
						</g>
					</g>
					<g>
						<g>
							<g>
								<g>
									<g>
										<g>
											<path d="M1475.096,1614.03l-0.57,0.851c8.074,5.699,16.448,6.577,20.839,6.577c1.921,0,3.08-0.168,3.117-0.174
												l-0.149-1.021C1498.215,1620.28,1486.364,1621.985,1475.096,1614.03z"/>
										</g>
									</g>
								</g>
							</g>
						</g>
					</g>
					<g>
						<g>
							<g>
								<g>
									<g>
										<g>
											<polygon points="1455.496,1637 1461.909,1641.436 1462.472,1640.579 1456.059,1636.143 											"/>
										</g>
									</g>
								</g>
							</g>
						</g>
					</g>
					<g>
						<g>
							<g>
								<g>
									<g>
										<g>
											<polygon points="1460.095,1635.745 1466.507,1640.181 1467.07,1639.326 1460.658,1634.89 											"/>
										</g>
									</g>
								</g>
							</g>
						</g>
					</g>
					<g>
						<g>
							<g>
								<g>
									<g>
										<g>
											<g>
												<g>
													<g>
														<g>
															<g>
																<g>
																	<path d="M1585.813,1645.539h-135.944c-2.138,0-3.877,1.785-3.877,3.978v6.883h1.007v-6.883
																		c0-1.624,1.287-2.945,2.87-2.945h135.944c3.433,0,6.226,2.865,6.226,6.387c0,1.879-0.801,3.655-2.199,4.872
																		l0.651,0.786c1.624-1.413,2.555-3.475,2.555-5.658C1593.046,1648.868,1589.801,1645.539,1585.813,1645.539z"/>
																</g>
															</g>
														</g>
													</g>
												</g>
											</g>
										</g>
									</g>
								</g>
							</g>
						</g>
					</g>
					<g>
						<g>
							<g>
								<g>
									<g>
										<g>
											<path d="M1573.126,1635.306c-10.098-4.418-54.513-24.626-54.96-24.83l-0.409,0.944
												c0.448,0.203,44.871,20.415,54.975,24.835c9.887,4.326,12.601,9.964,12.627,10.02l0.911-0.441
												C1586.156,1645.591,1583.401,1639.802,1573.126,1635.306z"/>
										</g>
									</g>
								</g>
							</g>
						</g>
					</g>
				</g>
			</g>
			<g>
				<g>
					<g>
						<g>
							<g>
								<g>
									<path style="fill:#3AA1C9;" d="M1365.181,1244.336l-35.324-10.242l66.498,102.165l129.512,39.165l7.013,202.787
										c28.813,6.985,79.301,4.125,79.301,4.125c8-153-24.376-288.097-36-303
										C1552.604,1249.109,1365.181,1244.336,1365.181,1244.336z"/>
								</g>
							</g>
						</g>
					</g>
				</g>
			</g>
			<g>
				<g>
					<g>
						<g>
							<g>
								<g>
									<path style="fill:#21111D;" d="M1533.954,1577.318l-6.865-198.526l5.292,4.26l1.386-1.721l-9.053-7.289l7.091,205.045
										l0.816,0.197c0.173,0.042,17.061,4.05,41.521,4.05c0.714,0,1.436-0.003,2.163-0.01l-0.021-2.21
										C1554.024,1581.35,1537.702,1578.127,1533.954,1577.318z"/>
								</g>
							</g>
						</g>
					</g>
				</g>
			</g>
			<g>
				<g>
					<g>
						<g>
							<g>
								<path style="fill:#4CB7D8;" d="M1257.862,1220.445c-35.808,60.308-28.04,158.741,3.495,165.744
									c7.663,1.702,20.605,0.678,35.148,1.175c45.308,1.551,109.951,0.488,109.951,0.488l12.497-42.553
									C1418.953,1345.3,1293.671,1160.137,1257.862,1220.445z"/>
							</g>
						</g>
					</g>
				</g>
			</g>
			<g>
				<g>
					<g>
						<g>
							<g>
								<g>
									<path style="fill:#4CB7D8;" d="M1352.224,1252.834l-14.665,15.849l67.758,119.21l27.945-0.975l7.764,191.293
										c28.814,6.985,93.596,3.274,93.596,3.274c9.823-83.166-0.033-271.442-4.617-289.778
										C1525.422,1273.371,1352.224,1252.834,1352.224,1252.834z"/>
								</g>
							</g>
						</g>
					</g>
				</g>
			</g>
			<g>
				<g>
					<g>
						<g>
							<g>
								<g>
									<path style="fill:#21111D;" d="M1442.102,1577.433l-7.319-187.354l8.536,4.026l0.943-1.999l-11.829-5.579l7.517,192.418
										l0.633,0.278c0.484,0.212,10.691,4.523,39.317,4.523c4.614,0,9.706-0.111,15.313-0.371l-0.102-2.207
										C1460.046,1582.786,1445.198,1578.502,1442.102,1577.433z"/>
								</g>
							</g>
						</g>
					</g>
				</g>
			</g>
			<g>
				<g>
					<g>
						<g>
							<g>
								<g>
									<path style="fill:#21111D;" d="M1449.089,1410.641c0.036,4.887-5.195,118.296-2.139,130.08l2.139-0.554
										c-2.987-11.522,2.219-128.347,2.21-129.541L1449.089,1410.641z"/>
								</g>
							</g>
						</g>
					</g>
				</g>
			</g>
			<g>
				<g>
					<g>
						<g>
							<g>
								<path style="fill:#21111D;" d="M1257.945,1383.9l-0.166,2.196c38.016,2.863,71.832,3.818,100.038,3.818
									c56,0,89.858-3.765,90.361-3.822l-0.25-2.187C1447.173,1383.991,1371.212,1392.434,1257.945,1383.9z"/>
							</g>
						</g>
					</g>
				</g>
			</g>
		</g>
		<g>
			<g>
				<g>
					<g>
						<g>
							<g>
								<g>
									<g>
										<g>
											<g>
												<g>
													<g>
														<path style="fill:#F59F73;" d="M1371.126,852.522l-54.028,0.263l-0.078,56.719l0.881,14.581
															c0,0-2.904,29.974-1.47,36.116c1.434,6.143,9.947,18.067,24.999,17.104c4.746-0.304,8.905-1.465,12.375-2.914
															c7.097-2.961,12.485-2.955,11.333-11.127l-4.25-30.155c13.11-2.918,12.004-19.472,12.004-19.472L1371.126,852.522z"/>
													</g>
												</g>
											</g>
										</g>
									</g>
								</g>
							</g>
						</g>
					</g>
				</g>
				<g>
					<g>
						<g>
							<g>
								<g>
									<g>
										<g>
											<g>
												<g>
													<g>
														<path d="M1335.355,890.277c-0.232,0.291-0.211,0.728,0.046,0.976c0.126,0.121,0.284,0.175,0.44,0.165
															c0.165-0.011,0.328-0.093,0.447-0.242c0.309-0.387,7.661-9.417,14.825-3.66c0.277,0.223,0.67,0.151,0.879-0.161
															c0.208-0.311,0.153-0.744-0.123-0.966C1343.783,879.891,1335.438,890.172,1335.355,890.277z"/>
													</g>
												</g>
											</g>
										</g>
									</g>
								</g>
							</g>
						</g>
					</g>
				</g>
				<g>
					<g>
						<g>
							<g>
								<g>
									<g>
										<g>
											<g>
												<g>
													<g>
														<path d="M1361.129,884.427c-0.255,0.267-0.27,0.705-0.035,0.979c0.128,0.15,0.305,0.22,0.481,0.208
															c0.146-0.009,0.29-0.074,0.405-0.195c0.052-0.054,5.269-5.45,8.313-2.839c0.271,0.232,0.665,0.174,0.882-0.132
															c0.217-0.304,0.174-0.738-0.096-0.97C1367.194,878.145,1361.374,884.169,1361.129,884.427z"/>
													</g>
												</g>
											</g>
										</g>
									</g>
								</g>
							</g>
						</g>
					</g>
				</g>
				<g>
					<g>
						<g>
							<g>
								<g>
									<g>
										<g>
											<g>
												<g>
													<g>
														<path d="M1346.663,891.447c-1.039,0.066-1.854,1.049-1.822,2.195c0.033,1.146,0.902,2.02,1.941,1.954
															c1.039-0.066,1.855-1.049,1.822-2.195C1348.572,892.255,1347.703,891.38,1346.663,891.447z"/>
													</g>
												</g>
											</g>
										</g>
									</g>
								</g>
							</g>
						</g>
					</g>
				</g>
				<g>
					<g>
						<g>
							<g>
								<g>
									<g>
										<g>
											<g>
												<g>
													<g>
														<path d="M1366.603,888.092c-1.039,0.066-1.855,1.049-1.822,2.195c0.033,1.146,0.903,2.02,1.941,1.954
															c1.039-0.067,1.855-1.049,1.822-2.195C1368.511,888.9,1367.642,888.026,1366.603,888.092z"/>
													</g>
												</g>
											</g>
										</g>
									</g>
								</g>
							</g>
						</g>
					</g>
				</g>
				<g>
					<g>
						<g>
							<g>
								<g>
									<g>
										<g>
											<g>
												<g>
													<g>
														<path style="fill:#351A2C;" d="M1319.365,848.445c0,0-14.501,0.158-18.099,15.783
															c-3.598,15.625,2.07,23.324,2.342,27.896c0.271,4.572-1.654,35.637,17.945,32.074l3.838-51.354l-7.431-19.872
															L1319.365,848.445z"/>
													</g>
												</g>
											</g>
										</g>
									</g>
								</g>
							</g>
						</g>
					</g>
				</g>
				<g>
					<g>
						<g>
							<g>
								<g>
									<g>
										<g>
											<g>
												<g>
													<g>
														<path style="fill:#F59F73;" d="M1321.396,881.952c-6.235,0.399-11.128,6.295-10.93,13.169
															c0.199,6.874,5.414,12.123,11.649,11.724c6.235-0.399,11.128-6.295,10.929-13.168
															C1332.846,886.801,1327.631,881.552,1321.396,881.952z"/>
													</g>
												</g>
											</g>
										</g>
									</g>
								</g>
							</g>
						</g>
					</g>
				</g>
				<g>
					<g>
						<g>
							<g>
								<g>
									<g>
										<g>
											<g>
												<g>
													<g>
														<path style="fill:#EF7162;" d="M1322.065,888.979c-2.51-1.335-5.396-0.105-5.518-0.052
															c-0.162,0.071-0.245,0.272-0.186,0.45c0.06,0.178,0.24,0.265,0.403,0.194c0.028-0.012,2.758-1.172,5.021,0.036
															c1.046,0.557,1.839,1.537,2.367,2.919c-1.186-0.768-3.484-1.721-5.934,0.151c-1.659,1.266-2.293,3.543-1.617,5.801
															c0.572,1.909,2.194,3.752,4.539,3.602c0.022-0.001,0.045-0.003,0.067-0.005c0.173-0.014,0.307-0.18,0.299-0.371
															c-0.008-0.189-0.152-0.332-0.323-0.321c-0.023,0-0.043,0.004-0.065,0.005c-2.156,0.138-3.458-1.601-3.921-3.144
															c-0.445-1.485-0.353-3.687,1.369-5.002c3.11-2.373,5.878,0.333,5.995,0.45l0.824,0.824l-0.308-1.186
															C1324.527,891.214,1323.514,889.749,1322.065,888.979z"/>
													</g>
												</g>
											</g>
										</g>
									</g>
								</g>
							</g>
						</g>
					</g>
				</g>
				<g>
					<g>
						<g>
							<g>
								<g>
									<g>
										<g>
											<g>
												<g>
													<g>
														<path style="fill:#EF7162;" d="M1329.946,920.967c0,0,1.685,27.72,33.226,28.358l-2.285-16.214
															C1360.887,933.111,1340.611,938.937,1329.946,920.967z"/>
													</g>
												</g>
											</g>
										</g>
									</g>
								</g>
							</g>
						</g>
					</g>
				</g>
				<g>
					<g>
						<g>
							<g>
								<g>
									<g>
										<g>
											<g>
												<g>
													<g>
														<path style="fill:#EF7162;" d="M1359.549,887.017c-0.171,0.036-0.286,0.218-0.258,0.405l2.457,16.183l-6.22,2.695
															c-0.163,0.07-0.246,0.271-0.187,0.45c0.048,0.142,0.173,0.226,0.304,0.218c0.032-0.002,0.066-0.01,0.098-0.024
															l6.709-2.905l-2.543-16.748C1359.881,887.103,1359.721,886.976,1359.549,887.017z"/>
													</g>
												</g>
											</g>
										</g>
									</g>
								</g>
							</g>
						</g>
					</g>
				</g>
				<g>
					<g>
						<g>
							<g>
								<g>
									<g>
										<g>
											<path style="fill:#351A2C;" d="M1382.22,830.782c-8.064,0.727-19.336,3.292-27.87-0.453
												c-8.533-3.744-26.661-5.749-33.914,5.008c-7.253,10.758-14.065,17.064,0.349,25.903c0,0,34.562,15.578,54.543-5.857
												C1395.31,833.948,1390.284,830.056,1382.22,830.782z"/>
										</g>
									</g>
								</g>
							</g>
						</g>
					</g>
				</g>
			</g>
			<g>
				<g>
					<g>
						<path style="fill:#EF7162;" d="M1351.896,909.448l-1.061,0.886c0.14,0.168,3.226,3.787,8.892,3.395
							c0.517-0.036,1.058-0.105,1.619-0.214l-0.261-1.357C1355.2,913.29,1352.03,909.606,1351.896,909.448z"/>
					</g>
				</g>
			</g>
		</g>
		<g>
			<g>
				<path style="fill:#F5956E;" d="M1654.451,1006.795l-20.58,5.693c-0.478,0.132-0.982-0.092-1.205-0.534l-0.158-0.314
					c-0.258-0.513-0.051-1.138,0.461-1.395l21.157-10.646c2.036-1.024,3.04-3.455,2.149-5.552c-0.976-2.298-3.669-3.262-5.864-2.157
					l-21.288,10.712c-0.513,0.258-1.137,0.051-1.395-0.461l-0.501-0.995c-0.234-0.466-0.087-1.034,0.344-1.327l18.318-12.438
					c1.885-1.28,2.565-3.82,1.41-5.784c-1.266-2.152-4.062-2.757-6.095-1.377c0,0-28.951,17.467-33.698,19.828l1.624-12.262
					c0.742-2.244-0.476-4.663-2.719-5.405c-2.243-0.742-4.663,0.476-5.404,2.719l-11.627,24.974
					c-0.483,1.462,0.895,4.221,2.533,6.174c9.597,23.352,11.267,26.871,14.434,32.929l23.683-12.935
					c6.833-3.732,14.289-6.19,22.003-7.253l1.937-0.267c2.434-0.335,4.106-2.657,3.606-5.103c-0.456-2.233-2.662-3.664-4.919-3.353
					l-14.046,1.936c-0.44,0.061-0.87-0.165-1.07-0.562c-0.295-0.585,0.02-1.294,0.651-1.469l20.181-5.583
					c2.312-0.64,3.322-2.916,2.243-5.06C1659.537,1007.385,1656.763,1006.155,1654.451,1006.795z"/>
			</g>
		</g>
		<g>
			<g>
				<g>
					<path style="fill:#F5956E;" d="M1653.014,1155.514c-8.435-5.555-42.004-4.829-47.127-4.992
						c-5.123-0.164-51.554-7.986-51.554-7.986l7.956,51.514l46.28-5.227l14.883-10.281c0,0,27.305,15.047,31.591,14.303
						c4.286-0.744,6.605-13.464,6.282-15.455C1660.03,1169.395,1661.45,1161.068,1653.014,1155.514z"/>
				</g>
			</g>
		</g>
		<g>
			<g>
				<path style="fill:#F5956E;" d="M1479.103,1047.629l-56.827-31.734l-25.518,59.541c0,0,55.627,35.135,72.361,38.269
					c16.734,3.135,142.763-67.552,142.763-67.552l-20.974-39.363L1479.103,1047.629z"/>
			</g>
		</g>
		<g>
			<g>
				<path style="fill:#EAAA5E;" d="M1364.741,989.898c0,0,13.867,115.607,35.596,106.158c21.729-9.449,35.209-79.049,35.209-79.049
					l-52.018-38.869L1364.741,989.898z"/>
			</g>
		</g>
		<g>
			<g>
				<path style="fill:#F5C786;" d="M1309.182,948.558c-9.573,3.192-25.276,36.075-29.133,52.312
					c-18.734,78.858-50.862,248.525-46.569,267.134c5.177,22.441,171.572,7.705,181.084-5.224
					c6.676-9.073-2.909-172.418-4.938-210.292C1405.014,966.374,1340.977,937.956,1309.182,948.558z"/>
			</g>
		</g>
		<g>
			<g>
				<rect x="1413.667" y="1150.572" transform="matrix(0.999 -0.0439 0.0439 0.999 -50.5912 63.1875)" width="2.6" height="68.34"/>
			</g>
		</g>
		<g>
			<g>
				<path d="M1234.555,1267.22c-0.005-1.809,0.2-7.527,1.505-25.541c2.27-31.339,29.644-169.056,39.666-216.111
					c9.37-43.991,21.485-60.433,21.605-60.594l-2.072-1.568c-0.509,0.672-12.562,16.955-22.075,61.62
					c-10.032,47.103-37.438,185.002-39.718,216.465c-2.02,27.898-1.888,27.915-0.281,28.127c0.038,0.005,0.104,0.011,0.187,0.01
					c5.179,4.131,35.676,23.55,134.838,6.333c13.384-2.324,28.035-5.318,44.026-9.104l-0.599-2.529
					C1273.825,1296.954,1237.272,1269.494,1234.555,1267.22z"/>
			</g>
		</g>
		<g>
			<g>
				<path d="M1337.335,946.895l-0.451,2.559c0.311,0.055,31.407,5.899,52.736,37.708c0.227,0.361,22.688,36.608,20.094,88.258
					l2.596,0.13c2.635-52.461-20.26-89.407-20.51-89.805C1369.807,952.948,1337.657,946.951,1337.335,946.895z"/>
			</g>
		</g>
		<g>
			<g>
				
					<rect x="1271.313" y="1224.251" transform="matrix(0.8258 -0.564 0.564 0.8258 -476.7865 933.5686)" width="2.599" height="28.449"/>
			</g>
		</g>
		<g>
			<g>
				
					<rect x="1270.323" y="1242.212" transform="matrix(0.8258 -0.564 0.564 0.8258 -487.09 936.1448)" width="2.599" height="28.449"/>
			</g>
		</g>
		<g>
			<g>
				<g>
					<g>
						<path style="fill:#F5956E;" d="M1447.891,1126.126l-77.04-113.96l-57.06,46.74c0,0,39.77,57.9,73.83,97.62l52.06,3.66
							l17.15-16.75c0.76-1.07,1.96-1.63,3.17-1.63c0.79,0,1.58,0.23,2.26,0.72c1.74,1.25,2.15,3.68,0.9,5.43l-4.72,10.21
							c4.76-0.77,34.62-8.12,34.62-8.12c2.14-0.65,4.4,0.63,4.92,2.84c0.47,2.01-0.8,4.04-2.79,4.64l-19.26,5.86
							c-0.46,0.14-0.74,0.59-0.66,1.06l0.17,1c0.08,0.51,0.57,0.86,1.08,0.78l21.38-3.56c2.21-0.37,4.29,1.19,4.52,3.45
							c0.2,2.07-1.33,3.91-3.37,4.25l-21.25,3.53c-0.51,0.09-0.86,0.57-0.78,1.09l0.06,0.31c0.07,0.45,0.45,0.78,0.9,0.79
							l19.41,0.61c1.09,0.04,2.15,0.51,2.99,1.24s1.45,1.72,1.63,2.8c0.35,2.15-1.14,3.86-3.32,3.79l-19.03-0.6
							c-0.54-0.02-0.97,0.42-0.97,0.94c0,0.05,0,0.11,0.01,0.16c0.06,0.4,0.37,0.71,0.77,0.78l12.72,2.11
							c2.05,0.34,3.58,2.18,3.37,4.24c-0.22,2.26-2.3,3.82-4.51,3.46l-1.75-0.29c-6.99-1.16-14.13-1.04-21.07,0.36l-8.7,1.75
							c62.14,3.92,176.71-4.3,176.71-4.3l-30.24-42.63L1447.891,1126.126z"/>
					</g>
				</g>
			</g>
		</g>
		<g>
			<g>
				<path style="fill:#F5C786;" d="M1352.762,975.533l-60.259,44.841c2.363,5.888,30.388,96.449,53.014,82.753
					c8.893-5.383,21.48-12.712,31.412-22.254c15.015-14.426,26.095-31.059,26.095-31.059l-4.843-8.495L1352.762,975.533z"/>
			</g>
		</g>
		<g>
			<g>
				<path d="M1334.434,945.528c-19.21-4.515-32.12,4.517-37.794,14.477c-6.516,11.438-6.472,53.929,2.205,76.938l2.433-0.917
					c-8.881-23.548-7.946-64.965-2.38-74.735c5.208-9.143,17.121-17.42,34.942-13.234c13.76,3.234,53.165,73.83,67.68,101.679
					c-3.442,5.152-28.105,40.743-61.35,55.207l-11.835-21.266l-2.272,1.264l12.969,23.306l1.073-0.45
					c36.991-15.5,63.749-56.867,64.015-57.283l0.404-0.632l-0.347-0.667C1402.068,1045.155,1352.303,949.727,1334.434,945.528z"/>
			</g>
		</g>
		<g>
			
				<ellipse transform="matrix(0.3827 -0.9239 0.9239 0.3827 -88.3951 2245.3025)" style="fill:#1A1A1A;" cx="1635.97" cy="1188.798" rx="14.462" ry="14.462"/>
		</g>
		<g>
			<path style="fill:#4A263E;" d="M1266.655,918.558c-4.592-19.469-16.425-37.628-38.328-46.485c0,0-23.597-6.414-45.618,13.598
				c-7.727,7.022-11.429,13.708-13.603,19.868c-7.259,8.836-20.385,19.404-43.183,23.529c-23.918,4.328-38.654,12.461-48.419,22.554
				c0-0.006,0-0.016,0-0.016s-45.621,39.354-24.604,96.45c1.524,4.141,2.956,7.167,4.302,9.23c2.476,4.503,5.83,8.797,10.349,12.692
				c21.519,18.543,56.407,16.503,81.236,12.009c24.829-4.493,87.6-65,101.542-94.234c5.714-11.982,10.256-22.495,13.313-32.072
				c-0.763,19.107-5.876,40.122-21.994,53.205c-1.127,0.915-1.299,2.57-0.384,3.697c0.626,0.771,1.599,1.095,2.511,0.93
				c0.421-0.076,0.83-0.257,1.186-0.546c25.346-20.575,25.84-57.633,23.085-81.048
				C1268.129,927.357,1267.686,922.931,1266.655,918.558z M1157.092,933.043c-12.068,8.536-42.17,11.092-62.383,20.935
				c8.804-6.264,20.736-11.261,37.412-14.279c12.082-2.187,21.635-6.103,29.175-10.666
				C1160.194,930.472,1158.831,931.813,1157.092,933.043z"/>
		</g>
		<g>
			<g>
				<g>
					<g>
						<g>
							<g>
								<g>
									<g>
										<g>
											<g>
												<path style="fill:#F9B495;" d="M1200.534,904.616l-2.969,84.389l35.164,1.586l0.905-25.722
													c7.837,0.206,11.283-4.496,11.283-4.496c7.013-8.811,2.526-50.185,2.526-50.185L1200.534,904.616z"/>
											</g>
										</g>
									</g>
								</g>
							</g>
						</g>
					</g>
				</g>
				<g>
					<g>
						<g>
							<g>
								<g>
									<g>
										<g>
											<g>
												<path style="fill:#EF7162;" d="M1234.187,930.911c-0.771-3.868,1.803-7.37,1.829-7.405
													c0.108-0.144,0.081-0.352-0.059-0.464c-0.141-0.112-0.341-0.087-0.449,0.057c-0.114,0.151-2.778,3.768-1.95,7.936
													c0.508,2.558,2.222,4.739,5.095,6.486c-0.404,0.839-1.797,3.403-3.876,3.766c-0.174,0.031-0.29,0.202-0.26,0.382
													c0.027,0.157,0.156,0.269,0.304,0.276c0.022,0.001,0.045-0.001,0.068-0.004c2.817-0.492,4.41-4.26,4.476-4.42
													l0.113-0.273l-0.251-0.147C1236.368,935.429,1234.673,933.347,1234.187,930.911z"/>
											</g>
										</g>
									</g>
								</g>
							</g>
						</g>
					</g>
				</g>
				<g>
					<g>
						<g>
							<g>
								<g>
									<g>
										<g>
											<g>
												<path style="fill:#EF7162;" d="M1233.27,975.216l0.364-10.347c0,0-16.908-1.793-27.065-9.023
													C1206.569,955.846,1220.185,970.485,1233.27,975.216z"/>
											</g>
										</g>
									</g>
								</g>
							</g>
						</g>
					</g>
				</g>
				<g>
					<g>
						<g>
							<g>
								<g>
									<g>
										<g>
											<g>
												<path style="fill:#4A263E;" d="M1215.379,922.484c-0.254,0.253-0.26,0.671-0.014,0.935
													c0.12,0.129,0.277,0.198,0.438,0.205c0.168,0.008,0.338-0.053,0.469-0.183c0.313-0.31,7.759-7.541,14.159-1.765
													c0.268,0.242,0.672,0.215,0.904-0.06c0.232-0.274,0.203-0.693-0.065-0.934
													C1223.981,914.101,1215.464,922.401,1215.379,922.484z"/>
											</g>
										</g>
									</g>
								</g>
							</g>
						</g>
					</g>
				</g>
				<g>
					<g>
						<g>
							<g>
								<g>
									<g>
										<g>
											<g>
												<path style="fill:#4A263E;" d="M1237.743,922.004c-0.276,0.227-0.319,0.644-0.097,0.93
													c0.121,0.157,0.297,0.242,0.477,0.251c0.149,0.007,0.3-0.04,0.425-0.143c0.053-0.043,5.267-4.273,7.961-1.689
													c0.261,0.251,0.666,0.237,0.906-0.031c0.24-0.267,0.223-0.686-0.037-0.935
													C1243.874,917.02,1237.992,921.8,1237.743,922.004z"/>
											</g>
										</g>
									</g>
								</g>
							</g>
						</g>
					</g>
				</g>
				<g>
					<g>
						<g>
							<g>
								<g>
									<g>
										<g>
											<g>
												<path d="M1243.554,926.721c-0.986-0.044-1.814,0.744-1.85,1.762c-0.036,1.017,0.734,1.878,1.72,1.923
													c0.986,0.044,1.814-0.744,1.85-1.762C1245.31,927.626,1244.54,926.765,1243.554,926.721z"/>
											</g>
										</g>
									</g>
								</g>
							</g>
						</g>
					</g>
				</g>
				<g>
					<g>
						<g>
							<g>
								<g>
									<g>
										<g>
											<g>
												<path d="M1227.751,926.008c-0.986-0.044-1.814,0.744-1.85,1.762c-0.036,1.018,0.734,1.878,1.72,1.923
													c0.986,0.044,1.814-0.744,1.849-1.762C1229.507,926.913,1228.737,926.052,1227.751,926.008z"/>
											</g>
										</g>
									</g>
								</g>
							</g>
						</g>
					</g>
				</g>
				<g>
					<g>
						<g>
							<g>
								<g>
									<g>
										<g>
											<g>
												<path style="fill:#F9B495;" d="M1196.849,924.011c-5.526-0.249-10.169,4.173-10.369,9.877
													c-0.201,5.704,4.116,10.531,9.643,10.78c5.526,0.249,10.168-4.173,10.369-9.877
													C1206.693,929.086,1202.376,924.26,1196.849,924.011z"/>
											</g>
										</g>
									</g>
								</g>
							</g>
						</g>
					</g>
				</g>
				<g>
					<g>
						<g>
							<g>
								<g>
									<g>
										<g>
											<g>
												<path style="fill:#EF7162;" d="M1197.078,929.848c-2.159-1.348-4.791-0.593-4.903-0.56
													c-0.17,0.051-0.267,0.234-0.217,0.409c0.05,0.175,0.227,0.277,0.398,0.227c0.025-0.007,2.472-0.709,4.393,0.49
													c0.854,0.533,1.481,1.366,1.873,2.485c-1.043-0.74-2.978-1.637-5.185-0.352c-1.55,0.903-2.243,2.747-1.765,4.697
													c0.404,1.648,1.75,3.34,3.85,3.435c0.02,0.001,0.04,0.001,0.06,0.002c0.177,0.005,0.324-0.138,0.328-0.321
													c0.004-0.184-0.14-0.338-0.313-0.341c-1.923-0.063-2.979-1.616-3.303-2.934c-0.308-1.255-0.11-3.046,1.462-3.961
													c2.844-1.657,5.12,0.814,5.215,0.92l0.786,0.873l-0.238-1.163C1199.147,931.941,1198.325,930.627,1197.078,929.848z"/>
											</g>
										</g>
									</g>
								</g>
							</g>
						</g>
					</g>
				</g>
			</g>
			<g>
				<g>
					<g>
						<g>
							<g>
								<g>
									<g>
										<path style="fill:#F9B495;" d="M1224.415,891.473c-20.545-2.68-23.88,13.143-23.88,13.143l23.342,5.984l22.053-0.593
											l1.513,0.18C1247.443,910.188,1244.959,894.153,1224.415,891.473z"/>
									</g>
								</g>
							</g>
						</g>
					</g>
				</g>
			</g>
			<g>
				<g>
					<g>
						<g>
							<g>
								<g>
									<g>
										<path style="fill:#4A263E;" d="M1215.046,890.012c-1.424-0.064-24.255,8.38-24.255,8.38s-7.572,28.755,4.428,30.266
											c12.001,1.51,18.287-19.209,18.287-19.209c16.529,3.686,29.799-8.688,29.799-8.688l-2.917-11.078
											C1240.389,889.683,1216.47,890.076,1215.046,890.012z"/>
									</g>
								</g>
							</g>
						</g>
					</g>
				</g>
			</g>
			<g>
				<g>
					<g>
						<g>
							<g>
								<g>
									<g>
										<g>
											<path style="fill:#E95942;" d="M1229.92,933.015c-0.512-0.023-0.54,0.796-0.029,0.819
												C1230.403,933.858,1230.431,933.038,1229.92,933.015z"/>
										</g>
									</g>
								</g>
							</g>
						</g>
					</g>
				</g>
			</g>
			<g>
				<g>
					<g>
						<g>
							<g>
								<g>
									<g>
										<g>
											<path style="fill:#E95942;" d="M1227.456,934.382c-0.511-0.023-0.539,0.797-0.029,0.819
												C1227.939,935.224,1227.968,934.405,1227.456,934.382z"/>
										</g>
									</g>
								</g>
							</g>
						</g>
					</g>
				</g>
			</g>
			<g>
				<g>
					<g>
						<g>
							<g>
								<g>
									<g>
										<g>
											<path style="fill:#E95942;" d="M1223.183,931.234c-0.512-0.023-0.54,0.797-0.029,0.82
												C1223.666,932.076,1223.694,931.257,1223.183,931.234z"/>
										</g>
									</g>
								</g>
							</g>
						</g>
					</g>
				</g>
			</g>
			<g>
				<g>
					<g>
						<g>
							<g>
								<g>
									<g>
										<g>
											<path style="fill:#E95942;" d="M1219.328,934.015c-0.512-0.023-0.54,0.797-0.029,0.82
												C1219.81,934.858,1219.838,934.038,1219.328,934.015z"/>
										</g>
									</g>
								</g>
							</g>
						</g>
					</g>
				</g>
			</g>
			<g>
				<g>
					<g>
						<g>
							<g>
								<g>
									<g>
										<g>
											<path style="fill:#E95942;" d="M1215.537,929.873c-0.512-0.023-0.54,0.797-0.029,0.82
												C1216.02,930.716,1216.047,929.896,1215.537,929.873z"/>
										</g>
									</g>
								</g>
							</g>
						</g>
					</g>
				</g>
			</g>
			<g>
				<g>
					<g>
						<g>
							<g>
								<g>
									<g>
										<g>
											<path style="fill:#E95942;" d="M1213.9,935.71c-0.512-0.023-0.54,0.796-0.029,0.82
												C1214.383,936.552,1214.411,935.733,1213.9,935.71z"/>
										</g>
									</g>
								</g>
							</g>
						</g>
					</g>
				</g>
			</g>
			<g>
				<g>
					<g>
						<g>
							<g>
								<g>
									<g>
										<g>
											<path style="fill:#E95942;" d="M1237.955,930.976c-0.512-0.023-0.54,0.797-0.029,0.82
												C1238.438,931.819,1238.465,931,1237.955,930.976z"/>
										</g>
									</g>
								</g>
							</g>
						</g>
					</g>
				</g>
			</g>
			<g>
				<g>
					<g>
						<g>
							<g>
								<g>
									<g>
										<g>
											<path style="fill:#E95942;" d="M1240.786,934.429c-0.512-0.023-0.54,0.796-0.029,0.819
												C1241.269,935.271,1241.297,934.452,1240.786,934.429z"/>
										</g>
									</g>
								</g>
							</g>
						</g>
					</g>
				</g>
			</g>
			<g>
				<g>
					<g>
						<g>
							<g>
								<g>
									<g>
										<g>
											<path style="fill:#E95942;" d="M1244.411,933.115c-0.512-0.023-0.539,0.797-0.029,0.82
												C1244.894,933.957,1244.922,933.138,1244.411,933.115z"/>
										</g>
									</g>
								</g>
							</g>
						</g>
					</g>
				</g>
			</g>
			<g>
				<g>
					<g>
						<g>
							<g>
								<g>
									<g>
										<g>
											<path style="fill:#E95942;" d="M1244.475,938.936c-0.512-0.023-0.54,0.796-0.029,0.82
												C1244.958,939.779,1244.985,938.959,1244.475,938.936z"/>
										</g>
									</g>
								</g>
							</g>
						</g>
					</g>
				</g>
			</g>
			<g>
				<g>
					<g>
						<g>
							<g>
								<g>
									<g>
										<g>
											<path style="fill:#E95942;" d="M1247.274,935.645c-0.512-0.023-0.54,0.797-0.029,0.82
												C1247.757,936.488,1247.785,935.668,1247.274,935.645z"/>
										</g>
									</g>
								</g>
							</g>
						</g>
					</g>
				</g>
			</g>
			<g>
				<g>
					<g>
						<g>
							<g>
								<g>
									<g>
										<g>
											<path style="fill:#E95942;" d="M1246.828,930.546c-0.512-0.023-0.54,0.796-0.029,0.819
												C1247.311,931.388,1247.338,930.568,1246.828,930.546z"/>
										</g>
									</g>
								</g>
							</g>
						</g>
					</g>
				</g>
			</g>
			<g>
				<g>
					<g>
						<g>
							<g>
								<g>
									<g>
										<g>
											<path style="fill:#E95942;" d="M1224.507,936.835c-0.512-0.023-0.539,0.797-0.029,0.819
												C1224.99,937.677,1225.018,936.858,1224.507,936.835z"/>
										</g>
									</g>
								</g>
							</g>
						</g>
					</g>
				</g>
			</g>
			<g>
				<g>
					<g>
						<g>
							<g>
								<g>
									<g>
										<g>
											<g>
												<path style="fill:#FBFCFC;" d="M1230.718,950.074c4.347,1.122,7.104-3.411,7.104-3.411
													c-0.178-0.08-11.882-3.065-11.882-3.065S1226.37,948.952,1230.718,950.074z"/>
											</g>
										</g>
									</g>
								</g>
							</g>
						</g>
					</g>
				</g>
			</g>
		</g>
		<g>
			<g>
				<path style="fill:#ED2B47;" d="M1264.165,1087.819c0.173-31.52-7.188-62.419-16.672-80.32
					c-15.938-30.084-39.996-35.114-59.876-29.764c-9.547,2.569-29.291,33.826-34.002,49.484
					c-22.878,76.044-45.132,196.902-42.009,215.351c3.767,22.247,111.904,21.896,123.929,11.763
					c2.943-2.48,3.054-53.974,14.177-86.971C1266.589,1117.294,1264.011,1115.885,1264.165,1087.819z"/>
			</g>
		</g>
		<g>
			<g>
				<g>
					<g>
						<path style="fill:#F9B495;" d="M1443.391,1195.976c-8.36-1.06-14.86-2.5-18.76-4.41c-8.92-4.38-22.45-18.04-37.01-35.04
							l-66.46-4.66l-84.26-105.18l-52.02,50.16c0,0,72.53,98.45,102.75,110.36c30.23,11.91,156.54-6.68,156.54-6.68l-0.48-4.51
							C1443.591,1196.006,1443.491,1195.986,1443.391,1195.976z"/>
					</g>
				</g>
			</g>
		</g>
		<g>
			<g>
				<path style="fill:#ED2B47;" d="M1226.195,1006.639l-61.526,40.376c1.972,5.895,24.15,96.086,47.071,83.999
					c9.009-4.751,21.743-11.192,32.007-19.952c15.518-13.242,27.316-28.87,27.316-28.87l-4.246-8.588L1226.195,1006.639z"/>
			</g>
		</g>
		<g>
			<g>
				<path d="M1210.003,976.234c-18.533-5.528-31.677,2.563-37.802,11.977c-7.035,10.81-9.446,52.371-2.287,75.377l2.432-0.756
					c-7.327-23.544-4.019-63.998,1.989-73.232c5.624-8.642,17.756-16.048,34.939-10.925c13.272,3.958,47.734,75.28,60.32,103.356
					c-3.666,4.84-29.858,38.232-63.192,50.451l-10.347-21.483l-2.295,1.105l11.34,23.543l1.075-0.378
					c37.072-13.023,65.633-51.936,65.917-52.328l0.432-0.595l-0.3-0.672C1270.397,1077.58,1227.237,981.373,1210.003,976.234z"/>
			</g>
		</g>
		<g>
			<path style="fill:#F9B495;" d="M1350.835,1316.311l-157.146-27.232c0,0-42.507,91.355,19.185,104.622
				c68.834,14.804,127.524,34.778,127.524,34.778s-27.546,26.109-77.928,158.354c0,0,22.665,28.264,47.526,31.576
				c0,0,126.751-211.815,118.074-240.741C1421.403,1355.447,1350.835,1316.311,1350.835,1316.311z"/>
		</g>
		<g>
			<path style="fill:#258D8C;" d="M1316.082,1303.861l-151.598,88.25c0,0,83.793,32.999,85.144,105.408
				c0,0,52.229-47.915,67.106-71.976c4.576-7.4,13.01-15.737,19.488-28.1c14.582-27.833,27.622-65.813,23.862-86.587
				L1316.082,1303.861z"/>
		</g>
		<g>
			<path style="fill:#258D8C;" d="M1238.561,1232.49c0,0-39.599,5.567-127.235,4.026c0,0-16.649,52.186-5.04,93.724
				c11.608,41.539,30.505,59.803,77.09,65.104c21.839,2.485,48.257,3.942,70.161,4.788c70.969-38.946,100.832-80.596,106.548-89.277
				c-15.524-11.431-102.263-31.041-114.786-37.99C1232.234,1265.614,1238.561,1232.49,1238.561,1232.49z"/>
		</g>
		<g>
			<g>
				<path d="M1360.933,1309.04l-31.922-11.836c-73.575-24.915-123.287-28.81-123.781-28.846l-0.161,2.178
					c0.491,0.036,49.926,3.91,123.212,28.727l30.563,11.332c0.158,4.097,0.361,26.063-11.118,57.221
					c-11.724,31.818-38.379,80.002-98.784,128.854l1.374,1.698c26.862-21.724,49.395-45.143,66.972-69.606
					c14.074-19.588,25.021-39.885,32.538-60.33c12.822-34.873,11.179-58.461,11.161-58.695L1360.933,1309.04z"/>
			</g>
		</g>
		<g>
			<g>
				<path d="M1228.557,1266.162c11.245,4.25,24.413,12.057,24.544,12.135l1.117-1.877c-0.133-0.079-13.463-7.982-24.889-12.301
					L1228.557,1266.162z"/>
			</g>
		</g>
		<g>
			<g>
				<path d="M1204.318,1369.797c0.546,0.156,54.786,15.739,72.511,24.215l0.943-1.971c-17.889-8.554-72.304-24.188-72.851-24.344
					L1204.318,1369.797z"/>
			</g>
		</g>
		<g>
			<g>
				<path d="M1248.782,1391.493c0.104,0.097,10.46,9.755,19.816,17.704l1.414-1.664c-9.317-7.916-19.637-17.54-19.74-17.636
					L1248.782,1391.493z"/>
			</g>
		</g>
		<g>
			<g>
				<path d="M1110.491,1235.27l-0.908-0.007l-2.721,14.094l1.082,0.2c49.067,9.079,128.416,0.34,129.212,0.25l1.032-0.116
					l-0.064-1.036c-0.154-2.495,1.381-12.501,1.986-16.146l0.245-1.479l-1.483,0.219
					C1207.067,1235.953,1111.453,1235.278,1110.491,1235.27z M1235.941,1247.741c-9.161,0.962-80.655,8.033-126.517-0.135
					l1.958-10.146c9.755,0.057,94.768,0.418,126.334-3.841C1237.209,1236.808,1236.064,1244.296,1235.941,1247.741z"/>
			</g>
		</g>
		<g>
			<g>
				<path d="M1103.222,1289.37c1.272-22.461,6.186-40.408,6.235-40.587l-2.105-0.583c-0.05,0.181-5.019,18.317-6.308,41.003
					c-0.759,13.344-0.118,25.64,1.906,36.546c2.541,13.693,7.28,25.23,14.087,34.29l1.746-1.312
					C1103.804,1338.79,1102.053,1310.006,1103.222,1289.37z"/>
			</g>
		</g>
		<g>
			<g>
				<g>
					<g>
						<g>
							<path style="fill:#F5956E;" d="M1477.801,1173.896l21.25-3.53c2.04-0.34,3.57-2.18,3.37-4.25c-0.23-2.26-2.31-3.82-4.52-3.45
								l-21.38,3.56c-0.51,0.08-1-0.27-1.08-0.78l-0.17-1c-0.08-0.47,0.2-0.92,0.66-1.06l19.26-5.86c1.99-0.6,3.26-2.63,2.79-4.64
								c-0.52-2.21-2.78-3.49-4.92-2.84c0,0-29.86,7.35-34.62,8.12l4.72-10.21c1.25-1.75,0.84-4.18-0.9-5.43
								c-0.68-0.49-1.47-0.72-2.26-0.72c-1.21,0-2.41,0.56-3.17,1.63l-17.15,16.75l-52.06-3.66c14.56,17,28.09,30.66,37.01,35.04
								c3.9,1.91,10.4,3.35,18.76,4.41c0.1,0.01,0.2,0.03,0.3,0.04c4.74,0.59,10.06,1.06,15.84,1.42l8.7-1.75
								c6.94-1.4,14.08-1.52,21.07-0.36l1.75,0.29c2.21,0.36,4.29-1.2,4.51-3.46c0.21-2.06-1.32-3.9-3.37-4.24l-12.72-2.11
								c-0.4-0.07-0.71-0.38-0.77-0.78c-0.01-0.05-0.01-0.11-0.01-0.16c0-0.52,0.43-0.96,0.97-0.94l19.03,0.6
								c2.18,0.07,3.67-1.64,3.32-3.79c-0.18-1.08-0.79-2.07-1.63-2.8s-1.9-1.2-2.99-1.24l-19.41-0.61
								c-0.45-0.01-0.83-0.34-0.9-0.79l-0.06-0.31C1476.941,1174.466,1477.291,1173.986,1477.801,1173.896z"/>
						</g>
						<g>
							<path style="fill:#F9B495;" d="M1443.391,1195.976c0.25,1.59,0.49,2.99,0.78,4.55l15.36-3.09
								c-5.78-0.36-11.1-0.83-15.84-1.42C1443.591,1196.006,1443.491,1195.986,1443.391,1195.976z"/>
						</g>
					</g>
				</g>
			</g>
		</g>
		<g>
			<g>
				<g>
					<g>
						<g>
							<g>
								<g>
									<path style="fill:#4CB7D8;" d="M1330.028,1668.499l-13.598-40.619l-29.018,4.281l-37.155-31.68
										c-0.927-0.791-2.319-0.647-3.108,0.321l-4.786,5.874c-0.54,0.663-0.463,1.638,0.172,2.18l86.392,73.663
										c2.609,2.225,6.676,1.513,8.456-1.75c1.323-2.424,0.624-5.466-1.421-7.21L1330.028,1668.499z"/>
								</g>
							</g>
						</g>
					</g>
				</g>
				<g>
					<g>
						<g>
							<g>
								<g>
									<path style="fill:#B5D6FB;" d="M1311.747,1614.926c-23.224,2.08-28.941-20.877-28.941-20.877
										c-5.871-12.61-19.291-9.155-19.291-9.155l-12.97,15.918l85.436,72.847c1.604-6.839-4.588-17.231-4.588-17.231
										L1311.747,1614.926z"/>
								</g>
							</g>
						</g>
					</g>
				</g>
				<g>
					<g>
						<g>
							<g>
								<g>
									<g>
										<g>
											<polygon points="1250.293,1600.463 1250.925,1601.002 1263.831,1585.163 1263.198,1584.624 											"/>
										</g>
									</g>
								</g>
							</g>
						</g>
					</g>
				</g>
				<g>
					<g>
						<g>
							<g>
								<g>
									<g>
										<g>
											<path d="M1283.207,1593.93l-0.802,0.239c2.105,7.969,6.909,13.017,9.668,15.37c1.207,1.03,2.023,1.543,2.049,1.559
												l0.438-0.733C1294.478,1610.312,1286.144,1605.052,1283.207,1593.93z"/>
										</g>
									</g>
								</g>
							</g>
						</g>
					</g>
				</g>
				<g>
					<g>
						<g>
							<g>
								<g>
									<g>
										<g>
											<polygon points="1258.926,1598.113 1260.645,1604.385 1261.445,1604.138 1259.725,1597.866 											"/>
										</g>
									</g>
								</g>
							</g>
						</g>
					</g>
				</g>
				<g>
					<g>
						<g>
							<g>
								<g>
									<g>
										<g>
											<polygon points="1262.47,1599.775 1264.188,1606.046 1264.987,1605.8 1263.269,1599.529 											"/>
										</g>
									</g>
								</g>
							</g>
						</g>
					</g>
				</g>
				<g>
					<g>
						<g>
							<g>
								<g>
									<g>
										<g>
											<g>
												<g>
													<g>
														<g>
															<g>
																<g>
																	<path d="M1336.364,1673.392l-85.422-72.835c-1.344-1.146-3.366-0.937-4.509,0.466l-3.585,4.4l0.632,0.539
																		l3.585-4.4c0.846-1.038,2.343-1.193,3.338-0.345l85.422,72.835c2.157,1.84,2.42,5.167,0.585,7.419
																		c-0.979,1.201-2.407,1.907-3.919,1.936l-0.001,0.852c1.756-0.033,3.415-0.853,4.552-2.248
																		C1339.175,1679.396,1338.87,1675.529,1336.364,1673.392z"/>
																</g>
															</g>
														</g>
													</g>
												</g>
											</g>
										</g>
									</g>
								</g>
							</g>
						</g>
					</g>
				</g>
				<g>
					<g>
						<g>
							<g>
								<g>
									<g>
										<g>
											<path d="M1312.121,1614.734l-0.749,0.384c0.176,0.37,17.561,37.092,21.607,45.331c3.959,8.063,2.728,13.121,2.715,13.171
												l0.801,0.206c0.057-0.217,1.342-5.393-2.773-13.773C1329.678,1651.819,1312.296,1615.103,1312.121,1614.734z"/>
										</g>
									</g>
								</g>
							</g>
						</g>
					</g>
				</g>
			</g>
		</g>
		<g>
			<rect x="1272.527" y="1736.31" width="452.739" height="3"/>
		</g>
		<g>
			<path d="M1665.2,1271.614c0.329,1.168,32.899,117.935,37.622,211.04l2.996-0.152c-4.74-93.438-37.4-210.528-37.73-211.7
				L1665.2,1271.614z"/>
		</g>
		<g>
			<rect x="1707.408" y="1163.293" width="3" height="104.9"/>
		</g>
		<g>
			
				<rect x="1655.848" y="1233.449" transform="matrix(0.5882 -0.8087 0.8087 0.5882 -324.8719 1853.3242)" width="2.999" height="24.411"/>
		</g>
		<g>
			
				<rect x="1659.855" y="1220.285" transform="matrix(0.5882 -0.8087 0.8087 0.5882 -312.5928 1851.089)" width="2.999" height="24.411"/>
		</g>
		<g>
			<path d="M1850.47,1604.733c-30.85,14.359-46.097,34.95-46.73,35.819l2.424,1.769c0.151-0.208,15.513-20.918,45.713-34.934
				c27.854-12.927,74.427-22.644,138.124,4.47l1.176-2.76C1926.381,1581.517,1878.895,1591.501,1850.47,1604.733z"/>
		</g>
		<g>
			<path d="M1841.496,1567.637c-29.737,12.577-47.939,29.911-48.119,30.084l2.08,2.162c0.177-0.17,18.054-17.175,47.312-29.527
				c26.938-11.372,69.336-21.017,118.357-2.39l1.066-2.805C1912.193,1546.163,1868.959,1556.021,1841.496,1567.637z"/>
		</g>
		<g>
			<rect x="1834.933" y="1522.685" width="3" height="50.65"/>
		</g>
		<g>
			<path d="M1365.609,1612.361c-13.325-15.656-18.234-30.216-18.282-30.361l-2.85,0.94c0.202,0.611,5.097,15.171,18.761,31.264
				c12.604,14.843,35.343,33.72,72.104,39.356l0.455-2.965C1400.011,1645.108,1377.876,1626.774,1365.609,1612.361z"/>
		</g>
		<g>
			<path d="M1022.711,1604.76c-32.33,16.261-46.877,35.57-47.48,36.384l2.409,1.787c0.145-0.194,14.826-19.642,46.584-35.573
				c29.318-14.709,79.613-29.347,152.734-15.552l0.557-2.947C1103.472,1574.889,1052.463,1589.796,1022.711,1604.76z"/>
		</g>
		<g>
			<path d="M1197.114,1471.241c-29.622-16.481-62.484-20.273-97.677-11.273c-42.432,10.85-77.807,49.865-100.011,80.684
				c-23.987,33.294-38.2,64.464-38.341,64.775l2.732,1.237c0.14-0.309,14.252-31.248,38.075-64.304
				c21.907-30.398,56.742-68.864,98.288-79.487c81.161-20.752,126.56,32.554,143.652,52.621l2.283-1.945
				C1238.212,1504.267,1221.761,1484.952,1197.114,1471.241z"/>
		</g>
		<g>
			<rect x="987.965" y="1481.076" width="67.468" height="3"/>
		</g>
		<g>
			<rect x="1013.08" y="1421.964" width="200.151" height="3"/>
		</g>
		<g>
			<path d="M1085.413,1380.397l2.857,0.914c4.856-15.161,34.764-12.152,35.066-12.123l0.319-2.983
				C1122.324,1366.062,1091.013,1362.916,1085.413,1380.397z"/>
		</g>
	</g>
	<rect x="301.281" y="1856.525" style="fill:#49263E;" width="2697.702" height="6.966"/>
</g>
</svg>
