<svg xmlns="http://www.w3.org/2000/svg" width="225" height="66"><g fill="none" fill-rule="evenodd"><path fill="#D8232A" d="M62.514 14.559c-3.158-1.622-6.773-1.865-8.646-1.865-3.789 0-9.182.767-13.373 4.422a15.927 15.927 0 00-1.519 1.648l-.173.209c-.717-1.179-1.646-2.604-3.653-3.926-2.462-1.517-5.923-2.353-9.746-2.353-4.66 0-8.514 1.093-11.457 3.249-1.19.882-1.92 1.77-2.522 2.584v-4.614H.258v34.933h11.775v-19.26c-.006-2.267-.012-4.838 2.628-6.752 1.676-1.178 3.762-1.703 6.761-1.703 1.976 0 5.45.542 6.506 4.173.323 1.107.323 2.303.323 3.569v19.973h11.842v-18.28c0-3.977.538-6.769 3.215-8.396 1.556-.927 3.444-1.377 5.771-1.377 7.06 0 7.162 4.143 7.232 6.927v21.057h11.774V25.822c0-3.542 0-8.395-5.57-11.263m50.97 16.736c-.072 3.172-.249 5.547-1.876 7.243-1.541 1.657-4.488 2.607-8.087 2.607-2.145 0-5.235-.23-7.292-2.22-2.128-1.937-2.128-4.38-2.128-6.742V13.835H82.295v21.263c0 4.563.32 8.04 4.457 11.234 1.19.908 4.351 3.318 11.358 3.318 9.178 0 13.066-3.128 15.374-5.27v4.458h11.672V13.835h-11.672v17.46zm68.477-17.298h-15.555l-15.389 13.34V.48h-11.855v48.365h11.855v-9.299l5.953-5.093 11.442 14.392h15.052L165.49 27.676zm9.888-3.689h11.989V2.091H191.85zm0 38.536h11.989V13.989H191.85zm26.385-22.834a5.77 5.77 0 01-5.797-5.78 5.782 5.782 0 015.816-5.816c3.31 0 5.798 2.649 5.78 5.834-.018 3.203-2.542 5.763-5.799 5.763m-.018-12.169c-3.435 0-6.353 2.703-6.353 6.387 0 3.759 3.042 6.354 6.353 6.354 3.598 0 6.371-2.81 6.389-6.335.018-3.489-2.683-6.406-6.389-6.406"/><path fill="#D8232A" d="M218.165 19.443h-1.182V17.26h.914c1.144 0 1.556 0 1.84.519a.99.99 0 01.146.555c0 1.126-1.146 1.11-1.718 1.11m1.503.678c1.018-.267 1.646-.894 1.646-1.914 0-.768-.43-1.556-1.29-1.86-.5-.18-1.054-.198-1.877-.198h-2.613v8.035h1.432v-3.597c1.465 0 2.075 0 2.307 1.253.035.198.162 1.056.198 1.235.124.697.25.984.321 1.109h1.63c-.359-.716-.43-1.162-.608-2.38-.182-1.091-.504-1.395-1.146-1.683"/><path d="M.751 60.046v5.048h1.494c1.613 0 2.643-1.094 2.643-2.506v-.018c0-1.413-1.03-2.524-2.643-2.524H.751zm-.72-.666h2.214c2.006 0 3.39 1.376 3.39 3.172v.018c0 1.795-1.384 3.19-3.39 3.19H.031v-6.38zm7.002 6.378h.72V59.38h-.72zm2.404-6.378h4.611v.657h-3.891v2.178h3.481v.655h-3.481v2.233h3.936v.656H9.437zm7.921 0h.802l2.269 5.495 2.278-5.495h.775l-2.743 6.424h-.638zm7.194 0h4.611v.657h-3.891v2.178h3.48v.655h-3.48v2.233h3.936v.656h-4.656zm8.598 3.254c.956 0 1.64-.493 1.64-1.313v-.018c0-.783-.602-1.257-1.632-1.257H31.19v2.588h1.96zm-2.68-3.253h2.744c.783 0 1.411.236 1.812.637.31.31.492.756.492 1.258v.018c0 1.057-.729 1.677-1.73 1.86l1.958 2.605h-.884l-1.85-2.479H31.19v2.479h-.72v-6.378zm5.983 5.448l.446-.529c.665.603 1.303.903 2.187.903.856 0 1.421-.455 1.421-1.084V64.1c0-.592-.319-.928-1.658-1.212-1.466-.318-2.141-.792-2.141-1.84v-.018c0-1.002.884-1.74 2.095-1.74.93 0 1.595.264 2.242.783l-.419.556c-.592-.484-1.184-.693-1.841-.693-.83 0-1.357.456-1.357 1.03v.018c0 .602.327.938 1.73 1.24 1.422.308 2.078.828 2.078 1.803v.019c0 1.094-.91 1.804-2.177 1.804-1.012 0-1.841-.337-2.606-1.02m6.128.928h.719V59.38h-.719zm2.121-3.17v-.018c0-1.805 1.349-3.298 3.226-3.298 1.157 0 1.85.41 2.488 1.01l-.492.53c-.538-.51-1.14-.876-2.005-.876-1.412 0-2.47 1.149-2.47 2.616v.018c0 1.475 1.067 2.633 2.47 2.633.874 0 1.449-.338 2.06-.92l.473.465c-.665.673-1.394 1.121-2.551 1.121-1.84 0-3.199-1.45-3.199-3.28m6.857-3.209h.72v2.835h3.681V59.38h.72v6.379h-.72v-2.871h-3.681v2.871h-.72zm6.738 0h4.611v.657h-3.891v2.178h3.48v.655h-3.48v2.233h3.936v.656h-4.656zm8.598 3.254c.957 0 1.64-.493 1.64-1.313v-.018c0-.783-.602-1.257-1.632-1.257h-1.968v2.588h1.96zm-2.68-3.253h2.744c.783 0 1.411.236 1.812.637.31.31.492.756.492 1.258v.018c0 1.057-.729 1.677-1.73 1.86l1.959 2.605h-.885l-1.85-2.479h-1.822v2.479h-.72v-6.378zm6.301 3.708V59.38h.72v3.664c0 1.375.73 2.15 1.95 2.15 1.176 0 1.923-.712 1.923-2.105V59.38h.72v3.654c0 1.86-1.066 2.826-2.661 2.826-1.577 0-2.652-.966-2.652-2.771m6.83-3.709h.674l4.019 5.112V59.38h.701v6.379h-.574l-4.118-5.231v5.231h-.702zm6.728 3.208v-.018c0-1.75 1.285-3.298 3.199-3.298 1.075 0 1.74.309 2.378.847l-.464.547c-.493-.428-1.04-.73-1.941-.73-1.413 0-2.425 1.194-2.425 2.616v.018c0 1.52.976 2.651 2.524 2.651.73 0 1.404-.282 1.842-.638v-1.585h-1.941v-.647h2.633v2.543a3.87 3.87 0 01-2.56.975c-2.006 0-3.245-1.458-3.245-3.28m15.265 0v-.019c0-1.449-1.056-2.634-2.514-2.634-1.459 0-2.497 1.167-2.497 2.616v.018c0 1.448 1.056 2.633 2.514 2.633 1.459 0 2.497-1.166 2.497-2.615m-5.76 0v-.018c0-1.759 1.322-3.298 3.263-3.298 1.941 0 3.244 1.52 3.244 3.28v.018c0 1.759-1.321 3.3-3.261 3.3-1.941 0-3.245-1.523-3.245-3.282m7.841-3.208h.72v2.835h3.681V59.38h.72v6.379h-.72v-2.871h-3.681v2.871h-.72zm6.737 0h.674l4.019 5.112V59.38h.701v6.379h-.573l-4.119-5.231v5.231h-.702zm7.012 0h4.61v.657h-3.89v2.178h3.48v.655h-3.48v2.233h3.936v.656h-4.656zm7.976 0h.784l1.823 5.313 1.75-5.331h.591l1.75 5.331 1.822-5.313h.757l-2.279 6.424h-.61l-1.75-5.174-1.758 5.174h-.601zm10.389 0h4.611v.657h-3.891v2.178h3.48v.655h-3.48v2.233h3.937v.656h-4.657zm5.919 0h.674l4.019 5.112V59.38h.7v6.379h-.573l-4.119-5.231v5.231h-.701zm7.013 0h.674l4.018 5.112V59.38h.7v6.379h-.574l-4.118-5.231v5.231h-.7zm9.458 3.709V59.38h.72v3.664c0 1.375.73 2.15 1.95 2.15 1.176 0 1.923-.712 1.923-2.105V59.38h.719v3.654c0 1.86-1.066 2.826-2.66 2.826-1.576 0-2.652-.966-2.652-2.771m6.831-3.709h.672l4.019 5.112V59.38h.701v6.379h-.574l-4.118-5.231v5.231h-.7zm7.728.666v5.048h1.495c1.613 0 2.643-1.094 2.643-2.506v-.018c0-1.413-1.03-2.524-2.643-2.524h-1.495zm-.719-.666h2.214c2.005 0 3.39 1.376 3.39 3.172v.018c0 1.795-1.385 3.19-3.39 3.19h-2.214v-6.38zm13.625 4.046l-1.448-3.254-1.458 3.254h2.906zm-1.775-4.09h.673l2.907 6.423h-.775l-.748-1.686h-3.47l-.756 1.686h-.739l2.908-6.424zm7.375 3.525h-2.014v2.252h2.14c.966 0 1.568-.43 1.568-1.14v-.018c0-.693-.583-1.094-1.694-1.094zm1.34-1.794c0-.63-.502-1.039-1.415-1.039h-1.939v2.195h1.886c.866 0 1.468-.391 1.468-1.139v-.017zm-4.065-1.687h2.715c.73 0 1.304.21 1.667.566.266.274.412.61.412 1.02v.018c0 .83-.51 1.258-1.012 1.476.756.228 1.366.665 1.366 1.54v.019c0 1.094-.92 1.74-2.315 1.74h-2.833V59.38zm6.393 0h4.609v.657h-3.89v2.178h3.48v.655h-3.48v2.233h3.936v.656h-4.655zm8.597 3.254c.956 0 1.64-.493 1.64-1.313v-.018c0-.783-.6-1.257-1.63-1.257h-1.97v2.588h1.96zm-2.679-3.253h2.744c.783 0 1.411.236 1.813.637.31.31.492.756.492 1.258v.018c0 1.057-.73 1.677-1.731 1.86l1.959 2.605h-.884l-1.85-2.479h-1.824v2.479h-.719v-6.378z" fill="#1A1919"/></g></svg>