<svg width="1024" height="1024" viewBox="0 0 1024 1024" fill="none" xmlns="http://www.w3.org/2000/svg">
<rect width="1024" height="1024" fill="white"/>
<path d="M341.5 259C492.261 259 613 378.676 613 524.5C613 670.324 492.261 790 341.5 790C190.739 790 70 670.324 70 524.5C70 378.676 190.739 259 341.5 259Z" fill="white" stroke="black" stroke-width="90"/>
<rect width="152.162" height="674.343" transform="matrix(1 0 -0.000950148 1 510.893 175)" fill="white"/>
<path d="M331.687 334.546C336.45 348.587 345.692 363.972 334.53 370.406C307.088 386.075 276.66 399.91 259.029 434.888C232.44 487.568 224.186 612.906 180.193 640.633C214.745 643.334 243.957 629.045 257.607 609.209C262.655 633.595 280.784 656.842 302.396 669.426C298.699 648.809 301.116 627.196 315.904 603.664C327.634 619.945 338.014 645.823 368.371 657.198C356.712 637.647 358.631 619.66 360.764 597.337C367.02 616.461 388.135 632.884 412.591 639.211C400.648 625.988 395.6 606.863 397.662 592.289C408.041 609.992 428.516 619.589 445.366 620.513C336.379 492.829 410.743 413.204 501.814 482.307C501.459 446.974 479.491 434.888 454.039 414.27C453.399 403.322 447.214 393.44 441.598 383.444C403.42 376.342 355.219 353.578 331.687 334.546ZM389.415 387.781C407.97 395.502 422.26 403.82 429.512 412.991C417.71 410.431 401.216 410.502 379.746 412.209C390.41 405.313 391.477 396.781 389.415 387.781Z" fill="url(#paint0_linear_17_2)"/>
<path d="M884 822L884 228H998L998 822H884Z" fill="url(#paint1_linear_17_2)"/>
<path d="M379 743.5C560.703 719.653 543.5 464 543.5 357.499C543.5 250.999 659.5 520.999 659.5 520.999C675.663 705.744 483 834.5 379 828.5C275 822.5 197.296 767.346 379 743.5Z" fill="url(#paint2_linear_17_2)"/>
<path d="M541.5 228H655.5C649.079 439.665 646.261 555.432 870.5 525.268V638.5C618.603 679.541 526.843 550.822 541.5 228Z" fill="url(#paint3_linear_17_2)"/>
<path d="M597.5 107L701 236H494L597.5 107Z" fill="#E1B964"/>
<defs>
<linearGradient id="paint0_linear_17_2" x1="341.004" y1="334.546" x2="341.004" y2="669.426" gradientUnits="userSpaceOnUse">
<stop stop-color="#E1B964"/>
<stop offset="1" stop-color="#7B6537"/>
</linearGradient>
<linearGradient id="paint1_linear_17_2" x1="941" y1="228" x2="941" y2="822" gradientUnits="userSpaceOnUse">
<stop offset="0.384615" stop-color="#E1B964"/>
<stop offset="1" stop-color="#7B6537"/>
</linearGradient>
<linearGradient id="paint2_linear_17_2" x1="533.436" y1="365" x2="533.436" y2="800.299" gradientUnits="userSpaceOnUse">
<stop offset="0.423077" stop-color="#E1B964"/>
<stop offset="1"/>
</linearGradient>
<linearGradient id="paint3_linear_17_2" x1="705.39" y1="228" x2="705.39" y2="611" gradientUnits="userSpaceOnUse">
<stop offset="0.850962" stop-color="#E1B964"/>
<stop offset="1" stop-color="#9D8248"/>
</linearGradient>
</defs>
</svg>
