<svg width="1024" height="1024" viewBox="0 0 1024 1024" fill="none" xmlns="http://www.w3.org/2000/svg">
<path d="M0 8C0 3.58172 3.58172 0 8 0H1016C1020.42 0 1024 3.58172 1024 8V1024H0V8Z" fill="white"/>
<path d="M292.871 228H367.006C347.61 437.812 469.879 544.658 867 525.268V607.662C426.452 631.227 265.927 532.644 292.871 228Z" fill="#E1B964"/>
<path d="M341.5 259C492.261 259 613 378.676 613 524.5C613 670.324 492.261 790 341.5 790C190.739 790 70 670.324 70 524.5C70 378.676 190.739 259 341.5 259Z" fill="white" stroke="black" stroke-width="90"/>
<path d="M510.886 183C510.89 178.582 514.475 175 518.893 175H655.056C659.474 175 663.052 178.582 663.048 183L662.415 849.343H510.253L510.886 183Z" fill="white"/>
<path d="M331.687 334.546C336.45 348.587 345.692 363.972 334.53 370.406C307.088 386.075 276.66 399.909 259.029 434.888C232.44 487.568 224.186 612.906 180.193 640.633C214.745 643.334 243.957 629.045 257.607 609.209C262.655 633.595 280.784 656.842 302.396 669.426C298.699 648.809 301.116 627.196 315.904 603.664C327.634 619.945 338.014 645.823 368.371 657.198C356.712 637.647 358.631 619.66 360.764 597.337C367.02 616.461 388.135 632.884 412.591 639.211C400.648 625.988 395.6 606.863 397.662 592.289C408.041 609.992 428.516 619.589 445.366 620.513C336.379 492.829 410.743 413.204 501.814 482.307C501.459 446.974 479.491 434.888 454.039 414.27C453.399 403.322 447.214 393.44 441.598 383.444C403.42 376.342 355.219 353.578 331.687 334.546ZM389.415 387.781C407.97 395.502 422.26 403.82 429.512 412.991C417.71 410.431 401.216 410.502 379.746 412.209C390.41 405.313 391.477 396.781 389.415 387.781Z" fill="#E1B964"/>
<path d="M892 822C887.582 822 884 818.418 884 814L884 236C884 231.582 887.582 228 892 228H990C994.418 228 998 231.582 998 236L998 814C998 818.418 994.418 822 990 822H892Z" fill="black"/>
<path d="M495.5 687C560.7 609.946 551.6 473.738 530.773 236.774C530.361 232.097 534.041 228 538.736 228H636.332C640.618 228 644.149 231.509 644.324 235.792C659.515 607.231 625.783 728.037 498.935 793.259C496.788 794.363 494.25 794.437 492.18 793.197C479.644 785.688 438.715 754.11 495.5 687Z" fill="black"/>
</svg>
