<svg width="973" height="728" viewBox="0 0 973 728" fill="none" xmlns="http://www.w3.org/2000/svg">
<path d="M306.687 227.546C311.45 241.587 320.692 256.972 309.53 263.406C282.088 279.075 251.66 292.91 234.029 327.888C207.44 380.568 199.186 505.906 155.193 533.633C189.745 536.334 218.957 522.045 232.607 502.209C237.655 526.595 255.784 549.842 277.396 562.426C273.699 541.809 276.116 520.196 290.904 496.664C302.634 512.945 313.014 538.823 343.371 550.198C331.712 530.647 333.631 512.66 335.764 490.337C342.02 509.461 363.135 525.884 387.591 532.211C375.648 518.988 370.6 499.863 372.662 485.289C383.041 502.992 403.516 512.589 420.366 513.513C311.379 385.829 385.743 306.204 476.814 375.307C476.459 339.974 454.491 327.888 429.039 307.27C428.399 296.322 422.214 286.44 416.598 276.444C378.42 269.342 330.219 246.578 306.687 227.546ZM364.415 280.781C382.97 288.502 397.26 296.82 404.512 305.991C392.71 303.431 376.216 303.502 354.746 305.209C365.41 298.313 366.477 289.781 364.415 280.781Z" fill="url(#paint0_linear_23_14)"/>
<path d="M859 715L859 121H973L973 715H859Z" fill="url(#paint1_linear_23_14)"/>
<path d="M316.5 107C383.436 107 445.519 127.385 496.65 162.172L496.535 283.747C455.42 231.274 390.563 197 316.5 197C189.776 197 90 297.337 90 417.5C90 537.663 189.776 638 316.5 638C390.411 638 455.154 603.867 496.281 551.576L496.168 671L618.5 500L599.146 277.631C620.8 319.664 633 367.185 633 417.5C633 588.984 491.298 728 316.5 728C141.702 728 0 588.984 0 417.5C0 246.016 141.702 107 316.5 107Z" fill="black"/>
<path d="M354 636.5C535.703 612.653 518.5 357 518.5 250.499C518.5 143.999 634.5 413.999 634.5 413.999C650.663 598.744 458 727.5 354 721.5C250 715.5 172.296 660.346 354 636.5Z" fill="url(#paint2_linear_23_14)"/>
<path d="M516.5 121H630.5C624.079 332.665 621.261 448.432 845.5 418.268V531.5C593.603 572.54 501.843 443.822 516.5 121Z" fill="url(#paint3_linear_23_14)"/>
<path d="M572.5 0L676 129H469L572.5 0Z" fill="#E1B964"/>
<defs>
<linearGradient id="paint0_linear_23_14" x1="316.004" y1="227.546" x2="316.004" y2="562.426" gradientUnits="userSpaceOnUse">
<stop stop-color="#E1B964"/>
<stop offset="1" stop-color="#7B6537"/>
</linearGradient>
<linearGradient id="paint1_linear_23_14" x1="916" y1="121" x2="916" y2="715" gradientUnits="userSpaceOnUse">
<stop offset="0.384615" stop-color="#E1B964"/>
<stop offset="1" stop-color="#7B6537"/>
</linearGradient>
<linearGradient id="paint2_linear_23_14" x1="508.436" y1="258" x2="508.436" y2="693.299" gradientUnits="userSpaceOnUse">
<stop offset="0.423077" stop-color="#E1B964"/>
<stop offset="1"/>
</linearGradient>
<linearGradient id="paint3_linear_23_14" x1="680.39" y1="121" x2="680.39" y2="504" gradientUnits="userSpaceOnUse">
<stop offset="0.850962" stop-color="#E1B964"/>
<stop offset="1" stop-color="#9D8248"/>
</linearGradient>
</defs>
</svg>
