<?xml version="1.0" encoding="utf-8"?>
<!-- Generator: Adobe Illustrator 27.5.0, SVG Export Plug-In . SVG Version: 6.00 Build 0)  -->
<svg version="1.1" xmlns="http://www.w3.org/2000/svg" xmlns:xlink="http://www.w3.org/1999/xlink" x="0px" y="0px"
	 viewBox="0 0 2475 1650" style="enable-background:new 0 0 2475 1650;" xml:space="preserve">
<g id="Background">
	<rect style="fill:#FFFFFF;" width="2475" height="1650"/>
</g>
<g id="Illustration">
	<g>
		<linearGradient id="SVGID_1_" gradientUnits="userSpaceOnUse" x1="3799.1008" y1="823.8466" x2="778.9384" y2="786.0922">
			<stop  offset="0" style="stop-color:#DAE3FE"/>
			<stop  offset="1" style="stop-color:#E9EFFD"/>
		</linearGradient>
		<path style="fill:url(#SVGID_1_);" d="M794.832,1436.142c270.986,28.672,291.851-73.575,581.168-36.186
			c180.357,23.308,225.415,69.913,416.359,69.358c127.539-0.37,252.599-2.522,364.314-90.467
			c25.422-20.013,191.265-155.557,153.243-316.638c-19.074-80.806-110.335-80.509-135.895-165.857
			c-20.936-69.907,21.311-120.745,49.153-202.046c53.787-157.059-25.66-274.563-112.528-335.355
			c-131.092-91.742-268.938,106.098-548.451,22.452c-117.112-35.047-129.868-64.239-284.503-154.514
			C1018.02,75.296,649.566,83.275,572.195,229.906c-63.323,120.009,103.023,267.156,28.914,385.995
			C533.83,723.789,369.809,645.687,268.6,763.666c-86.662,101.021-76.156,286.228-14.457,407.105
			C366.463,1390.82,660.829,1421.965,794.832,1436.142z"/>
		<g>
			<path style="fill:#BDD0FB;" d="M1938.145,1447.677c137.321-26.655,250.969-177.666,222.936-257.805
				c-24.313-69.503-146.661-61.313-156.307-121.628c-11.587-72.449,159.003-121.353,152.66-203.718
				c-6.083-78.998-167.396-91.008-175.233-169.76c-8.371-84.117,171.188-115.455,184.075-226.919
				c10.748-92.961-97.991-210.881-226.102-227.98c-104.257-13.915-230.619,37.702-249.403,115.956
				c-25.64,106.813,166.849,189.534,139.349,292.924c-25.376,95.404-205.524,86.039-221.254,173.023
				c-16.931,93.626,179.052,174.867,156.786,247.242c-19.563,63.591-179.499,28.958-204.393,91.026
				C1528.34,1242.111,1733.954,1487.313,1938.145,1447.677z"/>
			<path style="opacity:0.47;fill:#FFFFFF;" d="M1943.279,382.669c-14.132,80.109-25.958,160.557-36.78,241.136
				c-5.535,40.276-10.365,80.638-15.357,120.986c-2.422,20.182-4.577,40.396-6.868,60.594c-2.245,20.203-4.605,40.395-6.557,60.633
				l-6.011,60.694c-1.851,20.249-3.808,40.488-5.503,60.75l-1.309,15.193l-1.178,15.207l-2.357,30.414l-2.298,30.417l-1.872,30.456
				c-4.986,81.165-8.695,162.632-5.291,243.998l1.604-0.012c3.058-81.209,10.136-162.075,17.471-242.929l2.77-30.315l2.956-30.304
				l2.897-30.307l1.449-15.153l1.579-15.144c2.167-20.186,4.07-40.395,6.081-60.594l6.364-60.572l25.508-242.332
				c8.53-80.792,16.858-161.621,24.291-242.603L1943.279,382.669z"/>
		</g>
		<g>
			<g>
				<path style="fill:#91B3FA;" d="M717.688,423.721c20.585,4.272,41.443,12.417,49.871,23.036
					c38.019,47.904-11.993,120.144-27.928,167.098c-27.374,80.662-32.997,167.206-4.82,248.311
					c30.531,87.88,51.557,174.912,44.958,267.131c-3.4,47.509-15.948,98.416-49.649,138.044
					c-63.688,74.871-241.142,45.156-280.441-32.893c-31.342-62.246-25.909-132.118-10.997-196.835
					c25.086-108.869,70.987-213.41,96.898-322.098c19.814-83.113-2.735-245.294,109.661-287.358
					C665.795,420.465,695.849,419.189,717.688,423.721z"/>
				<path style="fill:#7D97F4;" d="M624.093,1439.495c-1.156,0-2.237-0.721-2.639-1.873
					c-42.29-121.056-64.42-248.025-65.771-377.383c-1.081-103.47,11.053-208.689,36.067-312.734
					c42.594-177.167,108.743-291.077,109.407-292.207c0.782-1.331,2.496-1.775,3.826-0.996c1.331,0.783,1.778,2.496,0.996,3.826
					c-0.659,1.125-66.454,114.463-108.839,290.88c-24.885,103.577-36.952,208.314-35.864,311.302
					c1.359,128.701,23.382,255.028,65.457,375.467c0.51,1.458-0.259,3.053-1.717,3.562
					C624.71,1439.446,624.399,1439.495,624.093,1439.495z"/>
			</g>
			<g>
				<path style="fill:#BDD0FB;" d="M591.163,1173.546c-14.837-74.753-63.839-147.104-99.857-217.59
					c-19.043-37.268-34.921-75.525-43.023-117.741c-8.056-41.974-6.864-91.542-34.604-125.054
					c-55.89-67.51-112.783-2.097-132.17,74.625c-22.498,89.031,3.238,208.18,15.277,303.205
					c7.258,57.286,9.648,118.175,22.214,174.372c20.817,93.096,58.554,147.918,108.387,174.682
					c47.798,25.67,102.84,11.976,135.423-33.597C592.244,1365.28,615.098,1294.14,591.163,1173.546z"/>
				<path style="fill:#91B3FA;" d="M502.19,1440.731c-1.001,0-1.97-0.539-2.472-1.484c-0.461-0.868-46.564-88.171-89.457-215.559
					c-39.6-117.61-84.505-294.462-73.546-469.092c0.096-1.54,1.437-2.694,2.965-2.616c1.542,0.096,2.712,1.425,2.616,2.965
					c-10.9,173.689,33.807,349.746,73.231,466.855c42.746,126.981,88.672,213.959,89.131,214.822
					c0.724,1.363,0.207,3.056-1.158,3.781C503.081,1440.625,502.632,1440.731,502.19,1440.731z"/>
			</g>
		</g>
		<g>
			<path style="fill:#91B3FA;" d="M1955.721,1451.487c124.56,28.65,266.263-83.145,262.064-160.059
				c-3.582-65.581-112.083-84.62-108.543-144.881c4.191-71.339,158.587-84.332,167.587-163.113
				c7.707-67.447-100.248-103.534-88.516-167.14c10.981-59.533,110.017-52.135,137.51-123.508
				c23.639-61.366-11.631-165.333-98.268-199.525c-77.357-30.53-172.107,3.866-194.313,58.512
				c-29.362,72.252,82.649,144.076,53.451,209.202c-32.067,71.525-186.581,28.183-219.405,95.662
				c-40.949,84.184,156.201,240.717,122.612,286.705c-26.259,35.953-153.312-50.732-196.397-8.64
				C1742.941,1184.101,1802.512,1416.247,1955.721,1451.487z"/>
			<path style="opacity:0.47;fill:#FFFFFF;" d="M2180.661,595.187l-50.471,193.76l-25.365,96.805l-12.743,48.379l-12.99,48.309
				c-4.223,16.133-8.716,32.188-13.115,48.272c-4.443,16.071-8.77,32.176-13.305,48.217l-13.49,48.164l-13.878,48.049
				c-4.496,16.06-9.523,31.948-14.219,47.947l-7.144,23.968c-2.333,8.007-5.026,15.892-7.434,23.874l-7.418,23.887
				c-2.499,7.955-4.859,15.961-7.59,23.833l-7.94,23.719l-7.778,23.794l2.023,0.761c25.172-61.906,46.965-125.153,67.235-188.82
				l14.931-47.843l14.201-48.056c4.83-15.993,9.26-32.095,13.759-48.18c4.482-16.088,9.059-32.152,13.364-48.287l12.932-48.402
				l12.509-48.509c4.178-16.167,8.024-32.418,12.052-48.622c4.014-16.207,7.941-32.435,11.712-48.702
				c7.72-32.489,15.066-65.066,22.175-97.693c7.026-32.647,13.948-65.314,20.096-98.153L2180.661,595.187z"/>
			<path style="opacity:0.47;fill:#FFFFFF;" d="M2192.618,622.56c37.473-20.647,55.208-83.574,55.383-84.209l-2.083-0.573
				c-0.173,0.622-17.669,62.682-54.343,82.89L2192.618,622.56z"/>
			<path style="opacity:0.47;fill:#FFFFFF;" d="M2184.805,654.646c53.74-16.099,84.687-70.464,84.993-71.012l-1.886-1.055
				c-0.302,0.54-30.84,54.154-83.729,69.998L2184.805,654.646z"/>
			<path style="opacity:0.47;fill:#FFFFFF;" d="M2183.958,687.175c63.498,3.656,108.994-45.288,109.446-45.782l-1.595-1.459
				c-0.446,0.489-45.275,48.68-107.727,45.084L2183.958,687.175z"/>
			<path style="opacity:0.47;fill:#FFFFFF;" d="M2170.467,712.96c60.608,10.198,116.992-19.131,117.554-19.429l-1.01-1.91
				c-0.555,0.293-56.316,29.282-116.185,19.207L2170.467,712.96z"/>
			<path style="opacity:0.47;fill:#FFFFFF;" d="M2164.165,739.232c46.797,10.518,94.381-10.076,94.856-10.286l-0.871-1.977
				c-0.468,0.205-47.423,20.513-93.511,10.155L2164.165,739.232z"/>
			
				<rect x="2177.862" y="743.087" transform="matrix(0.0586 -0.9983 0.9983 0.0586 1289.2284 2893.8384)" style="opacity:0.47;fill:#FFFFFF;" width="2.16" height="40.554"/>
			<rect x="2152.727" y="786.231" style="opacity:0.47;fill:#FFFFFF;" width="25.357" height="2.161"/>
			
				<rect x="2145.328" y="813.841" transform="matrix(0.976 -0.2177 0.2177 0.976 -125.6715 488.8854)" style="opacity:0.47;fill:#FFFFFF;" width="22.205" height="2.16"/>
			
				<rect x="2138.138" y="839.943" transform="matrix(0.9489 -0.3156 0.3156 0.9489 -155.4062 722.2816)" style="opacity:0.47;fill:#FFFFFF;" width="29.011" height="2.16"/>
			
				<rect x="2127.974" y="864.456" transform="matrix(0.8605 -0.5095 0.5095 0.8605 -140.784 1216.9572)" style="opacity:0.47;fill:#FFFFFF;" width="47.349" height="2.16"/>
			
				<rect x="2115.88" y="895.305" transform="matrix(0.8567 -0.5159 0.5159 0.8567 -153.2469 1241.2289)" style="opacity:0.47;fill:#FFFFFF;" width="82.232" height="2.162"/>
			
				<rect x="2105.661" y="928.439" transform="matrix(0.8774 -0.4797 0.4797 0.8774 -180.9227 1150.9604)" style="opacity:0.47;fill:#FFFFFF;" width="112.277" height="2.161"/>
			
				<rect x="2083.616" y="965.033" transform="matrix(0.8621 -0.5067 0.5067 0.8621 -191.2596 1229.2933)" style="opacity:0.47;fill:#FFFFFF;" width="159.505" height="2.16"/>
			<path style="opacity:0.47;fill:#FFFFFF;" d="M2087.219,1039.576c75.462-15.022,162.629-95.951,163.5-96.765l-1.477-1.579
				c-0.866,0.812-87.59,81.325-162.446,96.226L2087.219,1039.576z"/>
			<path style="opacity:0.47;fill:#FFFFFF;" d="M2080.581,1093.465c106.17-36.4,177.787-118.702,178.498-119.529l-1.639-1.409
				c-0.707,0.823-71.962,82.691-177.56,118.893L2080.581,1093.465z"/>
			
				<rect x="2063.398" y="1118.675" transform="matrix(0.892 -0.452 0.452 0.892 -281.1593 1062.5938)" style="opacity:0.47;fill:#FFFFFF;" width="40.005" height="2.161"/>
			
				<rect x="2054.475" y="1152.959" transform="matrix(0.8717 -0.4901 0.4901 0.8717 -299.2699 1165.0748)" style="opacity:0.47;fill:#FFFFFF;" width="41.561" height="2.161"/>
			
				<rect x="2040.878" y="1184.756" transform="matrix(0.8958 -0.4444 0.4444 0.8958 -311.4258 1043.267)" style="opacity:0.47;fill:#FFFFFF;" width="56.941" height="2.162"/>
			
				<rect x="2029.8" y="1215.093" transform="matrix(0.9312 -0.3644 0.3644 0.9312 -300.84 837.8926)" style="opacity:0.47;fill:#FFFFFF;" width="80.399" height="2.161"/>
			<path style="opacity:0.47;fill:#FFFFFF;" d="M2026.32,1259.294c57.645-14.989,109.181-37.793,109.694-38.022l-0.878-1.974
				c-0.513,0.227-51.893,22.962-109.361,37.906L2026.32,1259.294z"/>
			<path style="opacity:0.47;fill:#FFFFFF;" d="M2020.297,1298.992c72.138-5.02,141.713-46.902,142.408-47.325l-1.123-1.846
				c-0.69,0.42-69.831,42.031-141.434,47.014L2020.297,1298.992z"/>
			<path style="opacity:0.47;fill:#FFFFFF;" d="M2005.993,1343.895c101.122-3.515,186.163-66.366,187.01-67l-1.296-1.731
				c-0.842,0.63-85.361,63.081-185.788,66.57L2005.993,1343.895z"/>
			<path style="opacity:0.47;fill:#FFFFFF;" d="M1989.984,1381.176c112.668,17.778,189.842-51.081,190.608-51.777l-1.455-1.6
				c-0.759,0.692-77.204,68.852-188.817,51.244L1989.984,1381.176z"/>
			<path style="opacity:0.47;fill:#FFFFFF;" d="M1962.106,1424.067c82.967,19.712,188.772-45.12,189.839-45.782l-1.138-1.837
				c-1.059,0.657-106.115,65.02-188.195,45.518c-0.54-0.129-1.073-0.258-1.61-0.394l-0.528,2.096
				C1961.015,1423.805,1961.56,1423.937,1962.106,1424.067z"/>
		</g>
		<g>
			<rect x="591.657" y="874.084" style="fill:#7D97F4;" width="306.693" height="591.479"/>
			
				<linearGradient id="SVGID_00000132071008823675392700000002718440574538580890_" gradientUnits="userSpaceOnUse" x1="1062.7941" y1="273.4562" x2="969.7847" y2="438.4728">
				<stop  offset="0" style="stop-color:#E1473D"/>
				<stop  offset="1" style="stop-color:#E9605A"/>
			</linearGradient>
			<path style="fill:url(#SVGID_00000132071008823675392700000002718440574538580890_);" d="M550.58,925.199h362.374V673.273
				l-284.786-14.604l-91.863,244.175C531.468,913.273,539.084,925.199,550.58,925.199z"/>
			
				<linearGradient id="SVGID_00000095310680466039980420000014380222938694803124_" gradientUnits="userSpaceOnUse" x1="779.036" y1="534.3251" x2="728.0306" y2="951.3677">
				<stop  offset="0" style="stop-color:#E1473D"/>
				<stop  offset="1" style="stop-color:#E9605A"/>
			</linearGradient>
			<path style="fill:url(#SVGID_00000095310680466039980420000014380222938694803124_);" d="M628.168,662.32l270.182,14.605v-29.209
				l-252.472-14.604c-9.781,0-17.71,7.929-17.71,17.71V662.32z"/>
			<g style="opacity:0.89;">
				<path style="fill:#BDD0FB;" d="M657.587,1304.914h173.007c0.62,0,1.123-0.503,1.123-1.123v-267.936
					c0-0.62-0.503-1.123-1.123-1.123H657.587c-0.62,0-1.123,0.503-1.123,1.123v267.936
					C656.464,1304.412,656.967,1304.914,657.587,1304.914z"/>
				<g>
					
						<linearGradient id="SVGID_00000153688441650840593350000017489887753054219674_" gradientUnits="userSpaceOnUse" x1="748.2349" y1="1194.593" x2="1330.2927" y2="801.5539">
						<stop  offset="0" style="stop-color:#4042E2"/>
						<stop  offset="1" style="stop-color:#4F52FF"/>
					</linearGradient>
					<path style="fill:url(#SVGID_00000153688441650840593350000017489887753054219674_);" d="M751.519,1290.31h66.795
						c0.345,0,0.624-0.28,0.624-0.624v-239.725c0-0.345-0.279-0.624-0.624-0.624h-66.795c-0.345,0-0.624,0.279-0.624,0.624v239.725
						C750.895,1290.031,751.174,1290.31,751.519,1290.31z"/>
					
						<linearGradient id="SVGID_00000152978017068649655070000018205176767481844668_" gradientUnits="userSpaceOnUse" x1="722.6636" y1="1156.7241" x2="1304.7214" y2="763.685">
						<stop  offset="0" style="stop-color:#4042E2"/>
						<stop  offset="1" style="stop-color:#4F52FF"/>
					</linearGradient>
					<path style="fill:url(#SVGID_00000152978017068649655070000018205176767481844668_);" d="M669.867,1290.31h66.795
						c0.345,0,0.624-0.28,0.624-0.624v-239.725c0-0.345-0.28-0.624-0.624-0.624h-66.795c-0.345,0-0.624,0.279-0.624,0.624v239.725
						C669.243,1290.031,669.522,1290.31,669.867,1290.31z"/>
				</g>
			</g>
			<rect x="856.984" y="791.934" style="fill:#91B3FA;" width="852.182" height="673.629"/>
			
				<linearGradient id="SVGID_00000045583470106282972570000007277774736130967438_" gradientUnits="userSpaceOnUse" x1="1425.8212" y1="304.5276" x2="1626.8402" y2="-295.5309">
				<stop  offset="0" style="stop-color:#FE7062"/>
				<stop  offset="1" style="stop-color:#FF928E"/>
			</linearGradient>
			<path style="fill:url(#SVGID_00000045583470106282972570000007277774736130967438_);" d="M1689.001,465.16H856.527
				l-92.23,316.941c-2.156,7.408-0.92,15.362,3.39,21.818l9.485,14.209c5.056,7.573,13.703,12.142,22.98,12.142h942.509
				c10.717,0,20.45-6.081,24.916-15.567l9.12-19.373c2.697-5.73,3.224-12.204,1.488-18.276L1689.001,465.16z"/>
			
				<linearGradient id="SVGID_00000159454869320790441900000017947649687746318246_" gradientUnits="userSpaceOnUse" x1="1268.7471" y1="22.3734" x2="1272.6569" y2="460.219">
				<stop  offset="0" style="stop-color:#E1473D"/>
				<stop  offset="1" style="stop-color:#E9605A"/>
			</linearGradient>
			<path style="fill:url(#SVGID_00000159454869320790441900000017947649687746318246_);" d="M1690.876,465.16H854.289v-14.366
				c0-5.433,4.479-9.861,10.058-9.943l816.161-12.049c5.701-0.084,10.368,4.392,10.368,9.943V465.16z"/>
			
				<linearGradient id="SVGID_00000155832903206313378240000009462170352778674089_" gradientUnits="userSpaceOnUse" x1="1271.2676" y1="857.8632" x2="1268.2673" y2="1070.8837">
				<stop  offset="0" style="stop-color:#4042E2"/>
				<stop  offset="1" style="stop-color:#4F52FF"/>
			</linearGradient>
			<path style="opacity:0.9;fill:url(#SVGID_00000155832903206313378240000009462170352778674089_);" d="M1395.111,1465.563
				h-264.217v-41.651c0-1.751,1.419-3.17,3.17-3.17h257.877c1.751,0,3.17,1.419,3.17,3.171V1465.563z"/>
			
				<linearGradient id="SVGID_00000023986946429326082530000003005674239050516119_" gradientUnits="userSpaceOnUse" x1="1265.0787" y1="773.1497" x2="1259.5444" y2="2034.9647">
				<stop  offset="0" style="stop-color:#4042E2"/>
				<stop  offset="1" style="stop-color:#4F52FF"/>
			</linearGradient>
			<path style="opacity:0.9;fill:url(#SVGID_00000023986946429326082530000003005674239050516119_);" d="M1353.171,1420.742
				h-180.338v-348.249c0-1.966,1.594-3.56,3.56-3.56h173.218c1.966,0,3.56,1.594,3.56,3.56V1420.742z"/>
			<path style="fill:#BDD0FB;" d="M1340.438,1045.254h-154.871c-7.032,0-12.733-5.701-12.733-12.734v-11.122
				c0-6.69,5.177-12.239,11.851-12.703l154.871-10.758c7.362-0.512,13.616,5.323,13.616,12.703v21.88
				C1353.171,1039.553,1347.47,1045.254,1340.438,1045.254z"/>
			<g>
				
					<linearGradient id="SVGID_00000183241903987310248660000009181233358719046584_" gradientUnits="userSpaceOnUse" x1="1638.8185" y1="865.6287" x2="1179.7723" y2="1162.6581">
					<stop  offset="0" style="stop-color:#4042E2"/>
					<stop  offset="1" style="stop-color:#4F52FF"/>
				</linearGradient>
				<path style="opacity:0.9;fill:url(#SVGID_00000183241903987310248660000009181233358719046584_);" d="M1496.382,888.969h-1.714
					c-44.54,0-83.533,31.533-83.533,76.073v80.212h85.246V888.969z"/>
				
					<linearGradient id="SVGID_00000162347280324588473300000001949269048889890198_" gradientUnits="userSpaceOnUse" x1="1735.3666" y1="1014.8398" x2="1276.3202" y2="1311.8693">
					<stop  offset="0" style="stop-color:#4042E2"/>
					<stop  offset="1" style="stop-color:#4F52FF"/>
				</linearGradient>
				<path style="opacity:0.9;fill:url(#SVGID_00000162347280324588473300000001949269048889890198_);" d="M1411.136,1068.933
					v235.981c0,7.947,9.328,20.265,17.274,20.265h67.973v-256.247H1411.136z"/>
				
					<linearGradient id="SVGID_00000106109256836890810400000009963334833103996040_" gradientUnits="userSpaceOnUse" x1="1661.238" y1="900.277" x2="1202.192" y2="1197.3063">
					<stop  offset="0" style="stop-color:#4042E2"/>
					<stop  offset="1" style="stop-color:#4F52FF"/>
				</linearGradient>
				<path style="opacity:0.9;fill:url(#SVGID_00000106109256836890810400000009963334833103996040_);" d="M1519.658,888.969h-4.333
					v156.285h85.246v-80.212C1600.572,920.502,1564.198,888.969,1519.658,888.969z"/>
				
					<linearGradient id="SVGID_00000037694738711391465200000017014570479820919947_" gradientUnits="userSpaceOnUse" x1="1764.3242" y1="1059.5924" x2="1305.2783" y2="1356.6216">
					<stop  offset="0" style="stop-color:#4042E2"/>
					<stop  offset="1" style="stop-color:#4F52FF"/>
				</linearGradient>
				<path style="opacity:0.9;fill:url(#SVGID_00000037694738711391465200000017014570479820919947_);" d="M1515.325,1325.18h70.591
					c7.946,0,14.655-12.319,14.655-20.265v-235.981h-85.246V1325.18z"/>
			</g>
			<g style="opacity:0.9;">
				
					<linearGradient id="SVGID_00000011010261864342237430000009875581170694751926_" gradientUnits="userSpaceOnUse" x1="829.749" y1="1099.8412" x2="1288.7957" y2="763.8071">
					<stop  offset="0" style="stop-color:#4042E2"/>
					<stop  offset="1" style="stop-color:#4F52FF"/>
				</linearGradient>
				<path style="fill:url(#SVGID_00000011010261864342237430000009875581170694751926_);" d="M1026.854,888.969h-1.714
					c-44.539,0-83.533,31.533-83.533,76.073v80.212h85.246V888.969z"/>
				
					<linearGradient id="SVGID_00000039107082342062186310000016218566404074573196_" gradientUnits="userSpaceOnUse" x1="929.9828" y1="1236.7673" x2="1389.0283" y2="900.7341">
					<stop  offset="0" style="stop-color:#4042E2"/>
					<stop  offset="1" style="stop-color:#4F52FF"/>
				</linearGradient>
				<path style="fill:url(#SVGID_00000039107082342062186310000016218566404074573196_);" d="M941.608,1068.933v235.981
					c0,7.947,9.328,20.265,17.274,20.265h67.973v-256.247H941.608z"/>
				
					<linearGradient id="SVGID_00000149375267330554665630000011680906044471552684_" gradientUnits="userSpaceOnUse" x1="856.738" y1="1136.709" x2="1315.7843" y2="800.6752">
					<stop  offset="0" style="stop-color:#4042E2"/>
					<stop  offset="1" style="stop-color:#4F52FF"/>
				</linearGradient>
				<path style="fill:url(#SVGID_00000149375267330554665630000011680906044471552684_);" d="M1050.13,888.969h-4.332v156.285
					h85.246v-80.212C1131.044,920.502,1094.67,888.969,1050.13,888.969z"/>
				
					<linearGradient id="SVGID_00000117655222800799593060000012403409422511812004_" gradientUnits="userSpaceOnUse" x1="964.274" y1="1283.6117" x2="1423.3195" y2="947.5784">
					<stop  offset="0" style="stop-color:#4042E2"/>
					<stop  offset="1" style="stop-color:#4F52FF"/>
				</linearGradient>
				<path style="fill:url(#SVGID_00000117655222800799593060000012403409422511812004_);" d="M1045.798,1325.18h70.591
					c7.946,0,14.655-12.319,14.655-20.265v-235.981h-85.246V1325.18z"/>
			</g>
			<path style="opacity:0.75;fill:#FFFFFF;" d="M1088.325,792.922H827.797c-6.429,0-12.326-2.953-16.176-8.102
				c-3.852-5.15-5.017-11.64-3.2-17.807l74.421-252.577c0.155-0.523,0.704-0.827,1.227-0.669c0.524,0.154,0.823,0.704,0.669,1.227
				l-74.422,252.577c-1.639,5.565-0.587,11.42,2.887,16.065c3.474,4.645,8.793,7.309,14.594,7.309h260.527
				c0.546,0,0.988,0.442,0.988,0.988C1089.313,792.48,1088.871,792.922,1088.325,792.922z"/>
			<g>
				<path style="fill:#91B3FA;" d="M1237.96,1326.168h-27.218c-9.076,0-16.46-7.384-16.46-16.46v-201.214
					c0-9.076,7.384-16.46,16.46-16.46h27.218c9.076,0,16.46,7.383,16.46,16.46v201.214
					C1254.42,1318.784,1247.037,1326.168,1237.96,1326.168z M1210.742,1094.011c-7.986,0-14.484,6.498-14.484,14.483v201.214
					c0,7.986,6.498,14.484,14.484,14.484h27.218c7.986,0,14.484-6.498,14.484-14.484v-201.214c0-7.986-6.498-14.483-14.484-14.483
					H1210.742z"/>
			</g>
			<g>
				<path style="fill:#91B3FA;" d="M1313.914,1326.168h-27.218c-9.076,0-16.46-7.384-16.46-16.46v-201.214
					c0-9.076,7.384-16.46,16.46-16.46h27.218c9.076,0,16.46,7.383,16.46,16.46v201.214
					C1330.374,1318.784,1322.99,1326.168,1313.914,1326.168z M1286.696,1094.011c-7.986,0-14.483,6.498-14.483,14.483v201.214
					c0,7.986,6.498,14.484,14.483,14.484h27.218c7.986,0,14.483-6.498,14.483-14.484v-201.214c0-7.986-6.498-14.483-14.483-14.483
					H1286.696z"/>
			</g>
			<g>
				<path style="fill:#91B3FA;" d="M1237.96,1394.005h-27.218c-9.076,0-16.46-7.384-16.46-16.46v-23.144
					c0-9.075,7.384-16.459,16.46-16.459h27.218c9.076,0,16.46,7.384,16.46,16.459v23.144
					C1254.42,1386.621,1247.037,1394.005,1237.96,1394.005z M1210.742,1339.919c-7.986,0-14.484,6.497-14.484,14.482v23.144
					c0,7.986,6.498,14.483,14.484,14.483h27.218c7.986,0,14.484-6.498,14.484-14.483v-23.144c0-7.986-6.498-14.482-14.484-14.482
					H1210.742z"/>
			</g>
			<g>
				<path style="fill:#91B3FA;" d="M1313.914,1394.005h-27.218c-9.076,0-16.46-7.384-16.46-16.46v-23.144
					c0-9.075,7.384-16.459,16.46-16.459h27.218c9.076,0,16.46,7.384,16.46,16.459v23.144
					C1330.374,1386.621,1322.99,1394.005,1313.914,1394.005z M1286.696,1339.919c-7.986,0-14.483,6.497-14.483,14.482v23.144
					c0,7.986,6.498,14.483,14.483,14.483h27.218c7.986,0,14.483-6.498,14.483-14.483v-23.144c0-7.986-6.498-14.482-14.483-14.482
					H1286.696z"/>
			</g>
			
				<linearGradient id="SVGID_00000152963865440790272770000005724605503909656965_" gradientUnits="userSpaceOnUse" x1="1381.4016" y1="1100.6542" x2="1629.2859" y2="1100.6542">
				<stop  offset="0" style="stop-color:#DAE3FE"/>
				<stop  offset="1" style="stop-color:#E9EFFD"/>
			</linearGradient>
			<path style="fill:url(#SVGID_00000152963865440790272770000005724605503909656965_);" d="M1607.947,1339.919h-205.206
				c-11.767,0-21.339-9.573-21.339-21.34V963.284c0-56.185,45.71-101.895,101.896-101.895h44.094
				c56.185,0,101.895,45.71,101.895,101.895v355.294C1629.286,1330.345,1619.714,1339.919,1607.947,1339.919z M1483.297,863.366
				c-55.096,0-99.919,44.823-99.919,99.918v355.294c0,10.677,8.686,19.364,19.363,19.364h205.206
				c10.676,0,19.363-8.687,19.363-19.364V963.284c0-55.096-44.823-99.918-99.918-99.918H1483.297z"/>
			
				<linearGradient id="SVGID_00000178189663819291524030000006251409898539206072_" gradientUnits="userSpaceOnUse" x1="911.9661" y1="1100.6542" x2="1159.8503" y2="1100.6542">
				<stop  offset="0" style="stop-color:#DAE3FE"/>
				<stop  offset="1" style="stop-color:#E9EFFD"/>
			</linearGradient>
			<path style="fill:url(#SVGID_00000178189663819291524030000006251409898539206072_);" d="M1138.511,1339.919H933.305
				c-11.767,0-21.339-9.573-21.339-21.34V963.284c0-56.185,45.71-101.895,101.895-101.895h44.094
				c56.185,0,101.896,45.71,101.896,101.895v355.294C1159.85,1330.345,1150.278,1339.919,1138.511,1339.919z M1013.861,863.366
				c-55.096,0-99.918,44.823-99.918,99.918v355.294c0,10.677,8.687,19.364,19.363,19.364h205.206
				c10.676,0,19.363-8.687,19.363-19.364V963.284c0-55.096-44.824-99.918-99.919-99.918H1013.861z"/>
			<path style="opacity:0.69;fill:#FFFFFF;" d="M1717.484,719.013c-0.425,0-0.816-0.275-0.946-0.702l-57.88-191.28
				c-3.955-13.071-15.781-21.924-29.427-22.032c-151.528-1.196-244.311-1.149-248.189,0.126c-0.511,0.167-1.078-0.088-1.261-0.587
				c-0.184-0.499,0.034-1.045,0.526-1.247c4.644-1.91,157.962-0.989,248.94-0.269c14.517,0.115,27.097,9.533,31.303,23.435
				l57.88,191.28c0.158,0.523-0.137,1.074-0.659,1.232C1717.675,719,1717.578,719.013,1717.484,719.013z"/>
		</g>
		<g>
			<g>
				
					<linearGradient id="SVGID_00000024709189691407777320000014704618947129680290_" gradientUnits="userSpaceOnUse" x1="947.957" y1="1181.1115" x2="999.4648" y2="1181.1115" gradientTransform="matrix(-1 0 0 1 2834.9248 0)">
					<stop  offset="0" style="stop-color:#FF928E"/>
					<stop  offset="1" style="stop-color:#FEB3B1"/>
				</linearGradient>
				<path style="fill:url(#SVGID_00000024709189691407777320000014704618947129680290_);" d="M1868.429,1154.565
					c5.284,5.64,13.064,10.514,18.539,13.553c-8.176,10.106-19.24,20.228-33.885,30.134l-4.192,9.406l-13.43-16.097
					C1835.46,1191.561,1859.559,1179.568,1868.429,1154.565z"/>
				
					<linearGradient id="SVGID_00000085948048215268112200000002956323220306083250_" gradientUnits="userSpaceOnUse" x1="999.7475" y1="1446.1086" x2="1038.3704" y2="1446.1086" gradientTransform="matrix(-1 0 0 1 2834.9248 0)">
					<stop  offset="0" style="stop-color:#09005D"/>
					<stop  offset="1" style="stop-color:#1A0F91"/>
				</linearGradient>
				<path style="fill:url(#SVGID_00000085948048215268112200000002956323220306083250_);" d="M1796.555,1459.861
					c-0.005-0.288,0.015-0.579,0.089-0.872c4.35-17.246,25.941-27.988,25.941-27.988l8.556,0.671
					c4.919,15.201,4.287,24.523,3.497,28.676c-0.022,0.116-0.057,0.227-0.088,0.34
					C1827.491,1461.317,1812.965,1461.729,1796.555,1459.861z"/>
				
					<linearGradient id="SVGID_00000070080158157294926090000016112361243713284736_" gradientUnits="userSpaceOnUse" x1="1011.074" y1="1626.271" x2="1018.4073" y2="1479.6033" gradientTransform="matrix(-1 0 0 1 2834.9248 0)">
					<stop  offset="0" style="stop-color:#4042E2"/>
					<stop  offset="1" style="stop-color:#4F52FF"/>
				</linearGradient>
				<path style="opacity:0.9;fill:url(#SVGID_00000070080158157294926090000016112361243713284736_);" d="M1834.549,1460.686
					c-0.381,1.387-1.405,2.466-2.715,2.742c-10.039,2.111-25.996,0.412-32.696-0.464c-1.478-0.193-2.558-1.56-2.583-3.104
					C1812.965,1461.729,1827.491,1461.317,1834.549,1460.686z"/>
				
					<linearGradient id="SVGID_00000048497931006907147200000008403399957561783692_" gradientUnits="userSpaceOnUse" x1="1010.4881" y1="1402.1384" x2="1003.1105" y2="1466.525" gradientTransform="matrix(-1 0 0 1 2834.9248 0)">
					<stop  offset="0" style="stop-color:#FF928E"/>
					<stop  offset="1" style="stop-color:#FEB3B1"/>
				</linearGradient>
				<path style="fill:url(#SVGID_00000048497931006907147200000008403399957561783692_);" d="M1834.58,1418.928l-3.623,17.444
					c-0.266,1.278-1.248,2.235-2.438,2.347c-1.456,0.137-3.529,0.217-5.614-0.089c-1.869-0.275-3.171-2.174-2.84-4.213l2.519-15.488
					H1834.58z"/>
				
					<linearGradient id="SVGID_00000159433736189167176590000013768953011449817527_" gradientUnits="userSpaceOnUse" x1="1077.9561" y1="1629.6158" x2="1085.2894" y2="1482.948" gradientTransform="matrix(-1 0 0 1 2834.9248 0)">
					<stop  offset="0" style="stop-color:#4042E2"/>
					<stop  offset="1" style="stop-color:#4F52FF"/>
				</linearGradient>
				<path style="opacity:0.9;fill:url(#SVGID_00000159433736189167176590000013768953011449817527_);" d="M1759.502,1460.511
					c9.449-0.265,14.337-1.378,16.863-2.41c0.006,0.939,0.001,1.895-0.03,2.886c-0.033,1.058-0.816,1.903-1.781,1.897l-51.881-0.335
					c-1.656-0.011-2.623-1.931-1.906-3.449C1727.57,1459.662,1744.896,1460.92,1759.502,1460.511z"/>
				
					<linearGradient id="SVGID_00000040563181982411419520000015759523749573001393_" gradientUnits="userSpaceOnUse" x1="1058.5599" y1="1447.136" x2="1114.1569" y2="1447.136" gradientTransform="matrix(-1 0 0 1 2834.9248 0)">
					<stop  offset="0" style="stop-color:#09005D"/>
					<stop  offset="1" style="stop-color:#1A0F91"/>
				</linearGradient>
				<path style="fill:url(#SVGID_00000040563181982411419520000015759523749573001393_);" d="M1720.768,1459.101
					c0.063-0.132,0.116-0.267,0.205-0.391c4.582-6.402,16.252-19.151,39.311-24.68l11.062-0.349c0,0,4.926,8.561,5.019,24.421
					c-2.526,1.033-7.414,2.145-16.863,2.41C1744.896,1460.92,1727.57,1459.662,1720.768,1459.101z"/>
				
					<linearGradient id="SVGID_00000178894160103807322620000012893912063498242471_" gradientUnits="userSpaceOnUse" x1="1070.5844" y1="1409.0244" x2="1063.2068" y2="1473.4113" gradientTransform="matrix(-1 0 0 1 2834.9248 0)">
					<stop  offset="0" style="stop-color:#FF928E"/>
					<stop  offset="1" style="stop-color:#FEB3B1"/>
				</linearGradient>
				<path style="fill:url(#SVGID_00000178894160103807322620000012893912063498242471_);" d="M1773.397,1416.916
					c-0.123,0.824-1.639,13.357-2.226,18.216c-0.139,1.155-0.976,2.048-2.03,2.174c-1.884,0.225-4.932,0.43-7.599-0.117
					c-1.439-0.295-2.48-1.677-2.48-3.284v-19.672L1773.397,1416.916z"/>
				
					<linearGradient id="SVGID_00000053516971736435675200000018186681518358211715_" gradientUnits="userSpaceOnUse" x1="1872.4243" y1="1242.0753" x2="2118.4243" y2="998.7416">
					<stop  offset="0" style="stop-color:#4042E2"/>
					<stop  offset="1" style="stop-color:#4F52FF"/>
				</linearGradient>
				<path style="opacity:0.9;fill:url(#SVGID_00000053516971736435675200000018186681518358211715_);" d="M1782.272,1188.208
					c0,0-26.682,101.398-26.199,228.998c0.009,2.326,1.642,4.334,3.919,4.814c3.355,0.707,8.286,1.546,12.368,1.431
					c2.179-0.061,4.001-1.677,4.368-3.827c3.741-21.939,25.21-145.534,37.443-165.6c0,0,8.048,110.08,5.476,167.189
					c-0.064,1.42,0.976,2.652,2.388,2.815c2.142,0.248,5.569,0.436,9.93-0.028c1.655-0.176,2.991-1.427,3.227-3.075
					c2.665-18.568,18.003-129.091,17.351-208.707c-0.037-4.49-11.874-24.011-11.874-24.011H1782.272z"/>
				
					<linearGradient id="SVGID_00000103256662360070020640000013970636546358377128_" gradientUnits="userSpaceOnUse" x1="-1288.7594" y1="2102.4724" x2="-1456.7594" y2="2210.4724" gradientTransform="matrix(-1 0 0 1 2067.1563 0)">
					<stop  offset="0" style="stop-color:#FE7062"/>
					<stop  offset="1" style="stop-color:#FF928E"/>
				</linearGradient>
				<path style="fill:url(#SVGID_00000103256662360070020640000013970636546358377128_);" d="M1745.165,1065.491
					c4.33-5.428,8.124-11.246,11.297-17.241c4.432-8.373,0.356,5.42,1.567-4.035c33.189-23.95,83.164-11.828,102.495-9.392
					c6.339,0.798,12.136,3.923,16.313,8.758c16.565,19.17,52.914,71.653,10.13,124.538c-5.475-3.039-13.255-7.913-18.539-13.553
					c4.733-13.343,5.121-30.395-4.799-51.304c-0.339,1.658-0.758,3.298-1.267,4.913c-13.673,43.316-14.402,79.361-14.372,87.668
					c0.005,1.128-0.673,2.144-1.72,2.563c-17.995,7.211-52.633,2.919-64.261,1.186c-2.132-0.318-3.566-2.303-3.272-4.438
					c5.707-41.344-23.581-109.357-31.316-126.392C1746.865,1067.536,1746.096,1066.433,1745.165,1065.491z"/>
				
					<linearGradient id="SVGID_00000136375172521239841690000010723034175470602891_" gradientUnits="userSpaceOnUse" x1="1026.7867" y1="990.5294" x2="998.6174" y2="1112.261" gradientTransform="matrix(-1 0 0 1 2834.9248 0)">
					<stop  offset="0" style="stop-color:#FF928E"/>
					<stop  offset="1" style="stop-color:#FEB3B1"/>
				</linearGradient>
				<path style="fill:url(#SVGID_00000136375172521239841690000010723034175470602891_);" d="M1829.424,1000.009l3.468,35.433
					c0,0-19.933,6.004-34.431-4.226l10.192-32.203L1829.424,1000.009z"/>
				<g>
					
						<linearGradient id="SVGID_00000142890536282863315620000001008857126559048363_" gradientUnits="userSpaceOnUse" x1="-913.6473" y1="-354.6035" x2="-963.6234" y2="-288.4893" gradientTransform="matrix(-0.6854 -0.7281 -0.7281 0.6854 928.4055 544.7815)">
						<stop  offset="0" style="stop-color:#FF928E"/>
						<stop  offset="1" style="stop-color:#FEB3B1"/>
					</linearGradient>
					<path style="fill:url(#SVGID_00000142890536282863315620000001008857126559048363_);" d="M1806.295,959.624
						c-0.48,0.452-20.246,39.269-20.246,39.269l22.404,10.815l24.201-34.008C1832.653,975.701,1814.326,952.064,1806.295,959.624z"
						/>
					
						<linearGradient id="SVGID_00000140720693174423803240000006827490439788400519_" gradientUnits="userSpaceOnUse" x1="-951.8149" y1="-338.7262" x2="-892.1179" y2="-338.7262" gradientTransform="matrix(-0.6854 -0.7281 -0.7281 0.6854 928.4055 544.7815)">
						<stop  offset="0" style="stop-color:#09005D"/>
						<stop  offset="1" style="stop-color:#1A0F91"/>
					</linearGradient>
					<path style="fill:url(#SVGID_00000140720693174423803240000006827490439788400519_);" d="M1822.74,976.643
						c0.4,1.034,0.301,2.188-0.269,3.139l-11.174,18.627c-0.17,0.283-0.371,0.538-0.613,0.763c-1.33,1.238-5.881,4.839-9.4-0.064
						c-2.999-4.179-5.812-7.978-8.827-9.545c-1.76-0.915-3.927-0.185-4.821,1.587c-1.841,3.649-5.407,11.087-7.647,18.14
						c-0.561,1.768,0.351,3.666,2.07,4.362c4.536,1.838,13.503,5.162,21.459,6.26c1.307,0.181,2.601-0.371,3.379-1.437
						c3.423-4.689,13.071-17.794,16.364-21.075c3.059-3.048,8.705-1.898,11.249-1.167c0.966,0.278,1.994,0.144,2.855-0.374
						c2.581-1.555,7.086-5.426,2.965-11.982c-1.025-1.63-0.502-3.801,1.106-4.858c2.882-1.896,6.009-5.454,3.03-11.217
						c-3.016-5.834-8.402-6.357-12.071-5.909c-1.623,0.199-3.271-0.653-3.894-2.164c-0.277-0.673-0.824-1.246-1.844-1.453
						c-1.922-0.39-3.184-2.148-2.807-4.073c0.647-3.301,0.16-7.589-5.111-10.487c-9.667-5.315-18.134,3.345-20.287,10.656
						c-2.153,7.311,8.655,12.477,15.454,13.339C1818.901,968.344,1821.639,973.794,1822.74,976.643z"/>
					
						<linearGradient id="SVGID_00000041285670590573613660000017772386218585852307_" gradientUnits="userSpaceOnUse" x1="-986.8422" y1="-302.2466" x2="-946.7578" y2="-343.3721" gradientTransform="matrix(-0.6854 -0.7281 -0.7281 0.6854 928.4055 544.7815)">
						<stop  offset="0" style="stop-color:#FF928E"/>
						<stop  offset="1" style="stop-color:#FEB3B1"/>
					</linearGradient>
					<path style="fill:url(#SVGID_00000041285670590573613660000017772386218585852307_);" d="M1819.065,1004.241
						c0,0,4.298-12.577,9.801-12.116c5.502,0.462,9.833,5.943,3.014,12.105C1823.397,1011.895,1819.065,1004.241,1819.065,1004.241z
						"/>
				</g>
				
					<linearGradient id="SVGID_00000049902626355667936860000013673569785199551108_" gradientUnits="userSpaceOnUse" x1="1003.0638" y1="1013.4644" x2="944.7509" y2="1120.5974" gradientTransform="matrix(-1 0 0 1 2834.9248 0)">
					<stop  offset="0" style="stop-color:#E1473D"/>
					<stop  offset="1" style="stop-color:#E9605A"/>
				</linearGradient>
				<path style="fill:url(#SVGID_00000049902626355667936860000013673569785199551108_);" d="M1865.444,1100.021
					c7.253-19.848,4.622-43.816,4.594-44.055l-1.998,0.228c0.026,0.235,2.602,23.743-4.486,43.136L1865.444,1100.021z"/>
				<g>
					
						<linearGradient id="SVGID_00000049911488799310944500000005039281415803551908_" gradientUnits="userSpaceOnUse" x1="-1286.2354" y1="2106.4143" x2="-1454.2356" y2="2214.4146" gradientTransform="matrix(-1 0 0 1 2067.1563 0)">
						<stop  offset="0" style="stop-color:#FE7062"/>
						<stop  offset="1" style="stop-color:#FF928E"/>
					</linearGradient>
					<path style="fill:url(#SVGID_00000049911488799310944500000005039281415803551908_);" d="M1677.797,1076.634
						c37.537,5.632,62.002-18.052,80.233-32.42c24.069-18.969,42.8-9.74,42.8-9.74l-25.669,48.989
						c-38.333,36.142-77.636,28.116-102.414,16.404C1672.366,1090.405,1674.895,1082.486,1677.797,1076.634z"/>
					
						<linearGradient id="SVGID_00000021085064368759506630000000561419163981526425_" gradientUnits="userSpaceOnUse" x1="-1338.3911" y1="2239.3708" x2="-1156.3911" y2="2118.3708" gradientTransform="matrix(-1 0 0 1 2067.1563 0)">
						<stop  offset="0" style="stop-color:#FF928E"/>
						<stop  offset="1" style="stop-color:#FEB3B1"/>
					</linearGradient>
					<path style="fill:url(#SVGID_00000021085064368759506630000000561419163981526425_);" d="M1625.04,1054.24l12.448,6.698
						c14.929,9.089,28.288,13.892,40.31,15.696c-2.902,5.852-5.431,13.771-5.05,23.233c-15.773-7.456-25.662-16.404-25.662-16.404
						C1618.887,1066.648,1625.04,1054.24,1625.04,1054.24z"/>
				</g>
				
					<linearGradient id="SVGID_00000043429684187317173960000000113301091560491707_" gradientUnits="userSpaceOnUse" x1="-1329.4344" y1="2252.8438" x2="-1147.4347" y2="2131.8438" gradientTransform="matrix(-1 0 0 1 2067.1563 0)">
					<stop  offset="0" style="stop-color:#FF928E"/>
					<stop  offset="1" style="stop-color:#FEB3B1"/>
				</linearGradient>
				<path style="fill:url(#SVGID_00000043429684187317173960000000113301091560491707_);" d="M1588.368,1071.781
					c0.804-2.671,2.779-4.833,5.367-5.874l25.263-10.159c0,0,0.381-3.24-5.338-5.442c-5.719-2.202-4.382-8.607-4.382-8.607
					s7.813,3.564,19.252,9.217c6.541,3.233,10.212,8.941,12.158,13.238l-6.503,8.552c-15.57,4.678-31.325,5.572-47.215,3.717
					L1588.368,1071.781z"/>
			</g>
			<g>
				
					<linearGradient id="SVGID_00000013183590853337480000000001849057545135431325_" gradientUnits="userSpaceOnUse" x1="1701.1111" y1="1116.325" x2="1777.111" y2="1016.3249" gradientTransform="matrix(1 0 0 1 391.6099 0)">
					<stop  offset="0" style="stop-color:#4042E2"/>
					<stop  offset="1" style="stop-color:#4F52FF"/>
				</linearGradient>
				
					<path style="opacity:0.9;fill-rule:evenodd;clip-rule:evenodd;fill:url(#SVGID_00000013183590853337480000000001849057545135431325_);" d="
					M2108.916,1173.866c-10.503-17.216-28.412-26.605-45.173-25.435c-5.041,0.352-10.077-1.004-14.385-3.644
					c-8.125-4.978-18.421-5.454-26.817-0.331c-0.023,0.014-0.045,0.027-0.068,0.041c-3.829,2.353-8.543,2.841-12.596,0.896
					c-11.974-5.745-25.729-5.832-36.997,1.042c-18.741,11.434-33.497,38.406-20.635,59.49c12.863,21.083,48.474,28.294,67.216,16.86
					c2.613-1.594,4.953-3.479,7.012-5.599c2.742-2.823,7.305-2.369,9.341,1c0.041,0.068,0.083,0.136,0.124,0.204
					c14.252,23.361,42.142,32.331,62.295,20.036C2118.385,1226.131,2123.169,1197.226,2108.916,1173.866z"/>
				
					<linearGradient id="SVGID_00000091713995883345905780000018301552446576424879_" gradientUnits="userSpaceOnUse" x1="-563.1876" y1="1267.3809" x2="-556.2637" y2="1222.0273" gradientTransform="matrix(-1 0 0 1 1489.7772 0)">
					<stop  offset="0" style="stop-color:#FF928E"/>
					<stop  offset="1" style="stop-color:#FEB3B1"/>
				</linearGradient>
				<path style="fill-rule:evenodd;clip-rule:evenodd;fill:url(#SVGID_00000091713995883345905780000018301552446576424879_);" d="
					M2084.383,1216.174c0,0-25.157,48.264-67.967,26.058l-9.842,16.747c0,0,48.597,42.72,83.681-42.805H2084.383z"/>
				<g>
					
						<linearGradient id="SVGID_00000095313165522588057550000015941525825401769663_" gradientUnits="userSpaceOnUse" x1="-993.3599" y1="976.6299" x2="-981.7899" y2="871.0536" gradientTransform="matrix(-0.9458 -0.3247 -0.3247 0.9458 1314.9034 104.2645)">
						<stop  offset="0" style="stop-color:#FF928E"/>
						<stop  offset="1" style="stop-color:#FEB3B1"/>
					</linearGradient>
					<path style="fill-rule:evenodd;clip-rule:evenodd;fill:url(#SVGID_00000095313165522588057550000015941525825401769663_);" d="
						M1959.578,1242.561c0,0-25.595,49.658-25.461,81.108l6.188,2.124c0,0,16.646-53.334,26.748-65.028
						C1977.153,1249.071,1959.578,1242.561,1959.578,1242.561z"/>
					
						<linearGradient id="SVGID_00000044152267841723569200000001423670060412259205_" gradientUnits="userSpaceOnUse" x1="-986.4012" y1="975.0199" x2="-975.9332" y2="879.4988" gradientTransform="matrix(-0.9458 -0.3247 -0.3247 0.9458 1314.9034 104.2645)">
						<stop  offset="0" style="stop-color:#FF928E"/>
						<stop  offset="1" style="stop-color:#FEB3B1"/>
					</linearGradient>
					<path style="fill-rule:evenodd;clip-rule:evenodd;fill:url(#SVGID_00000044152267841723569200000001423670060412259205_);" d="
						M1938.066,1319.49l-3.949,4.178c0,0-5.233,6.781-6.646,12.107c-1.413,5.325,5.507,8.946,8.025,9.672
						c2.518,0.726,3.491-1.707,2.294-6.683c0,0,4.485-7.038,2.395-16.056L1938.066,1319.49z"/>
				</g>
				
					<linearGradient id="SVGID_00000123404695686316360950000002407022889969094554_" gradientUnits="userSpaceOnUse" x1="2028.8706" y1="1327.9594" x2="2007.5372" y2="1373.9592">
					<stop  offset="0" style="stop-color:#09005D"/>
					<stop  offset="1" style="stop-color:#1A0F91"/>
				</linearGradient>
				<path style="fill-rule:evenodd;clip-rule:evenodd;fill:url(#SVGID_00000123404695686316360950000002407022889969094554_);" d="
					M1973.845,1447.223l1.419,3.483l-0.575,12.542c-0.081,1.762-1.503,3.242-3.42,3.537c-2.616,0.404-6.421,0.812-10.001,0.535
					c-2.803-0.217-4.559-2.849-3.462-5.2l4.222-9.046c0.632-1.353,1.785-2.392,3.197-2.879L1973.845,1447.223z"/>
				
					<linearGradient id="SVGID_00000144309479341635625880000013659258319916046765_" gradientUnits="userSpaceOnUse" x1="-495.4483" y1="1400.1383" x2="-469.0527" y2="1400.1383" gradientTransform="matrix(-1 0 0 1 1489.7772 0)">
					<stop  offset="0" style="stop-color:#FF928E"/>
					<stop  offset="1" style="stop-color:#FEB3B1"/>
				</linearGradient>
				<path style="fill-rule:evenodd;clip-rule:evenodd;fill:url(#SVGID_00000144309479341635625880000013659258319916046765_);" d="
					M1985.225,1350.461c0,0-6.963,77.62-11.56,101.369c0,0-3.44,2.507-8.587-0.725l-6.248-103.585L1985.225,1350.461z"/>
				
					<linearGradient id="SVGID_00000180341363459541767910000009006185275613323707_" gradientUnits="userSpaceOnUse" x1="1541.1255" y1="989.9315" x2="1504.4587" y2="1045.9314" gradientTransform="matrix(1 0 0 1 768.4687 0)">
					<stop  offset="0" style="stop-color:#09005D"/>
					<stop  offset="1" style="stop-color:#1A0F91"/>
				</linearGradient>
				<path style="fill-rule:evenodd;clip-rule:evenodd;fill:url(#SVGID_00000180341363459541767910000009006185275613323707_);" d="
					M1996.301,1447.223l-1.419,3.483l0.575,12.542c0.081,1.762,1.503,3.242,3.42,3.537c2.616,0.404,6.421,0.812,10.001,0.535
					c2.803-0.217,4.559-2.849,3.462-5.2l-4.222-9.046c-0.631-1.353-1.785-2.392-3.197-2.879L1996.301,1447.223z"/>
				
					<linearGradient id="SVGID_00000089553809323427722900000012396442313555497386_" gradientUnits="userSpaceOnUse" x1="1216.4524" y1="1400.1383" x2="1242.848" y2="1400.1383" gradientTransform="matrix(1 0 0 1 768.4687 0)">
					<stop  offset="0" style="stop-color:#FF928E"/>
					<stop  offset="1" style="stop-color:#FEB3B1"/>
				</linearGradient>
				<path style="fill-rule:evenodd;clip-rule:evenodd;fill:url(#SVGID_00000089553809323427722900000012396442313555497386_);" d="
					M1984.921,1350.461c0,0,6.962,77.62,11.56,101.369c0,0,3.44,2.507,8.587-0.725l6.249-103.585L1984.921,1350.461z"/>
				
					<linearGradient id="SVGID_00000053509649632048852030000000252303617778096562_" gradientUnits="userSpaceOnUse" x1="-953.183" y1="1874.7245" x2="-1113.85" y2="2091.3911" gradientTransform="matrix(-1 0 0 1 1489.7772 0)">
					<stop  offset="0" style="stop-color:#FE7062"/>
					<stop  offset="1" style="stop-color:#FF928E"/>
				</linearGradient>
				<path style="fill-rule:evenodd;clip-rule:evenodd;fill:url(#SVGID_00000053509649632048852030000000252303617778096562_);" d="
					M2016.416,1242.232c0,0-25.281-9.366-56.838,0.329c0,0-3.538,23.892-1.717,35.263l54.379,1.969L2016.416,1242.232z"/>
				
					<linearGradient id="SVGID_00000121983850499395054570000005171020620679320449_" gradientUnits="userSpaceOnUse" x1="-947.3577" y1="2177.6953" x2="-1108.0247" y2="2394.3621" gradientTransform="matrix(-0.9975 0.0712 0.0712 0.9975 1516.5916 -25.2231)">
					<stop  offset="0" style="stop-color:#FE7062"/>
					<stop  offset="1" style="stop-color:#FF928E"/>
				</linearGradient>
				<path style="fill-rule:evenodd;clip-rule:evenodd;fill:url(#SVGID_00000121983850499395054570000005171020620679320449_);" d="
					M1957.861,1282.282c0,0-18.386,57.558-22.053,94.638c-0.188,1.907,1.201,3.598,3.108,3.791c3.608,0.365,9.957,1.442,18.534,4.58
					c13.908,5.088,25.582,3.887,36.17,1.179c8.311-2.125,28.982-3.591,37.489-4.124c2.027-0.127,3.508-1.958,3.208-3.967
					c-2.065-13.82-10.007-62.89-23.252-96.473L1957.861,1282.282z"/>
				
					<linearGradient id="SVGID_00000142854526457382202010000006770072429192052652_" gradientUnits="userSpaceOnUse" x1="1983.0643" y1="1244.5784" x2="1998.0634" y2="1498.0653">
					<stop  offset="0" style="stop-color:#E1473D"/>
					<stop  offset="1" style="stop-color:#E9605A"/>
				</linearGradient>
				<path style="fill-rule:evenodd;clip-rule:evenodd;fill:url(#SVGID_00000142854526457382202010000006770072429192052652_);" d="
					M1957.683,1276.536l0.178,5.747c0,0,17.466,3.073,54.411,1.831l0.192-6.333
					C2012.463,1277.78,1971.534,1278.581,1957.683,1276.536z"/>
				
					<linearGradient id="SVGID_00000047777947638449269610000015241039749333956284_" gradientUnits="userSpaceOnUse" x1="1987.9681" y1="1208.322" x2="1986.9681" y2="1269.6553">
					<stop  offset="0" style="stop-color:#FF928E"/>
					<stop  offset="1" style="stop-color:#FEB3B1"/>
				</linearGradient>
				<path style="fill-rule:evenodd;clip-rule:evenodd;fill:url(#SVGID_00000047777947638449269610000015241039749333956284_);" d="
					M1996.963,1213.446l2.403,23.803c0.191,1.893-1.052,3.63-2.906,4.057c-4.243,0.975-11.913,2.125-18.352-0.235
					c-1.626-0.596-2.66-2.199-2.494-3.923l2.356-24.451L1996.963,1213.446z"/>
				
					<linearGradient id="SVGID_00000088120540661750129200000007949658760233903281_" gradientUnits="userSpaceOnUse" x1="1995.2172" y1="1152.2937" x2="1987.2172" y2="1209.2936">
					<stop  offset="0" style="stop-color:#FF928E"/>
					<stop  offset="1" style="stop-color:#FEB3B1"/>
				</linearGradient>
				<path style="fill-rule:evenodd;clip-rule:evenodd;fill:url(#SVGID_00000088120540661750129200000007949658760233903281_);" d="
					M2013.206,1199.54c-2.334,16.595-14.562,32.245-33.797,28.801c-13.308-2.383-17.375-15.065-15.042-31.66
					c2.334-16.595,14.061-29.216,27.449-27.333C2005.205,1171.23,2015.54,1182.944,2013.206,1199.54z"/>
				
					<linearGradient id="SVGID_00000014593135999282312530000015889176844492107656_" gradientUnits="userSpaceOnUse" x1="2019.0291" y1="1155.6355" x2="2011.0291" y2="1212.6356">
					<stop  offset="0" style="stop-color:#FF928E"/>
					<stop  offset="1" style="stop-color:#FEB3B1"/>
				</linearGradient>
				<path style="fill-rule:evenodd;clip-rule:evenodd;fill:url(#SVGID_00000014593135999282312530000015889176844492107656_);" d="
					M2008.917,1206.244c0,0,2.993-9.364,7.002-5.239c4.01,4.125-5.43,13.879-8.531,13.812
					C2004.287,1214.75,2008.917,1206.244,2008.917,1206.244z"/>
				
					<linearGradient id="SVGID_00000046327516469481005270000005485361401914285185_" gradientUnits="userSpaceOnUse" x1="1671.1603" y1="1093.562" x2="1747.16" y2="993.5621" gradientTransform="matrix(1 0 0 1 391.6099 0)">
					<stop  offset="0" style="stop-color:#4042E2"/>
					<stop  offset="1" style="stop-color:#4F52FF"/>
				</linearGradient>
				
					<path style="opacity:0.9;fill-rule:evenodd;clip-rule:evenodd;fill:url(#SVGID_00000046327516469481005270000005485361401914285185_);" d="
					M2016.294,1198.84c0,0-14.751,16.817-23.511-17.067c0,0-7.605,10.385-11.427,1.47c0,0-15.524,5.771-17.423-0.773
					c-1.9-6.543,20.544-24.995,39.292-12.649C2021.973,1182.167,2016.294,1198.84,2016.294,1198.84z"/>
			</g>
			<g>
				<g>
					
						<linearGradient id="SVGID_00000111911003348998923780000007160545535764251805_" gradientUnits="userSpaceOnUse" x1="-365.702" y1="1349.8508" x2="-355.2341" y2="1254.3307" gradientTransform="matrix(-1 0 0 1 1489.7772 0)">
						<stop  offset="0" style="stop-color:#FF928E"/>
						<stop  offset="1" style="stop-color:#FEB3B1"/>
					</linearGradient>
					<path style="fill-rule:evenodd;clip-rule:evenodd;fill:url(#SVGID_00000111911003348998923780000007160545535764251805_);" d="
						M1838.469,1253.735c0,0-4.318,44.358,6.019,74.061h6.542c0,0-1.57-55.85,4.187-70.189
						C1860.976,1243.267,1838.469,1253.735,1838.469,1253.735z"/>
					
						<linearGradient id="SVGID_00000094584248413644286640000006838196886940759168_" gradientUnits="userSpaceOnUse" x1="-359.4876" y1="1350.532" x2="-349.0196" y2="1255.0111" gradientTransform="matrix(-1 0 0 1 1489.7772 0)">
						<stop  offset="0" style="stop-color:#FF928E"/>
						<stop  offset="1" style="stop-color:#FEB3B1"/>
					</linearGradient>
					<path style="fill-rule:evenodd;clip-rule:evenodd;fill:url(#SVGID_00000094584248413644286640000006838196886940759168_);" d="
						M1846.868,1322.562l-2.379,5.234c0,0-2.748,8.113-2.355,13.608c0.393,5.496,8.113,6.673,10.73,6.542
						c2.617-0.131,2.748-2.748,0-7.066c0,0,1.957-8.113-2.947-15.964L1846.868,1322.562z"/>
				</g>
				<g>
					
						<linearGradient id="SVGID_00000105414829032512237270000001299271370049505667_" gradientUnits="userSpaceOnUse" x1="1504.2255" y1="1349.851" x2="1514.6934" y2="1254.3307" gradientTransform="matrix(1 0 0 1 414.3666 0)">
						<stop  offset="0" style="stop-color:#FF928E"/>
						<stop  offset="1" style="stop-color:#FEB3B1"/>
					</linearGradient>
					<path style="fill-rule:evenodd;clip-rule:evenodd;fill:url(#SVGID_00000105414829032512237270000001299271370049505667_);" d="
						M1935.602,1253.735c0,0,4.318,44.358-6.019,74.061h-6.543c0,0,1.571-55.85-4.187-70.189
						C1913.096,1243.267,1935.602,1253.735,1935.602,1253.735z"/>
					
						<linearGradient id="SVGID_00000110430827690488945480000013722557288045936267_" gradientUnits="userSpaceOnUse" x1="1510.4401" y1="1350.532" x2="1520.908" y2="1255.0112" gradientTransform="matrix(1 0 0 1 414.3666 0)">
						<stop  offset="0" style="stop-color:#FF928E"/>
						<stop  offset="1" style="stop-color:#FEB3B1"/>
					</linearGradient>
					<path style="fill-rule:evenodd;clip-rule:evenodd;fill:url(#SVGID_00000110430827690488945480000013722557288045936267_);" d="
						M1927.203,1322.562l2.379,5.234c0,0,2.748,8.113,2.355,13.608c-0.392,5.496-8.113,6.673-10.73,6.542
						c-2.617-0.131-2.748-2.748,0-7.066c0,0-1.957-8.113,2.947-15.964L1927.203,1322.562z"/>
				</g>
				
					<linearGradient id="SVGID_00000168094518982461519730000017983504209439735968_" gradientUnits="userSpaceOnUse" x1="-418.9559" y1="1460.1893" x2="-399.5176" y2="1460.1893" gradientTransform="matrix(-1 0 0 1 1489.7772 0)">
					<stop  offset="0" style="stop-color:#09005D"/>
					<stop  offset="1" style="stop-color:#1A0F91"/>
				</linearGradient>
				<path style="fill-rule:evenodd;clip-rule:evenodd;fill:url(#SVGID_00000168094518982461519730000017983504209439735968_);" d="
					M1907.072,1452.968c0,0,1.132,5.097,1.639,9.685c0.216,1.954-1.14,3.743-3.079,4.07c-3.305,0.558-8.559,1.119-13.304,0.198
					c-2.024-0.393-3.358-2.349-2.964-4.373c0.475-2.44,3.162-5.609,6.793-8.365L1907.072,1452.968z"/>
				
					<linearGradient id="SVGID_00000070807651481629006720000011843760739701822140_" gradientUnits="userSpaceOnUse" x1="-416.0802" y1="1433.5594" x2="-410.5937" y2="1299.599" gradientTransform="matrix(-1 0 0 1 1489.7772 0)">
					<stop  offset="0" style="stop-color:#FF928E"/>
					<stop  offset="1" style="stop-color:#FEB3B1"/>
				</linearGradient>
				<path style="fill-rule:evenodd;clip-rule:evenodd;fill:url(#SVGID_00000070807651481629006720000011843760739701822140_);" d="
					M1913.986,1356.687c-1.307,0.437-6.797,95.377-6.914,96.281c0,0-4.892,4.769-10.915,1.216
					c-2.496-24.824-2.891-58.649-2.891-94.164L1913.986,1356.687z"/>
				
					<linearGradient id="SVGID_00000157301382822665898240000005090114951072906639_" gradientUnits="userSpaceOnUse" x1="-392.2415" y1="1457.3413" x2="-363.2363" y2="1457.3413" gradientTransform="matrix(-1 0 0 1 1489.7772 0)">
					<stop  offset="0" style="stop-color:#09005D"/>
					<stop  offset="1" style="stop-color:#1A0F91"/>
				</linearGradient>
				<path style="fill-rule:evenodd;clip-rule:evenodd;fill:url(#SVGID_00000157301382822665898240000005090114951072906639_);" d="
					M1880.388,1450.54c0,0,1.721,6.272,1.627,10.911c-0.015,0.729-0.552,1.338-1.274,1.441c-4.236,0.605-18.7,2.408-26.661,0.13
					c-0.641-0.184-1.082-0.778-1.066-1.445c0.06-2.496,1.789-8.361,16.304-9.925L1880.388,1450.54z"/>
				
					<linearGradient id="SVGID_00000137119610464198719700000002212285477004279999_" gradientUnits="userSpaceOnUse" x1="-385.8777" y1="1434.7964" x2="-380.3912" y2="1300.8365" gradientTransform="matrix(-1 0 0 1 1489.7772 0)">
					<stop  offset="0" style="stop-color:#FF928E"/>
					<stop  offset="1" style="stop-color:#FEB3B1"/>
				</linearGradient>
				<path style="fill-rule:evenodd;clip-rule:evenodd;fill:url(#SVGID_00000137119610464198719700000002212285477004279999_);" d="
					M1862.404,1355.371c-1.863,1.042,5.105,96.42,8.317,97.33c0,0,3.49,3.72,9.513,0.167c-1.208-31.012-1.086-62.376,2.891-94.164
					L1862.404,1355.371z"/>
				
					<linearGradient id="SVGID_00000007400770502812835590000002115963796173611443_" gradientUnits="userSpaceOnUse" x1="-427.5736" y1="1333.4021" x2="-368.7956" y2="1333.4021" gradientTransform="matrix(-1 0 0 1 1489.7772 0)">
					<stop  offset="0" style="stop-color:#09005D"/>
					<stop  offset="1" style="stop-color:#1A0F91"/>
				</linearGradient>
				<path style="fill-rule:evenodd;clip-rule:evenodd;fill:url(#SVGID_00000007400770502812835590000002115963796173611443_);" d="
					M1913.515,1301.281c0,0-44.003-1.004-54.703,1.947c0,0-1.161,35.752,1.624,57.963c0.108,0.861,0.704,1.579,1.535,1.832
					c2.77,0.846,9.791,2.265,21.237-0.109c1.018-0.211,1.747-1.113,1.747-2.152l-0.184-14.285c0-0.958,0.777-1.735,1.735-1.735
					h2.603c0.999,0,1.791,0.841,1.732,1.838l-0.188,14.462c-0.055,0.933,0.483,1.799,1.346,2.159
					c3.22,1.343,11.658,4.017,23.209,1.346c0.931-0.215,1.621-1.013,1.693-1.965
					C1918.217,1345.102,1916.511,1323.972,1913.515,1301.281z"/>
				
					<linearGradient id="SVGID_00000123417468066523447140000001877417731156880000_" gradientUnits="userSpaceOnUse" x1="-428.188" y1="1295.4738" x2="-411.8977" y2="1317.6879" gradientTransform="matrix(-1 0 0 1 1489.7772 0)">
					<stop  offset="0" style="stop-color:#09005D"/>
					<stop  offset="1" style="stop-color:#1A0F91"/>
				</linearGradient>
				<path style="fill-rule:evenodd;clip-rule:evenodd;fill:url(#SVGID_00000123417468066523447140000001877417731156880000_);" d="
					M1896.861,1303.228c0,0,4.486,15.797,17.794,17.784l-1.752-17.784C1912.903,1303.228,1902.545,1302.44,1896.861,1303.228z"/>
				
					<linearGradient id="SVGID_00000103229286341682505330000015029004781630462380_" gradientUnits="userSpaceOnUse" x1="1994.8857" y1="1122.5782" x2="1885.3911" y2="1268.0712">
					<stop  offset="0" style="stop-color:#E1473D"/>
					<stop  offset="1" style="stop-color:#E9605A"/>
				</linearGradient>
				<path style="fill-rule:evenodd;clip-rule:evenodd;fill:url(#SVGID_00000103229286341682505330000015029004781630462380_);" d="
					M1854.875,1227.893c0.008-1.745,37.102-10.842,68.47-0.976c0,0,9.991,7.584,18.234,26.767c0,0-10.536,6.538-22.479,10.385
					c-0.77,19.54-1.853,39.556-3.247,47.876c0,0-45.778,1.208-61.518,0l-1.197-48.849l-17.677-9.098
					C1835.46,1253.997,1843.041,1235.293,1854.875,1227.893z"/>
				
					<linearGradient id="SVGID_00000065075148232560181310000011711688267353136030_" gradientUnits="userSpaceOnUse" x1="-409.1799" y1="1259.2699" x2="-387.7986" y2="1179.0897" gradientTransform="matrix(-1 0 0 1 1489.7772 0)">
					<stop  offset="0" style="stop-color:#FF928E"/>
					<stop  offset="1" style="stop-color:#FEB3B1"/>
				</linearGradient>
				<path style="fill-rule:evenodd;clip-rule:evenodd;fill:url(#SVGID_00000065075148232560181310000011711688267353136030_);" d="
					M1896.861,1198.966l2.181,23.951c0,0-12.641,7.386-23.517,0.929l1.931-20.919L1896.861,1198.966z"/>
				
					<linearGradient id="SVGID_00000137093647783442966160000010007325130670737838_" gradientUnits="userSpaceOnUse" x1="-565.3666" y1="1088.1888" x2="-594.5607" y2="1032.4021" gradientTransform="matrix(-0.9949 -0.1009 -0.1009 0.9949 1423.3322 45.0664)">
					<stop  offset="0" style="stop-color:#09005D"/>
					<stop  offset="1" style="stop-color:#1A0F91"/>
				</linearGradient>
				<path style="fill-rule:evenodd;clip-rule:evenodd;fill:url(#SVGID_00000137093647783442966160000010007325130670737838_);" d="
					M1856.854,1187.816c0,0-8.44-7.034-3.503-14.127c0,0-6.402-6.56-1.726-14.676c0,0,1.633-28.974,30.512-19.524
					c0,0,17.29-12.78,32.25,9.06c0,0,7.753,1.282,8.062,11.354c0,0,12.818,33.133-20.508,32.469L1856.854,1187.816z"/>
				
					<linearGradient id="SVGID_00000081611993678385633670000004609679366233410745_" gradientUnits="userSpaceOnUse" x1="-393.87" y1="1211.528" x2="-402.5596" y2="1142.0107" gradientTransform="matrix(-1 0 0 1 1489.7772 0)">
					<stop  offset="0" style="stop-color:#FF928E"/>
					<stop  offset="1" style="stop-color:#FEB3B1"/>
				</linearGradient>
				<path style="fill-rule:evenodd;clip-rule:evenodd;fill:url(#SVGID_00000081611993678385633670000004609679366233410745_);" d="
					M1863.734,1164.223c0,0-11.264,46.339,18.498,48.505c28.089,2.045,29.291-26.453,29.291-26.453s6.642-14.865,0-22.052
					C1904.881,1157.036,1868.096,1157.393,1863.734,1164.223z"/>
				
					<linearGradient id="SVGID_00000128477121050827134530000004552390455711597475_" gradientUnits="userSpaceOnUse" x1="-366.8962" y1="1207.3088" x2="-375.4487" y2="1138.8887" gradientTransform="matrix(-1 0 0 1 1489.7772 0)">
					<stop  offset="0" style="stop-color:#FF928E"/>
					<stop  offset="1" style="stop-color:#FEB3B1"/>
				</linearGradient>
				<path style="fill-rule:evenodd;clip-rule:evenodd;fill:url(#SVGID_00000128477121050827134530000004552390455711597475_);" d="
					M1862.45,1183.973c0,0-0.034-5.065-4.379-4.396c-4.345,0.668,3.84,11.186,3.84,11.186L1862.45,1183.973z"/>
				
					<linearGradient id="SVGID_00000173869540856589585020000015059379055892229815_" gradientUnits="userSpaceOnUse" x1="-390.9752" y1="1182.0177" x2="-418.4663" y2="1129.4852" gradientTransform="matrix(-1 0 0 1 1489.7772 0)">
					<stop  offset="0" style="stop-color:#09005D"/>
					<stop  offset="1" style="stop-color:#1A0F91"/>
				</linearGradient>
				<path style="fill-rule:evenodd;clip-rule:evenodd;fill:url(#SVGID_00000173869540856589585020000015059379055892229815_);" d="
					M1911.81,1179.516c0,0-27.048,1.107-30.163-13.976c0,0-4.052,1.942-7.135-2.542c0,0-8.029,15.026-13.88,8.671
					c0,0-4.632-19.304,12.093-18.562c16.726,0.742,32.229,2.043,37.673,4.911C1915.843,1160.888,1922.827,1170.073,1911.81,1179.516
					z"/>
				
					<linearGradient id="SVGID_00000028325601419634352640000017774954167174202813_" gradientUnits="userSpaceOnUse" x1="-419.5488" y1="1213.8906" x2="-428.1014" y2="1145.4698" gradientTransform="matrix(-1 0 0 1 1489.7772 0)">
					<stop  offset="0" style="stop-color:#FF928E"/>
					<stop  offset="1" style="stop-color:#FEB3B1"/>
				</linearGradient>
				<path style="fill-rule:evenodd;clip-rule:evenodd;fill:url(#SVGID_00000028325601419634352640000017774954167174202813_);" d="
					M1909.549,1190.763l0.019-13.411c0,0,6.943-6.844,8.181,0C1918.988,1184.196,1912.792,1190.468,1909.549,1190.763z"/>
			</g>
			<g>
				
					<linearGradient id="SVGID_00000028327489546583745010000007341691811641951928_" gradientUnits="userSpaceOnUse" x1="-1463.5024" y1="1337.0784" x2="-1420.9071" y2="1443.928" gradientTransform="matrix(0.9593 -0.2823 0.2823 0.9593 3125.4395 -763.3715)">
					<stop  offset="0" style="stop-color:#09005D"/>
					<stop  offset="1" style="stop-color:#1A0F91"/>
				</linearGradient>
				<path style="fill:url(#SVGID_00000028327489546583745010000007341691811641951928_);" d="M2139.417,980.438
					c0,0,15.747,2.648,20.545,9.6c3.849,5.578,19.316,1.893,24.395,13.597c2.622,6.043,8.74,9.7,15.269,8.82
					c16.259-2.193,42.611-1.168,54.395,24.714c8.994,19.755,0.783,30.666-9.45,36.617c-7.517,4.371-10.582,13.835-6.537,21.532
					c3.88,7.382,4.205,17.141-7.276,28.312c-25.728,25.032-72.074-20.163-72.074-20.163l-34.049-92.704L2139.417,980.438z"/>
				
					<linearGradient id="SVGID_00000003815307259279536040000001429009895061457828_" gradientUnits="userSpaceOnUse" x1="-589.8508" y1="-334.2308" x2="-621.1842" y2="-280.2307" gradientTransform="matrix(1 0 0 1 3891.2104 0)">
					<stop  offset="0" style="stop-color:#09005D"/>
					<stop  offset="1" style="stop-color:#1A0F91"/>
				</linearGradient>
				<path style="fill:url(#SVGID_00000003815307259279536040000001429009895061457828_);" d="M2249.369,1449.222l1.54,12.658
					c0.292,2.401,2.183,4.3,4.586,4.575c4.058,0.463,10.57,0.939,16.941,0.265c2.797-0.296,4.612-3.128,3.76-5.807
					c-1.553-4.887-4.395-12.222-8.491-16.539h-14.042C2251.067,1444.374,2249.055,1446.645,2249.369,1449.222z"/>
				
					<linearGradient id="SVGID_00000179607903942124001850000002794024232941310088_" gradientUnits="userSpaceOnUse" x1="-1756.2623" y1="1562.4669" x2="-1717.3054" y2="1107.1569" gradientTransform="matrix(1 0 0 1 3891.2104 0)">
					<stop  offset="0" style="stop-color:#FF928E"/>
					<stop  offset="1" style="stop-color:#FEB3B1"/>
				</linearGradient>
				<path style="fill:url(#SVGID_00000179607903942124001850000002794024232941310088_);" d="M2139.388,1300.94l-2.37,13.942
					c0,0,7.937,80.394,9.349,112.551c0.221,5.042-1.083,10.024-3.729,14.321l-13.801,22.411l35.074-20.697l0.698-4.28l-5.742-7.895
					l7.521-90.06c0.442-5.291-0.65-10.596-3.145-15.283l-7.255-13.629L2139.388,1300.94z"/>
				
					<linearGradient id="SVGID_00000119112766296621124930000013083555083740089226_" gradientUnits="userSpaceOnUse" x1="-674.6383" y1="-383.4317" x2="-705.9716" y2="-329.4317" gradientTransform="matrix(1 0 0 1 3891.2104 0)">
					<stop  offset="0" style="stop-color:#09005D"/>
					<stop  offset="1" style="stop-color:#1A0F91"/>
				</linearGradient>
				<path style="fill:url(#SVGID_00000119112766296621124930000013083555083740089226_);" d="M2126.527,1467.411h11.193
					c2.095,0,4.071-0.962,5.349-2.622c3.489-4.534,10.719-13.38,14.176-13.611c4.653-0.311,4.058,16.233,4.058,16.233h2.608
					l3.304-20.558c0.831-5.172-1.741-10.296-6.386-12.72l0,0c0,0-1.064,7.867-6.832,11.347c-5.768,3.48-23.472,15.942-23.472,15.942
					s-2.168-0.309-4.549,0.121C2122.445,1462.181,2122.938,1467.411,2126.527,1467.411z"/>
				
					<linearGradient id="SVGID_00000149343825308421051090000012060486387503884468_" gradientUnits="userSpaceOnUse" x1="-1677.8979" y1="1569.2417" x2="-1638.9308" y2="1113.8118" gradientTransform="matrix(1 0 0 1 3891.2104 0)">
					<stop  offset="0" style="stop-color:#FF928E"/>
					<stop  offset="1" style="stop-color:#FEB3B1"/>
				</linearGradient>
				<path style="fill:url(#SVGID_00000149343825308421051090000012060486387503884468_);" d="M2187.429,1307.561
					c0,0,46.497,88.199,53.888,108.336c7.391,20.137,9.98,36.936,10.079,38.527c0.155,2.486,3.247,4.87,11.769,4.87
					c4.398,0,6.552-1.763,7.607-3.469c0.9-1.456,0.946-3.278,0.188-4.812c-2.689-5.443-11.225-22.838-14.386-30.728
					c-3.774-9.419-11.893-52.108-16.345-66.951c-4.452-14.842-9.485-30.943-28.874-45.773
					C2211.354,1307.561,2198.044,1294.525,2187.429,1307.561z"/>
				
					<linearGradient id="SVGID_00000142875221866233891820000000329793732101357220_" gradientUnits="userSpaceOnUse" x1="2172.2742" y1="1083.1803" x2="1968.9412" y2="1251.8467">
					<stop  offset="0" style="stop-color:#FE7062"/>
					<stop  offset="1" style="stop-color:#FF928E"/>
				</linearGradient>
				<path style="fill:url(#SVGID_00000142875221866233891820000000329793732101357220_);" d="M2158.056,1163.043
					c-11.994-50.823,18.39-79.568,18.39-79.568c-19.172-18.403-54.103-26.777-54.103-26.777s-33.332,24.369-29.377,43.442
					c2.317,11.179,23.429,66.961,23.429,66.961S2135.917,1176.34,2158.056,1163.043z"/>
				
					<linearGradient id="SVGID_00000183236668853910094670000004180275673278071183_" gradientUnits="userSpaceOnUse" x1="2062.8872" y1="1430.3533" x2="2179.5535" y2="1209.6869">
					<stop  offset="0" style="stop-color:#09005D"/>
					<stop  offset="1" style="stop-color:#1A0F91"/>
				</linearGradient>
				<path style="fill:url(#SVGID_00000183236668853910094670000004180275673278071183_);" d="M2184.648,1188.204
					c-4.881-14.705-26.592-25.161-26.592-25.161c-22.139,13.297-41.661,4.058-41.661,4.058s-4.378,16.734-1.356,32.285
					c3.022,15.551,21.979,115.495,21.979,115.495c29.871,6.052,75.812-6.089,75.812-6.089
					C2193.803,1275.011,2189.53,1202.908,2184.648,1188.204z"/>
				
					<linearGradient id="SVGID_00000036213913578729763850000010102559154144999582_" gradientUnits="userSpaceOnUse" x1="2123.4365" y1="1010.885" x2="2138.7698" y2="1094.2183">
					<stop  offset="0" style="stop-color:#FF928E"/>
					<stop  offset="1" style="stop-color:#FEB3B1"/>
				</linearGradient>
				<path style="fill:url(#SVGID_00000036213913578729763850000010102559154144999582_);" d="M2135.28,1021.823l9.751,43.801
					c0.934,3.858-2.584,3.226-6.484,2.491c-6.388-1.204-14.09,0.613-16.842-4.357c-0.28-0.506-0.951-5.376-1.03-5.949l-4.189-30.373
					c-0.333-2.41,0.97-4.748,3.194-5.734l8.084-3.585C2130.877,1016.738,2134.479,1018.513,2135.28,1021.823z"/>
				<g>
					
						<linearGradient id="SVGID_00000155146382268870959370000014076148556870578581_" gradientUnits="userSpaceOnUse" x1="2125.2021" y1="973.2236" x2="2117.8689" y2="1028.5566">
						<stop  offset="0" style="stop-color:#FF928E"/>
						<stop  offset="1" style="stop-color:#FEB3B1"/>
					</linearGradient>
					<path style="fill:url(#SVGID_00000155146382268870959370000014076148556870578581_);" d="M2108.085,986.621
						c0,0-7.976,9.672-7.204,28.099c0.772,18.427,9.538,22.54,16.556,20.065c7.018-2.475,16.706-7.721,22.037-22.672
						S2118.712,974.543,2108.085,986.621z"/>
					
						<linearGradient id="SVGID_00000100382768421790344160000012419506805090465427_" gradientUnits="userSpaceOnUse" x1="-1725.6666" y1="1285.4768" x2="-1693.7419" y2="1365.5593" gradientTransform="matrix(0.8862 -0.4633 0.4633 0.8862 3019.2725 -980.594)">
						<stop  offset="0" style="stop-color:#09005D"/>
						<stop  offset="1" style="stop-color:#1A0F91"/>
					</linearGradient>
					<path style="fill:url(#SVGID_00000100382768421790344160000012419506805090465427_);" d="M2128.406,1007.845
						c0,0-3.589-25.674-22.907-15.902l-2.865,5.515c0,0-13.31-8.317-4.75-20.083c8.56-11.766,24.553-14.103,37.606-1.109
						c13.053,12.995,19.339,22.975,15.052,34.698c-4.287,11.722-12.071,5.041-12.071,5.041s0.813-9.294-2.948-12.072
						c-3.761-2.778-5.593,3.905-5.593,3.905L2128.406,1007.845z"/>
					
						<linearGradient id="SVGID_00000133504589062280738450000003528837565049399436_" gradientUnits="userSpaceOnUse" x1="2140.0247" y1="975.188" x2="2132.6914" y2="1030.5212">
						<stop  offset="0" style="stop-color:#FF928E"/>
						<stop  offset="1" style="stop-color:#FEB3B1"/>
					</linearGradient>
					<path style="fill:url(#SVGID_00000133504589062280738450000003528837565049399436_);" d="M2131.818,1009.131
						c0,0-1.922-13.187,5.606-11.471c7.529,1.716,1.149,12.509-1.555,16.338L2131.818,1009.131z"/>
				</g>
				
					<linearGradient id="SVGID_00000071518577023219715740000013119297902476375727_" gradientUnits="userSpaceOnUse" x1="-1605.6686" y1="1149.7534" x2="-1529.0018" y2="1149.7534" gradientTransform="matrix(-1 0 0 1 1489.7772 0)">
					<stop  offset="0" style="stop-color:#FF928E"/>
					<stop  offset="1" style="stop-color:#FEB3B1"/>
				</linearGradient>
				<path style="fill:url(#SVGID_00000071518577023219715740000013119297902476375727_);" d="M2176.447,1083.475
					c0,0,27.159,111.368-69.764,132.699l-9.936-7.073c0,0,70.333-30.781,55.133-96.382
					C2151.879,1112.719,2152.426,1080.96,2176.447,1083.475z"/>
				
					<linearGradient id="SVGID_00000037677289450593902920000005201676746065895342_" gradientUnits="userSpaceOnUse" x1="-1605.6678" y1="1213.7128" x2="-1529.0012" y2="1213.7128" gradientTransform="matrix(-1 0 0 1 1489.7772 0)">
					<stop  offset="0" style="stop-color:#FF928E"/>
					<stop  offset="1" style="stop-color:#FEB3B1"/>
				</linearGradient>
				<path style="fill:url(#SVGID_00000037677289450593902920000005201676746065895342_);" d="M2106.228,1210.341
					c0,0-12.781-9.616-24.117-3.018s-12.513,14.673-9.556,15.072c2.958,0.399,10.011-5.457,17.747-3.098
					C2098.037,1221.657,2116.694,1224.507,2106.228,1210.341z"/>
			</g>
		</g>
		<g>
			
				<linearGradient id="SVGID_00000117650747593045976690000005245832718045661059_" gradientUnits="userSpaceOnUse" x1="572.7967" y1="1236.7257" x2="660.7969" y2="1087.7256">
				<stop  offset="0" style="stop-color:#09005D"/>
				<stop  offset="1" style="stop-color:#1A0F91"/>
			</linearGradient>
			<path style="fill:url(#SVGID_00000117650747593045976690000005245832718045661059_);" d="M402.854,1153.662l-27.503,22.05
				c-7.637,6.121-3.593,19.211,5.922,19.164l452.106-2.666l-122.396-73.087H499.612
				C464.757,1119.123,430.829,1131.233,402.854,1153.662z"/>
			
				<linearGradient id="SVGID_00000000904777350438901860000010771206095304866718_" gradientUnits="userSpaceOnUse" x1="746.2458" y1="1157.5125" x2="374.2082" y2="1730.5709">
				<stop  offset="0" style="stop-color:#FE7062"/>
				<stop  offset="1" style="stop-color:#FF928E"/>
			</linearGradient>
			<path style="fill:url(#SVGID_00000000904777350438901860000010771206095304866718_);" d="M1076.238,1350.321
				c-0.395-3.706-0.8-7.419-1.207-11.095c-4.182-37.726-23.435-71.59-52.738-92.666l-2.27-1.631
				c-35.294-25.384-75.84-40.999-118.055-45.464l-68.589-7.255l-452.106,2.666c-9.515,0.047-13.559-13.042-5.922-19.164
				l27.503-22.05c27.976-22.429,61.903-34.539,96.758-34.539h211.371l-1.585-0.713c-12.701-5.715-26.325-8.658-40.086-8.658H470.259
				c-12.094,0-24.12,1.955-35.677,5.799l-149.714,59.774c-7.399,2.462-14.004,7.124-19.058,13.452l-30.927,38.727
				c-6.437,8.061-9.978,18.347-9.978,28.986v63.108c0,16.703,54.75,73.772,54.75,73.772c5.963,3.276,12.561,4.984,19.253,4.984
				h672.569l71.432-5.021C1063.367,1391.894,1078.581,1372.291,1076.238,1350.321z"/>
			
				<linearGradient id="SVGID_00000113324791881705589360000004593046717667216015_" gradientUnits="userSpaceOnUse" x1="1103.0178" y1="1317.1682" x2="966.5108" y2="1467.0181">
				<stop  offset="0" style="stop-color:#E1473D"/>
				<stop  offset="1" style="stop-color:#E9605A"/>
			</linearGradient>
			<path style="fill:url(#SVGID_00000113324791881705589360000004593046717667216015_);" d="M1073.863,1378.908h-2.138
				c-4.163,0-7.537-3.641-7.537-8.132v-40.861c0-4.491,3.375-8.131,7.537-8.131l0,0c3.998,0,7.3,3.367,7.526,7.673l2.138,40.862
				C1081.633,1374.982,1078.193,1378.908,1073.863,1378.908z"/>
			<path style="opacity:0.76;fill:#FFFFFF;" d="M1047.339,1313.941h22.443c-8.353-27.322-24.923-51.151-47.489-67.381l-2.27-1.631
				c-2.339-1.682-4.704-3.314-7.088-4.911c4.582,17.243,10.231,40.887,13.95,56.756
				C1029.255,1306.88,1037.676,1313.941,1047.339,1313.941z"/>
			
				<linearGradient id="SVGID_00000054242208925989074280000007473476477336264888_" gradientUnits="userSpaceOnUse" x1="237.236" y1="1186.3765" x2="283.4226" y2="1256.1694">
				<stop  offset="0" style="stop-color:#E1473D"/>
				<stop  offset="1" style="stop-color:#E9605A"/>
			</linearGradient>
			<path style="fill:url(#SVGID_00000054242208925989074280000007473476477336264888_);" d="M284.869,1222.052v-46.728
				c-7.399,2.462-14.004,7.124-19.058,13.452l-30.927,38.727c-5.374,6.729-8.694,15.017-9.656,23.759l42.217-7.206
				C277.48,1242.345,284.869,1233.012,284.869,1222.052z"/>
			
				<linearGradient id="SVGID_00000081618936987654607570000015921898501783303809_" gradientUnits="userSpaceOnUse" x1="764.9318" y1="1223.2744" x2="682.4039" y2="1156.6731">
				<stop  offset="0" style="stop-color:#E1473D"/>
				<stop  offset="1" style="stop-color:#E9605A"/>
			</linearGradient>
			<path style="fill:url(#SVGID_00000081618936987654607570000015921898501783303809_);" d="M759.091,1190.154l-15.896-16.663
				c-6.624-6.943-14.961-11.683-24.014-13.653l-31.44-6.84c-8.628-1.877-16.886,4.648-17.83,14.089l-0.222,2.218
				c-0.962,9.616,6.078,17.979,15.043,17.869l40.504-0.497c5.649-0.069,10.782,3.533,13.013,9.132l0.746,1.873
				c0.99,2.485,3.257,4.096,5.764,4.096h9.96C760.352,1201.778,763.131,1194.39,759.091,1190.154z"/>
			
				<linearGradient id="SVGID_00000102521173485175759020000012260807574269070981_" gradientUnits="userSpaceOnUse" x1="652.6685" y1="1182.125" x2="572.6686" y2="1354.1246">
				<stop  offset="0" style="stop-color:#E1473D"/>
				<stop  offset="1" style="stop-color:#E9605A"/>
			</linearGradient>
			<path style="fill:url(#SVGID_00000102521173485175759020000012260807574269070981_);" d="M596.224,1220.339h69.324
				c5.408,0,9.219,5.797,7.344,11.269c-3.172,9.258-10.727,21.065-28.684,22.445c-16.149,1.24-36.505-8.625-51.859-17.998
				C585.39,1231.805,588.226,1220.339,596.224,1220.339z"/>
			
				<linearGradient id="SVGID_00000001623017396240488080000013442373856474198656_" gradientUnits="userSpaceOnUse" x1="300.5902" y1="1381.6989" x2="483.6201" y2="1381.6989">
				<stop  offset="0" style="stop-color:#09005D"/>
				<stop  offset="1" style="stop-color:#1A0F91"/>
			</linearGradient>
			<circle style="fill:url(#SVGID_00000001623017396240488080000013442373856474198656_);" cx="392.105" cy="1381.699" r="91.515"/>
			
				<linearGradient id="SVGID_00000039109402226144980890000003293286378247890585_" gradientUnits="userSpaceOnUse" x1="465.3452" y1="1261.6979" x2="262.496" y2="1594.0586">
				<stop  offset="0" style="stop-color:#E1473D"/>
				<stop  offset="1" style="stop-color:#E9605A"/>
			</linearGradient>
			<circle style="fill:url(#SVGID_00000039109402226144980890000003293286378247890585_);" cx="392.105" cy="1381.699" r="74.32"/>
			
				<linearGradient id="SVGID_00000030475574983315623300000004414815751576544947_" gradientUnits="userSpaceOnUse" x1="840.3381" y1="1381.6989" x2="1023.3681" y2="1381.6989">
				<stop  offset="0" style="stop-color:#09005D"/>
				<stop  offset="1" style="stop-color:#1A0F91"/>
			</linearGradient>
			<circle style="fill:url(#SVGID_00000030475574983315623300000004414815751576544947_);" cx="931.853" cy="1381.699" r="91.515"/>
			
				<linearGradient id="SVGID_00000173122816777195780990000010511794500635648398_" gradientUnits="userSpaceOnUse" x1="1011.3849" y1="1245.8828" x2="808.5355" y2="1592.2876">
				<stop  offset="0" style="stop-color:#E1473D"/>
				<stop  offset="1" style="stop-color:#E9605A"/>
			</linearGradient>
			<circle style="fill:url(#SVGID_00000173122816777195780990000010511794500635648398_);" cx="931.853" cy="1381.699" r="74.32"/>
			
				<linearGradient id="SVGID_00000011717964312340533850000011633312887344713147_" gradientUnits="userSpaceOnUse" x1="1312.244" y1="734.7822" x2="1171.23" y2="977.8066">
				<stop  offset="0" style="stop-color:#FF928E"/>
				<stop  offset="1" style="stop-color:#FEB3B1"/>
			</linearGradient>
			<path style="fill:url(#SVGID_00000011717964312340533850000011633312887344713147_);" d="M992.483,1409.175
				c-0.242,0-0.488-0.047-0.725-0.147c-0.948-0.4-1.392-1.494-0.99-2.443c3.334-7.88,5.024-16.251,5.024-24.885
				c0-35.257-28.682-63.939-63.938-63.939c-10.936,0-21.729,2.809-31.21,8.122c-0.895,0.506-2.032,0.186-2.538-0.714
				c-0.503-0.899-0.183-2.035,0.715-2.537c10.037-5.626,21.459-8.599,33.033-8.599c37.311,0,67.666,30.355,67.666,67.667
				c0,9.134-1.789,17.997-5.319,26.338C993.9,1408.749,993.209,1409.175,992.483,1409.175z"/>
			
				<linearGradient id="SVGID_00000172432364484227552590000009253939933695787666_" gradientUnits="userSpaceOnUse" x1="909.7906" y1="501.262" x2="768.7766" y2="744.2864">
				<stop  offset="0" style="stop-color:#FF928E"/>
				<stop  offset="1" style="stop-color:#FEB3B1"/>
			</linearGradient>
			<path style="fill:url(#SVGID_00000172432364484227552590000009253939933695787666_);" d="M454.53,1409.175
				c-0.242,0-0.488-0.047-0.725-0.147c-0.948-0.4-1.392-1.494-0.99-2.443c3.334-7.88,5.024-16.251,5.024-24.885
				c0-35.257-28.682-63.939-63.938-63.939c-10.935,0-21.728,2.809-31.211,8.122c-0.897,0.506-2.033,0.186-2.537-0.714
				c-0.503-0.899-0.183-2.035,0.715-2.537c10.038-5.626,21.46-8.599,33.033-8.599c37.311,0,67.666,30.355,67.666,67.667
				c0,9.134-1.789,17.997-5.319,26.338C455.947,1408.749,455.256,1409.175,454.53,1409.175z"/>
			<path style="opacity:0.37;fill:#FFFFFF;" d="M502.839,1354.07c-0.877,0-1.659-0.623-1.829-1.516
				c-8.083-42.498-32.292-69.551-71.954-80.405c-29.765-8.142-57.556-3.617-57.832-3.569c-1.014,0.166-1.976-0.515-2.148-1.529
				c-0.171-1.014,0.512-1.975,1.527-2.148c1.16-0.193,28.776-4.707,59.317,3.619c28.34,7.727,64.313,28.456,74.751,83.338
				c0.192,1.01-0.471,1.986-1.483,2.179C503.071,1354.059,502.955,1354.07,502.839,1354.07z"/>
			<path style="opacity:0.38;fill:#FFFFFF;" d="M820.078,1368.015c-1.003,0-1.83-0.797-1.862-1.806
				c-1.061-33.897,8.035-60.462,27.034-78.956c31.343-30.511,79.41-28.08,79.892-28.054c1.028,0.06,1.812,0.941,1.752,1.968
				c-0.059,1.029-0.947,1.789-1.968,1.753c-0.467-0.029-46.951-2.343-77.098,27.024c-18.204,17.733-26.913,43.354-25.886,76.15
				c0.032,1.028-0.775,1.889-1.805,1.92C820.117,1368.015,820.097,1368.015,820.078,1368.015z"/>
			<path style="fill:#91B3FA;" d="M384.161,1185.288c-0.648,0-1.279-0.339-1.622-0.943c-0.509-0.894-0.197-2.031,0.698-2.541
				l61.298-34.876c17.522-9.972,37.439-15.432,57.599-15.795l70.314-1.263c1.008,0.009,1.879,0.799,1.898,1.831
				c0.018,1.028-0.801,1.878-1.83,1.897l-70.314,1.263c-19.538,0.349-38.841,5.643-55.822,15.307l-61.298,34.876
				C384.79,1185.21,384.473,1185.288,384.161,1185.288z"/>
		</g>
	</g>
</g>
</svg>
