<!-- Generator: Adobe Illustrator 25.2.3, SVG Export Plug-In  -->
<svg version="1.1" xmlns="http://www.w3.org/2000/svg" xmlns:xlink="http://www.w3.org/1999/xlink" x="0px" y="0px"
	 width="240.06px" height="80.79px" viewBox="0 0 240.06 80.79" style="overflow:visible;enable-background:new 0 0 240.06 80.79;"
	 xml:space="preserve">
<style type="text/css">
	.st0{clip-path:url(#SVGID_2_);fill:#FFFFFF;}
	.st1{clip-path:url(#SVGID_4_);fill:#FFFFFF;}
	.st2{clip-path:url(#SVGID_6_);fill:#FFFFFF;}
	.st3{clip-path:url(#SVGID_8_);fill:#FFFFFF;}
	.st4{clip-path:url(#SVGID_10_);fill:none;stroke:#FFFFFF;stroke-width:1.1759;stroke-miterlimit:5.8796;}
	.st5{clip-path:url(#SVGID_12_);fill:#FFFFFF;}
	.st6{clip-path:url(#SVGID_14_);fill:#FFFFFF;}
	.st7{clip-path:url(#SVGID_16_);fill:#FFFFFF;}
	.st8{clip-path:url(#SVGID_18_);fill:#FFFFFF;}
	.st9{clip-path:url(#SVGID_20_);fill:#FFFFFF;}
	.st10{clip-path:url(#SVGID_22_);fill:#FFFFFF;}
	.st11{clip-path:url(#SVGID_24_);fill:#FFFFFF;}
	.st12{clip-path:url(#SVGID_26_);fill:none;stroke:#FFFFFF;stroke-width:1.1759;stroke-miterlimit:5.8796;}
	.st13{clip-path:url(#SVGID_28_);fill:#FFFFFF;}
	.st14{clip-path:url(#SVGID_30_);fill:#FFFFFF;}
	.st15{clip-path:url(#SVGID_32_);fill:#FFFFFF;}
</style>
<defs>
</defs>
<g>
	<g>
		<defs>
			<rect id="SVGID_1_" width="240" height="80.79"/>
		</defs>
		<clipPath id="SVGID_2_">
			<use xlink:href="#SVGID_1_"  style="overflow:visible;"/>
		</clipPath>
		<path class="st0" d="M109.13,17.7v13.82h6.11l5.41-13.82h4.29l5.82,15.87h-4.12l-1.29-4.06h-6.41l-1.59,4.06h-12.11V17.7H109.13z
			 M159.45,31.51c3.29,0,4.64-2.76,4.64-6.29c0-3.35-2.06-5.41-4.53-5.41h-2.59v11.7H159.45z M168.16,25.16c0,5.82-4,8.41-8.7,8.41
			h-6.35V17.7h6.53C165.86,17.7,168.16,21.4,168.16,25.16 M145.28,33.63l-8.11-10.29v10.29h-3.88V17.76h3.82l7.88,10.11V17.7h3.88
			v15.87h-3.59V33.63z M122.41,20.05l-2.94,7.88H125L122.41,20.05z"/>
	</g>
	<g>
		<defs>
			<rect id="SVGID_3_" width="240" height="80.79"/>
		</defs>
		<clipPath id="SVGID_4_">
			<use xlink:href="#SVGID_3_"  style="overflow:visible;"/>
		</clipPath>
		<path class="st1" d="M94.01,19.87c-2.82,0-3.82,2.59-3.82,5.59c0,3.17,0.88,6,3.82,6c2.94,0,3.82-2.82,3.82-6
			C97.78,22.46,96.84,19.87,94.01,19.87 M94.01,17.4c4.82,0,8.35,3.59,8.35,8.06c0,4.82-3.17,8.41-8.35,8.41s-8.35-3.65-8.35-8.41
			C85.67,21.05,89.13,17.4,94.01,17.4"/>
	</g>
	<g>
		<defs>
			<rect id="SVGID_5_" width="240" height="80.79"/>
		</defs>
		<clipPath id="SVGID_6_">
			<use xlink:href="#SVGID_5_"  style="overflow:visible;"/>
		</clipPath>
		<path class="st2" d="M83.25,22.17c0,2.06-1.12,3.29-2.47,4l-0.47,0.24l3.53,7.06l-4.12,0.41l-2.59-6.7H73.2v6.41h-3.88V17.7h8.82
			C81.9,17.7,83.25,19.93,83.25,22.17 M76.9,25.05c1.71,0,2.47-1.53,2.47-2.65c0-1.82-1.29-2.65-2.59-2.65H73.2v5.29H76.9z"/>
	</g>
	<g>
		<defs>
			<rect id="SVGID_7_" width="240" height="80.79"/>
		</defs>
		<clipPath id="SVGID_8_">
			<use xlink:href="#SVGID_7_"  style="overflow:visible;"/>
		</clipPath>
		<path class="st3" d="M59.03,0.59h-0.29H0.94H0.59v0.29v49.68c0,4,0.76,7.88,2.29,11.52c1.47,3.53,3.59,6.7,6.23,9.41
			c2.7,2.7,5.82,4.88,9.29,6.35c3.59,1.53,7.41,2.35,11.35,2.35s7.76-0.76,11.35-2.35c3.47-1.47,6.59-3.65,9.29-6.35
			c2.7-2.7,4.76-5.88,6.23-9.41c1.53-3.65,2.29-7.53,2.29-11.52V0.88V0.59H59.03z M58.68,0.88v49.68
			c0,16.17-12.94,29.28-28.87,29.28S0.94,66.73,0.94,50.56V0.88L58.68,0.88z"/>
	</g>
	<g>
		<defs>
			<rect id="SVGID_9_" width="240" height="80.79"/>
		</defs>
		<clipPath id="SVGID_10_">
			<use xlink:href="#SVGID_9_"  style="overflow:visible;"/>
		</clipPath>
		<path class="st4" d="M59.03,0.59h-0.29H0.94H0.59v0.29v49.68c0,4,0.76,7.88,2.29,11.52c1.47,3.53,3.59,6.7,6.23,9.41
			c2.7,2.7,5.82,4.88,9.29,6.35c3.59,1.53,7.41,2.35,11.35,2.35s7.76-0.76,11.35-2.35c3.47-1.47,6.59-3.65,9.29-6.35
			c2.7-2.7,4.76-5.88,6.23-9.41c1.53-3.65,2.29-7.53,2.29-11.52V0.88V0.59H59.03z M58.68,0.88v49.68
			c0,16.17-12.94,29.28-28.87,29.28S0.94,66.73,0.94,50.56V0.88L58.68,0.88z"/>
	</g>
	<g>
		<defs>
			<rect id="SVGID_11_" width="240" height="80.79"/>
		</defs>
		<clipPath id="SVGID_12_">
			<use xlink:href="#SVGID_11_"  style="overflow:visible;"/>
		</clipPath>
		<path class="st5" d="M17.76,6.53l0.94,19.81c1.23-4.17,3-8.82,3.7-10.23c0.88-1.88,3-4,6.41-4h5.59c2.94,0,4.12,0.94,5.7,3.76
			c1.76,3.12,4.94,15.64,5.23,17.11c0.53,2.35-0.71,5-3.17,5.76c-1.35,0.41-4.29,1.29-4.29,1.29v3.12c2.41,0.29,4.06,1.23,4.12,4.06
			l10.88-6.47V6.47h-35.1V6.53z"/>
	</g>
	<g>
		<defs>
			<rect id="SVGID_13_" width="240" height="80.79"/>
		</defs>
		<clipPath id="SVGID_14_">
			<use xlink:href="#SVGID_13_"  style="overflow:visible;"/>
		</clipPath>
		<path class="st6" d="M26.75,26.63c0-0.24,0-0.82,0-0.82c-0.18,0.12-0.65,0.65-0.71,0.76c-0.12-0.12-0.29-0.35-0.47-0.41
			c0.29-0.29,0.59-0.82,0.71-0.94c0.06-0.06,0.12-0.24,0-0.24c-0.12,0-0.65,0-0.88,0c0-0.29,0-0.76,0-1
			c0.47,0.06,2.06,0.06,2.76,0.12c0.47,0,0.82,0.12,1,0.24c0.18,0.18,0.82,0.65,0.82,0.71c0,0.06,0.06,0.18,0.06,0.29
			c-0.06,0.47-0.35,1.47-0.35,1.59c-0.06,0.12-0.12,0.12-0.18,0.18c-0.18,0.06-1.18,0.24-1.82,0.24
			C27.22,27.22,26.75,26.93,26.75,26.63 M42.45,54.5l-3.29-5.76l-8.76,5.17v-4.29l1.41,0.06c0.35,0,0.59-0.29,0.59-0.59v-4.53
			c0-0.65-0.53-1.12-1.12-1.12h-1.53V41.8h1.53c0.59,0,1.12-0.53,1.12-1.12v-2.53h-2.18l-0.47-0.82h1.82v-1.47h-3.94l0.35-0.47h3.06
			c0.29,0,0.41-0.24,0.41-0.41v-1.18c0-0.35-0.35-0.76-0.76-0.76h-0.94v-0.47h2.59c0.24,0,0.41-0.12,0.41-0.41
			c0-0.24-0.29-6.64-0.29-6.76s0-0.12,0.06-0.18c0.06-0.06,0.71-0.71,0.94-0.88c0.18-0.18,0.65-0.41,1-0.47
			c0.35-0.06,1.53-0.24,1.82-0.24c0,0-0.47-4.88-0.59-5.82c-0.18-1.18-1.41-2.65-2.82-2.65h-4.17c-1.76,0-2.65,1.35-3.23,2.59
			c-1.12,2.35-1.53,4.7-1.35,6.47c0,0.18-0.24,1.71-0.41,2.23c-0.41,1.59-0.65,3.23-0.65,4.94c0,3,0.71,5.82,1.88,8.29
			c-0.47,0.12-1,0.18-1.53,0.18c-1.71,0-3.23-0.71-4.29-1.88l0.76,16.46h5.88v3h-8.64v-3h-2.76L14.29,6.59H6.88v44.45
			c0,7.64,3.65,14.4,9.23,18.64l0.71-0.41c0.18-0.12,0.24-0.29,0.24-0.53v-1.12c0-0.41-0.29-0.76-0.71-0.76l-0.24-0.47l0.71-0.41
			c0.24-0.18,0.29-0.41,0.29-0.71v-1.29c0-0.71-0.24-0.76-0.59-0.76l-0.35-0.65l0.59-0.35c0.12-0.06,0.35-0.24,0.35-0.53v-2.12
			l4.06,2.47c0.24,0.18,0.82,0.71,0.82,1.12v0.88c0,0.47-0.35,0.82-0.59,0.94l-0.47,0.29l0.82,0.35c0.24,0.18,0.71,0.53,0.71,1.23
			v0.88c0,0.35-0.29,0.71-0.47,0.82l-0.47,0.24l0.12,0.06c0.18,0.12,0.35,0.53,0.35,0.76v1.18c0,0.41-0.24,0.88-0.53,1.06
			l-0.47,0.29l0.06,0.29c2.65,1.12,5.59,1.71,8.64,1.71h0.59V62.32l6.17,10.82c8.82-2.76,15.35-10.82,16.05-20.52l-1.76-3.12
			L42.45,54.5z"/>
	</g>
	<g>
		<defs>
			<rect id="SVGID_15_" width="240" height="80.79"/>
		</defs>
		<clipPath id="SVGID_16_">
			<use xlink:href="#SVGID_15_"  style="overflow:visible;"/>
		</clipPath>
		<path class="st7" d="M231.01,57.21l8.82-12.64v-0.94h-10.29v1.12h8.82l-8.82,12.64v0.94h10.52v-1.12H231.01z M220.9,58.33h1.29
			V44.74h5.23v-1.12H215.6v1.12h5.29V58.33z M206.84,58.5c1.88,0,3.29-0.47,4.23-1.47s1.47-2.41,1.47-4.35v-9.05h-1.29v9.17
			c0,1.53-0.35,2.65-1.12,3.41c-0.76,0.76-1.82,1.18-3.29,1.18c-2.94,0-4.41-1.53-4.41-4.53v-9.23h-1.35v9
			c0,1.94,0.47,3.35,1.47,4.35C203.49,57.97,204.96,58.5,206.84,58.5 M195.08,43.63v6.64h-9.41v-6.64h-1.29v14.7h1.29v-6.88h9.41
			v6.88h1.29v-14.7H195.08z M175.39,58.5c1,0,1.94-0.18,2.82-0.47c0.82-0.29,1.59-0.82,2.23-1.41l-0.53-1
			c-0.71,0.65-1.41,1.12-2.12,1.35c-0.71,0.29-1.47,0.41-2.35,0.41c-1.71,0-3.06-0.53-3.94-1.65c-0.94-1.12-1.41-2.7-1.41-4.7
			c0-2,0.47-3.59,1.41-4.7s2.23-1.65,3.94-1.65c0.88,0,1.65,0.12,2.35,0.41c0.71,0.29,1.41,0.76,2.12,1.35l0.53-1
			c-0.65-0.65-1.35-1.12-2.23-1.41c-0.82-0.29-1.76-0.47-2.82-0.47c-1.35,0-2.53,0.29-3.53,0.88c-1,0.59-1.76,1.47-2.29,2.59
			s-0.82,2.47-0.82,4s0.29,2.88,0.82,4c0.53,1.12,1.29,2,2.29,2.59S174.04,58.5,175.39,58.5 M160.16,58.5
			c1.06,0,1.94-0.18,2.76-0.53c0.76-0.35,1.41-0.82,1.82-1.41s0.65-1.29,0.65-2.12s-0.24-1.47-0.71-2c-0.47-0.47-1-0.88-1.65-1.12
			c-0.65-0.24-1.53-0.47-2.65-0.76l-0.53-0.12c-1.18-0.29-2.06-0.59-2.65-1c-0.59-0.41-0.88-1-0.88-1.82c0-0.94,0.35-1.71,1.06-2.23
			c0.71-0.53,1.65-0.76,2.88-0.76c0.88,0,1.65,0.12,2.35,0.41c0.71,0.29,1.41,0.76,2.12,1.35l0.53-1c-0.65-0.65-1.35-1.12-2.23-1.41
			c-0.88-0.35-1.76-0.47-2.76-0.47c-1.06,0-2,0.18-2.76,0.53c-0.76,0.35-1.41,0.82-1.82,1.47c-0.41,0.65-0.65,1.35-0.65,2.18
			c0,0.88,0.24,1.65,0.71,2.18c0.47,0.53,1.06,0.94,1.76,1.18s1.65,0.53,2.76,0.76c0.88,0.18,1.53,0.41,2.06,0.59
			c0.53,0.18,0.94,0.47,1.29,0.76c0.35,0.35,0.53,0.76,0.53,1.35c0,0.94-0.35,1.65-1.06,2.12c-0.71,0.53-1.65,0.76-2.88,0.76
			c-1.06,0-1.94-0.12-2.7-0.41c-0.76-0.29-1.47-0.71-2.23-1.41l-0.53,1c0.71,0.65,1.47,1.12,2.35,1.47
			C157.98,58.33,159.04,58.5,160.16,58.5 M146.46,58.5c1.06,0,1.94-0.18,2.76-0.53c0.76-0.35,1.41-0.82,1.82-1.41
			s0.65-1.29,0.65-2.12s-0.24-1.47-0.71-2c-0.47-0.47-1-0.88-1.65-1.12c-0.65-0.24-1.53-0.47-2.65-0.76l-0.53-0.12
			c-1.18-0.29-2.06-0.59-2.65-1c-0.59-0.41-0.88-1-0.88-1.82c0-0.94,0.35-1.71,1.06-2.23s1.65-0.76,2.88-0.76
			c0.88,0,1.65,0.12,2.35,0.41c0.71,0.29,1.41,0.76,2.12,1.35l0.53-1c-0.65-0.65-1.35-1.12-2.23-1.41
			c-0.88-0.35-1.76-0.47-2.76-0.47c-1.06,0-2,0.18-2.76,0.53c-0.76,0.35-1.41,0.82-1.82,1.47c-0.41,0.65-0.65,1.35-0.65,2.18
			c0,0.88,0.24,1.65,0.71,2.18c0.47,0.53,1.06,0.94,1.76,1.18c0.71,0.24,1.65,0.53,2.76,0.76c0.88,0.18,1.53,0.41,2.06,0.59
			c0.53,0.18,0.94,0.47,1.29,0.76c0.35,0.35,0.53,0.76,0.53,1.35c0,0.94-0.35,1.65-1.06,2.12c-0.71,0.53-1.65,0.76-2.88,0.76
			c-1.06,0-1.94-0.12-2.7-0.41c-0.76-0.29-1.47-0.71-2.23-1.41l-0.53,1c0.71,0.65,1.47,1.12,2.35,1.47
			C144.29,58.33,145.34,58.5,146.46,58.5 M132.7,58.33H134V44.74h5.23v-1.12h-11.82v1.12h5.29C132.7,44.74,132.7,58.33,132.7,58.33z
			 M123,43.63v6.64h-9.41v-6.64h-1.29v14.7h1.29v-6.88H123v6.88h1.29v-14.7H123z M103.3,58.5c1,0,1.94-0.18,2.82-0.47
			c0.82-0.29,1.59-0.82,2.23-1.41l-0.53-1c-0.71,0.65-1.41,1.12-2.12,1.35c-0.71,0.29-1.47,0.41-2.35,0.41
			c-1.71,0-3.06-0.53-3.94-1.65c-0.94-1.12-1.41-2.7-1.41-4.7c0-2,0.47-3.59,1.41-4.7c0.94-1.12,2.23-1.65,3.94-1.65
			c0.88,0,1.65,0.12,2.35,0.41c0.71,0.29,1.41,0.76,2.12,1.35l0.53-1c-0.65-0.65-1.35-1.12-2.23-1.41
			c-0.82-0.29-1.76-0.47-2.82-0.47c-1.35,0-2.53,0.29-3.53,0.88c-1,0.59-1.76,1.47-2.29,2.59s-0.82,2.47-0.82,4s0.29,2.88,0.82,4
			c0.53,1.12,1.29,2,2.29,2.59S101.95,58.5,103.3,58.5 M84.2,58.33h9.05v-1.12h-7.82v-5.82h7.35v-1.12h-7.35v-5.59h7.82v-1.12H84.2
			V58.33z M70.2,50.86v-6.11h4.53c1.23,0,2.12,0.24,2.7,0.76c0.59,0.47,0.88,1.23,0.88,2.23c0,2.06-1.23,3.12-3.65,3.12
			C74.67,50.86,70.2,50.86,70.2,50.86z M77.55,53.39c-0.24-0.47-0.47-0.82-0.76-1.06c-0.29-0.29-0.59-0.47-0.94-0.59
			c1.23-0.18,2.18-0.59,2.82-1.23c0.65-0.71,1-1.59,1-2.76c0-1.35-0.41-2.35-1.23-3.06s-2-1.06-3.59-1.06h-5.88v14.7h1.29v-6.41
			h3.06c0.76,0,1.41,0.12,1.82,0.35c0.47,0.24,0.82,0.65,1.18,1.29l2.47,4.7h1.41L77.55,53.39z"/>
	</g>
</g>
</svg>
