<?xml version="1.0" encoding="UTF-8"?>
<svg version="1.1" xmlns="http://www.w3.org/2000/svg" width="1682" height="338">
<path d="M0 0 C15.61349968 2.10519097 30.71808376 17.38213485 40 29 C56.01108207 51.47932719 62.22756286 77.94012961 58.3515625 105.28515625 C52.14951983 141.61949755 30.18848303 175.63657263 2 199 C1.12988281 199.75796875 0.25976562 200.5159375 -0.63671875 201.296875 C-33.24902756 229.33736481 -71.87563182 244.39649529 -115 242 C-130.52682327 240.39615561 -145.61219713 232.4644675 -157 222 C-157.70511719 221.36320313 -158.41023438 220.72640625 -159.13671875 220.0703125 C-177.69138939 202.46988206 -187.46755202 175.93131114 -188.1796875 150.6796875 C-188.18622038 147.44591191 -188.14228053 144.23029492 -188 141 C-186.68 140.67 -185.36 140.34 -184 140 C-183.62230469 140.72703125 -183.24460937 141.4540625 -182.85546875 142.203125 C-172.92002713 160.35217526 -157.04481099 174.09065074 -137.0546875 180.2890625 C-107.7454695 188.64873636 -79.22368851 182.53719888 -53 168 C-45.45772089 163.64941583 -38.65309132 158.60374196 -32 153 C-31.23816406 152.37351563 -30.47632813 151.74703125 -29.69140625 151.1015625 C-23.67454179 145.99192024 -18.80747676 140.24369969 -14 134 C-13.33097656 133.14664063 -12.66195313 132.29328125 -11.97265625 131.4140625 C8.21699672 104.78770828 17.50403619 72.70778517 13.70263672 39.39404297 C11.92341098 27.94042692 7.49370149 16.08346567 1.28515625 6.296875 C0 4 0 4 0 0 Z " fill="#EE731E" transform="translate(1604,96)"/>
<path d="M0 0 C2.46706764 2.17571149 4.85854884 4.40895269 7.234375 6.68359375 C7.98074219 7.36679687 8.72710938 8.05 9.49609375 8.75390625 C30.91362877 29.01272646 44.86857097 61.29696506 46.33451843 90.69163513 C46.38112299 92.75593156 46.39908627 94.81799613 46.40234375 96.8828125 C46.40567215 97.63971878 46.40900055 98.39662506 46.41242981 99.1764679 C46.41745889 100.76892496 46.41983939 102.36139242 46.41967773 103.95385742 C46.42185371 106.34767734 46.44002359 108.74102754 46.45898438 111.13476562 C46.49103098 120.19902431 45.98229305 128.75980364 44.234375 137.68359375 C42.914375 138.01359375 41.594375 138.34359375 40.234375 138.68359375 C40.00886963 137.74845947 40.00886963 137.74845947 39.77880859 136.79443359 C33.90247655 112.68947972 25.91279983 93.36201858 8.234375 75.68359375 C7.49445313 74.94367188 6.75453125 74.20375 5.9921875 73.44140625 C-14.72847755 53.93513915 -44.12630712 45.81091176 -72.015625 46.4296875 C-104.92991402 47.79425907 -140.82815279 60.92889367 -166.03125 82.46875 C-167.765625 83.68359375 -167.765625 83.68359375 -170.765625 83.68359375 C-170.77593246 83.00929825 -170.78623993 82.33500275 -170.79685974 81.64027405 C-170.90468269 74.64915793 -171.01929943 67.65817708 -171.13793945 60.66723633 C-171.18136624 58.05496031 -171.22303538 55.44265447 -171.26293945 52.83032227 C-171.32045507 49.08470656 -171.38420264 45.33924206 -171.44921875 41.59375 C-171.46593124 40.4177272 -171.48264374 39.24170441 -171.49986267 38.03004456 C-171.5297805 36.40847694 -171.5297805 36.40847694 -171.56030273 34.75415039 C-171.58361916 33.31852501 -171.58361916 33.31852501 -171.60740662 31.85389709 C-171.5263111 29.70496681 -171.5263111 29.70496681 -172.765625 28.68359375 C-174.29945179 28.56105825 -175.83873019 28.50581437 -177.37719727 28.47827148 C-178.35813858 28.45832626 -179.3390799 28.43838104 -180.3497467 28.41783142 C-181.94972755 28.39276268 -181.94972755 28.39276268 -183.58203125 28.3671875 C-185.21131813 28.33601585 -185.21131813 28.33601585 -186.8735199 28.30421448 C-190.35832127 28.23859933 -193.84320068 28.17977864 -197.328125 28.12109375 C-199.68425301 28.0779199 -202.04037299 28.03430599 -204.39648438 27.99023438 C-210.18611437 27.88290583 -215.97582275 27.7811621 -221.765625 27.68359375 C-221.765625 23.68359375 -221.765625 23.68359375 -219.95703125 21.52734375 C-189.86812037 -5.29783683 -152.65833149 -23.33806877 -112.765625 -29.31640625 C-111.54488281 -29.50847656 -110.32414062 -29.70054688 -109.06640625 -29.8984375 C-70.27377496 -34.49318988 -30.17551107 -25.27412156 0 0 Z " fill="#EE731E" transform="translate(1635.765625,30.31640625)"/>
<path d="M0 0 C11.4314474 -0.0232293 22.86288914 -0.0409689 34.29435539 -0.05181217 C39.60314649 -0.0570179 44.91192136 -0.06407337 50.22070312 -0.07543945 C55.34948001 -0.08635071 60.47824136 -0.09229423 65.60702896 -0.09487724 C67.55810923 -0.09671669 69.5091887 -0.10030855 71.4602623 -0.10573006 C74.20513459 -0.11304999 76.94994365 -0.11398636 79.69482422 -0.11352539 C80.88921867 -0.1189183 80.88921867 -0.1189183 82.10774231 -0.12442017 C87.85798274 -0.11405486 93.20766795 0.4207668 99 1 C99 36.97 99 72.94 99 110 C94.84712369 108.96178092 94.01423198 108.37937381 91.1875 105.4375 C90.14916016 104.35855469 90.14916016 104.35855469 89.08984375 103.2578125 C85.1188646 98.96767054 81.25745973 94.63129911 77.6875 90 C77.130625 89.34 76.57375 88.68 76 88 C75.34 88 74.68 88 74 88 C54.02451063 122.58522228 45.10335812 163.58899136 55.36572266 202.76416016 C62.70026436 228.61856082 77.1693656 246.95169862 99 262 C98.67 263.32 98.34 264.64 98 266 C68.61396649 263.2796929 40.55791766 243.95253746 21.75 222.125 C5.78621977 202.25952908 -3.11647963 178.9804824 -7 154 C-7.2784375 152.24236328 -7.2784375 152.24236328 -7.5625 150.44921875 C-9.75578376 132.08157721 -8.7987221 112.05347016 -5 94 C-4.81195801 93.10474609 -4.62391602 92.20949219 -4.43017578 91.28710938 C-0.12241835 71.61604521 6.62443052 51.88136045 17.39575195 34.76782227 C19.47210069 31.61889093 19.47210069 31.61889093 19.74755859 27.99414062 C18.49329581 24.64834754 15.87953791 22.34181959 13.4375 19.8125 C12.34870112 18.6538875 11.26016052 17.49503222 10.171875 16.3359375 C8.25292498 14.31217089 6.32472299 12.29843975 4.390625 10.2890625 C3.66359375 9.51304688 2.9365625 8.73703125 2.1875 7.9375 C1.21876953 6.93009766 1.21876953 6.93009766 0.23046875 5.90234375 C-1 4 -1 4 -0.5769043 1.88110352 C-0.38652588 1.26033936 -0.19614746 0.6395752 0 0 Z " fill="#EE731E" transform="translate(1352,71)"/>
<path d="M0 0 C2.5037159 2.08562898 4.76200775 4.36286447 7.03515625 6.6953125 C7.87175781 6.17582031 8.70835937 5.65632813 9.5703125 5.12109375 C25.52878186 -4.53322417 42.91126965 -10.2927136 61.66015625 -5.99609375 C71.71805718 -3.06805351 79.03462298 1.52737251 84.7734375 10.31640625 C87.6299654 15.70224368 88.32261103 20.60413408 88.26220703 26.62841797 C88.26249908 27.3998262 88.26279114 28.17123444 88.26309204 28.96601868 C88.26170636 31.4982963 88.24618137 34.03027422 88.23046875 36.5625 C88.22673591 38.32512247 88.22389021 40.08774702 88.22189331 41.85037231 C88.21427823 46.47653999 88.19464807 51.10258093 88.17248535 55.72869873 C88.15198106 60.45453172 88.14288181 65.1803853 88.1328125 69.90625 C88.11140009 79.16933531 88.07623534 88.43229351 88.03515625 97.6953125 C78.79515625 97.6953125 69.55515625 97.6953125 60.03515625 97.6953125 C60.01328247 94.51624268 60.01328247 94.51624268 59.9909668 91.27294922 C59.94056437 84.25996499 59.87395938 77.24720149 59.79944134 70.23443413 C59.75476904 65.98378277 59.71550612 61.73322656 59.6887207 57.48242188 C59.6626562 53.37791598 59.62223186 49.27377684 59.57196999 45.16949844 C59.55532248 43.60591326 59.54379503 42.04226467 59.53754234 40.47860336 C59.52787787 38.28336147 59.49979269 36.08905338 59.4675293 33.89404297 C59.45642624 32.64605927 59.44532318 31.39807556 59.43388367 30.11227417 C58.89366845 25.48280901 57.51495559 22.03638065 54.03515625 18.8828125 C48.67108795 15.69789694 42.95018503 16.09706476 37.046875 17.30859375 C28.98106121 19.5441734 18.99939297 22.40878462 13.03515625 28.6953125 C11.05960581 33.98558523 11.25339449 39.0250884 11.44921875 44.5703125 C11.45289812 46.10587314 11.45038867 47.6414599 11.44198608 49.17700195 C11.43645697 53.19720328 11.51433827 57.21151885 11.61029053 61.23040771 C11.69341992 65.3395637 11.69675928 69.44872411 11.70703125 73.55859375 C11.73879967 81.6066436 11.86615275 89.64897353 12.03515625 97.6953125 C2.79515625 97.6953125 -6.44484375 97.6953125 -15.96484375 97.6953125 C-15.97942627 95.57593262 -15.99400879 93.45655273 -16.0090332 91.27294922 C-16.05943563 84.25996499 -16.12604062 77.24720149 -16.20055866 70.23443413 C-16.24523096 65.98378277 -16.28449388 61.73322656 -16.3112793 57.48242188 C-16.3373438 53.37791598 -16.37776814 49.27377684 -16.42803001 45.16949844 C-16.44467752 43.60591326 -16.45620497 42.04226467 -16.46245766 40.47860336 C-16.47212213 38.28336147 -16.50020731 36.08905338 -16.5324707 33.89404297 C-16.54357376 32.64605927 -16.55467682 31.39807556 -16.56611633 30.11227417 C-17.10633155 25.48280901 -18.48504441 22.03638065 -21.96484375 18.8828125 C-27.25752505 15.74028298 -32.98331999 16.01358668 -38.80078125 17.34375 C-46.88631364 19.82670876 -57.66848461 23.73997648 -62.96484375 30.6953125 C-63.44029479 33.70332104 -63.44029479 33.70332104 -63.3972168 37.1862793 C-63.40740845 37.8402066 -63.4176001 38.49413391 -63.42810059 39.1678772 C-63.45826712 41.32684861 -63.46750156 43.48537664 -63.4765625 45.64453125 C-63.49340658 47.14241515 -63.51155646 48.64028489 -63.53096008 50.13813782 C-63.57849612 54.07870052 -63.60828189 58.01920582 -63.63439941 61.95996094 C-63.66418695 65.98188617 -63.71072341 70.00361354 -63.75585938 74.02539062 C-63.84193356 81.91528395 -63.90771216 89.80515645 -63.96484375 97.6953125 C-73.20484375 97.6953125 -82.44484375 97.6953125 -91.96484375 97.6953125 C-91.96484375 64.0353125 -91.96484375 30.3753125 -91.96484375 -4.3046875 C-82.72484375 -4.3046875 -73.48484375 -4.3046875 -63.96484375 -4.3046875 C-63.96484375 -1.0046875 -63.96484375 2.2953125 -63.96484375 5.6953125 C-63.27261719 5.24800781 -62.58039062 4.80070312 -61.8671875 4.33984375 C-43.47272091 -7.02643403 -19.06481639 -13.4445526 0 0 Z " fill="#EE731E" transform="translate(592.96484375,77.3046875)"/>
<path d="M0 0 C0.66773438 0.59554687 1.33546875 1.19109375 2.0234375 1.8046875 C2.64992188 2.33835937 3.27640625 2.87203125 3.921875 3.421875 C12.64313468 11.38145261 16.7577923 22.47646152 19.0234375 33.8046875 C19.0234375 39.7446875 19.0234375 45.6846875 19.0234375 51.8046875 C-13.6465625 51.8046875 -46.3165625 51.8046875 -79.9765625 51.8046875 C-75.2600444 61.23772371 -71.58455336 65.44428478 -61.75390625 68.9921875 C-37.71545475 76.02453337 -11.69346735 70.89144944 11.0234375 61.8046875 C11.0234375 70.0546875 11.0234375 78.3046875 11.0234375 86.8046875 C2.01016773 90.18466366 2.01016773 90.18466366 -1.74609375 90.9375 C-2.98649414 91.18693359 -2.98649414 91.18693359 -4.25195312 91.44140625 C-5.08919922 91.60253906 -5.92644531 91.76367188 -6.7890625 91.9296875 C-7.61470703 92.09855469 -8.44035156 92.26742187 -9.29101562 92.44140625 C-34.39378614 97.38795684 -66.63315105 98.05891283 -88.80859375 83.38671875 C-89.52402344 82.86464844 -90.23945312 82.34257812 -90.9765625 81.8046875 C-91.68167969 81.29292969 -92.38679687 80.78117187 -93.11328125 80.25390625 C-103.0483439 72.32478005 -108.22925268 61.17380178 -109.9765625 48.8046875 C-110.97426834 32.95651403 -107.81057762 19.28345865 -97.3515625 7.1171875 C-74.3332113 -16.9891803 -26.22445362 -22.05883644 0 0 Z M-74.9765625 20.8046875 C-78.66585527 25.32602243 -78.66585527 25.32602243 -79.9765625 30.8046875 C-56.5465625 30.8046875 -33.1165625 30.8046875 -8.9765625 30.8046875 C-12.10311261 21.42503716 -14.01372514 18.06886968 -22.32421875 13.51953125 C-38.9902487 5.75688959 -61.34380964 8.2108619 -74.9765625 20.8046875 Z " fill="#656569" transform="translate(1057.9765625,83.1953125)"/>
<path d="M0 0 C10.40065725 9.8040304 14.83505124 20.67764778 15.28540039 34.85571289 C15.4204452 49.27874195 13.22921303 60.35294818 3.8125 71.75 C3.33554687 72.37390625 2.85859375 72.9978125 2.3671875 73.640625 C-8.14521118 85.85922452 -27.91791433 90.41877837 -43.1875 91.75 C-65.83981328 92.98220482 -90.19977024 90.99207313 -108.37109375 75.94140625 C-117.54623448 67.32128349 -123.05370026 56.58738481 -123.62109375 43.9453125 C-123.64464348 41.92201163 -123.6454296 39.89833478 -123.625 37.875 C-123.61670166 36.81651855 -123.60840332 35.75803711 -123.59985352 34.66748047 C-123.28693265 20.21966807 -118.54379156 9.65207324 -108.125 -0.4375 C-80.74027107 -23.29659076 -27.01183121 -23.05009597 0 0 Z M-88.06640625 17.7421875 C-94.1052796 25.45448359 -95.70565719 33.48428476 -95.01171875 43.21484375 C-93.63230048 51.14301543 -89.41626366 57.49351087 -82.875 62.125 C-78.53655115 64.76611304 -74.10173998 66.50350482 -69.1875 67.75 C-68.47207031 67.93433594 -67.75664062 68.11867187 -67.01953125 68.30859375 C-53.03781021 70.48781372 -37.44989464 69.63385835 -25.15625 62.1953125 C-18.20126071 57.08946719 -14.5110877 50.2234353 -13.1875 41.75 C-13.01505963 32.35199966 -14.46746054 24.18626435 -20.7578125 16.94140625 C-31.18764512 7.21498095 -45.14633706 6.19034786 -58.70703125 6.50390625 C-69.57726596 6.96710684 -80.37193876 9.5838124 -88.06640625 17.7421875 Z " fill="#EE731E" transform="translate(466.1875,86.25)"/>
<path d="M0 0 C0 7.92 0 15.84 0 24 C-4.73780496 23.21036584 -8.37108186 22.24095147 -12.8125 20.625 C-29.5162666 14.87534171 -49.7456445 11.71605748 -67 17 C-67.99 17.66 -68.98 18.32 -70 19 C-69.81310692 21.44192619 -69.81310692 21.44192619 -69 24 C-61.42431657 29.46588931 -49.23533922 30.39040241 -40.18408203 32.34912109 C-32.02444704 34.12724536 -24.09841175 36.12450682 -16.265625 39.05078125 C-15.61677338 39.29307465 -14.96792175 39.53536804 -14.29940796 39.78500366 C-4.63056611 43.54684418 2.14897659 48.76336502 7 58 C9.30102474 64.90307423 8.74693643 73.16000758 6.0859375 79.91015625 C1.65879775 88.43001153 -5.20717311 92.62220335 -14 96 C-41.38546072 104.18048768 -72.20345378 100.82635053 -99 92 C-100 91 -100 91 -100.11352539 88.59155273 C-100.10828857 87.54942627 -100.10305176 86.5072998 -100.09765625 85.43359375 C-100.09443359 84.30888672 -100.09121094 83.18417969 -100.08789062 82.02539062 C-100.07951172 80.84138672 -100.07113281 79.65738281 -100.0625 78.4375 C-100.05798828 77.24962891 -100.05347656 76.06175781 -100.04882812 74.83789062 C-100.03699675 71.89187774 -100.02051287 68.94596319 -100 66 C-95.77286316 67.38354253 -91.60587082 68.88703994 -87.4375 70.4375 C-69.39332879 76.89681789 -44.46423923 81.69607227 -26 74 C-23.75305346 72.48406731 -23.75305346 72.48406731 -22 71 C-22.11341534 68.59122743 -22.11341534 68.59122743 -23 66 C-31.17324994 60.2221075 -42.21319453 58.92918813 -51.82250977 56.8840332 C-87.71700096 49.21473397 -87.71700096 49.21473397 -98 35 C-101.27121902 28.29573487 -101.24284478 20.15576223 -99.125 13.07421875 C-94.82136973 3.7449676 -88.42759766 -0.32545396 -79.05078125 -3.96875 C-74.7357788 -5.42734238 -70.50602788 -6.36988878 -66 -7 C-65.25878906 -7.11085938 -64.51757812 -7.22171875 -63.75390625 -7.3359375 C-44.08567253 -9.7903208 -18.0525796 -9.0262898 0 0 Z " fill="#656569" transform="translate(1247,78)"/>
<path d="M0 0 C1 1 1 1 1.11352539 3.31665039 C1.10567017 4.81699829 1.10567017 4.81699829 1.09765625 6.34765625 C1.09282227 7.96704102 1.09282227 7.96704102 1.08789062 9.61914062 C1.07532227 11.32360352 1.07532227 11.32360352 1.0625 13.0625 C1.05798828 14.20267578 1.05347656 15.34285156 1.04882812 16.51757812 C1.03699747 19.34510351 1.0205141 22.1725264 1 25 C-2.21399709 24.39861007 -5.29301488 23.65695578 -8.40625 22.66015625 C-25.91942794 17.15306254 -49.49688073 10.65077045 -67.2578125 19.0703125 C-67.83273438 19.37710938 -68.40765625 19.68390625 -69 20 C-68.81310692 22.44192619 -68.81310692 22.44192619 -68 25 C-60.42431657 30.46588931 -48.23533922 31.39040241 -39.18408203 33.34912109 C-2.68112038 41.30374185 -2.68112038 41.30374185 7 56 C10.36948159 62.70422626 10.06621388 71.53084003 8.34765625 78.734375 C5.3054086 86.307352 0.08220994 91.23037098 -7.1875 94.75 C-33.70074776 105.79113331 -68.20227762 103.11713144 -95 94 C-95.99 93.34 -96.98 92.68 -98 92 C-98.34057617 89.47802734 -98.34057617 89.47802734 -98.29296875 86.3359375 C-98.28330078 85.21445313 -98.27363281 84.09296875 -98.26367188 82.9375 C-98.23853516 81.761875 -98.21339844 80.58625 -98.1875 79.375 C-98.17396484 78.19164062 -98.16042969 77.00828125 -98.14648438 75.7890625 C-98.11103916 72.85892461 -98.06162769 69.92968541 -98 67 C-93.9039036 68.32466903 -89.92553545 69.8190937 -85.9375 71.4375 C-67.81941605 78.4489503 -42.66553068 82.41181364 -24 75 C-20.97803552 73.34367958 -20.97803552 73.34367958 -20.0625 71.125 C-19.76067963 68.83789087 -19.76067963 68.83789087 -21.66772461 66.99438477 C-29.78809125 60.050464 -43.70181879 59.21157977 -54.0065918 57.14819336 C-68.92461851 54.13985713 -86.90220245 50.37523361 -95.8828125 36.9296875 C-99.62236524 30.47046004 -100.13910884 23.57689841 -98.34765625 16.37890625 C-95.48632349 8.3106847 -90.84073757 3.3343402 -83.375 -0.75 C-58.42234161 -12.27827986 -25.40832815 -7.80172732 0 0 Z " fill="#EE731E" transform="translate(99,77)"/>
<path d="M0 0 C9.24 0 18.48 0 28 0 C28 12.87 28 25.74 28 39 C47.5824418 37.50411903 66.75191261 34.93399094 81 20 C85.16962275 14.898981 86.91668561 9.58470675 88.421875 3.22265625 C89 1 89 1 90 0 C92.14558827 -0.08775605 94.29404421 -0.10695219 96.44140625 -0.09765625 C97.74658203 -0.09443359 99.05175781 -0.09121094 100.39648438 -0.08789062 C101.7851569 -0.07953401 103.17382877 -0.07106905 104.5625 -0.0625 C105.95507656 -0.05748666 107.34765481 -0.05292347 108.74023438 -0.04882812 C112.1601987 -0.03699434 115.58007844 -0.0205088 119 0 C118.7053907 1.89529464 118.40471961 3.78964755 118.1015625 5.68359375 C117.93479004 6.73861084 117.76801758 7.79362793 117.59619141 8.88061523 C115.13774349 21.74367382 107.34461554 31.95993081 97.1640625 39.91796875 C91.45711899 43.67327849 85.28490164 46.36220727 79 49 C80.00417969 49.32871094 81.00835938 49.65742187 82.04296875 49.99609375 C95.13874194 54.47347374 106.65140702 60.52355952 115 72 C115.45761719 72.61230469 115.91523437 73.22460938 116.38671875 73.85546875 C122.34473819 82.53306463 123.96408646 91.64086455 125 102 C115.43 102 105.86 102 96 102 C94.68 97.71 93.36 93.42 92 89 C84.63254069 75.39853665 73.50653766 69.33226917 59 65 C48.95227381 62.26511595 38.3333692 62.41610883 28 62 C28 75.2 28 88.4 28 102 C18.76 102 9.52 102 0 102 C0 68.34 0 34.68 0 0 Z " fill="#656569" transform="translate(707,73)"/>
<path d="M0 0 C37.95 0 75.9 0 115 0 C115 7.59 115 15.18 115 23 C100.81 23 86.62 23 72 23 C72 49.07 72 75.14 72 102 C62.43 102 52.86 102 43 102 C43 75.93 43 49.86 43 23 C28.81 23 14.62 23 0 23 C0 15.41 0 7.82 0 0 Z " fill="#EE731E" transform="translate(114,73)"/>
<path d="M0 0 C1 1 1 1 1.11352539 3.31665039 C1.10567017 4.81699829 1.10567017 4.81699829 1.09765625 6.34765625 C1.09282227 7.96704102 1.09282227 7.96704102 1.08789062 9.61914062 C1.07532227 11.32360352 1.07532227 11.32360352 1.0625 13.0625 C1.05798828 14.20267578 1.05347656 15.34285156 1.04882812 16.51757812 C1.03699747 19.34510351 1.0205141 22.1725264 1 25 C0.06800781 24.7834375 -0.86398437 24.566875 -1.82421875 24.34375 C-20.39650948 20.28751664 -35.6403603 21.53302662 -52 32 C-56.19489721 35.05770352 -60.32596721 38.32596721 -64 42 C-64.12350658 43.90160112 -64.17793443 45.8077239 -64.20532227 47.71313477 C-64.22526749 48.9343251 -64.24521271 50.15551544 -64.26576233 51.41371155 C-64.28274791 52.75627513 -64.29962667 54.09884007 -64.31640625 55.44140625 C-64.33696947 56.80761861 -64.35796577 58.17382451 -64.37937927 59.5400238 C-64.43466535 63.14194524 -64.48404563 66.74392471 -64.53222656 70.34594727 C-64.58239403 74.01909562 -64.63805106 77.69216042 -64.69335938 81.36523438 C-64.80154246 88.57675935 -64.90051407 95.78832872 -65 103 C-74.24 103 -83.48 103 -93 103 C-93 69.34 -93 35.68 -93 1 C-83.76 1 -74.52 1 -65 1 C-65 5.95 -65 10.9 -65 16 C-63.80246094 15.19175781 -62.60492187 14.38351563 -61.37109375 13.55078125 C-41.69479071 0.53677333 -23.6815683 -5.03003854 0 0 Z " fill="#656569" transform="translate(941,72)"/>
<path d="M0 0 C1 1 1 1 1.11352539 3.31665039 C1.10567017 4.81699829 1.10567017 4.81699829 1.09765625 6.34765625 C1.09282227 7.96704102 1.09282227 7.96704102 1.08789062 9.61914062 C1.07532227 11.32360352 1.07532227 11.32360352 1.0625 13.0625 C1.05798828 14.20267578 1.05347656 15.34285156 1.04882812 16.51757812 C1.03699747 19.34510351 1.0205141 22.1725264 1 25 C0.07960938 24.7834375 -0.84078125 24.566875 -1.7890625 24.34375 C-19.37360354 20.47586725 -35.31453335 21.16585163 -51 31 C-55.54782447 34.41977401 -59.97329307 37.97329307 -64 42 C-64.33221401 44.66966114 -64.33221401 44.66966114 -64.31884766 47.82666016 C-64.33871735 49.04777496 -64.35858704 50.26888977 -64.37905884 51.52700806 C-64.39093608 52.86435769 -64.40259889 54.20170925 -64.4140625 55.5390625 C-64.43276749 56.90385112 -64.4523404 58.26862811 -64.4727478 59.63339233 C-64.52414605 63.22706243 -64.56373027 66.82077005 -64.60089111 70.41461182 C-64.64088278 74.08119001 -64.69188942 77.74761359 -64.7421875 81.4140625 C-64.84008212 88.60931693 -64.91953176 95.80444484 -65 103 C-74.24 103 -83.48 103 -93 103 C-93 69.34 -93 35.68 -93 1 C-83.76 1 -74.52 1 -65 1 C-65 5.95 -65 10.9 -65 16 C-64.05640625 15.33613281 -63.1128125 14.67226562 -62.140625 13.98828125 C-42.70594044 0.52860385 -23.53043854 -4.99793811 0 0 Z " fill="#EE731E" transform="translate(335,72)"/>
<path d="M0 0 C9.24 0 18.48 0 28 0 C28 33.66 28 67.32 28 102 C18.76 102 9.52 102 0 102 C0 68.34 0 34.68 0 0 Z " fill="#656569" transform="translate(1097,73)"/>
<path d="M0 0 C0.78173584 0.009104 1.56347168 0.01820801 2.36889648 0.02758789 C18.24170138 0.36670138 18.24170138 0.36670138 21.1875 3.3125 C21.29658334 4.9216807 21.3365601 6.53560894 21.34863281 8.1484375 C21.35824036 9.1804126 21.3678479 10.2123877 21.37774658 11.27563477 C21.38199646 12.40155029 21.38624634 13.52746582 21.390625 14.6875 C21.39632507 15.84113037 21.40202515 16.99476074 21.40789795 18.18334961 C21.41736971 20.63475624 21.42389051 23.08617574 21.42773438 25.53759766 C21.43738691 29.26878597 21.4683683 32.99941114 21.5 36.73046875 C21.50653511 39.1119759 21.51178358 41.49348699 21.515625 43.875 C21.5279718 44.98472168 21.5403186 46.09444336 21.55303955 47.23779297 C21.53013651 55.30581062 20.41960144 61.72760981 16.125 68.625 C9.06460437 75.08451089 1.88219635 75.67409487 -7.375 75.75 C-8.26123047 75.76015137 -9.14746094 75.77030273 -10.06054688 75.78076172 C-16.20284453 75.69982201 -21.07632061 74.50797171 -26.8125 72.3125 C-25.8225 67.6925 -24.8325 63.0725 -23.8125 58.3125 C-22.76191406 58.55226563 -21.71132813 58.79203125 -20.62890625 59.0390625 C-9.48745766 61.93997849 -9.48745766 61.93997849 1.1875 59.3125 C3.04785799 56.79974249 4.20375128 54.27062551 5.1875 51.3125 C4.38699219 51.54646484 4.38699219 51.54646484 3.5703125 51.78515625 C-4.5597472 53.90909918 -12.4751449 53.89517868 -19.98828125 49.75 C-24.42058734 46.25730484 -27.89736239 40.91274431 -28.8125 35.3125 C-30.00734979 17.38975322 -30.00734979 17.38975322 -24.8125 10.3125 C-17.87007793 2.4945955 -10.28218389 -0.2404606 0 0 Z M-10.5625 17.9375 C-13.02194124 22.61043835 -13.18477247 27.51882357 -12.125 32.625 C-10.62602916 35.69432124 -9.647614 37.37268516 -6.8125 39.3125 C-2.16804636 40.07701912 1.04859283 39.47357002 5.1875 37.3125 C5.21637236 33.50001574 5.23425492 29.6875593 5.25 25.875 C5.25837891 24.78638672 5.26675781 23.69777344 5.27539062 22.57617188 C5.27861328 21.54169922 5.28183594 20.50722656 5.28515625 19.44140625 C5.29039307 18.48306885 5.29562988 17.52473145 5.30102539 16.53735352 C5.4380313 14.33964661 5.4380313 14.33964661 4.1875 13.3125 C-2.26690328 12.88220645 -5.69578058 13.4184034 -10.5625 17.9375 Z " fill="#656569" transform="translate(754.8125,262.6875)"/>
<path d="M0 0 C16.17 0 32.34 0 49 0 C49 4.62 49 9.24 49 14 C38.44 14 27.88 14 17 14 C17 18.29 17 22.58 17 27 C26.24 27 35.48 27 45 27 C45 31.62 45 36.24 45 41 C35.76 41 26.52 41 17 41 C17 46.61 17 52.22 17 58 C28.22 58 39.44 58 51 58 C51 62.62 51 67.24 51 72 C34.17 72 17.34 72 0 72 C0 48.24 0 24.48 0 0 Z " fill="#656569" transform="translate(504,247)"/>
<path d="M0 0 C0.81831299 0.00974854 1.63662598 0.01949707 2.47973633 0.02954102 C11.36682806 0.29037994 17.42894522 2.0934828 23.8125 8.5 C29.07777516 14.97788399 31.00223209 22.76659671 30.66015625 31.05078125 C29.74126016 38.74181563 28.34498916 47.02854596 22.375 52.4375 C15.16583278 57.71973094 8.09923413 58.26500188 -0.625 57.4375 C-1.945 57.1075 -3.265 56.7775 -4.625 56.4375 C-4.625 62.7075 -4.625 68.9775 -4.625 75.4375 C-10.235 75.4375 -15.845 75.4375 -21.625 75.4375 C-21.625 51.6775 -21.625 27.9175 -21.625 3.4375 C-7.46966334 -0.10133416 -7.46966334 -0.10133416 0 0 Z M-4.625 14.4375 C-4.625 23.6775 -4.625 32.9175 -4.625 42.4375 C-0.90748383 43.67667206 2.5123183 43.98068961 6.375 43.4375 C9.34367287 41.6950181 10.88876756 40.22473348 12.6875 37.3125 C14.01979666 31.74107762 14.09511595 26.48414534 12.1875 21.0625 C10.05924521 17.98019995 8.67771302 16.26453273 5.375 14.4375 C2.075 14.4375 -1.225 14.4375 -4.625 14.4375 Z " fill="#656569" transform="translate(1017.625,262.5625)"/>
<path d="M0 0 C0 8.58 0 17.16 0 26 C0.66 25.67 1.32 25.34 2 25 C18.350958 23.78067428 18.350958 23.78067428 25 29 C29.79770718 33.40870389 31.66891775 39.65198057 32.15609741 46.04998779 C32.37242947 51.74120884 32.27374246 57.43191262 32.1875 63.125 C32.17242553 64.86196756 32.15874202 66.59894778 32.14648438 68.3359375 C32.1162702 72.55786501 32.05751454 76.77800701 32 81 C26.39 81 20.78 81 15 81 C14.94392578 77.06320312 14.94392578 77.06320312 14.88671875 73.046875 C14.84049165 70.50170615 14.78926238 67.95668368 14.73754883 65.41162109 C14.70431931 63.64445917 14.67628118 61.87719161 14.65356445 60.10986328 C14.61998169 57.56757649 14.56766549 55.02625592 14.51171875 52.484375 C14.50532883 51.69569031 14.4989389 50.90700562 14.49235535 50.09442139 C14.36482966 45.32390295 13.99785362 43.99713816 11 40 C7.37 40 3.74 40 0 40 C0 53.53 0 67.06 0 81 C-5.28 81 -10.56 81 -16 81 C-16 55.26 -16 29.52 -16 3 C-4 0 -4 0 0 0 Z " fill="#656569" transform="translate(390,238)"/>
<path d="M0 0 C5.49137375 3.47908227 9.10805804 7.92558721 11.25 14.0625 C12.375 19.4375 12.375 19.4375 12.375 32.4375 C0.825 32.4375 -10.725 32.4375 -22.625 32.4375 C-19.43408354 38.06604333 -19.43408354 38.06604333 -14.625 40.4375 C-11.12507292 40.71777887 -11.12507292 40.71777887 -7.3125 40.625 C-6.03761719 40.61855469 -4.76273438 40.61210937 -3.44921875 40.60546875 C0.24949449 40.4430125 3.72665761 40.02746481 7.375 39.4375 C8.035 43.7275 8.695 48.0175 9.375 52.4375 C0.05626953 56.81159797 -11.33175336 57.78887187 -21.34765625 55.2890625 C-28.3966236 52.65325653 -34.18974035 48.19254839 -37.625 41.4375 C-41.15650621 31.68381619 -40.73063323 21.27912129 -36.75 11.7421875 C-33.76722238 5.63163612 -29.49704416 2.57247224 -23.625 -0.5625 C-16.91437755 -2.79937415 -6.4749301 -2.95347689 0 0 Z M-19.625 14.4375 C-21.98600523 17.64826478 -21.98600523 17.64826478 -22.625 21.4375 C-16.355 21.4375 -10.085 21.4375 -3.625 21.4375 C-4.70226659 15.89491725 -4.70226659 15.89491725 -8.625 12.4375 C-13.34949837 10.92968137 -15.77308282 11.31432391 -19.625 14.4375 Z " fill="#656569" transform="translate(1242.625,264.5625)"/>
<path d="M0 0 C6.82648186 4.34001495 10.07594893 9.70123603 11.9140625 17.5078125 C12.64363029 22.14489589 12.82366727 26.76100648 12.375 31.4375 C11.375 32.4375 11.375 32.4375 8.14038086 32.55102539 C6.70685874 32.55086631 5.27333088 32.54517407 3.83984375 32.53515625 C2.70996788 32.53303383 2.70996788 32.53303383 1.55726624 32.53086853 C-0.8576956 32.52525376 -3.27256601 32.51269883 -5.6875 32.5 C-7.32096221 32.4949869 -8.95442586 32.49042366 -10.58789062 32.48632812 C-14.60029585 32.47527954 -18.61263241 32.45800506 -22.625 32.4375 C-19.59955044 37.62715014 -19.59955044 37.62715014 -14.625 40.4375 C-11.12507292 40.71777887 -11.12507292 40.71777887 -7.3125 40.625 C-6.03761719 40.61855469 -4.76273438 40.61210937 -3.44921875 40.60546875 C0.24949449 40.4430125 3.72665761 40.02746481 7.375 39.4375 C8.035 43.7275 8.695 48.0175 9.375 52.4375 C-0.54647575 57.09451923 -13.20274033 58.15710504 -23.625 54.4375 C-30.48897752 51.21167311 -35.57634315 46.59039213 -38.4375 39.4375 C-41.41259907 29.28112732 -40.38092862 18.82378817 -35.625 9.4375 C-28.41593542 -2.0121908 -12.20994721 -5.40055358 0 0 Z M-20.625 14.4375 C-22.36023928 17.08167414 -22.625 18.22215943 -22.625 21.4375 C-16.355 21.4375 -10.085 21.4375 -3.625 21.4375 C-4.83307454 14.73327153 -4.83307454 14.73327153 -7.9375 12.5 C-13.09448128 10.46119345 -16.20456195 11.09230364 -20.625 14.4375 Z " fill="#656569" transform="translate(1095.625,264.5625)"/>
<path d="M0 0 C1.05550049 0.01244751 1.05550049 0.01244751 2.13232422 0.02514648 C9.72016786 0.27232757 14.18330514 2.21960341 19.375 7.625 C25.89142578 16.04131013 25.0625 23.48971344 25.0625 34.4375 C13.5125 34.4375 1.9625 34.4375 -9.9375 34.4375 C-6.74658354 40.06604333 -6.74658354 40.06604333 -1.9375 42.4375 C1.56242708 42.71777887 1.56242708 42.71777887 5.375 42.625 C6.64988281 42.61855469 7.92476562 42.61210937 9.23828125 42.60546875 C12.93699449 42.4430125 16.41415761 42.02746481 20.0625 41.4375 C20.7225 45.7275 21.3825 50.0175 22.0625 54.4375 C12.7497193 58.80880523 1.34809375 59.79970825 -8.66015625 57.28515625 C-15.44419616 54.76005049 -20.51534289 50.86684004 -24.0078125 44.49609375 C-28.04245318 35.56224653 -28.30428268 25.21140266 -25.17578125 15.9296875 C-22.1577713 9.85558545 -17.61461732 4.86318378 -11.63671875 1.6796875 C-7.66685567 0.34661838 -4.14364594 -0.06302312 0 0 Z M-6.9375 16.4375 C-9.29850523 19.64826478 -9.29850523 19.64826478 -9.9375 23.4375 C-3.6675 23.4375 2.6025 23.4375 9.0625 23.4375 C7.98523341 17.89491725 7.98523341 17.89491725 4.0625 14.4375 C-0.66199837 12.92968137 -3.08558282 13.31432391 -6.9375 16.4375 Z " fill="#656569" transform="translate(649.9375,262.5625)"/>
<path d="M0 0 C4.84775138 3.92523153 7.59722231 8.70920175 9.09375 14.6953125 C9.09375 19.9753125 9.09375 25.2553125 9.09375 30.6953125 C-2.12625 30.6953125 -13.34625 30.6953125 -24.90625 30.6953125 C-23.68758051 36.69602848 -23.68758051 36.69602848 -20.21484375 38.05859375 C-12.29433251 39.58284798 -3.82027714 39.20274624 4.09375 37.6953125 C5.69566823 42.60118708 6.1940977 46.47096017 6.09375 51.6953125 C-5.9320175 54.42773977 -18.34589137 56.93721386 -29.90625 51.05078125 C-35.09931514 47.53126249 -39.54997294 42.33321025 -41.46875 36.2890625 C-43.08170692 26.7265322 -43.51212073 15.99060407 -37.90625 7.6953125 C-37.48214844 7.05207031 -37.05804687 6.40882813 -36.62109375 5.74609375 C-28.22537811 -5.40921644 -11.73169258 -6.84348734 0 0 Z M-23.90625 13.6953125 C-24.23625 15.6753125 -24.56625 17.6553125 -24.90625 19.6953125 C-18.63625 19.6953125 -12.36625 19.6953125 -5.90625 19.6953125 C-7.35269914 14.13506229 -7.35269914 14.13506229 -10.90625 10.6953125 C-16.61028125 9.08096403 -19.53558167 9.63683476 -23.90625 13.6953125 Z " fill="#656569" transform="translate(918.90625,266.3046875)"/>
<path d="M0 0 C5.28744669 4.06255557 6.92307677 8.25360531 9.0234375 14.5546875 C9.0234375 19.8346875 9.0234375 25.1146875 9.0234375 30.5546875 C-2.1965625 30.5546875 -13.4165625 30.5546875 -24.9765625 30.5546875 C-23.52270661 35.55710484 -23.52270661 35.55710484 -20.28515625 37.3515625 C-16.62943717 38.68091489 -13.91714423 38.89039096 -10.0390625 38.8046875 C-8.82089844 38.77890625 -7.60273437 38.753125 -6.34765625 38.7265625 C-2.81297516 38.54634701 0.55012125 38.21627155 4.0234375 37.5546875 C5.37255222 42.44522835 6.14048718 46.44839526 6.0234375 51.5546875 C-6.0550367 54.2990905 -18.37871274 56.77059234 -29.9765625 50.84375 C-36.44311935 46.67585203 -39.99979001 41.96512567 -41.9765625 34.5546875 C-42.38679632 31.56078238 -42.45461183 28.63618144 -42.4140625 25.6171875 C-42.40648926 24.82594482 -42.39891602 24.03470215 -42.39111328 23.21948242 C-42.22315825 17.27424194 -41.40891837 12.5374845 -37.9765625 7.5546875 C-37.55246094 6.91273438 -37.12835937 6.27078125 -36.69140625 5.609375 C-28.23310898 -5.65264755 -11.7630144 -6.91712143 0 0 Z M-23.9765625 13.5546875 C-24.3065625 15.5346875 -24.6365625 17.5146875 -24.9765625 19.5546875 C-19.0365625 19.5546875 -13.0965625 19.5546875 -6.9765625 19.5546875 C-7.50037618 14.06534227 -7.50037618 14.06534227 -9.1015625 11.7421875 C-14.69938216 8.19690171 -19.30663332 9.21832469 -23.9765625 13.5546875 Z " fill="#656569" transform="translate(858.9765625,266.4453125)"/>
<path d="M0 0 C1.27713867 -0.04350586 1.27713867 -0.04350586 2.58007812 -0.08789062 C9.86628463 -0.16003128 16.04876704 1.50415998 21.5625 6.4375 C27.27925044 16.55175077 26.54538644 27.18985165 26.375 38.4375 C26.35992553 40.17446756 26.34624202 41.91144778 26.33398438 43.6484375 C26.3037702 47.87036501 26.24501454 52.09050701 26.1875 56.3125 C20.9075 56.3125 15.6275 56.3125 10.1875 56.3125 C10.13851562 54.1675 10.08953125 52.0225 10.0390625 49.8125 C9.98488905 47.7107102 9.92764634 45.60902453 9.87011719 43.50732422 C9.83208384 42.05851152 9.79718863 40.60961261 9.765625 39.16064453 C10.23879416 26.29807773 10.23879416 26.29807773 5.1875 15.3125 C-0.2575 14.8175 -0.2575 14.8175 -5.8125 14.3125 C-5.8125 28.1725 -5.8125 42.0325 -5.8125 56.3125 C-11.0925 56.3125 -16.3725 56.3125 -21.8125 56.3125 C-21.8125 38.8225 -21.8125 21.3325 -21.8125 3.3125 C-14.31489477 0.81329826 -7.81787857 0.08757892 0 0 Z " fill="#656569" transform="translate(586.8125,262.6875)"/>
<path d="M0 0 C15.11727848 -1.37738983 15.11727848 -1.37738983 19.546875 1.86328125 C21.2501764 4.16575283 22.60016315 6.5058954 24 9 C25.29429882 10.37125713 26.61896571 11.7161387 28 13 C28.67869141 11.59234375 28.67869141 11.59234375 29.37109375 10.15625 C31.44671771 6.33460761 33.48124913 2.65890573 37 0 C42.52019851 -1.6226038 48.38738691 -0.7539331 54 0 C52.7246235 3.49543385 51.24650982 6.30078506 49.03125 9.28515625 C48.46019531 10.06310547 47.88914062 10.84105469 47.30078125 11.64257812 C46.70652344 12.44115234 46.11226562 13.23972656 45.5 14.0625 C44.32023356 15.65556857 43.14305062 17.25055439 41.96875 18.84765625 C41.44732422 19.54898682 40.92589844 20.25031738 40.38867188 20.97290039 C39.05447927 22.92047444 37.99931651 24.8644702 37 27 C37.6290625 27.78761719 38.258125 28.57523437 38.90625 29.38671875 C55 49.77697596 55 49.77697596 55 55 C42.36781328 56.44367848 42.36781328 56.44367848 37 55 C34.09073881 52.10378483 32.81980713 49.60689133 31.2890625 45.8203125 C30.25757632 42.88899562 30.25757632 42.88899562 27.8359375 41.6171875 C27.23007812 41.41351563 26.62421875 41.20984375 26 41 C25.278125 41.825 24.55625 42.65 23.8125 43.5 C23.33941406 44.03882813 22.86632812 44.57765625 22.37890625 45.1328125 C20.90866033 46.95299611 20.90866033 46.95299611 20.15234375 49.1796875 C19.0408513 51.88383797 18.35263167 53.21217782 16 55 C10.42094554 56.04435502 4.61817273 55.44598505 -1 55 C2.82035566 44.70164997 9.95294079 36.26151839 17 28 C15.69745171 25.27539668 14.26223769 22.79888796 12.5390625 20.3203125 C12.06726563 19.63839844 11.59546875 18.95648438 11.109375 18.25390625 C10.61953125 17.55136719 10.1296875 16.84882813 9.625 16.125 C8.19131005 14.05879978 6.75872893 11.99186504 5.32910156 9.92285156 C4.47543466 8.68782575 3.61830012 7.45518564 2.75683594 6.22558594 C0 2.22513767 0 2.22513767 0 0 Z " fill="#656569" transform="translate(934,264)"/>
<path d="M0 0 C0 5.28 0 10.56 0 16 C5.94 16 11.88 16 18 16 C18 20.62 18 25.24 18 30 C12.06 30 6.12 30 0 30 C0.14078423 33.75025223 0.28741513 37.50011833 0.4375 41.25 C0.47681641 42.31347656 0.51613281 43.37695312 0.55664062 44.47265625 C0.59853516 45.49746094 0.64042969 46.52226562 0.68359375 47.578125 C0.72025146 48.52075195 0.75690918 49.46337891 0.79467773 50.43457031 C0.95079003 53.26886213 0.95079003 53.26886213 2 57 C7.28 57 12.56 57 18 57 C19.49035891 62.21625619 20.24741966 64.92789703 20 70 C12.14410203 73.09775156 2.45992872 73.36692383 -5.74609375 71.3125 C-10.33964436 69.22846948 -12.93679097 66.52318902 -15 62 C-18.01305776 50.01240552 -17.22474167 37.4378469 -17.125 25.1875 C-17.11494907 23.03060312 -17.10582696 20.8737017 -17.09765625 18.71679688 C-17.07581271 13.47776415 -17.042503 8.23890375 -17 3 C-11.23821205 1.32260374 -6.02275003 0 0 0 Z " fill="#656569" transform="translate(1178,248)"/>
<path d="M0 0 C5.61 0 11.22 0 17 0 C17 23.76 17 47.52 17 72 C11.39 72 5.78 72 0 72 C0 48.24 0 24.48 0 0 Z " fill="#656569" transform="translate(343,247)"/>
<path d="M0 0 C0.73798828 -0.01224609 1.47597656 -0.02449219 2.23632812 -0.03710938 C6.74076622 -0.04912121 10.31874263 0.48596178 14.5625 2.1875 C13.59894647 11.59752278 13.59894647 11.59752278 12.5625 16.1875 C11.799375 16.0225 11.03625 15.8575 10.25 15.6875 C5.39575131 15.02929679 0.46116939 15.1875 -4.4375 15.1875 C-4.7675 28.7175 -5.0975 42.2475 -5.4375 56.1875 C-10.7175 56.1875 -15.9975 56.1875 -21.4375 56.1875 C-21.4375 39.0275 -21.4375 21.8675 -21.4375 4.1875 C-13.5417555 1.22659581 -8.25707604 0.00717383 0 0 Z " fill="#656569" transform="translate(707.4375,262.8125)"/>
<path d="M0 0 C0.73798828 -0.01224609 1.47597656 -0.02449219 2.23632812 -0.03710938 C6.74076622 -0.04912121 10.31874263 0.48596178 14.5625 2.1875 C14.28176927 4.33479141 13.98761501 6.48033193 13.6875 8.625 C13.52507812 9.81996094 13.36265625 11.01492188 13.1953125 12.24609375 C12.98648438 13.21675781 12.77765625 14.18742187 12.5625 15.1875 C10.5625 16.1875 10.5625 16.1875 8.5625 15.75 C4.29940204 14.95066913 -0.10011207 15.1875 -4.4375 15.1875 C-4.7675 28.7175 -5.0975 42.2475 -5.4375 56.1875 C-10.7175 56.1875 -15.9975 56.1875 -21.4375 56.1875 C-21.4375 39.0275 -21.4375 21.8675 -21.4375 4.1875 C-13.5417555 1.22659581 -8.25707604 0.00717383 0 0 Z " fill="#656569" transform="translate(456.4375,262.8125)"/>
<path d="M0 0 C0.73798828 -0.01224609 1.47597656 -0.02449219 2.23632812 -0.03710938 C6.74076622 -0.04912121 10.31874263 0.48596178 14.5625 2.1875 C14.28081703 4.14729427 13.98683283 6.10532378 13.6875 8.0625 C13.52507812 9.15304687 13.36265625 10.24359375 13.1953125 11.3671875 C12.5625 14.1875 12.5625 14.1875 10.5625 16.1875 C8.89193851 15.87426972 7.22644675 15.53415557 5.5625 15.1875 C2.2625 15.1875 -1.0375 15.1875 -4.4375 15.1875 C-4.7675 28.7175 -5.0975 42.2475 -5.4375 56.1875 C-10.7175 56.1875 -15.9975 56.1875 -21.4375 56.1875 C-21.4375 39.0275 -21.4375 21.8675 -21.4375 4.1875 C-13.5417555 1.22659581 -8.25707604 0.00717383 0 0 Z " fill="#656569" transform="translate(1140.4375,262.8125)"/>
<path d="M0 0 C5.61 0 11.22 0 17 0 C17 18.15 17 36.3 17 55 C11.39 55 5.78 55 0 55 C0 36.85 0 18.7 0 0 Z " fill="#656569" transform="translate(789,264)"/>
<path d="M0 0 C2.58861097 2.13560405 3.71069819 3.63614862 4.41015625 6.93359375 C4.69743765 10.83030806 4.22061268 12.65840618 2.0625 16 C-1.50834457 18.33198013 -3.64506019 18.74267565 -7.83984375 18.4765625 C-11.54702808 17.65870267 -12.97314048 16.13836313 -15 13 C-15.97986268 8.66060814 -15.52314045 5.84784832 -13.1875 2.0625 C-9.22626497 -1.67237874 -5.02229432 -1.44504646 0 0 Z " fill="#656569" transform="translate(803,240)"/>
</svg>
