<svg id="Ebene_1" data-name="Ebene 1" xmlns="http://www.w3.org/2000/svg" viewBox="0 0 237.06 98.1"><defs><style>.cls-1{fill:#818080;}.cls-2{fill:#fff;}.cls-3{fill:#d81f35;}.cls-4{fill:none;}</style></defs><path class="cls-1" d="M46,81.93a36.29,36.29,0,0,1,3.82.34c.18,0,.29-.18.5-.18s.23.15.23.63c0,2.51.13,2.93.13,3.35,0,.18-.15.26-.44.26s-.21,0-.34-.63c-.29-1.31-.58-1.6-.79-1.78a6.85,6.85,0,0,0-4-1c-4.69,0-7.23,2.93-7.23,7.51,0,6.47,4.9,7.73,7.41,7.73a6.64,6.64,0,0,0,3.2-.68c.28-.27.52-.45.52-3.22,0-2.49,0-3-2.43-3.12-.66,0-.74,0-.74-.31s0-.4.29-.4c1.52,0,3,0,3.67,0,1.07,0,2.07-.11,2.46-.11.18,0,.18.16.18.29s0,.26-.24.34a1.11,1.11,0,0,0-1,.86,29.41,29.41,0,0,0-.16,3.41c0,.86,0,1.36,0,1.73a5.68,5.68,0,0,0,.15,1.09c0,.16-.1.21-.6.32a25.08,25.08,0,0,1-5.79.73c-7.06,0-9.42-4.21-9.42-8.17C35.45,83.08,42.65,81.93,46,81.93Z" transform="translate(-18 -1)"/><path class="cls-1" d="M55.25,83.24c-.08-1.18-.55-1.34-1.57-1.34-.23,0-.26,0-.26-.23s0-.29.63-.47a17.52,17.52,0,0,1,3.22-.89c.13,0,.21,0,.21.18,0,.34-.27,2.46-.27,3.56s0,2.28,0,5.89c0,1.36,0,6.49.21,7.33.13.6.5.78,1.7.91.42.06.47.06.47.29s-.13.39-.6.39-1.52-.07-2.65-.07-2.35.07-2.74.07c-.24,0-.29,0-.29-.31s.08-.31.36-.34c1.23-.16,1.47-.68,1.55-1.7.16-2,.16-5.81.16-8C55.36,85.49,55.33,84.29,55.25,83.24Z" transform="translate(-18 -1)"/><path class="cls-1" d="M66.3,87.53a5.34,5.34,0,0,1,5.57,5.58,6,6,0,0,1-6.28,6A5.35,5.35,0,0,1,60,93.47C60,89.31,63.37,87.53,66.3,87.53Zm.1,10.66c2.07,0,3.41-1.81,3.41-4.24,0-3-2-5.53-4.3-5.53-1.85,0-3.42,1.57-3.42,4.14C62.08,96.27,64.49,98.19,66.4,98.19Z" transform="translate(-18 -1)"/><path class="cls-1" d="M77.45,99a14.38,14.38,0,0,1-2.93-.28c-.37-.06-.66,0-.66-.27s.08-.6.16-1.62c.1-1.39.21-7.51.21-10.68,0-3-.08-3.32-.24-3.74-.23-.63-.81-.66-1.36-.68-.16,0-.23,0-.23-.19s0-.26.39-.36a26.34,26.34,0,0,1,3.48-.86c.08,0,.24,0,.24.18s-.19,1.31-.24,1.93c-.16,2.07-.24,5.29-.24,6.29a9.5,9.5,0,0,1,4.38-1.21c2.61,0,4.52,1.94,4.52,5C84.93,95.31,83.05,99,77.45,99Zm1.39-10.36a7.07,7.07,0,0,0-2.83.7c0,.74-.05,1.21-.05,3.09,0,2.67,0,3.67.31,4.32.39.84,1.31,1.13,2.57,1.13a4.18,4.18,0,0,0,3-1.05,4.77,4.77,0,0,0,1.23-3.35C83.08,91.43,81.9,88.66,78.84,88.66Z" transform="translate(-18 -1)"/><path class="cls-1" d="M88.25,94.18a20.89,20.89,0,0,1,4.76-1V90.57c0-.76-.39-1.65-2-1.65a4.79,4.79,0,0,0-1.75.34c-.21.08-.24.18-.24.31s0,.42,0,.71-.13.29-.47.39a5.84,5.84,0,0,1-1.31.29c-.23,0-.34-.1-.34-.31,0-1.1,2.64-3.12,5.11-3.12,2.22,0,2.93,1.26,2.93,3s-.13,4.71-.13,5.47c0,1.23.36,1.62,1,1.62a4.43,4.43,0,0,0,1.91-.7l.1.05v.39c0,.34,0,.5-.31.66a8.47,8.47,0,0,1-3.33,1.1,1.19,1.19,0,0,1-1.28-1.26,10.52,10.52,0,0,1-4.13,1.26,2.22,2.22,0,0,1-2.31-2.54C86.49,94.94,87,94.65,88.25,94.18Zm4.73.45c0-.4-.15-.66-.81-.66a6.58,6.58,0,0,0-2.33.6c-1.25.53-1.25.89-1.25,1.34,0,1.57.73,1.83,1.7,1.83a5.15,5.15,0,0,0,1.94-.42c.6-.26.75-.47.75-1.83Z" transform="translate(-18 -1)"/><path class="cls-1" d="M100.18,83.24c-.07-1.18-.55-1.34-1.57-1.34-.23,0-.26,0-.26-.23s.05-.29.63-.47a17.74,17.74,0,0,1,3.22-.89c.13,0,.21,0,.21.18,0,.34-.26,2.46-.26,3.56s0,2.28,0,5.89c0,1.36,0,6.49.21,7.33.13.6.5.78,1.7.91.42.06.47.06.47.29s-.13.39-.6.39-1.52-.07-2.64-.07-2.36.07-2.75.07-.29,0-.29-.31.08-.31.37-.34c1.23-.16,1.46-.68,1.54-1.7.16-2,.16-5.81.16-8C100.29,85.49,100.26,84.29,100.18,83.24Z" transform="translate(-18 -1)"/><path class="cls-1" d="M122,95c0-1.83-1.07-2.46-3.87-3.72-2.6-1.18-2.86-1.31-3.59-2a3.56,3.56,0,0,1-1.15-2.74c0-2.86,2.2-4.56,5.52-4.56.65,0,1.55.08,2.28.13l1.39.16a.29.29,0,0,0,.21-.08.74.74,0,0,1,.26,0c.18,0,.18.1.18.29a12.54,12.54,0,0,0,0,2.56,6.75,6.75,0,0,1,.11.92c0,.18-.32.23-.47.23s-.19-.07-.37-.63c-.31-.86-1-2.69-4-2.69a2.93,2.93,0,0,0-3.14,3c0,2,1.12,2.49,4.58,4,1.8.78,4.26,1.85,4.26,4.81a4.14,4.14,0,0,1-1.59,3.33,7.33,7.33,0,0,1-4.64,1.2,34.78,34.78,0,0,1-4.16-.39c-.26,0-.29.23-.55.23s-.26,0-.34-.57-.36-2.75-.36-3.82c0-.29.26-.42.52-.42s.21.1.23.26c.21,1.65,1.52,3.72,5.13,3.72A3.21,3.21,0,0,0,122,95Z" transform="translate(-18 -1)"/><path class="cls-1" d="M132.23,87.53a5.35,5.35,0,0,1,5.58,5.58,6,6,0,0,1-6.28,6A5.35,5.35,0,0,1,126,93.47C126,89.31,129.3,87.53,132.23,87.53Zm.11,10.66c2.07,0,3.4-1.81,3.4-4.24,0-3-2-5.53-4.29-5.53-1.86,0-3.43,1.57-3.43,4.14C128,96.27,130.43,98.19,132.34,98.19Z" transform="translate(-18 -1)"/><path class="cls-1" d="M140.38,83.24c-.07-1.18-.55-1.34-1.57-1.34-.23,0-.26,0-.26-.23s0-.29.63-.47a17.74,17.74,0,0,1,3.22-.89c.13,0,.21,0,.21.18,0,.34-.26,2.46-.26,3.56s0,2.28,0,5.89c0,1.36,0,6.49.21,7.33.13.6.5.78,1.7.91.42.06.47.06.47.29s-.13.39-.6.39-1.52-.07-2.64-.07-2.36.07-2.75.07-.29,0-.29-.31.08-.31.37-.34c1.23-.16,1.46-.68,1.54-1.7.16-2,.16-5.81.16-8C140.49,85.49,140.46,84.29,140.38,83.24Z" transform="translate(-18 -1)"/><path class="cls-1" d="M146.3,92.66a16.88,16.88,0,0,0-.16-3.11c-.18-.5-.57-.53-1.2-.58-.21,0-.24-.08-.24-.23s0-.32.42-.42,2.85-.79,3.11-.79.19.08.19.16-.08.81-.13,1.78c-.08,1.44-.11,2.43-.11,3.51,0,2.3,0,4.63,2.54,4.63a6.33,6.33,0,0,0,3.48-1c.11-.28.16-3.4.16-5.07,0-2.7,0-2.86-1.68-3-.47,0-.49,0-.49-.26s0-.34.55-.34,1.83-.1,2.22-.16,1-.15,1.16-.15.21.1.21.26c0,.34-.08,1.12-.08,2.75,0,.89-.13,3.9-.13,4.79,0,1.8.08,2.22.91,2.22a12.07,12.07,0,0,0,1.29-.13c.15,0,.18,0,.18.24s0,.28-.26.36a24.74,24.74,0,0,1-3.77.94c-.16,0-.37,0-.37-.36a13.12,13.12,0,0,1,.11-1.34c-2.15,1.08-3.49,1.7-4.87,1.7a3.14,3.14,0,0,1-2.46-1.15,3.47,3.47,0,0,1-.61-2.41Z" transform="translate(-18 -1)"/><path class="cls-1" d="M166.76,87.82c.27,0,.27.1.27.47,0,.58,0,.71-.34.71h-4.25c-.07,2.41-.15,4.08-.15,5.65s0,3,2.2,3a4.57,4.57,0,0,0,2.17-.55h.21v.37c0,.26-.05.29-.42.5A7.15,7.15,0,0,1,163,99c-2.64,0-2.64-2.12-2.64-3l0-1.68.16-5.36h-1.23c-.08,0-.11-.06-.11-.16s.06-.24.48-.55a14.87,14.87,0,0,0,2.28-2.15c.28-.31.31-.36.49-.36s.18,0,.18.13-.1,1.6-.1,1.91Z" transform="translate(-18 -1)"/><path class="cls-1" d="M168.49,88.92c.1,0,2.22-1.18,2.56-1.34a1.19,1.19,0,0,1,.55-.18c.24,0,.24.11.24.21s-.08,1.36-.11,1.63c0,.65,0,2,0,3.61,0,.81,0,3.79.1,4.4.14.78.63.89,1.71,1,.34,0,.36,0,.36.31s0,.31-.26.31-1.6,0-2.75,0l-2.75,0c-.18,0-.23,0-.23-.23s0-.29.39-.37c.94-.18,1.23-.44,1.39-.94a28,28,0,0,0,.21-4.32c0-2.82,0-3.22-1.21-3.35-.49-.08-.49-.08-.49-.34S168.35,89,168.49,88.92Zm2.7-7.78a1.27,1.27,0,0,1,1,1.21A1.4,1.4,0,0,1,171,83.58a1.34,1.34,0,0,1-1.15-1.18A1.57,1.57,0,0,1,171.19,81.14Z" transform="translate(-18 -1)"/><path class="cls-1" d="M180.83,87.53a5.35,5.35,0,0,1,5.58,5.58,6,6,0,0,1-6.28,6,5.34,5.34,0,0,1-5.55-5.61C174.58,89.31,177.9,87.53,180.83,87.53Zm.11,10.66c2.06,0,3.4-1.81,3.4-4.24,0-3-2-5.53-4.29-5.53-1.86,0-3.43,1.57-3.43,4.14C176.62,96.27,179,98.19,180.94,98.19Z" transform="translate(-18 -1)"/><path class="cls-1" d="M199.19,91.61c0,1-.05,3.38-.05,3.93,0,2.52.08,2.57,1.52,2.67.52,0,.57,0,.57.26s-.07.37-.36.37c-.84,0-1.81,0-2.7,0-1.13,0-2.15,0-2.51,0-.21,0-.24,0-.24-.26s0-.29.34-.32c.89-.1,1.21-.44,1.31-.86a23.68,23.68,0,0,0,.21-3.93c0-1.8,0-2.82-.49-3.53a2.56,2.56,0,0,0-2-.84,7.27,7.27,0,0,0-3.45,1c-.11.13-.14,4.16-.14,4.68,0,2.93.06,3.22,1.52,3.38.53,0,.58,0,.58.26s0,.42-.34.42c-.66,0-1.7,0-2.36,0l-2.75,0c-.23,0-.29,0-.29-.26s0-.37.35-.42a1.27,1.27,0,0,0,1.3-1.15,39.92,39.92,0,0,0,.19-4.37,17.5,17.5,0,0,0-.13-2.7c-.21-.39-.48-.39-1.5-.39-.1,0-.15,0-.15-.29s.1-.29,1.51-.94a14.27,14.27,0,0,1,1.89-.89c.21,0,.37,0,.37.1,0,.34-.11,1.47-.11,1.75a15.32,15.32,0,0,1,5.05-1.62C199.19,87.66,199.19,90.41,199.19,91.61Z" transform="translate(-18 -1)"/><path class="cls-1" d="M208.86,87.74c.07,0,.21,0,.31,0s.18,0,.21.36c.08.79.16,1.73.16,2.18,0,.23-.06.28-.4.28-.15,0-.18-.05-.28-.31a2.91,2.91,0,0,0-2.7-1.86c-1.63,0-1.91,1.1-1.91,1.67,0,1.18.81,1.58,3.06,2.65,1.1.55,2.83,1.39,2.83,3.32,0,3.09-4,3.09-4.58,3.09a24.85,24.85,0,0,1-3-.31c-.34,0-.45,0-.45-.26s.06-.89.06-1.16-.11-1.51-.11-1.67.08-.21.39-.21c.14,0,.16.05.24.42a3.27,3.27,0,0,0,3.3,2.38c1.62,0,2.17-1,2.17-1.86,0-1.23-1-1.8-2.43-2.46-1.68-.78-3.2-1.54-3.2-3.37,0-1.24.84-3,4.14-3C207.6,87.53,208.62,87.74,208.86,87.74Z" transform="translate(-18 -1)"/><path class="cls-2" d="M248.91,43.17h0c-11.95.15-27,3.19-33.56,9.64a11.66,11.66,0,0,0-3.43,11.64,12,12,0,0,0,8.63,8.64,8.4,8.4,0,0,0,2.22.32l-.68-.64-.74-1a10.71,10.71,0,0,1-1.29-2.95,7.61,7.61,0,0,1-.29-2,7.93,7.93,0,0,1,2.41-5.55c3.76-3.9,11.78-5.86,23.86-5.85l7.13.13h.14a1.56,1.56,0,0,1,.05-.16,27.08,27.08,0,0,0,1.31-6c.08-.81.12-1.67.12-2.57s0-2.13-.16-3.26l0-.16a56,56,0,0,0-5.67-.19Z" transform="translate(-18 -1)"/><path class="cls-2" d="M225,19.38h0a26.22,26.22,0,0,0-4.77.86l-.19.05h0a1,1,0,0,1,0,.1c-.9,3.16-5.25,6.58-7.34,8.22l-.87.7-.74.63a48.87,48.87,0,0,0-4.73,4.34,30.17,30.17,0,0,0-4,5.18A16.26,16.26,0,0,0,200.43,45a18.4,18.4,0,0,0-.25,3c0,.38,0,.75,0,1.1,0,0,0,.34,0,.34a11.81,11.81,0,0,0,.4,2.16s.29-1.07.29-1.07l.1-.34.38-1.22a18.57,18.57,0,0,1,3.91-6.51c3.79-4.16,7.77-6.44,11.61-8.64a44.72,44.72,0,0,0,8.42-5.73A21.2,21.2,0,0,0,231,20l.2-.46-.09,0a25.25,25.25,0,0,0-6.09-.14Z" transform="translate(-18 -1)"/><path class="cls-2" d="M232.13,32.63h0A53.78,53.78,0,0,0,213,39.94c-6.53,4.23-9.91,8.51-11.32,14.3a2,2,0,0,0-.05.45,10,10,0,0,0,1.17,3.78L204,60.55v0a12.39,12.39,0,0,1,.65-2.46c.82-2.2,2.73-7.35,11.52-11.59a54.7,54.7,0,0,1,17.57-4.73,95.65,95.65,0,0,1,20.44-.6h0a26.82,26.82,0,0,0-2.84-7.7L250.57,32l-.23-.37-.07-.11a1,1,0,0,0-.29-.09,45.53,45.53,0,0,0-4.61-.17,67.16,67.16,0,0,0-13.24,1.38Z" transform="translate(-18 -1)"/><path class="cls-3" d="M254.93,49.37a29.72,29.72,0,0,0,0-5.88.49.49,0,0,0-.13-.32.32.32,0,0,0-.24-.09c-1.68-.14-3.53-.2-5.61-.17-11.88.15-27,3.15-33.74,9.71a11.91,11.91,0,0,0-3.51,11.89,12.22,12.22,0,0,0,8.82,8.83,8.09,8.09,0,0,0,2.57.32s.21,0,.23-.09-.17-.2-.17-.2a11.29,11.29,0,0,1-.83-.78,7.14,7.14,0,0,1-.71-.93,10.18,10.18,0,0,1-1.26-2.87,7.37,7.37,0,0,1,2.05-7.33c3.36-3.49,10.76-5.79,23.68-5.77l7.12.13s.22,0,.31-.07.06,0,.14-.27a28.38,28.38,0,0,0,1.32-6.11Z" transform="translate(-18 -1)"/><path class="cls-3" d="M231.12,19.26a27.52,27.52,0,0,0-11,.73.86.86,0,0,0-.3.11.57.57,0,0,0-.11.22c-1,3.61-6.73,7.61-8.13,8.79a60.27,60.27,0,0,0-5.5,5,30.62,30.62,0,0,0-4,5.23,16.58,16.58,0,0,0-2,5.61,18.22,18.22,0,0,0-.21,4.17h0s0,.25,0,.36a10.64,10.64,0,0,0,.48,2.44c0,.14.09.29.2.29s.14-.19.18-.32.2-.78.35-1.29.29-1,.48-1.55a18.19,18.19,0,0,1,3.85-6.41c6.67-7.33,13.93-8.79,20-14.36a21.88,21.88,0,0,0,5.84-8.6c.05-.11.11-.2.05-.29a.53.53,0,0,0-.32-.12Z" transform="translate(-18 -1)"/><path class="cls-3" d="M254.51,41.12a26.77,26.77,0,0,0-2.88-7.83,20.31,20.31,0,0,0-1.07-1.8.57.57,0,0,0-.17-.22.78.78,0,0,0-.41-.12c-.76-.09-2.52-.16-4.61-.16h0a67.08,67.08,0,0,0-13.28,1.38,54.1,54.1,0,0,0-19.21,7.35c-5.66,3.67-9.82,7.82-11.44,14.45-.25,1,.42,2.92,1.14,4.41A18.23,18.23,0,0,0,204,60.9c.06.09.14.2.21.15s.06-.08.09-.19a14.79,14.79,0,0,1,.7-2.72c.87-2.35,2.87-7.34,11.39-11.44A55.29,55.29,0,0,1,233.82,42a95.23,95.23,0,0,1,20.39-.6c.12,0,.27,0,.3,0s0-.14,0-.25Z" transform="translate(-18 -1)"/><polygon class="cls-2" points="231.68 44.19 229.2 44.19 229.2 47.03 226.36 47.03 226.36 49.51 229.2 49.51 229.2 52.35 231.68 52.35 231.68 49.51 234.52 49.51 234.52 47.03 231.68 47.03 231.68 44.19"/><path d="M37.1,53.65a5.5,5.5,0,0,0,1.68,4.13C40,59,41.05,59.47,44.3,60.93c4.24,1.9,6.28,2.94,6.28,6S48.22,72,45,72a9.6,9.6,0,0,1-5.75-1.74A6.87,6.87,0,0,1,36.82,66l-.12-.44c-.7,0-.76.43-.76.56,0,1.11.38,4.56.62,6.25a2.07,2.07,0,0,0,.1.49l.17,0,.32-.13.67-.24,1.2.14a37.1,37.1,0,0,0,5.54.48c4,0,5.87-1,7-1.8a6.47,6.47,0,0,0,2.56-5.21c0-4.46-3.71-6.08-7-7.51L47,58.56c-4.76-2.09-6.73-3-6.73-6.14,0-2.84,2.05-4.75,5.11-4.75a7.13,7.13,0,0,1,4.14,1.16,6.19,6.19,0,0,1,2.32,3.59L52,53c.29,0,.66-.09.66-.28l-.17-1.85,0-.34a25.86,25.86,0,0,1,0-3.14v-.26l0-.16-.34,0-.49.18-.81-.09-1.36-.16a35.15,35.15,0,0,0-3.59-.2c-5.38,0-8.73,2.66-8.73,6.93Z" transform="translate(-18 -1)"/><path d="M77.48,55.84c-.08,0-.1.28-.1.28v.23a1.5,1.5,0,0,1,.3,0c.67,0,2.2.09,2.2,1.53a11.81,11.81,0,0,1-1,3.34l0,.13-3.5,7.78a.27.27,0,0,1-.25.16.28.28,0,0,1-.24-.18c-.57-1.62-3.51-10.42-3.51-11.27,0-1.22.93-1.28,2.21-1.37l.29-.07h0c0-.06,0-.27,0-.27l0-.25-.16,0-3.7,0-3.94,0c-.23,0-.23,0-.23.31l0,.18c.83.13,1.16.19,1.59.67a22,22,0,0,1,1.74,3.86.3.3,0,0,1,0,.21l-3.91,8.14a.24.24,0,0,1-.24.15.26.26,0,0,1-.24-.17l-2-5.19L62,62.34s-.15-.42-.15-.42a18.57,18.57,0,0,1-1.18-4c0-.92.57-1.37,1.92-1.5l.29,0v-.06c0-.08,0-.21,0-.21l0-.27-3.93,0-3.25,0-.18,0h0s0,.16,0,.16c0,.31,0,.31.33.47s.85.76,1.53,2.17c1.52,3.28,3.87,9.47,5.32,13.63,0,.06.25.62.26.63s1.34-.23,1.34-.23l.14,0h0s.11-.3.11-.3c1.32-3,2-4.33,4.69-9.65a.29.29,0,0,1,.26-.14.28.28,0,0,1,.23.18c1.55,4.35,2.61,7.75,3,9.35a4.88,4.88,0,0,0,.26.78s1.06-.15,1.06-.15a.64.64,0,0,0,.61-.41l1-2.35s.35-.76.35-.76c1.27-2.74,2.7-5.84,3.65-7.61,1.22-2.29,2.6-4.7,3.57-5.17.23-.13.26-.15.26-.42l0-.18c-.08,0-1,0-1,0l-1.75,0-2.39,0-.86,0Z" transform="translate(-18 -1)"/><path d="M87.94,47.44a2.09,2.09,0,0,0,1.79,1.79,2.15,2.15,0,0,0,2-1.91,2.14,2.14,0,0,0-1.83-1.83,2.26,2.26,0,0,0-1.92,1.95Zm2.12,8.09-2.45,1.12-1.89.86h0l-.12.06c-.27.14-.3.16-.3.4v.21s.44.1.44.1c2.22.28,2.22,1,2.22,5.36,0,2.45,0,5.8-.34,6.86s-.88,1.4-2.34,1.66c-.44.1-.44.1-.44.4l0,.2,1.66,0,3.11,0,3.43.06,1,0,.16,0h0s0-.29,0-.29l0-.25-.39-.07c-1.6-.08-2.59-.2-2.83-1.57a54.35,54.35,0,0,1-.21-6.75L91,57.88c0-.06.17-2.52.17-2.52s-.15-.09-.15-.09a2,2,0,0,0-.91.26Z" transform="translate(-18 -1)"/><path d="M97,60.14c0,2.8,2.45,3.94,4.61,5,2.6,1.22,4.31,2.16,4.31,4.14,0,1.39-.92,3-3.51,3a5.39,5.39,0,0,1-5.36-3.94l-.16-.52c-.38,0-.55.07-.55.17l.06.89.1,1.57,0,1.33,0,.69.05.27.29,0,.3,0,.43.06.58.09a21.68,21.68,0,0,0,3.72.35c1.18,0,7-.23,7-4.75,0-2.94-2.69-4.19-4.86-5.19-3.15-1.47-4.43-2.25-4.43-4,0-.46.15-2.77,3.1-2.77a4.77,4.77,0,0,1,4.48,3.11s.17.38.17.38h0c.49,0,.57-.05.58-.06h0l0-.17-.2-2.46-.09-1s-.08-.49-.08-.49a1.41,1.41,0,0,1-.3.07l-.3,0-.67-.07a21.6,21.6,0,0,0-2.87-.25c-6.13,0-6.43,3.85-6.43,4.62Z" transform="translate(-18 -1)"/><path d="M112.32,60.14c0,2.8,2.45,3.94,4.61,5,2.6,1.22,4.31,2.16,4.31,4.14,0,1.39-.92,3-3.51,3a5.39,5.39,0,0,1-5.36-3.94l-.16-.52c-.38,0-.55.07-.55.17l.06.89.1,1.57,0,1.33,0,.69,0,.27.29,0,.3,0,.43.06.58.09a21.68,21.68,0,0,0,3.72.35c1.18,0,7-.23,7-4.75,0-2.94-2.69-4.19-4.86-5.19-3.15-1.47-4.43-2.25-4.43-4,0-.46.15-2.77,3.1-2.77a4.77,4.77,0,0,1,4.48,3.11s.17.38.17.38h0c.48,0,.56-.05.57-.06h0l0-.17-.2-2.46-.09-1s-.08-.49-.08-.49a1.41,1.41,0,0,1-.3.07l-.3,0-.67-.07a21.6,21.6,0,0,0-2.87-.25c-6.12,0-6.43,3.85-6.43,4.62Z" transform="translate(-18 -1)"/><path d="M136.21,47.16l-3.07.09-4.85-.16h-.18a.15.15,0,0,1,0,.06c0,.1,0,.28,0,.28v.13a3.55,3.55,0,0,0,.79.15c2.32.36,2.53,1.37,2.53,4.16v6c0,3.4,0,8.53-.25,11.09-.15,1.34-.34,3-3,3.23l-.45.08v0c0,.07,0,.29,0,.29l0,.25.2,0,.48,0c.94-.06,3.13-.19,8.77-.19s7.63.12,8.53.18l.71,0c.18,0,.24-.11.47-.93A27.14,27.14,0,0,0,148,66.27c0-.09,0-.19-.64-.19a3.09,3.09,0,0,0-.22.64,6.42,6.42,0,0,1-2.44,3.72c-1.5.9-4.4.9-7,.9-1.61,0-2.58,0-2.84-1.23a73.69,73.69,0,0,1-.34-9.43c0-2.13,0-9.21.38-10.87s1.29-2,3-2.1l.47-.09,0-.34c0-.17,0-.19-.19-.19l-2.11.07Z" transform="translate(-18 -1)"/><path d="M153.17,47.44A2.09,2.09,0,0,0,155,49.23a2.15,2.15,0,0,0,2-1.91,2.14,2.14,0,0,0-1.83-1.83,2.26,2.26,0,0,0-1.92,1.95Zm2.12,8.09-2.46,1.12-1.88.86h0l-.12.06c-.27.15-.3.16-.3.4l0,.22a3.29,3.29,0,0,1,.43.09c2.22.28,2.22,1,2.22,5.36,0,2.45,0,5.8-.34,6.86s-.88,1.4-2.34,1.66c-.44.1-.44.1-.44.4l0,.2,1.66,0,3.11,0,3.43.06,1,0,.16,0h0s0-.29,0-.29l0-.25-.39-.07c-1.59-.08-2.59-.2-2.83-1.57a54.23,54.23,0,0,1-.21-6.75l.12-5.95s.17-2.49.17-2.49-.15-.09-.15-.09a2,2,0,0,0-.91.26Z" transform="translate(-18 -1)"/><path d="M166.43,48.3h0c-1.8,2.32-1.83,3.92-1.92,7.41a.28.28,0,0,1-.15.24l-2.22,1a2.18,2.18,0,0,0,0,.42v.21l2.11-.06a.24.24,0,0,1,.19.08.23.23,0,0,1,.07.18L164.39,69c-.08,2.31-.36,2.93-2.32,3.21l-.29.07v0c0,.06,0,.27,0,.27l0,.3s1.17-.06,1.17-.06l2.56-.05,4.11.05,1.44,0c.55,0,.55,0,.55-.4l0-.26-.31,0c-2.86,0-3.77-.4-3.86-2.89l-.08-11.47a.27.27,0,0,1,.08-.19.25.25,0,0,1,.18-.08h5.59c.27,0,.27,0,.27-.76v-.23l0-.56-5.84,0a.27.27,0,0,1-.26-.27c0-6.36.21-9.43,4.91-9.43a5.44,5.44,0,0,1,3.83,1.22l.32.28c.21.18.4.35.49.35.28,0,2-.76,2-1.5,0-1-1.63-2.37-4.59-2.37a10.32,10.32,0,0,0-7.85,4.09Z" transform="translate(-18 -1)"/><path d="M174.87,65.2c0,1.86.5,7.92,6.89,7.92a11.22,11.22,0,0,0,6.94-2.57c.37-.28.4-.38.4-.54l0-.34s-.06-.14-.06-.13a9.19,9.19,0,0,1-5.26,1.76c-5,0-5.72-5-5.81-7.11v0a.26.26,0,0,1,.21-.25c3-.6,6.86-1.37,10.89-2v-.05A9.44,9.44,0,0,0,188.7,60a5.92,5.92,0,0,0-5.83-4.44c-3.93,0-8,3.62-8,9.68Zm3.1-2.1a.27.27,0,0,1-.09-.21c0-3.19,1.25-6.42,3.84-6.42,2.24,0,3.92,2.48,3.92,4.08,0,.65-.45,1-1.67,1.33-3,.74-4,1-5.78,1.28a.29.29,0,0,1-.22-.06Z" transform="translate(-18 -1)"/><path d="M51.71,71.57c-1.27,1-3.2,1.85-7.15,1.85a58,58,0,0,1-6.74-.61c-.49,0-.53.37-1,.37s-.45-.13-.53-.75c-.25-1.72-.62-5.18-.62-6.29,0-.36.25-.82,1-.82.29,0,.33.25.41.66a6.67,6.67,0,0,0,2.3,4.07A9.3,9.3,0,0,0,45,71.74c3,0,5.35-1.94,5.35-4.81s-1.9-3.87-6.13-5.76c-3.2-1.44-4.36-2-5.59-3.21a5.77,5.77,0,0,1-1.77-4.31c0-4.19,3.13-7.2,9-7.2,1.06,0,2.46.09,3.61.21s2,.25,2.14.25a.66.66,0,0,0,.41-.17,1.06,1.06,0,0,1,.41,0c.25,0,.29.17.29.41a33.17,33.17,0,0,0,0,3.37c.08.83.21,2,.21,2.22,0,.41-.54.54-.91.54s-.28-.13-.49-.74A5.93,5.93,0,0,0,49.33,49a6.91,6.91,0,0,0-4-1.11c-2.75,0-4.85,1.69-4.85,4.48,0,3.05,1.94,3.87,6.7,6,3.29,1.44,7.2,3.13,7.2,7.77a6.71,6.71,0,0,1-2.68,5.43Z" transform="translate(-18 -1)"/><path d="M83.4,56.69c-.94.45-2.42,3.12-3.45,5.06s-2.67,5.51-4,8.34c-.28.7-.9,2.1-1,2.35a.89.89,0,0,1-.83.57l-1,.13c-.29,0-.33,0-.58-1-.49-1.81-1.6-5.3-3-9.33-2.8,5.42-3.41,6.74-4.69,9.62-.16.45-.16.45-.45.49l-1.44.21c-.16,0-.2-.13-.45-.79-1.4-4-3.78-10.31-5.3-13.6-.62-1.28-1-1.85-1.36-2s-.53-.25-.53-.75c0-.32.08-.45.45-.45.86,0,2.59.05,3.25.05,1.43,0,2.75-.05,4-.05.17,0,.21.25.21.54,0,.49,0,.53-.53.57-1.32.13-1.69.54-1.69,1.24a22.23,22.23,0,0,0,1.32,4.31c.65,1.69,1.31,3.46,2.67,6.87.74-1.52,3-6.29,3.9-8.14a23.33,23.33,0,0,0-1.68-3.78c-.37-.41-.62-.46-1.4-.58-.25,0-.29-.21-.29-.45,0-.41.08-.58.5-.58,1.1,0,3.2.05,3.94.05.9,0,3.25-.05,3.7-.05s.45.17.45.54,0,.53-.53.61c-1.28.09-2,.13-2,1.11,0,.75,2.72,9,3.5,11.19,1.23-2.67,2.67-5.8,3.49-7.77a12.61,12.61,0,0,0,1.07-3.37c0-1.07-1-1.24-1.93-1.28-.54,0-.58,0-.58-.49s0-.54.37-.54,1.93.05,3.25.05c1,0,2.18-.05,2.71-.05.29,0,.37.17.37.45a.6.6,0,0,1-.41.66Z" transform="translate(-18 -1)"/><path d="M94.09,73c-.58,0-2.43-.08-4.44-.08-1.6,0-3.9.08-4.68.08-.29,0-.37-.08-.37-.45s.08-.53.65-.66c1.36-.25,1.85-.57,2.14-1.48s.33-4.4.33-6.78c0-4.28,0-4.85-2-5.1-.66-.12-.7-.12-.7-.57s.2-.5.57-.7c.78-.33,3.33-1.56,4.32-2A2.35,2.35,0,0,1,91,55c.29,0,.42.12.42.36,0,.58-.13,1.82-.17,2.47,0,.95-.12,2.8-.12,6,0,1.28,0,5.8.2,6.7.21,1.15,1,1.28,2.59,1.36.58,0,.66.12.66.58s-.12.57-.45.57ZM89.73,49.5a2.36,2.36,0,0,1-2-2.06,2.53,2.53,0,0,1,2.18-2.22A2.4,2.4,0,0,1,92,47.32a2.42,2.42,0,0,1-2.22,2.18Z" transform="translate(-18 -1)"/><path d="M101.86,73.38A22.79,22.79,0,0,1,98,73c-.37,0-.7-.12-.86-.12s-.41.08-.57.08-.33-.21-.33-.53,0-1.16,0-2c0-.65-.17-2.09-.17-2.46s.33-.41.79-.41c.24,0,.28.08.45.69A5.07,5.07,0,0,0,102.43,72c2.63,0,3.25-1.72,3.25-2.75,0-1.77-1.44-2.63-4.15-3.9-2.3-1.07-4.77-2.27-4.77-5.18,0-1.9,1.32-4.89,6.7-4.89,1.48,0,3.25.32,3.54.32.12,0,.41-.08.57-.08s.29.08.37.7c.08.94.29,2.8.29,3.45,0,.37-.08.49-.82.49-.21,0-.29-.08-.46-.53a4.59,4.59,0,0,0-4.23-3c-2.47,0-2.84,1.73-2.84,2.51,0,1.6,1.11,2.3,4.28,3.78,2.22,1,5,2.35,5,5.43,0,4.27-4.93,5-7.31,5Z" transform="translate(-18 -1)"/><path d="M117.15,73.38a22.79,22.79,0,0,1-3.87-.37c-.37,0-.7-.12-.86-.12s-.41.08-.57.08-.33-.21-.33-.53,0-1.16,0-2c0-.65-.17-2.09-.17-2.46s.33-.41.79-.41c.24,0,.28.08.45.69A5.08,5.08,0,0,0,117.72,72c2.63,0,3.25-1.72,3.25-2.75,0-1.77-1.44-2.63-4.15-3.9-2.3-1.07-4.77-2.27-4.77-5.18,0-1.9,1.32-4.89,6.7-4.89,1.48,0,3.25.32,3.54.32.12,0,.41-.08.57-.08s.29.08.37.7c.08.94.29,2.8.29,3.45,0,.37-.08.49-.82.49-.21,0-.29-.08-.45-.53a4.61,4.61,0,0,0-4.24-3c-2.47,0-2.84,1.73-2.84,2.51,0,1.6,1.11,2.3,4.28,3.78,2.22,1,5,2.35,5,5.43,0,4.27-4.93,5-7.31,5Z" transform="translate(-18 -1)"/><path d="M147.19,71.9c-.24.86-.32,1.19-.74,1.19-.86,0-1.56-.2-9.24-.2-7.11,0-8.76.2-9.25.2s-.5-.12-.5-.53c0-.58.05-.58.7-.66,2.39-.21,2.59-1.56,2.76-3,.24-2.55.24-7.69.24-11.06v-6c0-2.75-.2-3.57-2.3-3.9-.94-.13-1-.17-1-.54,0-.57.09-.61.46-.61,1.27,0,3.66.16,4.85.16,1.52,0,4.15-.16,5.18-.16a.39.39,0,0,1,.45.45c0,.57,0,.62-.74.7-1.81.12-2.55.53-2.8,1.89a105.49,105.49,0,0,0-.37,10.81,74.47,74.47,0,0,0,.33,9.37c.21,1,.87,1,2.59,1,2.55,0,5.39,0,6.82-.86a6.06,6.06,0,0,0,2.31-3.5c.16-.57.24-.9.49-.9.78,0,.9.16.9.45a26.27,26.27,0,0,1-1.11,5.63Z" transform="translate(-18 -1)"/><path d="M159.32,73c-.57,0-2.42-.08-4.44-.08-1.6,0-3.9.08-4.68.08-.29,0-.37-.08-.37-.45s.08-.53.65-.66c1.36-.25,1.86-.57,2.14-1.48s.33-4.4.33-6.78c0-4.28,0-4.85-2-5.1-.66-.12-.7-.12-.7-.57s.2-.5.57-.7c.78-.33,3.33-1.56,4.32-2a2.35,2.35,0,0,1,1-.28c.29,0,.41.12.41.36,0,.58-.12,1.82-.16,2.47,0,.95-.12,2.8-.12,6,0,1.28,0,5.8.2,6.7.21,1.15,1,1.28,2.59,1.36.58,0,.66.12.66.58s-.12.57-.45.57ZM155,49.5a2.36,2.36,0,0,1-2.05-2.06,2.53,2.53,0,0,1,2.18-2.22,2.4,2.4,0,0,1,2.09,2.1A2.42,2.42,0,0,1,155,49.5Z" transform="translate(-18 -1)"/><path d="M176.91,48.35c-.25,0-.49-.29-1-.7a5.12,5.12,0,0,0-3.66-1.15c-4.44,0-4.65,2.71-4.65,9.16h5.76c.41,0,.37.13.37,1s0,1-.54,1h-5.59c0,3.82,0,9,.08,11.47.09,2.3.87,2.63,3.62,2.63.54,0,.58.12.58.57s-.08.66-.82.66-3.62-.08-5.55-.08c-1.4,0-3.13.08-3.78.08-.21,0-.25-.25-.25-.53,0-.5,0-.54.53-.62,1.73-.25,2-.66,2.1-3,.08-2.71.08-8.22.08-11.18h-2.14c-.24,0-.24-.08-.24-.41,0-.5,0-.54.2-.66l2.22-1c.09-3.57.13-5.18,2-7.56A10.54,10.54,0,0,1,174.28,44c3.08,0,4.85,1.47,4.85,2.63,0,.94-1.89,1.77-2.22,1.77Z" transform="translate(-18 -1)"/><path d="M188.88,70.75a11.46,11.46,0,0,1-7.12,2.63c-5.92,0-7.15-5.06-7.15-8.18,0-6.41,4.36-10,8.26-10A6.18,6.18,0,0,1,189,59.9c.25,1,.46,2.22.25,2.26-3.7.57-7.35,1.27-11,2,.12,2.88,1.23,6.87,5.55,6.87A8.86,8.86,0,0,0,189,69.23c.12-.13.2-.17.24,0s.09.49.13.78-.13.45-.49.74Zm-7.16-14c-2.42,0-3.53,3.13-3.58,6.17,1.73-.29,2.8-.53,5.76-1.28,1.27-.32,1.48-.65,1.48-1.06,0-1.48-1.6-3.83-3.66-3.83Z" transform="translate(-18 -1)"/><rect class="cls-4" width="236" height="97"/></svg>