<?xml version="1.0" encoding="UTF-8"?>
<svg version="1.1" xmlns="http://www.w3.org/2000/svg" width="256" height="55">
<path d="M0 0 C4.66962549 3.23281765 7.77233045 6.38341182 9 12 C9.97795565 21.73880835 8.65511617 29.62842833 2.9375 37.625 C-2.80505088 44.5720266 -10.36855073 50.24091519 -19.45703125 51.28125 C-27.82897957 51.74961075 -34.02304065 49.48400291 -40.33203125 43.95703125 C-42.28811456 42.02209479 -44.15909555 40.04394539 -46 38 C-46.66 37.34 -47.32 36.68 -48 36 C-48.80824219 36.62648437 -49.61648437 37.25296875 -50.44921875 37.8984375 C-51.52841637 38.72425829 -52.60785635 39.54976242 -53.6875 40.375 C-54.21794922 40.7875 -54.74839844 41.2 -55.29492188 41.625 C-62.02941228 46.74817062 -67.64426696 47.98158391 -76 47 C-79.85432136 45.21049365 -81.49773376 43.73665715 -83.875 40.25 C-85.96710995 34.20612681 -85.56315969 28.83353238 -83.09765625 23.01953125 C-80.17090147 17.63471907 -76.5194651 13.22207631 -70.75 10.875 C-64.60882825 9.26110845 -58.28431536 10.1671585 -52.74609375 13.2578125 C-50.8125 14.625 -50.8125 14.625 -48 17 C-44.24128856 15.42291828 -41.74694124 13.04470595 -38.8125 10.25 C-27.850563 0.13578613 -14.76992605 -8.3985854 0 0 Z M-39 26 C-36.65320318 32.13856462 -33.72983896 36.19631828 -27.859375 39.26953125 C-24.70948242 40.50698905 -22.32399502 40.48349018 -19 40 C-13.2787631 37.08329099 -10.02622226 33.07866678 -8 27 C-7.46905301 22.35203781 -7.35215177 19.03655716 -9.875 15 C-13.07280218 11.99030383 -15.38291518 11.58056228 -19.79296875 11.66796875 C-27.85279134 12.88050843 -33.72494297 20.39525191 -39 26 Z M-69 24 C-71.29404844 27.44107266 -71.26293056 28.96839809 -71 33 C-70.67 33.33 -70.34 33.66 -70 34 C-63.49953338 33.86999067 -60.40248495 31.37572212 -56 27 C-56.76082821 24.98776235 -56.76082821 24.98776235 -58 23 C-62.22815191 21.90381247 -65.36958723 21.31080536 -69 24 Z " fill="#1E388F" transform="translate(85,3)"/>
<path d="M0 0 C4.66962549 3.23281765 7.77233045 6.38341182 9 12 C9.97795565 21.73880835 8.65511617 29.62842833 2.9375 37.625 C-2.42119481 44.09630517 -8.51861693 49.01522403 -17 50 C-15.38405168 47.95880212 -13.7143618 45.95927063 -12 44 C-11.34 44 -10.68 44 -10 44 C-9.731875 43.360625 -9.46375 42.72125 -9.1875 42.0625 C-8 40 -8 40 -5 39 C-5 38.34 -5 37.68 -5 37 C-4.34 37 -3.68 37 -3 37 C-3 31.06 -3 25.12 -3 19 C-3.66 19 -4.32 19 -5 19 C-5.2475 18.401875 -5.495 17.80375 -5.75 17.1875 C-7.23123353 14.59534131 -8.46050312 13.56544328 -11 12 C-13.80883637 11.42770132 -13.80883637 11.42770132 -16.75 11.3125 C-18.22726563 11.21388672 -18.22726563 11.21388672 -19.734375 11.11328125 C-20.48203125 11.07589844 -21.2296875 11.03851563 -22 11 C-21.34 10.34 -20.68 9.68 -20 9 C-19.01 9 -18.02 9 -17 9 C-17 8.34 -17 7.68 -17 7 C-12.71 7 -8.42 7 -4 7 C-4.66 6.01 -5.32 5.02 -6 4 C-9.21633633 3.55714515 -9.21633633 3.55714515 -12.875 3.6875 C-14.10992187 3.69136719 -15.34484375 3.69523438 -16.6171875 3.69921875 C-19.77336638 3.97984897 -21.31361591 4.48815604 -24 6 C-24.99 6 -25.98 6 -27 6 C-27.103125 6.598125 -27.20625 7.19625 -27.3125 7.8125 C-28.11316103 10.36005783 -28.86057532 11.41524098 -31 13 C-32.32 13 -33.64 13 -35 13 C-35.99 15.475 -35.99 15.475 -37 18 C-37.66 18 -38.32 18 -39 18 C-39.33 18.99 -39.66 19.98 -40 21 C-43 23 -43 23 -47 23 C-47.185625 23.61875 -47.37125 24.2375 -47.5625 24.875 C-49.71437233 28.05602866 -52.37533763 28.19451947 -56 29 C-54.04343039 25.4781747 -52.04899025 22.65557215 -49 20 C-48.34 20 -47.68 20 -47 20 C-46.78472656 19.45085938 -46.56945313 18.90171875 -46.34765625 18.3359375 C-44.54634575 15.21366597 -42.09149985 13.00817516 -39.4375 10.625 C-38.9017334 10.14039307 -38.3659668 9.65578613 -37.81396484 9.15649414 C-27.01101547 -0.45346186 -14.16257017 -8.05322617 0 0 Z " fill="#21358C" transform="translate(85,3)"/>
<path d="M0 0 C4.78993648 -0.47899365 8.65525045 -0.8170476 12.5625 2.3125 C15 5 15 5 15 8 C15.66 8 16.32 8 17 8 C17.73030908 14.21324498 18.23180249 19.84098757 17 26 C16.34 26 15.68 26 15 26 C15 26.66 15 27.32 15 28 C13.390625 29.55078125 13.390625 29.55078125 11.25 31.3125 C8.63237742 33.48854103 6.99376093 35.01011159 5.1875 37.9375 C2.53113625 40.44207154 1.45770377 40.43960134 -2.125 40.625 C-11.55745925 40.1477251 -17.98773416 35.56556108 -24.50390625 29.0625 C-26.24220095 26.66610417 -26.74762916 24.93623762 -27 22 C-25.6875 20.1875 -25.6875 20.1875 -24 19 C-23.34 19 -22.68 19 -22 19 C-21.67 18.01 -21.34 17.02 -21 16 C-17.65846174 17.11384609 -17.473264 17.47882293 -15.75 20.3125 C-12.97223303 24.35440045 -10.51980092 26.05180995 -6 28 C-1.80061868 28.58938685 0.35064459 28.30557902 4.1875 26.5 C8.94941943 22.26718273 11.16885828 17.69587921 11.5625 11.3125 C11.38871317 7.842756 10.98925347 6.98482843 8.875 4 C5.78007546 1.84700902 3.72790821 1.26008662 0 1 C0 0.67 0 0.34 0 0 Z " fill="#25579E" transform="translate(65,14)"/>
<path d="M0 0 C2.5 2.3125 2.5 2.3125 5 5 C6.30517578 6.06347656 6.30517578 6.06347656 7.63671875 7.1484375 C10.80847409 10.97551419 10.59094003 13.51904782 10.3125 18.3125 C10.28994141 19.05306641 10.26738281 19.79363281 10.24414062 20.55664062 C10.1855815 22.37197357 10.09590886 24.18625681 10 26 C9.01 26.33 8.02 26.66 7 27 C6.505 25.515 6.505 25.515 6 24 C5.61908203 25.28197266 5.61908203 25.28197266 5.23046875 26.58984375 C4.88628906 27.69457031 4.54210937 28.79929687 4.1875 29.9375 C3.85105469 31.03964844 3.51460937 32.14179687 3.16796875 33.27734375 C2.78253906 34.17582031 2.39710937 35.07429688 2 36 C1.01 36.33 0.02 36.66 -1 37 C-1 36.34 -1 35.68 -1 35 C-0.34 35 0.32 35 1 35 C1 29.06 1 23.12 1 17 C0.34 17 -0.32 17 -1 17 C-1.2475 16.401875 -1.495 15.80375 -1.75 15.1875 C-3.23123353 12.59534131 -4.46050312 11.56544328 -7 10 C-9.80883637 9.42770132 -9.80883637 9.42770132 -12.75 9.3125 C-14.22726563 9.21388672 -14.22726563 9.21388672 -15.734375 9.11328125 C-16.48203125 9.07589844 -17.2296875 9.03851563 -18 9 C-17.34 8.34 -16.68 7.68 -16 7 C-15.01 7 -14.02 7 -13 7 C-13 6.34 -13 5.68 -13 5 C-8.71 5 -4.42 5 0 5 C-0.66 4.01 -1.32 3.02 -2 2 C-5.21633633 1.55714515 -5.21633633 1.55714515 -8.875 1.6875 C-10.10992187 1.69136719 -11.34484375 1.69523438 -12.6171875 1.69921875 C-15.77336638 1.97984897 -17.31361591 2.48815604 -20 4 C-20.99 4 -21.98 4 -23 4 C-23.103125 4.598125 -23.20625 5.19625 -23.3125 5.8125 C-24.11316103 8.36005783 -24.86057532 9.41524098 -27 11 C-28.32 11 -29.64 11 -31 11 C-31.66 12.65 -32.32 14.3 -33 16 C-33.66 16 -34.32 16 -35 16 C-35.33 16.99 -35.66 17.98 -36 19 C-39 21 -39 21 -43 21 C-43.66 22.32 -44.32 23.64 -45 25 C-45.66 24.67 -46.32 24.34 -47 24 C-44.13300821 19.9384283 -40.90665987 17.27344367 -36.90234375 14.4296875 C-35.08576133 13.06445307 -33.56280895 11.64483483 -32 10 C-30.37347684 8.29413425 -28.70993434 6.6222454 -27 5 C-26.34 5 -25.68 5 -25 5 C-25 4.34 -25 3.68 -25 3 C-8.05938494 -4.45387063 -8.05938494 -4.45387063 0 0 Z " fill="#1E3A90" transform="translate(81,5)"/>
<path d="M0 0 C0.99 1.98 0.99 1.98 2 4 C-2.29 4 -6.58 4 -11 4 C-11 4.66 -11 5.32 -11 6 C-17 10 -17 10 -19 10 C-23.95759694 12.00664638 -27.41455761 14.96944056 -31.265625 18.57421875 C-33 20 -33 20 -35 20 C-35.66 21.32 -36.32 22.64 -37 24 C-37.66 24 -38.32 24 -39 24 C-39 24.66 -39 25.32 -39 26 C-39.99 26.33 -40.98 26.66 -42 27 C-42.33 27.99 -42.66 28.98 -43 30 C-46.0625 31.1875 -46.0625 31.1875 -49 32 C-49 32.66 -49 33.32 -49 34 C-49.66 34 -50.32 34 -51 34 C-51.3403125 34.928125 -51.3403125 34.928125 -51.6875 35.875 C-53.41639933 38.67417035 -54.87842357 39.10812102 -58 40 C-59.32 40 -60.64 40 -62 40 C-62 39.34 -62 38.68 -62 38 C-64.31 37.67 -66.62 37.34 -69 37 C-69 36.67 -69 36.34 -69 36 C-68.32453125 35.93941406 -67.6490625 35.87882812 -66.953125 35.81640625 C-66.06109375 35.73261719 -65.1690625 35.64882813 -64.25 35.5625 C-63.36828125 35.48128906 -62.4865625 35.40007813 -61.578125 35.31640625 C-59.2825922 35.03468177 -57.18952674 34.74287514 -55 34 C-53.71563266 32.0162233 -53.71563266 32.0162233 -53 30 C-52.34 30 -51.68 30 -51 30 C-51 29.34 -51 28.68 -51 28 C-50.34 28 -49.68 28 -49 28 C-48.67 27.01 -48.34 26.02 -48 25 C-46.01679982 23.96708324 -44.01652194 22.9662501 -42 22 C-41.67 21.34 -41.34 20.68 -41 20 C-38.66666667 19 -36.33333333 18 -34 17 C-33.67 16.34 -33.34 15.68 -33 15 C-32.34 15 -31.68 15 -31 15 C-30.6596875 13.824375 -30.6596875 13.824375 -30.3125 12.625 C-28.64728851 9.29457701 -27.364959 9.31315473 -24 8 C-23.54625 7.195625 -23.0925 6.39125 -22.625 5.5625 C-20.88175451 2.81353596 -19.41818585 1.66166035 -16.3828125 0.4921875 C-11.01692827 -0.61617547 -5.44759054 -0.20400131 0 0 Z " fill="#0F549E" transform="translate(79,6)"/>
<path d="M0 0 C0.66 0.33 1.32 0.66 2 1 C2.61486806 6.5565854 2.72655944 10.7472468 -0.6875 15.375 C-4.33306607 19.58142238 -7.33388606 22.93064768 -13 23.875 C-16.58645062 24.12349939 -18.91506761 24.02956078 -22 22 C-28 15.22673031 -28 15.22673031 -28 12 C-28.66 12 -29.32 12 -30 12 C-30.33 10.68 -30.66 9.36 -31 8 C-31.66 8 -32.32 8 -33 8 C-33 6.68 -33 5.36 -33 4 C-29.65846174 5.11384609 -29.473264 5.47882293 -27.75 8.3125 C-24.97223303 12.35440045 -22.51980092 14.05180995 -18 16 C-13.80061868 16.58938685 -11.64935541 16.30557902 -7.8125 14.5 C-3.33950037 10.52400032 -1.30318189 5.78045035 0 0 Z " fill="#5DA6DE" transform="translate(77,26)"/>
<path d="M0 0 C1.68222656 -0.05607422 1.68222656 -0.05607422 3.3984375 -0.11328125 C7.27124158 0.39777885 8.9022133 1.56421904 11.625 4.3125 C11.625 4.9725 11.625 5.6325 11.625 6.3125 C10.09375 7.8203125 10.09375 7.8203125 8.125 9.4375 C7.4753125 9.97632813 6.825625 10.51515625 6.15625 11.0703125 C5.6509375 11.48023438 5.145625 11.89015625 4.625 12.3125 C4.0371875 11.99667969 3.449375 11.68085938 2.84375 11.35546875 C-0.86416542 9.61248738 -4.68650301 9.13476347 -8.75 9.5625 C-9.28625 9.81 -9.8225 10.0575 -10.375 10.3125 C-10.705 11.3025 -11.035 12.2925 -11.375 13.3125 C-12.035 13.3125 -12.695 13.3125 -13.375 13.3125 C-12.63632404 4.4483885 -12.63632404 4.4483885 -9.375 1.3125 C-6.08407406 0.21552469 -3.46387841 0.0753017 0 0 Z " fill="#296AAF" transform="translate(26.375,16.6875)"/>
<path d="M0 0 C2.5625 2.375 2.5625 2.375 5 5 C5.763125 5.721875 6.52625 6.44375 7.3125 7.1875 C9 9 9 9 9 11 C7.68 11 6.36 11 5 11 C5 10.34 5 9.68 5 9 C-0.12919186 6.89571616 -4.5610835 6.78244334 -10 7 C-10 7.66 -10 8.32 -10 9 C-12.64 9 -15.28 9 -18 9 C-17.34 8.34 -16.68 7.68 -16 7 C-15.01 7 -14.02 7 -13 7 C-13 6.34 -13 5.68 -13 5 C-8.71 5 -4.42 5 0 5 C-0.66 4.01 -1.32 3.02 -2 2 C-5.21633633 1.55714515 -5.21633633 1.55714515 -8.875 1.6875 C-10.10992187 1.69136719 -11.34484375 1.69523438 -12.6171875 1.69921875 C-15.77336638 1.97984897 -17.31361591 2.48815604 -20 4 C-20.99 4 -21.98 4 -23 4 C-23.103125 4.598125 -23.20625 5.19625 -23.3125 5.8125 C-24.11316103 8.36005783 -24.86057532 9.41524098 -27 11 C-28.32 11 -29.64 11 -31 11 C-31.66 12.65 -32.32 14.3 -33 16 C-33.66 16 -34.32 16 -35 16 C-35.33 16.99 -35.66 17.98 -36 19 C-39 21 -39 21 -43 21 C-43.66 22.32 -44.32 23.64 -45 25 C-45.66 24.67 -46.32 24.34 -47 24 C-44.13300821 19.9384283 -40.90665987 17.27344367 -36.90234375 14.4296875 C-35.08576133 13.06445307 -33.56280895 11.64483483 -32 10 C-30.37347684 8.29413425 -28.70993434 6.6222454 -27 5 C-26.34 5 -25.68 5 -25 5 C-25 4.34 -25 3.68 -25 3 C-8.05938494 -4.45387063 -8.05938494 -4.45387063 0 0 Z " fill="#23489B" transform="translate(81,5)"/>
<path d="M0 0 C6.69430052 -0.44041451 6.69430052 -0.44041451 10 0 C12.625 2.5 12.625 2.5 14 5 C13.67 5.763125 13.34 6.52625 13 7.3125 C11.5581676 11.18742458 12.14694075 14.05460096 13 18 C11.1875 17.8125 11.1875 17.8125 9 17 C7.375 14.5 7.375 14.5 6 12 C5.34 11.67 4.68 11.34 4 11 C4 13.31 4 15.62 4 18 C2.68 17.67 1.36 17.34 0 17 C0 11.39 0 5.78 0 0 Z M4 4 C4.639375 4.12375 5.27875 4.2475 5.9375 4.375 C6.9584375 4.684375 6.9584375 4.684375 8 5 C8.33 5.66 8.66 6.32 9 7 C9 6.01 9 5.02 9 4 C7.35 4 5.7 4 4 4 Z M4 6 C4.33 6.66 4.66 7.32 5 8 C5.66 7.34 6.32 6.68 7 6 C6.01 6 5.02 6 4 6 Z " fill="#1A1A1A" transform="translate(170,13)"/>
<path d="M0 0 C3 0 3 0 4.82421875 1.75 C5.43910156 2.4925 6.05398437 3.235 6.6875 4 C7.31011719 4.7425 7.93273437 5.485 8.57421875 6.25 C9.04472656 6.8275 9.51523438 7.405 10 8 C10.33 5.36 10.66 2.72 11 0 C12.32 0 13.64 0 15 0 C15 5.94 15 11.88 15 18 C10.18570084 15.59285042 8.3654918 13.13037629 5 9 C4.67 11.97 4.34 14.94 4 18 C2.68 17.67 1.36 17.34 0 17 C0 11.39 0 5.78 0 0 Z " fill="#181A1A" transform="translate(135,13)"/>
<path d="M0 0 C0.99 0.66 1.98 1.32 3 2 C2.67 2.99 2.34 3.98 2 5 C0.865625 4.979375 -0.26875 4.95875 -1.4375 4.9375 C-4.81575674 4.58422523 -4.81575674 4.58422523 -6 6 C-6.04080783 7.99958364 -6.04254356 10.00045254 -6 12 C-5.01 12 -4.02 12 -3 12 C-3 10.68 -3 9.36 -3 8 C-1.00045254 7.95745644 1.00041636 7.95919217 3 8 C4 9 4 9 4.0625 12.5625 C4.041875 13.696875 4.02125 14.83125 4 16 C1.27387255 17.85376666 -0.13623489 17.99513447 -3.5 17.875 C-7.36705293 16.90823677 -8.72667187 16.2351208 -11 13 C-12.15711808 9.37436334 -12.3351709 7.73737598 -10.75 4.25 C-7.5308757 0.1111259 -5.05021892 -0.42085158 0 0 Z " fill="#1A1A1B" transform="translate(198,13)"/>
<path d="M0 0 C3.63 0 7.26 0 11 0 C11 1.32 11 2.64 11 4 C8.69 4 6.38 4 4 4 C4 4.99 4 5.98 4 7 C5.98 7 7.96 7 10 7 C10.5745952 10.73486879 11 14.21293268 11 18 C7.37 18 3.74 18 0 18 C0 12.06 0 6.12 0 0 Z M4 11 C4.33 11.99 4.66 12.98 5 14 C5 13.34 5 12.68 5 12 C6.65 12 8.3 12 10 12 C10 11.67 10 11.34 10 11 C8.02 11 6.04 11 4 11 Z " fill="#1A1A1A" transform="translate(155,13)"/>
<path d="M0 0 C3.63 0 7.26 0 11 0 C11 1.32 11 2.64 11 4 C8.69 4 6.38 4 4 4 C4 4.99 4 5.98 4 7 C5.98 7 7.96 7 10 7 C10 8.32 10 9.64 10 11 C8.02 11 6.04 11 4 11 C4 11.99 4 12.98 4 14 C6.31 14 8.62 14 11 14 C11 15.32 11 16.64 11 18 C7.37 18 3.74 18 0 18 C0 12.06 0 6.12 0 0 Z " fill="#191A1A" transform="translate(206,13)"/>
<path d="M0 0 C4.55384615 -0.36923077 4.55384615 -0.36923077 6.8125 1.5 C7.204375 1.995 7.59625 2.49 8 3 C8.66 2.01 9.32 1.02 10 0 C11.32 0 12.64 0 14 0 C13.38722388 2.96175123 12.74627478 4.38058783 11 7 C11.29978029 9.32329722 11.99002899 10.98064451 13.0625 13.0625 C14 15 14 15 14 18 C10.73045798 17.43628586 9.17424117 16.50037734 7 14 C6.5875 14.66 6.175 15.32 5.75 16 C5.1725 16.66 4.595 17.32 4 18 C2.68 18 1.36 18 0 18 C1.1094072 14.51329166 2.26337666 11.22515763 4 8 C3.01 6.576875 3.01 6.576875 2 5.125 C0 2 0 2 0 0 Z " fill="#191A1A" transform="translate(242,13)"/>
<path d="M0 0 C3.19410622 0.46580716 4.10442866 0.91007155 6 3.4375 C5.67 4.0975 5.34 4.7575 5 5.4375 C2.03 4.9425 2.03 4.9425 -1 4.4375 C0.37790293 7.19330586 2.37149993 7.92611246 5 9.4375 C6 10.4375 6 10.4375 6.3125 12.8125 C6 15.4375 6 15.4375 4.375 17.3125 C1.23335013 18.80064994 -0.69044136 18.26488966 -4 17.4375 C-4.33 16.1175 -4.66 14.7975 -5 13.4375 C-2.50907189 12.19203595 -1.58919267 12.6607422 1 13.4375 C0.21625 12.880625 -0.5675 12.32375 -1.375 11.75 C-4.12294597 9.32919046 -5.28451835 8.01490823 -6 4.4375 C-4.54639482 1.07603803 -3.63544961 0.53016973 0 0 Z " fill="#18191C" transform="translate(110,12.5625)"/>
<path d="M0 0 C3 1 3 1 4 3 C6.64 3 9.28 3 12 3 C11.67 4.32 11.34 5.64 11 7 C10.34 6.67 9.68 6.34 9 6 C9 7.32 9 8.64 9 10 C7.35 10 5.7 10 4 10 C3.67 9.01 3.34 8.02 3 7 C3 7.99 3 8.98 3 10 C-1.66666667 10 -6.33333333 10 -11 10 C-11 8.68 -11 7.36 -11 6 C-11.66 6 -12.32 6 -13 6 C-13 7.32 -13 8.64 -13 10 C-13.66 10 -14.32 10 -15 10 C-15 8.02 -15 6.04 -15 4 C-8.375 2.875 -8.375 2.875 -5 4 C-4.01 3.67 -3.02 3.34 -2 3 C-1.34 3.33 -0.68 3.66 0 4 C0 2.68 0 1.36 0 0 Z " fill="#19191B" transform="translate(190,37)"/>
<path d="M0 0 C1.32 0 2.64 0 4 0 C4.66 1.65 5.32 3.3 6 5 C6.66 5 7.32 5 8 5 C8.66 3.35 9.32 1.7 10 0 C11.98 0 13.96 0 16 0 C16 5.61 16 11.22 16 17 C15.67 17 15.34 17 15 17 C14.67 12.71 14.34 8.42 14 4 C10.00998622 8.64334093 10.00998622 8.64334093 9.25 13.8125 C9.19328125 14.60269531 9.1365625 15.39289062 9.078125 16.20703125 C9.05234375 16.79871094 9.0265625 17.39039062 9 18 C7.68 18 6.36 18 5 18 C4.96132812 17.12988281 4.96132812 17.12988281 4.921875 16.2421875 C4.51802796 10.68011239 3.37823336 7.57696132 0 3 C0 2.01 0 1.02 0 0 Z M14 1 C15 3 15 3 15 3 Z " fill="#1A191A" transform="translate(118,13)"/>
<path d="M0 0 C3.96 0 7.92 0 12 0 C11.67 5.28 11.34 10.56 11 16 C10.34 16 9.68 16 9 16 C8.67 16.66 8.34 17.32 8 18 C6.68 17.67 5.36 17.34 4 17 C4 12.71 4 8.42 4 4 C2.68 4 1.36 4 0 4 C0 2.68 0 1.36 0 0 Z " fill="#191B1A" transform="translate(219,13)"/>
<path d="M0 0 C0.33 0.99 0.66 1.98 1 3 C1.66 3 2.32 3 3 3 C3.33 4.32 3.66 5.64 4 7 C4.66 7 5.32 7 6 7 C7.08826849 8.59416628 8.12095097 10.22649159 9.125 11.875 C11.57227464 15.52272725 13.08757281 17.60512364 17.4375 18.625 C18.613125 18.74875 19.78875 18.8725 21 19 C21 19.33 21 19.66 21 20 C12.00079428 20.78633836 12.00079428 20.78633836 8.375 17.9375 C7.199375 16.4834375 7.199375 16.4834375 6 15 C3.91613157 13.24747464 1.80112222 11.54074402 -0.328125 9.84375 C-2.35491247 7.6086012 -2.6557529 5.95647511 -3 3 C-2.01 2.67 -1.02 2.34 0 2 C0 1.34 0 0.68 0 0 Z " fill="#2A70B3" transform="translate(43,31)"/>
<path d="M0 0 C2.31 0 4.62 0 7 0 C7 0.66 7 1.32 7 2 C5.35 2 3.7 2 2 2 C2 2.66 2 3.32 2 4 C3.32 4 4.64 4 6 4 C5.67 4.99 5.34 5.98 5 7 C4.01 6.67 3.02 6.34 2 6 C2 6.66 2 7.32 2 8 C3.32 8 4.64 8 6 8 C6.33 6.68 6.66 5.36 7 4 C10.75 2.875 10.75 2.875 13 4 C13.99 3.67 14.98 3.34 16 3 C16.66 3.33 17.32 3.66 18 4 C18 5.98 18 7.96 18 10 C12.06 10 6.12 10 0 10 C0 6.7 0 3.4 0 0 Z " fill="#1A1A1A" transform="translate(125,37)"/>
<path d="M0 0 C0.66 0.99 1.32 1.98 2 3 C5 3.16666667 5 3.16666667 8 3 C8.66 3.33 9.32 3.66 10 4 C10 5.98 10 7.96 10 10 C8.35 10 6.7 10 5 10 C5 8.68 5 7.36 5 6 C4.34 6 3.68 6 3 6 C3 7.32 3 8.64 3 10 C-4.33834586 10.36090226 -4.33834586 10.36090226 -7.0625 8.875 C-8.495401 6.009198 -7.84910305 4.00451848 -7 1 C-4.46578263 -0.26710868 -2.80561762 -0.28056176 0 0 Z M-5 2 C-5.33 3.32 -5.66 4.64 -6 6 C-3.37886292 6 -1.49064888 5.68707555 1 5 C1 4.34 1 3.68 1 3 C-1.97 2.505 -1.97 2.505 -5 2 Z " fill="#19191A" transform="translate(211,37)"/>
<path d="M0 0 C3.33701129 1.1123371 3.67511464 1.62413508 5.5 4.4375 C7.25977667 7.13920842 8.1990713 8.1327142 11 10 C11 10.99 11 11.98 11 13 C12.32 13.66 13.64 14.32 15 15 C15 15.66 15 16.32 15 17 C15.804375 17.12375 16.60875 17.2475 17.4375 17.375 C18.7059375 17.684375 18.7059375 17.684375 20 18 C20.33 18.66 20.66 19.32 21 20 C17.79946941 20.18143597 15.0568215 20.00604252 12 19 C9.12824407 16.33634232 6.93971682 13.3991822 5 10 C5 9.34 5 8.68 5 8 C4.34 8 3.68 8 3 8 C2.67 6.68 2.34 5.36 2 4 C1.34 4 0.68 4 0 4 C0 2.68 0 1.36 0 0 Z " fill="#4797D2" transform="translate(44,30)"/>
<path d="M0 0 C1.32 0 2.64 0 4 0 C4 5.61 4 11.22 4 17 C2.68 17.33 1.36 17.66 0 18 C-1.82116003 16.17883997 -1.1323508 13.69328236 -1.13671875 11.2734375 C-1.13285156 10.52320313 -1.12898437 9.77296875 -1.125 9 C-1.12886719 8.24976563 -1.13273438 7.49953125 -1.13671875 6.7265625 C-1.12661053 1.12661053 -1.12661053 1.12661053 0 0 Z " fill="#1A1B1A" transform="translate(235,13)"/>
<path d="M0 0 C3 1.875 3 1.875 5 4 C5 4.66 5 5.32 5 6 C1.53846154 9 1.53846154 9 -1 9 C-1 8.34 -1 7.68 -1 7 C-2.60875 6.5978125 -2.60875 6.5978125 -4.25 6.1875 C-7.56508928 5.13772173 -9.43877646 4.25387672 -12 2 C-8.30017362 -0.46655092 -4.29733183 -0.71480371 0 0 Z " fill="#51A1E1" transform="translate(33,17)"/>
<path d="M0 0 C10.95196507 -0.7860262 10.95196507 -0.7860262 15 2.25 C15.66 3.1575 16.32 4.065 17 5 C17.763125 5.721875 18.52625 6.44375 19.3125 7.1875 C21 9 21 9 21 11 C19.68 11 18.36 11 17 11 C17 10.34 17 9.68 17 9 C11.87080814 6.89571616 7.4389165 6.78244334 2 7 C2 7.66 2 8.32 2 9 C-0.64 9 -3.28 9 -6 9 C-5.34 8.34 -4.68 7.68 -4 7 C-3.01 7 -2.02 7 -1 7 C-1 6.34 -1 5.68 -1 5 C3.29 5 7.58 5 12 5 C10.36221601 1.7882039 10.36221601 1.7882039 7.6171875 1.48828125 C6.71226563 1.43027344 5.80734375 1.37226562 4.875 1.3125 C3.96492188 1.24675781 3.05484375 1.18101562 2.1171875 1.11328125 C1.41851562 1.07589844 0.71984375 1.03851563 0 1 C0 0.67 0 0.34 0 0 Z " fill="#0A4595" transform="translate(69,5)"/>
<path d="M0 0 C0.66 0.33 1.32 0.66 2 1 C2.625 4.0625 2.625 4.0625 3 7 C2.34 7 1.68 7 1 7 C0.67 7.99 0.34 8.98 0 10 C-2.0625 10.6875 -2.0625 10.6875 -4 11 C-5.76462683 7.91190305 -6 6.76687864 -6 3 C-6.33 4.32 -6.66 5.64 -7 7 C-7.66 7 -8.32 7 -9 7 C-9 5.02 -9 3.04 -9 1 C-6.01405576 -0.49297212 -3.29146376 -0.11755228 0 0 Z M-3 2 C-2 4 -2 4 -2 4 Z " fill="#1A191B" transform="translate(153,40)"/>
<path d="M0 0 C0.66 1.32 1.32 2.64 2 4 C-0.97 4 -3.94 4 -7 4 C-6.67 3.01 -6.34 2.02 -6 1 C-6.66386719 1.20496094 -7.32773438 1.40992188 -8.01171875 1.62109375 C-8.89472656 1.89050781 -9.77773437 2.15992188 -10.6875 2.4375 C-11.55761719 2.70433594 -12.42773438 2.97117187 -13.32421875 3.24609375 C-15.87025921 3.96344529 -18.4003423 4.517541 -21 5 C-21 4.34 -21 3.68 -21 3 C-14.24708362 -0.85880936 -7.61241576 -0.28506966 0 0 Z " fill="#05539E" transform="translate(79,6)"/>
<path d="M0 0 C1.32 0 2.64 0 4 0 C4.50403768 1.29009643 5.00309926 2.58213789 5.5 3.875 C5.7784375 4.59429687 6.056875 5.31359375 6.34375 6.0546875 C7 8 7 8 7 10 C4.69 10 2.38 10 0 10 C-1.125 8.375 -1.125 8.375 -2 6 C-1.125 2.75 -1.125 2.75 0 0 Z M1 6 C1 6.66 1 7.32 1 8 C1.66 7.67 2.32 7.34 3 7 C2.34 6.67 1.68 6.34 1 6 Z " fill="#1A191C" transform="translate(166,37)"/>
<path d="M0 0 C4.72584087 -0.47258409 8.15960276 -0.36859528 12.5625 1.5625 C15.00130422 3.84677944 15.02704031 5.2733107 15.36328125 8.671875 C15.43524438 12.46238568 15.25684182 16.2187176 15 20 C14.67 20 14.34 20 14 20 C13.87625 18.5459375 13.87625 18.5459375 13.75 17.0625 C13.08341405 12.39639835 11.39461837 8.05433662 9 4 C5.81237635 1.87491756 3.73487777 1.4979837 0 1 C0 0.67 0 0.34 0 0 Z " fill="#3267B4" transform="translate(65,14)"/>
<path d="M0 0 C0.33 0.99 0.66 1.98 1 3 C1.66 3 2.32 3 3 3 C3.33 4.32 3.66 5.64 4 7 C4.66 7 5.32 7 6 7 C7.5078125 8.75 7.5078125 8.75 9.125 11 C9.66382813 11.7425 10.20265625 12.485 10.7578125 13.25 C11.16773438 13.8275 11.57765625 14.405 12 15 C11.67 15.66 11.34 16.32 11 17 C10.51789062 16.50628906 10.03578125 16.01257813 9.5390625 15.50390625 C8.90742187 14.86324219 8.27578125 14.22257812 7.625 13.5625 C6.99851562 12.92441406 6.37203125 12.28632812 5.7265625 11.62890625 C4.08276939 9.92117824 4.08276939 9.92117824 2 9 C2 8.34 2 7.68 2 7 C0.68 6.67 -0.64 6.34 -2 6 C-2 4.68 -2 3.36 -2 2 C-1.34 2 -0.68 2 0 2 C0 1.34 0 0.68 0 0 Z " fill="#3A75BD" transform="translate(43,31)"/>
<path d="M0 0 C0.66 0 1.32 0 2 0 C2 1.32 2 2.64 2 4 C3.32 4 4.64 4 6 4 C6 2.68 6 1.36 6 0 C6.66 0 7.32 0 8 0 C8 3.3 8 6.6 8 10 C7.34 10 6.68 10 6 10 C6 8.68 6 7.36 6 6 C4.68 6 3.36 6 2 6 C2 7.32 2 8.64 2 10 C1.34 10 0.68 10 0 10 C0 6.7 0 3.4 0 0 Z " fill="#191B1B" transform="translate(228,37)"/>
<path d="M0 0 C0.66 0.33 1.32 0.66 2 1 C-1.10239453 8.45267959 -1.10239453 8.45267959 -4.5625 10.5625 C-7 11 -7 11 -10 10 C-8.37660195 8.29115995 -6.70680947 6.62553283 -5 5 C-4.34 5 -3.68 5 -3 5 C-2.690625 4.360625 -2.38125 3.72125 -2.0625 3.0625 C-1 1 -1 1 0 0 Z " fill="#224190" transform="translate(78,42)"/>
<path d="M0 0 C0.99 0.33 1.98 0.66 3 1 C2.34 3.64 1.68 6.28 1 9 C0.34 9 -0.32 9 -1 9 C-1.33 9.99 -1.66 10.98 -2 12 C-2.66 12 -3.32 12 -4 12 C-3.28571429 3.42857143 -3.28571429 3.42857143 0 0 Z " fill="#325CAC" transform="translate(17,18)"/>
<path d="M0 0 C1.93166016 0.01740234 1.93166016 0.01740234 3.90234375 0.03515625 C5.19269531 0.04417969 6.48304687 0.05320313 7.8125 0.0625 C8.81152344 0.07410156 9.81054688 0.08570313 10.83984375 0.09765625 C11.16984375 0.75765625 11.49984375 1.41765625 11.83984375 2.09765625 C8.75686324 3.12531642 6.50853949 3.26364363 3.27734375 3.28515625 C1.82134766 3.30642578 1.82134766 3.30642578 0.3359375 3.328125 C-2.16015625 3.09765625 -2.16015625 3.09765625 -4.16015625 1.09765625 C-3.16015625 0.09765625 -3.16015625 0.09765625 0 0 Z " fill="#24328A" transform="translate(11.16015625,46.90234375)"/>
<path d="M0 0 C1.98 0.495 1.98 0.495 4 1 C3.01 1.495 3.01 1.495 2 2 C5.3 3.65 8.6 5.3 12 7 C12 7.66 12 8.32 12 9 C6.06 7.515 6.06 7.515 0 6 C-1 2 -1 2 0 0 Z " fill="#327ABD" transform="translate(20,17)"/>
<path d="M0 0 C0.66 0 1.32 0 2 0 C2.33 0.99 2.66 1.98 3 3 C3.66 3.33 4.32 3.66 5 4 C5 5.65 5 7.3 5 9 C3.35 9.33 1.7 9.66 0 10 C0 6.7 0 3.4 0 0 Z M2 5 C3 8 3 8 3 8 Z " fill="#1A191B" transform="translate(222,37)"/>
<path d="M0 0 C1.8871875 0.0309375 1.8871875 0.0309375 3.8125 0.0625 C2.8225 0.5575 2.8225 0.5575 1.8125 1.0625 C2.1425 2.0525 2.4725 3.0425 2.8125 4.0625 C0.8325 3.4025 -1.1475 2.7425 -3.1875 2.0625 C-3.1875 2.7225 -3.1875 3.3825 -3.1875 4.0625 C-2.1975 4.3925 -1.2075 4.7225 -0.1875 5.0625 C-1.1775 5.5575 -1.1775 5.5575 -2.1875 6.0625 C-4.21894641 5.12803465 -6.22283587 4.13025224 -8.1875 3.0625 C-6.45706736 -0.39836529 -3.47359009 -0.0569441 0 0 Z " fill="#4190CD" transform="translate(29.1875,16.9375)"/>
<path d="M0 0 C-0.33 0.99 -0.66 1.98 -1 3 C-2.32 3 -3.64 3 -5 3 C-5 3.66 -5 4.32 -5 5 C-7.64 5 -10.28 5 -13 5 C-9.37863252 0.80683766 -5.43991867 -0.3108525 0 0 Z " fill="#065EA7" transform="translate(73,7)"/>
<path d="M0 0 C0.99 0.33 1.98 0.66 3 1 C4 4 4 4 3 7 C1.35 6.67 -0.3 6.34 -2 6 C-2 4.35 -2 2.7 -2 1 C-1.34 0.67 -0.68 0.34 0 0 Z " fill="#1A191C" transform="translate(158,40)"/>
<path d="M0 0 C-1.17578125 2.015625 -1.17578125 2.015625 -3 4 C-5.48046875 4.171875 -5.48046875 4.171875 -8.1875 3.75 C-9.08855469 3.62109375 -9.98960938 3.4921875 -10.91796875 3.359375 C-11.94857422 3.18148437 -11.94857422 3.18148437 -13 3 C-13 2.67 -13 2.34 -13 2 C-8.46298506 0.54815522 -4.81938524 -0.23509196 0 0 Z " fill="#27529C" transform="translate(71,49)"/>
<path d="M0 0 C3.72940389 1.24313463 4.84656811 2.76985216 7 6 C6.67 6.99 6.34 7.98 6 9 C5.01 8.67 4.02 8.34 3 8 C2.3125 5.9375 2.3125 5.9375 2 4 C1.34 4 0.68 4 0 4 C0 2.68 0 1.36 0 0 Z " fill="#519FE0" transform="translate(44,30)"/>
<path d="M0 0 C3.96 0 7.92 0 12 0 C12 0.33 12 0.66 12 1 C7.545 1.495 7.545 1.495 3 2 C3 2.66 3 3.32 3 4 C0.36 4 -2.28 4 -5 4 C-4.34 3.34 -3.68 2.68 -3 2 C-2.01 2 -1.02 2 0 2 C0 1.34 0 0.68 0 0 Z " fill="#184598" transform="translate(68,10)"/>
<path d="M0 0 C0.33 0.66 0.66 1.32 1 2 C1.66 2 2.32 2 3 2 C4.5078125 3.75 4.5078125 3.75 6.125 6 C6.66382813 6.7425 7.20265625 7.485 7.7578125 8.25 C8.16773438 8.8275 8.57765625 9.405 9 10 C8.67 10.66 8.34 11.32 8 12 C6.6547417 10.76284282 5.32412124 9.50975423 4 8.25 C3.2575 7.55390625 2.515 6.8578125 1.75 6.140625 C0 4 0 4 0 0 Z " fill="#3A89C6" transform="translate(46,36)"/>
<path d="M0 0 C0.66 0.33 1.32 0.66 2 1 C2.33 1.99 2.66 2.98 3 4 C3.66 4.33 4.32 4.66 5 5 C5 6.65 5 8.3 5 10 C0.22632794 6.69515012 0.22632794 6.69515012 -0.875 3.3125 C-0.91625 2.549375 -0.9575 1.78625 -1 1 C-0.67 0.67 -0.34 0.34 0 0 Z " fill="#214B98" transform="translate(39,35)"/>
<path d="M0 0 C0.33 1.32 0.66 2.64 1 4 C1.66 4 2.32 4 3 4 C3 4.66 3 5.32 3 6 C1.68 6.33 0.36 6.66 -1 7 C-1 6.34 -1 5.68 -1 5 C-2.32 5.33 -3.64 5.66 -5 6 C-5 5.34 -5 4.68 -5 4 C-4.34 4 -3.68 4 -3 4 C-2.67 3.01 -2.34 2.02 -2 1 C-1.34 0.67 -0.68 0.34 0 0 Z " fill="#1B4E9D" transform="translate(33,30)"/>
<path d="M0 0 C3.625 0.375 3.625 0.375 7 1 C7 1.99 7 2.98 7 4 C4 5 4 5 0 5 C0 4.34 0 3.68 0 3 C-0.66 2.67 -1.32 2.34 -2 2 C-1.34 1.34 -0.68 0.68 0 0 Z " fill="#1B58A5" transform="translate(58,11)"/>
<path d="M0 0 C0.33 0 0.66 0 1 0 C1 5.61 1 11.22 1 17 C0.34 16.67 -0.32 16.34 -1 16 C-0.67 10.72 -0.34 5.44 0 0 Z " fill="#191B1A" transform="translate(204,13)"/>
<path d="M0 0 C0.66 0 1.32 0 2 0 C2 5.61 2 11.22 2 17 C1.34 17 0.68 17 0 17 C0 11.39 0 5.78 0 0 Z " fill="#1A1A1A" transform="translate(167,13)"/>
<path d="M0 0 C-2.26969744 2.26969744 -3.97395487 2.99131829 -7 4 C-8.32 4 -9.64 4 -11 4 C-11 3.34 -11 2.68 -11 2 C-3.57142857 -1.57142857 -3.57142857 -1.57142857 0 0 Z " fill="#104C9C" transform="translate(69,7)"/>
<path d="M0 0 C0.99 0 1.98 0 3 0 C3 0.99 3 1.98 3 3 C2.34 3 1.68 3 1 3 C1 3.66 1 4.32 1 5 C-0.65 5.33 -2.3 5.66 -4 6 C-1.125 1.125 -1.125 1.125 0 0 Z " fill="#0E5CA1" transform="translate(29,35)"/>
<path d="M0 0 C0.99 0 1.98 0 3 0 C3.226875 0.639375 3.45375 1.27875 3.6875 1.9375 C4.85250896 4.27193661 4.85250896 4.27193661 7.625 4.75 C8.40875 4.8325 9.1925 4.915 10 5 C10 5.33 10 5.66 10 6 C6.67179946 6.22692276 4.58198664 6.32162419 1.625 4.6875 C0 3 0 3 0 0 Z " fill="#35449D" transform="translate(8,32)"/>
<path d="M0 0 C2.31590289 3.47385433 2.26991835 4.96430006 2.25 9.0625 C2.25515625 10.12597656 2.2603125 11.18945312 2.265625 12.28515625 C2 15 2 15 0 17 C0 11.39 0 5.78 0 0 Z " fill="#1A1A1A" transform="translate(240,13)"/>
<path d="M0 0 C0.33 0 0.66 0 1 0 C1 5.94 1 11.88 1 18 C0.67 18 0.34 18 0 18 C0 12.06 0 6.12 0 0 Z " fill="#191B1A" transform="translate(151,13)"/>
<path d="M0 0 C0.97608217 2.92824652 1.08226668 4.95613276 1 8 C0.01 8.33 -0.98 8.66 -2 9 C-1.125 1.125 -1.125 1.125 0 0 Z " fill="#3251A5" transform="translate(15,21)"/>
<path d="M0 0 C0.33 0 0.66 0 1 0 C1 5.61 1 11.22 1 17 C0.67 17 0.34 17 0 17 C0 11.39 0 5.78 0 0 Z " fill="#1A1A1A" transform="translate(153,13)"/>
<path d="M0 0 C0.33 0 0.66 0 1 0 C1 5.61 1 11.22 1 17 C0.67 17 0.34 17 0 17 C0 11.39 0 5.78 0 0 Z " fill="#191B1A" transform="translate(232,13)"/>
<path d="M0 0 C0.33 0 0.66 0 1 0 C1 2.31 1 4.62 1 7 C-0.65 5.68 -2.3 4.36 -4 3 C-3.67 2.34 -3.34 1.68 -3 1 C-2.34 1.66 -1.68 2.32 -1 3 C-0.67 2.01 -0.34 1.02 0 0 Z " fill="#181A1A" transform="translate(144,13)"/>
<path d="M0 0 C0.99 0 1.98 0 3 0 C3 3.96 3 7.92 3 12 C2.67 12 2.34 12 2 12 C2 8.37 2 4.74 2 1 C1.34 0.67 0.68 0.34 0 0 Z " fill="#181A1A" transform="translate(219,18)"/>
<path d="M0 0 C0.33 0 0.66 0 1 0 C1 3.96 1 7.92 1 12 C0.67 12 0.34 12 0 12 C0 8.04 0 4.08 0 0 Z " fill="#243580" transform="translate(95,15)"/>
<path d="M0 0 C3.63 0 7.26 0 11 0 C11 0.33 11 0.66 11 1 C7.37 1 3.74 1 0 1 C0 0.67 0 0.34 0 0 Z " fill="#2C3079" transform="translate(9,51)"/>
<path d="M0 0 C0.66 0.33 1.32 0.66 2 1 C1.67 3.31 1.34 5.62 1 8 C0.34 7.34 -0.32 6.68 -1 6 C-0.625 2.875 -0.625 2.875 0 0 Z " fill="#1B1A1B" transform="translate(184,16)"/>
<path d="M0 0 C3.63 0 7.26 0 11 0 C11 0.33 11 0.66 11 1 C7.37 1 3.74 1 0 1 C0 0.67 0 0.34 0 0 Z " fill="#1A1A1A" transform="translate(220,11)"/>
<path d="M0 0 C3.63 0 7.26 0 11 0 C11 0.33 11 0.66 11 1 C7.37 1 3.74 1 0 1 C0 0.67 0 0.34 0 0 Z " fill="#1A1A1A" transform="translate(206,11)"/>
<path d="M0 0 C3.63 0 7.26 0 11 0 C11 0.33 11 0.66 11 1 C7.37 1 3.74 1 0 1 C0 0.67 0 0.34 0 0 Z " fill="#191A1A" transform="translate(155,11)"/>
<path d="M0 0 C0.33 0 0.66 0 1 0 C1 3.3 1 6.6 1 10 C0.67 10 0.34 10 0 10 C0 6.7 0 3.4 0 0 Z " fill="#191B1B" transform="translate(237,37)"/>
<path d="M0 0 C0.33 0 0.66 0 1 0 C1 1.65 1 3.3 1 5 C2.98 5.495 2.98 5.495 5 6 C3.35 6 1.7 6 0 6 C0 4.02 0 2.04 0 0 Z " fill="#223C89" transform="translate(15,30)"/>
<path d="M0 0 C3.3 0 6.6 0 10 0 C10 0.33 10 0.66 10 1 C6.7 1 3.4 1 0 1 C0 0.67 0 0.34 0 0 Z " fill="#1A191C" transform="translate(206,32)"/>
<path d="M0 0 C0.33 0 0.66 0 1 0 C1 2.97 1 5.94 1 9 C0.67 9 0.34 9 0 9 C0 6.03 0 3.06 0 0 Z " fill="#1A1A19" transform="translate(123,37)"/>
<path d="M0 0 C2.97 0 5.94 0 9 0 C9 0.33 9 0.66 9 1 C6.03 1 3.06 1 0 1 C0 0.67 0 0.34 0 0 Z " fill="#1A191B" transform="translate(156,32)"/>
<path d="M0 0 C0.33 0 0.66 0 1 0 C1 2.97 1 5.94 1 9 C0.67 9 0.34 9 0 9 C0 6.03 0 3.06 0 0 Z " fill="#3B7ABA" transform="translate(75,21)"/>
<path d="M0 0 C2.64 0.33 5.28 0.66 8 1 C8 1.33 8 1.66 8 2 C5.36 1.67 2.72 1.34 0 1 C0 0.67 0 0.34 0 0 Z " fill="#1B1B1B" transform="translate(193,18)"/>
<path d="M0 0 C2.97 0 5.94 0 9 0 C9 0.33 9 0.66 9 1 C6.03 1 3.06 1 0 1 C0 0.67 0 0.34 0 0 Z " fill="#1A1A1A" transform="translate(171,11)"/>
<path d="M0 0 C0.99 1.485 0.99 1.485 2 3 C1.34 4.32 0.68 5.64 0 7 C0 4.69 0 2.38 0 0 Z " fill="#181A1A" transform="translate(140,23)"/>
<path d="M0 0 C0.33 0 0.66 0 1 0 C1 2.64 1 5.28 1 8 C0.67 8 0.34 8 0 8 C0 5.36 0 2.72 0 0 Z " fill="#1A191A" transform="translate(121,22)"/>
<path d="M0 0 C0.33 0 0.66 0 1 0 C1 2.64 1 5.28 1 8 C0.67 8 0.34 8 0 8 C0 5.36 0 2.72 0 0 Z " fill="#1A1A1A" transform="translate(128,22)"/>
<path d="M0 0 C0.99 1.485 0.99 1.485 2 3 C1.67 3.99 1.34 4.98 1 6 C0 5 0 5 -0.0625 2.4375 C-0.041875 1.633125 -0.02125 0.82875 0 0 Z " fill="#1B1A1B" transform="translate(192,19)"/>
<path d="M0 0 C2.31 0 4.62 0 7 0 C7 0.33 7 0.66 7 1 C4.69 1 2.38 1 0 1 C0 0.67 0 0.34 0 0 Z " fill="#66B4E7" transform="translate(59,41)"/>
<path d="M0 0 C0.66 1.32 1.32 2.64 2 4 C1.01 4.495 1.01 4.495 0 5 C0 3.35 0 1.7 0 0 Z " fill="#1A1A1A" transform="translate(175,25)"/>
<path d="M0 0 C0.33 0.66 0.66 1.32 1 2 C-0.98 2 -2.96 2 -5 2 C-5 1.67 -5 1.34 -5 1 C-3.35 0.67 -1.7 0.34 0 0 Z " fill="#181A1A" transform="translate(216,24)"/>
<path d="M0 0 C1.98 0 3.96 0 6 0 C5.67 0.66 5.34 1.32 5 2 C3.35 1.67 1.7 1.34 0 1 C0 0.67 0 0.34 0 0 Z " fill="#1A1A1A" transform="translate(211,18)"/>
<path d="M0 0 C1.98 0 3.96 0 6 0 C5.67 0.66 5.34 1.32 5 2 C3.35 1.67 1.7 1.34 0 1 C0 0.67 0 0.34 0 0 Z " fill="#1A1A1A" transform="translate(160,18)"/>
<path d="M0 0 C2.31 0 4.62 0 7 0 C7 0.33 7 0.66 7 1 C4.69 1 2.38 1 0 1 C0 0.67 0 0.34 0 0 Z " fill="#2C61B3" transform="translate(63,16)"/>
<path d="M0 0 C1.98 0 3.96 0 6 0 C6 0.33 6 0.66 6 1 C4.02 1 2.04 1 0 1 C0 0.67 0 0.34 0 0 Z " fill="#1A1A1A" transform="translate(125,48)"/>
<path d="M0 0 C0.66 0 1.32 0 2 0 C2 0.99 2 1.98 2 3 C1.34 3 0.68 3 0 3 C0 2.01 0 1.02 0 0 Z " fill="#191C1B" transform="translate(231,44)"/>
<path d="M0 0 C1.485 0.99 1.485 0.99 3 2 C1.68 2.33 0.36 2.66 -1 3 C-0.67 2.01 -0.34 1.02 0 0 Z " fill="#1A1A1A" transform="translate(133,37)"/>
<path d="M0 0 C0.66 0 1.32 0 2 0 C2 0.99 2 1.98 2 3 C1.34 3 0.68 3 0 3 C0 2.01 0 1.02 0 0 Z " fill="#1B1B1B" transform="translate(231,37)"/>
<path d="M0 0 C0.66 0 1.32 0 2 0 C2 0.99 2 1.98 2 3 C1.34 3 0.68 3 0 3 C0 2.01 0 1.02 0 0 Z " fill="#1B1B1B" transform="translate(225,37)"/>
<path d="M0 0 C0.99 0 1.98 0 3 0 C3 0.66 3 1.32 3 2 C2.01 2 1.02 2 0 2 C0 1.34 0 0.68 0 0 Z " fill="#1A191C" transform="translate(153,37)"/>
<path d="M0 0 C1.98 0 3.96 0 6 0 C6 0.33 6 0.66 6 1 C4.02 1 2.04 1 0 1 C0 0.67 0 0.34 0 0 Z " fill="#1A1A1A" transform="translate(125,35)"/>
<path d="M0 0 C1.98 0 3.96 0 6 0 C6 0.33 6 0.66 6 1 C4.02 1 2.04 1 0 1 C0 0.67 0 0.34 0 0 Z " fill="#1A1A1A" transform="translate(192,11)"/>
<path d="M0 0 C1.98 0 3.96 0 6 0 C6 0.33 6 0.66 6 1 C4.02 1 2.04 1 0 1 C0 0.67 0 0.34 0 0 Z " fill="#181A1C" transform="translate(107,11)"/>
<path d="M0 0 C1.65 0 3.3 0 5 0 C5 0.33 5 0.66 5 1 C3.35 1 1.7 1 0 1 C0 0.67 0 0.34 0 0 Z " fill="#1A191C" transform="translate(206,35)"/>
<path d="M0 0 C1.65 0 3.3 0 5 0 C5 0.33 5 0.66 5 1 C3.35 1 1.7 1 0 1 C0 0.67 0 0.34 0 0 Z " fill="#1A191C" transform="translate(193,32)"/>
<path d="M0 0 C0.33 0 0.66 0 1 0 C1 1.65 1 3.3 1 5 C0.67 5 0.34 5 0 5 C0 3.35 0 1.7 0 0 Z " fill="#1B181B" transform="translate(117,23)"/>
<path d="M0 0 C0.99 0.99 1.98 1.98 3 3 C2.01 2.67 1.02 2.34 0 2 C0 1.34 0 0.68 0 0 Z " fill="#1A191A" transform="translate(123,13)"/>
<path d="M0 0 C4 1 4 1 4 1 Z " fill="#1A1A1A" transform="translate(222,48)"/>
<path d="M0 0 C4 1 4 1 4 1 Z " fill="#1B1B1B" transform="translate(206,48)"/>
<path d="M0 0 C0.66 0.33 1.32 0.66 2 1 C1.01 1 0.02 1 -1 1 C-0.67 0.67 -0.34 0.34 0 0 Z " fill="#27328B" transform="translate(33,42)"/>
<path d="M0 0 C1 4 1 4 1 4 Z " fill="#1A191C" transform="translate(173,41)"/>
<path d="M0 0 C0 3 0 3 0 3 Z " fill="#1A191C" transform="translate(188,37)"/>
<path d="M0 0 C0.66 0.33 1.32 0.66 2 1 C1.01 1 0.02 1 -1 1 C-0.67 0.67 -0.34 0.34 0 0 Z " fill="#1A191C" transform="translate(157,38)"/>
<path d="M0 0 C0 3 0 3 0 3 Z " fill="#65AAE1" transform="translate(72,35)"/>
<path d="M0 0 C4 1 4 1 4 1 Z " fill="#1A191C" transform="translate(166,35)"/>
<path d="M0 0 C4 1 4 1 4 1 Z " fill="#181A1B" transform="translate(108,32)"/>
<path d="M0 0 C0 3 0 3 0 3 Z " fill="#181A1A" transform="translate(249,27)"/>
<path d="M0 0 C4 1 4 1 4 1 Z " fill="#206AA3" transform="translate(20,26)"/>
<path d="M0 0 C1 4 1 4 1 4 Z " fill="#1A1A1A" transform="translate(166,20)"/>
<path d="M0 0 C0.66 0.33 1.32 0.66 2 1 C1.01 1 0.02 1 -1 1 C-0.67 0.67 -0.34 0.34 0 0 Z " fill="#25308A" transform="translate(57,19)"/>
<path d="M0 0 C0.66 0.33 1.32 0.66 2 1 C1.01 1 0.02 1 -1 1 C-0.67 0.67 -0.34 0.34 0 0 Z " fill="#254797" transform="translate(38,18)"/>
<path d="M0 0 C0.99 0.495 0.99 0.495 2 1 C1.67 1.66 1.34 2.32 1 3 C0.67 2.01 0.34 1.02 0 0 Z " fill="#1A1A1A" transform="translate(248,13)"/>
<path d="M0 0 C0.66 0.33 1.32 0.66 2 1 C1.01 1 0.02 1 -1 1 C-0.67 0.67 -0.34 0.34 0 0 Z " fill="#253084" transform="translate(46,11)"/>
<path d="M0 0 C4 1 4 1 4 1 Z " fill="#252E85" transform="translate(23,12)"/>
<path d="M0 0 C4 1 4 1 4 1 Z " fill="#26337E" transform="translate(15,12)"/>
<path d="M0 0 C4 1 4 1 4 1 Z " fill="#1A1A1A" transform="translate(252,11)"/>
<path d="M0 0 C4 1 4 1 4 1 Z " fill="#1A1A1A" transform="translate(243,11)"/>
<path d="M0 0 C4 1 4 1 4 1 Z " fill="#181A1A" transform="translate(146,11)"/>
<path d="M0 0 C4 1 4 1 4 1 Z " fill="#1A1A1A" transform="translate(128,11)"/>
<path d="M0 0 C4 1 4 1 4 1 Z " fill="#181A1A" transform="translate(118,11)"/>
<path d="M0 0 C3 1 3 1 3 1 Z " fill="#28318D" transform="translate(68,54)"/>
<path d="M0 0 C3 1 3 1 3 1 Z " fill="#215599" transform="translate(54,54)"/>
<path d="M0 0 C3 1 3 1 3 1 Z " fill="#2B3882" transform="translate(71,53)"/>
<path d="M0 0 C3 1 3 1 3 1 Z " fill="#272F88" transform="translate(20,50)"/>
<path d="M0 0 C3 1 3 1 3 1 Z " fill="#2B2F85" transform="translate(6,50)"/>
<path d="M0 0 C3 1 3 1 3 1 Z " fill="#1B1B1B" transform="translate(186,48)"/>
<path d="M0 0 C3 1 3 1 3 1 Z " fill="#1B1B1B" transform="translate(166,48)"/>
<path d="M0 0 C3 1 3 1 3 1 Z " fill="#1A191C" transform="translate(157,48)"/>
<path d="M0 0 C3 1 3 1 3 1 Z " fill="#1B1B1B" transform="translate(139,48)"/>
<path d="M0 0 C0.66 0.66 1.32 1.32 2 2 C1.34 2 0.68 2 0 2 C0 1.34 0 0.68 0 0 Z " fill="#1A191C" transform="translate(162,44)"/>
<path d="M0 0 C0.66 0.66 1.32 1.32 2 2 C1.34 2 0.68 2 0 2 C0 1.34 0 0.68 0 0 Z " fill="#1A191C" transform="translate(162,41)"/>
<path d="M0 0 C3 1 3 1 3 1 Z " fill="#1A1A1A" transform="translate(207,40)"/>
<path d="M0 0 C0.33 0.66 0.66 1.32 1 2 C0.34 1.67 -0.32 1.34 -1 1 C-0.67 0.67 -0.34 0.34 0 0 Z " fill="#1C3187" transform="translate(37,39)"/>
<path d="M0 0 C0.66 0.66 1.32 1.32 2 2 C1.34 2 0.68 2 0 2 C0 1.34 0 0.68 0 0 Z " fill="#1A191C" transform="translate(194,38)"/>
<path d="" fill="#1A191C" transform="translate(0,0)"/>
<path d="" fill="#1A191C" transform="translate(0,0)"/>
<path d="M0 0 C0.33 0.66 0.66 1.32 1 2 C0.34 1.67 -0.32 1.34 -1 1 C-0.67 0.67 -0.34 0.34 0 0 Z " fill="#1A1A1A" transform="translate(151,37)"/>
<path d="M0 0 C3 1 3 1 3 1 Z " fill="#181A1A" transform="translate(253,32)"/>
<path d="M0 0 C3 1 3 1 3 1 Z " fill="#1A1A1A" transform="translate(243,32)"/>
<path d="M0 0 C3 1 3 1 3 1 Z " fill="#1B1B1B" transform="translate(235,32)"/>
<path d="M0 0 C3 1 3 1 3 1 Z " fill="#1B1B1B" transform="translate(224,32)"/>
<path d="M0 0 C3 1 3 1 3 1 Z " fill="#1A191C" transform="translate(171,32)"/>
<path d="" fill="#29328A" transform="translate(0,0)"/>
<path d="M0 0 C3 1 3 1 3 1 Z " fill="#191C1B" transform="translate(198,31)"/>
<path d="" fill="#4D96CD" transform="translate(0,0)"/>
<path d="" fill="#1D358F" transform="translate(0,0)"/>
<path d="" fill="#171A1A" transform="translate(0,0)"/>
<path d="" fill="#181A1A" transform="translate(0,0)"/>
<path d="M0 0 C3 1 3 1 3 1 Z " fill="#2C63A7" transform="translate(24,27)"/>
<path d="" fill="#1B1A1C" transform="translate(0,0)"/>
<path d="" fill="#1A1A1A" transform="translate(0,0)"/>
<path d="M0 0 C0.66 0 1.32 0 2 0 C1.67 0.66 1.34 1.32 1 2 C0.67 1.34 0.34 0.68 0 0 Z " fill="#181A1A" transform="translate(113,19)"/>
<path d="" fill="#1A1A1A" transform="translate(0,0)"/>
<path d="M0 0 C0.99 0.495 0.99 0.495 2 1 C1.01 1.495 1.01 1.495 0 2 C0 1.34 0 0.68 0 0 Z " fill="#1A1A1A" transform="translate(116,16)"/>
<path d="M0 0 C0.66 0 1.32 0 2 0 C1.67 0.66 1.34 1.32 1 2 C0.67 1.34 0.34 0.68 0 0 Z " fill="#181A1C" transform="translate(115,13)"/>
<path d="M0 0 C3 1 3 1 3 1 Z " fill="#2C3F96" transform="translate(27,13)"/>
<path d="M0 0 C3 1 3 1 3 1 Z " fill="#1A1A1A" transform="translate(235,11)"/>
<path d="M0 0 C3 1 3 1 3 1 Z " fill="#1A191A" transform="translate(135,11)"/>
<path d="M0 0 C3 1 3 1 3 1 Z " fill="#263189" transform="translate(19,11)"/>
<path d="M0 0 C3 1 3 1 3 1 Z " fill="#292F8D" transform="translate(61,0)"/>
<path d="M0 0 C2 1 2 1 2 1 Z " fill="#294EA7" transform="translate(52,53)"/>
<path d="M0 0 C2 1 2 1 2 1 Z " fill="#1A1A1A" transform="translate(149,52)"/>
<path d="M0 0 C2 1 2 1 2 1 Z " fill="#28348E" transform="translate(74,52)"/>
<path d="M0 0 C2 1 2 1 2 1 Z " fill="#2950A4" transform="translate(50,52)"/>
<path d="M0 0 C2 1 2 1 2 1 Z " fill="#1A191B" transform="translate(151,51)"/>
<path d="M0 0 C2 1 2 1 2 1 Z " fill="#2A3287" transform="translate(77,50)"/>
<path d="M0 0 C2 1 2 1 2 1 Z " fill="#294EA7" transform="translate(47,50)"/>
<path d="" fill="#1A191C" transform="translate(0,0)"/>
<path d="M0 0 C2 1 2 1 2 1 Z " fill="#302C8C" transform="translate(79,49)"/>
<path d="M0 0 C2 1 2 1 2 1 Z " fill="#253285" transform="translate(23,49)"/>
<path d="M0 0 C2 1 2 1 2 1 Z " fill="#191C1B" transform="translate(234,48)"/>
<path d="M0 0 C2 1 2 1 2 1 Z " fill="#1B1B1B" transform="translate(228,48)"/>
<path d="M0 0 C2 1 2 1 2 1 Z " fill="#1A1A1A" transform="translate(219,48)"/>
<path d="M0 0 C2 1 2 1 2 1 Z " fill="#1A1A1A" transform="translate(216,48)"/>
<path d="M0 0 C2 1 2 1 2 1 Z " fill="#1B1B1B" transform="translate(194,48)"/>
<path d="M0 0 C2 1 2 1 2 1 Z " fill="#1B1B1B" transform="translate(182,48)"/>
<path d="M0 0 C2 1 2 1 2 1 Z " fill="#1B1B1B" transform="translate(179,48)"/>
<path d="M0 0 C2 1 2 1 2 1 Z " fill="#1A1A1A" transform="translate(144,48)"/>
<path d="M0 0 C2 1 2 1 2 1 Z " fill="#1A1A1A" transform="translate(132,48)"/>
<path d="M0 0 C2 1 2 1 2 1 Z " fill="#233187" transform="translate(25,48)"/>
<path d="M0 0 C2 1 2 1 2 1 Z " fill="#1A1A1A" transform="translate(210,47)"/>
<path d="M0 0 C2 1 2 1 2 1 Z " fill="#1A191C" transform="translate(169,47)"/>
<path d="M0 0 C2 1 2 1 2 1 Z " fill="#22328D" transform="translate(28,46)"/>
<path d="" fill="#181A1C" transform="translate(0,0)"/>
<path d="" fill="#2A3091" transform="translate(0,0)"/>
<path d="" fill="#1A1A1A" transform="translate(0,0)"/>
<path d="" fill="#2D3090" transform="translate(0,0)"/>
<path d="M0 0 C2 1 2 1 2 1 Z " fill="#65AEDD" transform="translate(66,40)"/>
<path d="M0 0 C2 1 2 1 2 1 Z " fill="#5FA7D8" transform="translate(57,40)"/>
<path d="M0 0 C2 1 2 1 2 1 Z " fill="#1A191C" transform="translate(216,39)"/>
<path d="" fill="#1A191C" transform="translate(0,0)"/>
<path d="" fill="#1A191C" transform="translate(0,0)"/>
<path d="M0 0 C2 1 2 1 2 1 Z " fill="#1A191C" transform="translate(197,39)"/>
<path d="M0 0 C2 1 2 1 2 1 Z " fill="#1A191C" transform="translate(185,39)"/>
<path d="M0 0 C2 1 2 1 2 1 Z " fill="#1A1A1A" transform="translate(179,39)"/>
<path d="M0 0 C2 1 2 1 2 1 Z " fill="#1A191C" transform="translate(159,39)"/>
<path d="M0 0 C2 1 2 1 2 1 Z " fill="#1A1A1A" transform="translate(148,39)"/>
<path d="M0 0 C2 1 2 1 2 1 Z " fill="#1A1A1A" transform="translate(144,39)"/>
<path d="M0 0 C2 1 2 1 2 1 Z " fill="#1A1A1A" transform="translate(138,39)"/>
<path d="M0 0 C2 1 2 1 2 1 Z " fill="#5EB4F4" transform="translate(68,39)"/>
<path d="M0 0 C2 1 2 1 2 1 Z " fill="#5DA2D8" transform="translate(55,39)"/>
<path d="" fill="#1A191C" transform="translate(0,0)"/>
<path d="" fill="#25358D" transform="translate(0,0)"/>
<path d="M0 0 C2 1 2 1 2 1 Z " fill="#1B1B1B" transform="translate(234,35)"/>
<path d="M0 0 C2 1 2 1 2 1 Z " fill="#1B1B1B" transform="translate(228,35)"/>
<path d="M0 0 C2 1 2 1 2 1 Z " fill="#1A191C" transform="translate(222,35)"/>
<path d="M0 0 C2 1 2 1 2 1 Z " fill="#1A1A1A" transform="translate(153,35)"/>
<path d="" fill="#293485" transform="translate(0,0)"/>
<path d="" fill="#61A4DE" transform="translate(0,0)"/>
<path d="M0 0 C2 1 2 1 2 1 Z " fill="#27368D" transform="translate(20,34)"/>
<path d="" fill="#479CD4" transform="translate(0,0)"/>
<path d="M0 0 C2 1 2 1 2 1 Z " fill="#1A1A1A" transform="translate(180,32)"/>
<path d="M0 0 C2 1 2 1 2 1 Z " fill="#1A1A1A" transform="translate(148,32)"/>
<path d="M0 0 C2 1 2 1 2 1 Z " fill="#1A1A1A" transform="translate(136,32)"/>
<path d="M0 0 C2 1 2 1 2 1 Z " fill="#1A1A1A" transform="translate(124,32)"/>
<path d="M0 0 C2 1 2 1 2 1 Z " fill="#1B1A1E" transform="translate(191,31)"/>
<path d="M0 0 C2 1 2 1 2 1 Z " fill="#1B181C" transform="translate(112,31)"/>
<path d="M0 0 C2 1 2 1 2 1 Z " fill="#181A1C" transform="translate(106,31)"/>
<path d="M0 0 C2 1 2 1 2 1 Z " fill="#1B1A1F" transform="translate(189,30)"/>
<path d="" fill="#3172BE" transform="translate(0,0)"/>
<path d="" fill="#1B1A1F" transform="translate(0,0)"/>
<path d="" fill="#1B1A1D" transform="translate(0,0)"/>
<path d="" fill="#1B1A1D" transform="translate(0,0)"/>
<path d="M0 0 C2 1 2 1 2 1 Z " fill="#325EA9" transform="translate(18,27)"/>
<path d="" fill="#2C2F8C" transform="translate(0,0)"/>
<path d="" fill="#1A1A1A" transform="translate(0,0)"/>
<path d="" fill="#181A1A" transform="translate(0,0)"/>
<path d="" fill="#1B1A1D" transform="translate(0,0)"/>
<path d="M0 0 C2 1 2 1 2 1 Z " fill="#1A191E" transform="translate(109,25)"/>
<path d="" fill="#27328B" transform="translate(0,0)"/>
<path d="M0 0 C2 1 2 1 2 1 Z " fill="#19191D" transform="translate(107,24)"/>
<path d="" fill="#1A1A1A" transform="translate(0,0)"/>
<path d="" fill="#1D3889" transform="translate(0,0)"/>
<path d="" fill="#191A1A" transform="translate(0,0)"/>
<path d="" fill="#1B181C" transform="translate(0,0)"/>
<path d="" fill="#1B181C" transform="translate(0,0)"/>
<path d="" fill="#1A1A1A" transform="translate(0,0)"/>
<path d="" fill="#181A1D" transform="translate(0,0)"/>
<path d="" fill="#3163A7" transform="translate(0,0)"/>
<path d="" fill="#1A1A1A" transform="translate(0,0)"/>
<path d="" fill="#1A1A1A" transform="translate(0,0)"/>
<path d="" fill="#1A1A1A" transform="translate(0,0)"/>
<path d="" fill="#1A1A1A" transform="translate(0,0)"/>
<path d="M0 0 C2 1 2 1 2 1 Z " fill="#181A1C" transform="translate(110,18)"/>
<path d="" fill="#181A1C" transform="translate(0,0)"/>
<path d="M0 0 C2 1 2 1 2 1 Z " fill="#233494" transform="translate(59,18)"/>
<path d="" fill="#1A1A1A" transform="translate(0,0)"/>
<path d="M0 0 C2 1 2 1 2 1 Z " fill="#3165AD" transform="translate(71,17)"/>
<path d="M0 0 C2 1 2 1 2 1 Z " fill="#1D3A8F" transform="translate(61,17)"/>
<path d="" fill="#181A1C" transform="translate(0,0)"/>
<path d="" fill="#1A1A1A" transform="translate(0,0)"/>
<path d="" fill="#1B191A" transform="translate(0,0)"/>
<path d="M0 0 C2 1 2 1 2 1 Z " fill="#2E4391" transform="translate(30,14)"/>
<path d="M0 0 C2 1 2 1 2 1 Z " fill="#27327F" transform="translate(10,14)"/>
<path d="" fill="#293187" transform="translate(0,0)"/>
<path d="M0 0 C2 1 2 1 2 1 Z " fill="#27308E" transform="translate(12,13)"/>
<path d="M0 0 C2 1 2 1 2 1 Z " fill="#1A1A1A" transform="translate(198,12)"/>
<path d="M0 0 C2 1 2 1 2 1 Z " fill="#1A1A1A" transform="translate(190,12)"/>
<path d="M0 0 C2 1 2 1 2 1 Z " fill="#1A1A1A" transform="translate(180,12)"/>
<path d="M0 0 C2 1 2 1 2 1 Z " fill="#181A1C" transform="translate(113,12)"/>
<path d="" fill="#2B3283" transform="translate(0,0)"/>
<path d="" fill="#263188" transform="translate(0,0)"/>
<path d="M0 0 C2 1 2 1 2 1 Z " fill="#25318A" transform="translate(53,5)"/>
<path d="M0 0 C2 1 2 1 2 1 Z " fill="#25318B" transform="translate(56,3)"/>
<path d="M0 0 C2 1 2 1 2 1 Z " fill="#2B318A" transform="translate(84,1)"/>
<path d="M0 0 C2 1 2 1 2 1 Z " fill="#2A2F8C" transform="translate(59,1)"/>
<path d="M0 0 C2 1 2 1 2 1 Z " fill="#2A2F8B" transform="translate(82,0)"/>
<path d="" fill="#1A1A1A" transform="translate(0,0)"/>
<path d="" fill="#2A358A" transform="translate(0,0)"/>
<path d="" fill="#2650AD" transform="translate(0,0)"/>
<path d="" fill="#1A191C" transform="translate(0,0)"/>
<path d="" fill="#1A1A1A" transform="translate(0,0)"/>
<path d="" fill="#1A1A1A" transform="translate(0,0)"/>
<path d="" fill="#275096" transform="translate(0,0)"/>
<path d="" fill="#28308D" transform="translate(0,0)"/>
<path d="" fill="#1B1B1B" transform="translate(0,0)"/>
<path d="" fill="#1B1B1B" transform="translate(0,0)"/>
<path d="" fill="#1B1B1B" transform="translate(0,0)"/>
<path d="" fill="#1B1B1B" transform="translate(0,0)"/>
<path d="" fill="#1B1B1B" transform="translate(0,0)"/>
<path d="" fill="#1B1B1B" transform="translate(0,0)"/>
<path d="" fill="#302891" transform="translate(0,0)"/>
<path d="" fill="#2A4E98" transform="translate(0,0)"/>
<path d="" fill="#253095" transform="translate(0,0)"/>
<path d="" fill="#191C1B" transform="translate(0,0)"/>
<path d="" fill="#191C1B" transform="translate(0,0)"/>
<path d="" fill="#191C1B" transform="translate(0,0)"/>
<path d="" fill="#1B1B1B" transform="translate(0,0)"/>
<path d="" fill="#1A191C" transform="translate(0,0)"/>
<path d="" fill="#1A1A1A" transform="translate(0,0)"/>
<path d="" fill="#1A1A1A" transform="translate(0,0)"/>
<path d="" fill="#1A1A1A" transform="translate(0,0)"/>
<path d="" fill="#181A1C" transform="translate(0,0)"/>
<path d="" fill="#181A1C" transform="translate(0,0)"/>
<path d="" fill="#181A1C" transform="translate(0,0)"/>
<path d="" fill="#1A191C" transform="translate(0,0)"/>
<path d="" fill="#1A1A1A" transform="translate(0,0)"/>
<path d="" fill="#1A1A1A" transform="translate(0,0)"/>
<path d="" fill="#1A191C" transform="translate(0,0)"/>
<path d="" fill="#1A191C" transform="translate(0,0)"/>
<path d="" fill="#1A1A1A" transform="translate(0,0)"/>
<path d="" fill="#1A1A1A" transform="translate(0,0)"/>
<path d="" fill="#1A1A1A" transform="translate(0,0)"/>
<path d="" fill="#1A1A1A" transform="translate(0,0)"/>
<path d="" fill="#262F93" transform="translate(0,0)"/>
<path d="" fill="#2D4C98" transform="translate(0,0)"/>
<path d="" fill="#223489" transform="translate(0,0)"/>
<path d="" fill="#263290" transform="translate(0,0)"/>
<path d="" fill="#1A1A1A" transform="translate(0,0)"/>
<path d="" fill="#1A191C" transform="translate(0,0)"/>
<path d="" fill="#20338F" transform="translate(0,0)"/>
<path d="" fill="#2F4B9A" transform="translate(0,0)"/>
<path d="" fill="#263292" transform="translate(0,0)"/>
<path d="" fill="#181A1C" transform="translate(0,0)"/>
<path d="" fill="#213686" transform="translate(0,0)"/>
<path d="" fill="#314A9A" transform="translate(0,0)"/>
<path d="" fill="#2A2F8D" transform="translate(0,0)"/>
<path d="" fill="#273192" transform="translate(0,0)"/>
<path d="" fill="#181A1C" transform="translate(0,0)"/>
<path d="" fill="#213686" transform="translate(0,0)"/>
<path d="" fill="#2D4797" transform="translate(0,0)"/>
<path d="" fill="#2D2D8D" transform="translate(0,0)"/>
<path d="" fill="#223691" transform="translate(0,0)"/>
<path d="" fill="#2B4297" transform="translate(0,0)"/>
<path d="" fill="#293295" transform="translate(0,0)"/>
<path d="" fill="#243A92" transform="translate(0,0)"/>
<path d="" fill="#1A191C" transform="translate(0,0)"/>
<path d="" fill="#342C93" transform="translate(0,0)"/>
<path d="" fill="#233991" transform="translate(0,0)"/>
<path d="" fill="#223789" transform="translate(0,0)"/>
<path d="" fill="#1A191C" transform="translate(0,0)"/>
<path d="" fill="#1A191C" transform="translate(0,0)"/>
<path d="" fill="#1A191C" transform="translate(0,0)"/>
<path d="" fill="#1A1A1A" transform="translate(0,0)"/>
<path d="" fill="#1A1A1A" transform="translate(0,0)"/>
<path d="" fill="#1A1A1A" transform="translate(0,0)"/>
<path d="" fill="#1A1A1A" transform="translate(0,0)"/>
<path d="" fill="#1A1A1A" transform="translate(0,0)"/>
<path d="" fill="#1A191C" transform="translate(0,0)"/>
<path d="" fill="#1A1A1A" transform="translate(0,0)"/>
<path d="" fill="#1A1A1A" transform="translate(0,0)"/>
<path d="" fill="#1A191C" transform="translate(0,0)"/>
<path d="" fill="#1A191C" transform="translate(0,0)"/>
<path d="" fill="#1A191C" transform="translate(0,0)"/>
<path d="" fill="#1A1A1A" transform="translate(0,0)"/>
<path d="" fill="#1A1A1A" transform="translate(0,0)"/>
<path d="" fill="#1A1A1A" transform="translate(0,0)"/>
<path d="" fill="#1A1A1A" transform="translate(0,0)"/>
<path d="" fill="#22349B" transform="translate(0,0)"/>
<path d="" fill="#66B3EE" transform="translate(0,0)"/>
<path d="" fill="#5D9BDD" transform="translate(0,0)"/>
<path d="" fill="#1A191C" transform="translate(0,0)"/>
<path d="" fill="#1A191C" transform="translate(0,0)"/>
<path d="" fill="#1A191C" transform="translate(0,0)"/>
<path d="" fill="#5D98D1" transform="translate(0,0)"/>
<path d="" fill="#1B1B1B" transform="translate(0,0)"/>
<path d="" fill="#1B1B1B" transform="translate(0,0)"/>
<path d="" fill="#1B1B1B" transform="translate(0,0)"/>
<path d="" fill="#1B1B1B" transform="translate(0,0)"/>
<path d="" fill="#1B1B1B" transform="translate(0,0)"/>
<path d="" fill="#1A191C" transform="translate(0,0)"/>
<path d="" fill="#1A191C" transform="translate(0,0)"/>
<path d="" fill="#1A191C" transform="translate(0,0)"/>
<path d="" fill="#1A191C" transform="translate(0,0)"/>
<path d="" fill="#1A191C" transform="translate(0,0)"/>
<path d="" fill="#1A191C" transform="translate(0,0)"/>
<path d="" fill="#1A191C" transform="translate(0,0)"/>
<path d="" fill="#1A1A1A" transform="translate(0,0)"/>
<path d="" fill="#1A1A1A" transform="translate(0,0)"/>
<path d="" fill="#5F9BD0" transform="translate(0,0)"/>
<path d="" fill="#1A191C" transform="translate(0,0)"/>
<path d="" fill="#599CCF" transform="translate(0,0)"/>
<path d="" fill="#4E9CCF" transform="translate(0,0)"/>
<path d="" fill="#27368E" transform="translate(0,0)"/>
<path d="" fill="#263791" transform="translate(0,0)"/>
<path d="" fill="#181A1A" transform="translate(0,0)"/>
<path d="" fill="#181A1A" transform="translate(0,0)"/>
<path d="" fill="#1B1B1B" transform="translate(0,0)"/>
<path d="" fill="#1B1B1B" transform="translate(0,0)"/>
<path d="" fill="#191C1B" transform="translate(0,0)"/>
<path d="" fill="#3A8FCD" transform="translate(0,0)"/>
<path d="" fill="#1F328B" transform="translate(0,0)"/>
<path d="" fill="#181A1A" transform="translate(0,0)"/>
<path d="" fill="#191C1B" transform="translate(0,0)"/>
<path d="" fill="#191C1B" transform="translate(0,0)"/>
<path d="" fill="#1B191A" transform="translate(0,0)"/>
<path d="" fill="#181A1C" transform="translate(0,0)"/>
<path d="" fill="#1D3489" transform="translate(0,0)"/>
<path d="" fill="#181A1A" transform="translate(0,0)"/>
<path d="" fill="#191C1B" transform="translate(0,0)"/>
<path d="" fill="#1B1A1F" transform="translate(0,0)"/>
<path d="" fill="#1B1B1B" transform="translate(0,0)"/>
<path d="" fill="#191C1B" transform="translate(0,0)"/>
<path d="" fill="#1B191A" transform="translate(0,0)"/>
<path d="" fill="#213E92" transform="translate(0,0)"/>
<path d="" fill="#2D5BBB" transform="translate(0,0)"/>
<path d="" fill="#1B1A1F" transform="translate(0,0)"/>
<path d="" fill="#191C1B" transform="translate(0,0)"/>
<path d="" fill="#1B191A" transform="translate(0,0)"/>
<path d="" fill="#23349E" transform="translate(0,0)"/>
<path d="" fill="#2E57A7" transform="translate(0,0)"/>
<path d="" fill="#2F5BB9" transform="translate(0,0)"/>
<path d="" fill="#181A1A" transform="translate(0,0)"/>
<path d="" fill="#2D309A" transform="translate(0,0)"/>
<path d="" fill="#181A1A" transform="translate(0,0)"/>
<path d="" fill="#2A3392" transform="translate(0,0)"/>
<path d="" fill="#181A1C" transform="translate(0,0)"/>
<path d="" fill="#1F3A90" transform="translate(0,0)"/>
<path d="" fill="#1A1A1A" transform="translate(0,0)"/>
<path d="" fill="#181A1C" transform="translate(0,0)"/>
<path d="" fill="#1B3D93" transform="translate(0,0)"/>
<path d="" fill="#181A1A" transform="translate(0,0)"/>
<path d="" fill="#181A1E" transform="translate(0,0)"/>
<path d="" fill="#233B92" transform="translate(0,0)"/>
<path d="" fill="#1B191A" transform="translate(0,0)"/>
<path d="" fill="#181A1E" transform="translate(0,0)"/>
<path d="" fill="#223D96" transform="translate(0,0)"/>
<path d="" fill="#1A1A1A" transform="translate(0,0)"/>
<path d="" fill="#1A1A1A" transform="translate(0,0)"/>
<path d="" fill="#181A1E" transform="translate(0,0)"/>
<path d="" fill="#25398F" transform="translate(0,0)"/>
<path d="" fill="#193890" transform="translate(0,0)"/>
<path d="" fill="#1A1A1A" transform="translate(0,0)"/>
<path d="" fill="#193892" transform="translate(0,0)"/>
<path d="" fill="#1A1A1A" transform="translate(0,0)"/>
<path d="" fill="#1A1A1A" transform="translate(0,0)"/>
<path d="" fill="#1C388A" transform="translate(0,0)"/>
<path d="" fill="#1B1B1B" transform="translate(0,0)"/>
<path d="" fill="#181A1A" transform="translate(0,0)"/>
<path d="" fill="#2E62A9" transform="translate(0,0)"/>
<path d="" fill="#61A5E9" transform="translate(0,0)"/>
<path d="" fill="#26357E" transform="translate(0,0)"/>
<path d="" fill="#1A1A1A" transform="translate(0,0)"/>
<path d="" fill="#1A1A1A" transform="translate(0,0)"/>
<path d="" fill="#243B90" transform="translate(0,0)"/>
<path d="" fill="#539EE0" transform="translate(0,0)"/>
<path d="" fill="#293384" transform="translate(0,0)"/>
<path d="" fill="#1B1B1B" transform="translate(0,0)"/>
<path d="" fill="#24308B" transform="translate(0,0)"/>
<path d="" fill="#2E6FAE" transform="translate(0,0)"/>
<path d="" fill="#293286" transform="translate(0,0)"/>
<path d="" fill="#1A1A1A" transform="translate(0,0)"/>
<path d="" fill="#252F8B" transform="translate(0,0)"/>
<path d="" fill="#3462A7" transform="translate(0,0)"/>
<path d="" fill="#28308B" transform="translate(0,0)"/>
<path d="" fill="#1A1A1A" transform="translate(0,0)"/>
<path d="" fill="#181A1C" transform="translate(0,0)"/>
<path d="" fill="#252F8D" transform="translate(0,0)"/>
<path d="" fill="#1A1A1A" transform="translate(0,0)"/>
<path d="" fill="#1A1A1A" transform="translate(0,0)"/>
<path d="" fill="#1A1A1A" transform="translate(0,0)"/>
<path d="" fill="#1A1A1A" transform="translate(0,0)"/>
<path d="" fill="#181A1A" transform="translate(0,0)"/>
<path d="" fill="#181A1C" transform="translate(0,0)"/>
<path d="" fill="#253089" transform="translate(0,0)"/>
<path d="" fill="#1A1A1A" transform="translate(0,0)"/>
<path d="" fill="#1A1A1A" transform="translate(0,0)"/>
<path d="" fill="#1A1A1A" transform="translate(0,0)"/>
<path d="" fill="#1A1A1A" transform="translate(0,0)"/>
<path d="" fill="#1A1A1A" transform="translate(0,0)"/>
<path d="" fill="#1A1A1A" transform="translate(0,0)"/>
<path d="" fill="#1A1A1A" transform="translate(0,0)"/>
<path d="" fill="#181A1A" transform="translate(0,0)"/>
<path d="" fill="#181A1A" transform="translate(0,0)"/>
<path d="" fill="#181A1A" transform="translate(0,0)"/>
<path d="" fill="#181A1A" transform="translate(0,0)"/>
<path d="" fill="#1B191A" transform="translate(0,0)"/>
<path d="" fill="#1B191A" transform="translate(0,0)"/>
<path d="" fill="#1A1A1A" transform="translate(0,0)"/>
<path d="" fill="#181A1C" transform="translate(0,0)"/>
<path d="" fill="#181A1C" transform="translate(0,0)"/>
<path d="" fill="#253287" transform="translate(0,0)"/>
<path d="" fill="#26318B" transform="translate(0,0)"/>
<path d="" fill="#283089" transform="translate(0,0)"/>
<path d="" fill="#253093" transform="translate(0,0)"/>
<path d="" fill="#28308B" transform="translate(0,0)"/>
<path d="" fill="#253095" transform="translate(0,0)"/>
<path d="" fill="#2A2F8D" transform="translate(0,0)"/>
<path d="" fill="#242E94" transform="translate(0,0)"/>
<path d="" fill="#253091" transform="translate(0,0)"/>
<path d="" fill="#253287" transform="translate(0,0)"/>
<path d="" fill="#27328A" transform="translate(0,0)"/>
<path d="" fill="#2A338B" transform="translate(0,0)"/>
<path d="" fill="#26318B" transform="translate(0,0)"/>
</svg>
