<svg width="105" height="48" viewBox="0 0 105 48" fill="none" xmlns="http://www.w3.org/2000/svg">
<g clip-path="url(#clip0_4443_12338)">
<path d="M95.9821 1.3048C95.9913 0.582996 96.5743 0.0092539 97.2961 0H101.257V3.99769C101.257 4.71949 100.674 5.30249 99.9612 5.30249H95.9821V1.3048ZM95.9821 12.1319C95.9821 12.1319 101.257 12.7519 101.257 6.83863H97.0277C96.2967 6.83863 95.9821 7.40312 95.9821 8.10642V12.1319ZM94.557 12.1319V8.11567C94.557 7.41238 94.2423 6.84789 93.5113 6.84789H89.2822C89.2822 12.7519 94.557 12.1319 94.557 12.1319ZM94.557 1.3048C94.5477 0.582996 93.9647 0.0092539 93.2429 0H89.2822V3.99769C89.2822 4.71949 89.8652 5.30249 90.5778 5.30249H94.557V1.3048ZM97.4164 16.3054C95.7415 17.9711 95.9728 19.3777 95.9728 22.45C95.9913 22.5333 96.2689 22.5518 96.2874 22.4592C96.4818 21.6819 97.1481 20.6547 97.8976 19.8404C98.1845 19.5257 98.4436 19.2574 98.6935 19.0075C99.5541 18.2209 101.516 17.0827 102.525 15.7594C104.412 13.2886 104.681 9.92018 104.681 6.83863C104.662 6.75535 104.385 6.73684 104.366 6.82938C104.172 7.60671 103.709 9.93869 101.988 12.2244C101.701 12.6038 101.377 12.8722 101.099 13.1405C100.202 13.9364 98.5176 15.2134 97.4164 16.3054Z" fill="#E2000F"/>
<path d="M104.667 38.4999H0.264648V36.9082H104.667V38.4999Z" fill="#E2000F"/>
<path d="M2.88746 47.8055H2.20267L0.287109 42.2162H1.20325L2.54506 46.2786L3.88688 42.2162H4.82152L2.88746 47.8055ZM5.65437 47.8055V42.2162H6.54275V47.8055H5.65437ZM8.08815 47.8055V42.2162H11.8175V42.975H8.96727V44.6037H11.3918V45.3532H8.96727V47.0374H11.8082V47.7963H8.08815V47.8055ZM16.6295 47.8055L13.9366 43.8726V47.8055H13.0482V42.2162H13.8626L16.5555 46.1398V42.2162H17.4438V47.8055H16.6295ZM22.5705 47.8055L19.8776 43.8726V47.8055H18.9893V42.2162H19.8036L22.4965 46.1398V42.2162H23.3849V47.8055H22.5705ZM28.2894 47.8055L27.8915 46.6858H25.5873L25.1894 47.8055H24.2455L26.3831 42.2162H27.0957L29.2333 47.8055H28.2894ZM26.7533 43.4747L25.8464 45.9547H27.6417L26.7533 43.4747ZM32.065 47.8055V42.2162H32.9534V47.8055H32.065ZM38.0801 47.8055L35.3872 43.8726V47.8055H34.4988V42.2162H35.3131L38.006 46.1398V42.2162H38.8944V47.8055H38.0801ZM41.9852 47.8518C41.1061 47.8518 40.4768 47.6575 39.9216 47.1115L40.5138 46.5562C40.9395 46.9634 41.4115 47.093 42.0037 47.093C42.7625 47.093 43.2067 46.7783 43.2067 46.2416C43.2067 46.001 43.1327 45.7974 42.9754 45.6586C42.8273 45.5291 42.6793 45.4735 42.3369 45.4273L41.6521 45.3347C41.1801 45.27 40.8007 45.1126 40.5416 44.8905C40.2547 44.6314 40.1159 44.2798 40.1159 43.8263C40.1159 42.8547 40.8562 42.1884 42.0685 42.1884C42.8366 42.1884 43.3825 42.3735 43.8823 42.8269L43.3178 43.3637C42.9569 43.0305 42.5404 42.9287 42.05 42.9287C41.3652 42.9287 40.9858 43.3081 40.9858 43.7986C40.9858 44.0022 41.0506 44.1872 41.2079 44.3168C41.3559 44.4464 41.5965 44.5389 41.8649 44.5759L42.5312 44.6685C43.0679 44.7425 43.3733 44.872 43.6231 45.0849C43.947 45.3532 44.0951 45.7512 44.0951 46.2324C44.0858 47.241 43.2067 47.8518 41.9852 47.8518ZM47.2877 47.8518C46.1032 47.8518 45.1963 47.0745 45.1963 45.9177V42.2162H46.0847V45.8807C46.0847 46.6303 46.5566 47.093 47.2877 47.093C48.0188 47.093 48.5 46.6303 48.5 45.8807V42.2162H49.3883V45.9177C49.3883 47.0745 48.4814 47.8518 47.2877 47.8518ZM54.0708 47.8055L52.84 45.4458H51.7296V47.7963H50.8412V42.2069H53.0992C54.2096 42.2069 54.9129 42.8917 54.9129 43.8356C54.9129 44.6407 54.4039 45.1497 53.7469 45.3162L55.0887 47.787H54.0708V47.8055ZM53.0436 42.975H51.7296V44.724H53.0436C53.6359 44.724 54.0338 44.4001 54.0338 43.8541C54.0338 43.3081 53.6359 42.975 53.0436 42.975ZM59.5861 47.8055L59.1882 46.6858H56.884L56.4861 47.8055H55.5422L57.6798 42.2162H58.3924L60.53 47.8055H59.5861ZM58.05 43.4747L57.1431 45.9547H58.9384L58.05 43.4747ZM64.9534 47.8055L62.2605 43.8726V47.8055H61.3721V42.2162H62.1865L64.8794 46.1398V42.2162H65.7677V47.8055H64.9534ZM69.2009 47.8518C68.5902 47.8518 68.072 47.639 67.6648 47.2595C67.0911 46.7136 67.1003 46.0936 67.1003 45.0108C67.1003 43.9374 67.0911 43.3174 67.6648 42.7621C68.0627 42.3735 68.5902 42.1699 69.2009 42.1699C69.932 42.1699 70.3947 42.4198 70.8296 42.8269L70.2374 43.4007C69.932 43.1138 69.6822 42.9287 69.2009 42.9287C68.8586 42.9287 68.5439 43.0583 68.3403 43.2619C68.0535 43.558 67.9979 43.8819 67.9979 45.0016C67.9979 46.1213 68.0535 46.4452 68.3403 46.7413C68.5439 46.9542 68.8586 47.0745 69.2009 47.0745C69.6822 47.0745 69.9413 46.8894 70.2374 46.6025L70.8296 47.1763C70.3947 47.6019 69.9228 47.8518 69.2009 47.8518ZM72.0419 47.8055V42.2162H75.7712V42.975H72.9303V44.6037H75.3548V45.3532H72.9303V47.0374H75.7712V47.7963H72.0419V47.8055ZM82.4618 47.204C82.0546 47.6204 81.5086 47.8518 80.8701 47.8518C80.2594 47.8518 79.7411 47.639 79.334 47.2595C78.7602 46.7136 78.7695 46.0936 78.7695 45.0108C78.7695 43.9374 78.7602 43.3174 79.334 42.7621C79.7319 42.3735 80.2409 42.1699 80.8701 42.1699C81.666 42.1699 82.1101 42.4012 82.6284 42.9102L82.0269 43.484C81.6567 43.1323 81.3883 42.938 80.8609 42.938C80.5185 42.938 80.1946 43.0675 79.991 43.2804C79.7041 43.5765 79.6486 43.8911 79.6486 45.0108C79.6486 46.1306 79.7041 46.4545 79.991 46.7506C80.1946 46.9634 80.5185 47.0837 80.8609 47.0837C81.2495 47.0837 81.5642 46.9449 81.7955 46.6951C82.0084 46.4637 82.0824 46.1491 82.0824 45.8067V45.5013H80.8794V44.7795H82.9893V45.6216C82.98 46.3434 82.8505 46.8154 82.4618 47.204ZM87.4867 47.8055L86.2559 45.455H85.1454V47.8055H84.257V42.2162H86.515C87.6255 42.2162 88.3288 42.901 88.3288 43.8449C88.3288 44.6499 87.8198 45.1589 87.1628 45.3255L88.5046 47.7963H87.4867V47.8055ZM86.4687 42.975H85.1547V44.724H86.4687C87.061 44.724 87.4589 44.4001 87.4589 43.8541C87.4589 43.3081 87.0517 42.975 86.4687 42.975ZM93.0853 47.2503C92.6874 47.639 92.1691 47.8425 91.5399 47.8425C90.9199 47.8425 90.4109 47.6297 90.0037 47.2503C89.43 46.7043 89.4392 46.0843 89.4392 45.0016C89.4392 43.9281 89.43 43.3081 90.0037 42.7529C90.4016 42.3642 90.9106 42.1606 91.5399 42.1606C92.1599 42.1606 92.6781 42.3735 93.0853 42.7529C93.659 43.2989 93.6405 43.9189 93.6405 45.0016C93.6405 46.0843 93.659 46.7043 93.0853 47.2503ZM92.4097 43.2711C92.2062 43.0583 91.8823 42.9287 91.5399 42.9287C91.1975 42.9287 90.8736 43.0583 90.67 43.2711C90.3831 43.5672 90.3276 43.8819 90.3276 45.0016C90.3276 46.1213 90.3831 46.4359 90.67 46.7321C90.8736 46.9449 91.1975 47.0745 91.5399 47.0745C91.8823 47.0745 92.2062 46.9449 92.4097 46.7321C92.6966 46.4359 92.7521 46.1213 92.7521 45.0016C92.7614 43.8911 92.6966 43.5765 92.4097 43.2711ZM96.9719 47.8518C95.7874 47.8518 94.8805 47.0745 94.8805 45.9177V42.2162H95.7689V45.8807C95.7689 46.6303 96.2409 47.093 96.9719 47.093C97.703 47.093 98.1842 46.6303 98.1842 45.8807V42.2162H99.0726V45.9177C99.0726 47.0745 98.1564 47.8518 96.9719 47.8518ZM102.737 45.6031H101.414V47.8055H100.525V42.2162H102.737C103.875 42.2162 104.606 42.938 104.606 43.9096C104.606 44.8813 103.875 45.6031 102.737 45.6031ZM102.691 42.975H101.414V44.835H102.691C103.302 44.835 103.727 44.5019 103.727 43.9096C103.727 43.3174 103.302 42.975 102.691 42.975Z" fill="black"/>
<path d="M18.1279 8.94872C17.3228 7.05167 16.7306 6.67226 15.4721 6.32987C14.9446 6.19106 14.3894 6.19106 14.1117 6.19106C13.7971 6.19106 13.6953 6.08927 13.6953 5.88568C13.6953 5.60806 14.084 5.5803 14.6022 5.5803C16.453 5.5803 18.4518 5.68209 19.6733 5.68209C20.5525 5.68209 22.2274 5.5803 23.9764 5.5803C24.3928 5.5803 24.7815 5.64508 24.7815 5.88568C24.7815 6.12628 24.5687 6.19106 24.254 6.19106C23.6988 6.19106 23.1713 6.22807 22.8937 6.43166C22.6531 6.60748 22.542 6.84809 22.542 7.15346C22.542 7.59765 22.8567 8.56931 23.3471 9.80008L29.3622 25.4299H29.501C31.0094 21.6451 35.553 10.5589 36.3951 8.29169C36.571 7.84751 36.7098 7.32929 36.7098 7.01466C36.7098 6.73704 36.571 6.45942 36.2563 6.35763C35.8399 6.21882 35.3124 6.1818 34.859 6.1818C34.5444 6.1818 34.2667 6.14479 34.2667 5.90419C34.2667 5.62657 34.5814 5.56179 35.2477 5.56179C36.9966 5.56179 38.468 5.66359 38.9215 5.66359C39.5137 5.66359 41.1609 5.56179 42.2066 5.56179C42.66 5.56179 42.9377 5.62657 42.9377 5.86717C42.9377 6.10777 42.7248 6.17255 42.3824 6.17255C42.04 6.17255 41.2997 6.17255 40.6704 6.58898C40.217 6.89435 39.6895 7.4866 38.7456 9.68903C37.3853 12.9279 36.4322 14.7879 34.5444 19.017C32.3049 24.0418 30.6577 27.7989 29.8896 29.5201C28.9828 31.519 28.7699 32.065 28.2795 32.065C27.826 32.065 27.6132 31.5838 26.9469 29.9643L18.1279 8.94872ZM46.6762 15.556C46.6762 10.3276 46.6762 9.35589 46.6022 8.25468C46.5282 7.08869 46.1858 6.49644 45.4084 6.32987C45.0198 6.22807 44.5663 6.19106 44.1499 6.19106C43.7983 6.19106 43.5947 6.12628 43.5947 5.84866C43.5947 5.64508 43.8723 5.57105 44.4368 5.57105C45.7693 5.57105 47.9718 5.67284 48.9804 5.67284C49.8596 5.67284 51.9232 5.57105 53.2465 5.57105C53.6999 5.57105 53.9776 5.63582 53.9776 5.84866C53.9776 6.12628 53.7647 6.19106 53.4223 6.19106C53.0707 6.19106 52.7931 6.22807 52.3766 6.29285C51.4327 6.46868 51.1551 7.05167 51.0811 8.25468C51.0071 9.35589 51.0071 10.3183 51.0071 15.556V21.6173C51.0071 24.958 51.0071 27.6786 51.1459 29.1592C51.2477 30.0846 51.4975 30.7046 52.5432 30.8435C53.0337 30.9082 53.8017 30.9823 54.3292 30.9823C54.7179 30.9823 54.8844 31.0841 54.8844 31.2599C54.8844 31.5005 54.6068 31.6023 54.2182 31.6023C51.9047 31.6023 49.7023 31.5005 48.7584 31.5005C47.9533 31.5005 45.7508 31.6023 44.3535 31.6023C43.9001 31.6023 43.6502 31.5005 43.6502 31.2599C43.6502 31.0841 43.789 30.9823 44.2054 30.9823C44.7329 30.9823 45.1493 30.9175 45.464 30.8435C46.1673 30.7046 46.3708 30.1217 46.4819 29.1222C46.6577 27.6786 46.6577 24.958 46.6577 21.6173V15.556H46.6762ZM83.4975 29.2888C83.4975 30.2142 83.4605 30.2882 83.0071 30.5288C80.5455 31.6948 76.8347 32.0742 73.8827 32.0742C64.6103 32.0742 56.3928 28.0858 56.3928 18.582C56.3928 13.076 59.5392 9.21708 62.9816 7.32929C66.6091 5.33044 69.9776 5.08984 73.1609 5.08984C75.7705 5.08984 79.1019 5.50627 79.8607 5.64508C80.6566 5.78389 81.9799 5.98747 82.8497 6.02449C83.3032 6.0615 83.3772 6.20031 83.3772 6.44091C83.3772 6.82032 83.1088 7.78273 83.1088 12.0858C83.1088 12.641 82.9978 12.8076 82.6924 12.8076C82.4241 12.8076 82.35 12.6318 82.313 12.3634C82.202 11.5676 82.0076 10.4664 81.0267 9.50395C79.8885 8.40274 76.8625 6.82032 72.5872 6.82032C70.505 6.82032 67.7381 6.95913 65.0915 8.95798C62.9724 10.5774 61.612 13.1592 61.612 17.3883C61.612 24.7914 66.8035 30.3345 74.7896 30.3345C75.7705 30.3345 77.1031 30.3345 78.0099 29.9551C78.5744 29.7145 78.7318 29.2703 78.7318 28.678V25.4392C78.7318 23.7179 78.7318 22.4131 78.6947 21.3767C78.6577 20.2107 78.3153 19.6555 77.066 19.4149C76.7607 19.3501 76.1222 19.3131 75.5854 19.3131C75.243 19.3131 75.0209 19.2483 75.0209 19.0355C75.0209 18.7579 75.2893 18.6931 75.8168 18.6931C77.7878 18.6931 80.1754 18.7949 81.3043 18.7949C82.4796 18.7949 84.4877 18.6931 85.737 18.6931C86.2274 18.6931 86.4958 18.7579 86.4958 19.0355C86.4958 19.2391 86.2644 19.3131 86.0053 19.3131C85.6999 19.3131 85.4408 19.3501 84.9874 19.4149C83.9695 19.5907 83.59 20.1737 83.553 21.3767C83.516 22.4131 83.516 23.7827 83.516 25.504V29.2888H83.4975Z" fill="#575E62"/>
</g>
<defs>
<clipPath id="clip0_4443_12338">
<rect width="104.93" height="48" fill="white"/>
</clipPath>
</defs>
</svg>
