<svg xmlns="http://www.w3.org/2000/svg" viewBox="0 0 481.9 288.1" width="100" height="60"><path d="M137.7 169.1v-10.7h-10.6v10.7h10.6zm-40.7 0v-10.7H86.4v10.7H97z"/><path fill-rule="evenodd" clip-rule="evenodd" d="M119.8 198.6h-15.2l7.7-22.2 7.5 22.2zm19.2 20.8l-22.3-61h-9.3l-22.2 61h12.4l3.7-10.8H123l3.6 10.8H139zm53.6-30.7c0-9.2.7-17.6-6.2-24.4-4-4-9.8-5.8-16.1-5.8h-22v61h22c6.3 0 12.1-1.8 16.1-5.8 6.9-6.9 6.2-15.8 6.2-25zm-11.9 0c0 9.3-.3 13.6-2.6 16.4-2.1 2.5-4.8 3.8-8.9 3.8h-9v-39.7h9c4.1 0 6.9 1.3 8.9 3.8 2.3 2.6 2.6 6.4 2.6 15.7z"/><path d="M47.9 158.4v10.7h16v50.3h11.9v-61H47.9zm-3 43c0-5.4-1.5-9.9-4.7-12.9-2.6-2.4-6.1-3.9-11.7-4.7l-7.2-1c-2.5-.3-4.5-1.3-5.7-2.4-1.3-1.2-1.8-2.8-1.8-4.4 0-4.2 3.1-7.7 9.4-7.7 4 0 8.7.5 12.5 4.2l7.5-7.5c-5.2-5-11.3-7.1-19.7-7.1-13.2 0-21.2 7.6-21.2 18.5 0 5.1 1.5 9.1 4.4 12 2.7 2.7 6.6 4.3 11.8 5.1l7.4 1c2.8.4 4.2 1 5.4 2.1 1.3 1.2 1.9 3 1.9 5.1 0 4.9-3.8 7.5-10.8 7.5-5.7 0-10.9-1.3-14.7-5.1L0 211.9c6 6.1 13 8.1 22.3 8.1 12.7 0 22.6-6.7 22.6-18.6zm326.5-.7h-12.1c-1.2 4.9-4.3 8.7-10.3 8.7-3.3 0-5.9-1.2-7.6-3.2-2.3-2.6-3-5.5-3-17.2s.7-14.7 3-17.2c1.7-2 4.4-3.2 7.6-3.2 6 0 9.1 3.8 10.3 8.7h12.1c-2.1-12.8-11-19.3-22.4-19.3-6.7 0-12.2 2.4-16.5 6.7-6.2 6.2-6 13.8-6 24.3s-.2 18.2 6 24.3c4.3 4.3 9.8 6.7 16.5 6.7 11.2-.1 20.2-6.6 22.4-19.3zm-54.7.7c0-5.4-1.5-9.8-4.7-12.9-2.6-2.4-6.1-3.9-11.7-4.7l-7.2-1c-2.5-.3-4.5-1.3-5.7-2.4-1.3-1.2-1.8-2.8-1.8-4.4 0-4.2 3.1-7.7 9.4-7.7 4 0 8.7.5 12.5 4.2l7.5-7.5c-5.2-5.1-11.3-7.1-19.7-7.1-13.2 0-21.2 7.6-21.2 18.5 0 5.1 1.5 9.1 4.4 12 2.7 2.7 6.6 4.3 11.8 5.1l7.4 1c2.8.4 4.2 1 5.4 2.1 1.3 1.2 1.9 3 1.9 5.1 0 4.9-3.8 7.5-10.8 7.5-5.7 0-10.9-1.3-14.7-5.1l-7.7 7.7c6 6.1 13 8.1 22.3 8.1 12.8 0 22.6-6.6 22.6-18.5zm-76.3-32.3v-10.7h-43.8v10.7h16v50.3h11.9v-50.3h15.9zm20.7 50.3v-61h-11.9v61h11.9zm165.4 0v-61h-11.9v25h-20.7v-25H382v61h11.9v-25.5h20.7v25.5h11.9zm55.4 0v-10.6h-28.3V194h24.1v-10.6h-24.1v-14.3h28.3v-10.7h-40.2v61h40.2zM96.2 140.8v-61H84.3v61h11.9z"/><path fill-rule="evenodd" clip-rule="evenodd" d="M326.3 140.8l-13.6-26.3c5.9-2.1 11.1-7.5 11.1-16 0-10.2-7.4-18.7-19.8-18.7h-23.9v61H292v-24.3h8.6l11.9 24.3h13.8zm-14.4-42.3c0 4.7-3.4 8.1-8.7 8.1H292V90.4h11.2c5.2 0 8.7 3.3 8.7 8.1z"/><path d="M75 79.8H62.6l-9.5 38.5-11.2-38.5H33l-11.1 38.5-9.4-38.5H.1l16.2 61h10l11.2-37 11.2 37h10l16.3-61zm77.2 61v-10.6h-28.3v-14.9H148v-10.6h-24.1V90.4h28.3V79.8H112v61h40.2zm58.8 0v-61h-11.9v37.3L175 79.8h-10.6v61h11.9v-37.5l24.1 37.5H211zm55.8 0v-10.6h-28.3v-14.9h24.1v-10.6h-24.1V90.4h28.3V79.8h-40.2v61h40.2z"/><path fill="#E30613" d="M2.5 237.2h479.4v7.3H2.5z"/><path d="M14.6 287.8h-3.2l-8.8-25.7h4.2l6.2 18.7 6.2-18.7h4.3l-8.9 25.7zm12.6 0v-25.7h4.1v25.7h-4.1zm11.2 0v-25.7h17.1v3.5h-13v7.5h11.1v3.5H42.5v7.7h13.1v3.5H38.4zm39.3 0l-12.4-18.1v18.1h-4.1v-25.7h3.7l12.4 18v-18h4.1v25.7h-3.7zm27.2 0l-12.4-18.1v18.1h-4.1v-25.7h3.7l12.4 18v-18h4.1v25.7h-3.7zm26.3 0l-1.8-5.2h-10.6l-1.8 5.2h-4.3l9.8-25.7h3.3l9.8 25.7h-4.4zm-7.1-19.8l-4.2 11.4h8.2l-4-11.4zm24.4 19.8v-25.7h4.1v25.7h-4.1zm27.7 0l-12.4-18.1v18.1h-4.1v-25.7h3.7l12.4 18v-18h4.1v25.7h-3.7zm17.9.3c-4 0-6.9-.9-9.5-3.4l2.7-2.6c2 1.9 4.1 2.5 6.8 2.5 3.5 0 5.5-1.4 5.5-3.9 0-1.1-.3-2.1-1.1-2.7-.7-.6-1.4-.9-2.9-1.1l-3.2-.4c-2.2-.3-3.9-1-5.1-2.1-1.3-1.2-2-2.8-2-4.9 0-4.5 3.4-7.5 9-7.5 3.5 0 6 .9 8.3 2.9l-2.6 2.5c-1.7-1.5-3.6-2-5.8-2-3.2 0-4.9 1.7-4.9 4 0 .9.3 1.8 1 2.4.7.6 1.8 1 3 1.2l3 .4c2.5.4 3.9.9 5 1.9 1.5 1.2 2.2 3.1 2.2 5.3.2 4.6-3.8 7.5-9.4 7.5zm24.4 0c-5.5 0-9.6-3.6-9.6-8.9v-17h4.1V279c0 3.4 2.2 5.6 5.5 5.6s5.6-2.1 5.6-5.6v-16.8h4.1v17c-.1 5.3-4.2 8.9-9.7 8.9zm31.1-.3L244 277h-5.1v10.8h-4.1v-25.7h10.4c5.1 0 8.3 3.1 8.3 7.5 0 3.7-2.3 6-5.3 6.8l6.2 11.4h-4.8zm-4.7-22.1h-6v8h6c2.7 0 4.6-1.5 4.6-4s-1.9-4-4.6-4zm30.1 22.1l-1.8-5.2h-10.6l-1.8 5.2h-4.3l9.8-25.7h3.3l9.8 25.7H275zm-7.1-19.8l-4.2 11.4h8.2l-4-11.4zm31.8 19.8l-12.4-18.1v18.1h-4.1v-25.7h3.7l12.4 18v-18h4.1v25.7h-3.7zm19.5.3c-2.8 0-5.2-1-7-2.7-2.6-2.5-2.6-5.4-2.6-10.3s0-7.8 2.6-10.3c1.8-1.8 4.3-2.7 7-2.7 3.3 0 5.5 1.2 7.5 3l-2.7 2.6c-1.4-1.3-2.6-2.2-4.8-2.2-1.6 0-3 .6-3.9 1.6-1.3 1.4-1.6 2.8-1.6 8s.3 6.6 1.6 8c.9 1 2.4 1.6 3.9 1.6 2.2 0 3.4-.8 4.8-2.2l2.7 2.6c-2.1 1.8-4.2 3-7.5 3zm13-.3v-25.7h17.1v3.5h-13.1v7.5h11.1v3.5h-11.1v7.7h13.1v3.5h-17.1zm47.9-2.7c-1.9 1.9-4.4 3-7.3 3-2.8 0-5.2-1-7-2.7-2.6-2.5-2.6-5.4-2.6-10.3s0-7.8 2.6-10.3c1.8-1.8 4.2-2.7 7-2.7 3.6 0 5.7 1.1 8.1 3.4l-2.7 2.6c-1.7-1.6-2.9-2.5-5.3-2.5-1.6 0-3.1.6-4 1.6-1.3 1.4-1.6 2.8-1.6 8s.3 6.6 1.6 8c.9 1 2.4 1.6 4 1.6 1.8 0 3.2-.7 4.3-1.8 1-1 1.3-2.5 1.3-4.1v-1.4h-5.6V274h9.7v3.9c-.1 3.2-.7 5.4-2.5 7.2zm23.1 2.7l-5.6-10.8h-5.1v10.8h-4.1v-25.7h10.4c5.1 0 8.3 3.1 8.3 7.5 0 3.7-2.3 6-5.3 6.8l6.2 11.4h-4.8zm-4.7-22.1h-6v8h6c2.7 0 4.6-1.5 4.6-4-.1-2.5-1.9-4-4.6-4zm30.4 19.6c-1.8 1.8-4.2 2.7-7.1 2.7-2.9 0-5.2-1-7-2.7-2.6-2.5-2.6-5.4-2.6-10.3s0-7.8 2.6-10.3c1.8-1.8 4.2-2.7 7-2.7 2.9 0 5.2 1 7.1 2.7 2.6 2.5 2.6 5.4 2.6 10.3s0 7.8-2.6 10.3zm-3.1-18.3c-.9-1-2.4-1.6-4-1.6s-3 .6-4 1.6c-1.3 1.4-1.6 2.8-1.6 8s.3 6.6 1.6 8c.9 1 2.4 1.6 4 1.6s3-.6 4-1.6c1.3-1.4 1.6-2.8 1.6-8 0-5.1-.3-6.6-1.6-8zm20.9 21.1c-5.5 0-9.6-3.6-9.6-8.9v-17h4.1V279c0 3.4 2.2 5.6 5.5 5.6s5.6-2.1 5.6-5.6v-16.8h4.1v17c0 5.3-4.2 8.9-9.7 8.9zm26.5-10.4h-6.1v10.1H463v-25.7h10.2c5.2 0 8.6 3.3 8.6 7.8s-3.3 7.8-8.6 7.8zm-.2-12h-5.9v8.5h5.9c2.8 0 4.7-1.6 4.7-4.3.1-2.6-1.9-4.2-4.7-4.2z"/><path fill="none" d="M481.9 66.8v.6-.6z"/><path fill="#E30613" d="M458.2 0h-93.5c-13.1 0-23.6 10.6-23.6 23.6v93.5c0 13.1 10.6 23.6 23.6 23.6h93.5c13.1 0 23.6-10.6 23.6-23.6V23.6c.1-13-10.5-23.6-23.6-23.6z"/><path fill="#fff" d="M469.6 82.4C456 87 435 90.9 421.4 95.5c-19.9 6.7-22.9 17.3-22.9 26.6v18.7h8.9v-6.6c0-9.8 6-13.6 14.7-16.7 8.7-3.1 23.2-5.4 41.6-11.3 10.5-3.4 15.7-9.6 18.1-16.2V67.4c0 3.8-1.6 11.4-12.2 15zm-95.3 15.9c-9.6-4.4-14.8-6.2-24.1-10.9-6.4-3.2-9.1-9-9.1-14.8v25.2c1.7 6 5.2 11.5 11.9 14.3 14 5.7 12.2 4.7 18.4 7.5 6.1 2.8 9.6 4.9 9.6 14.6v6.6h9v-18.7c.1-9.3-2-17.5-15.7-23.8zM428 40.9V18.6h-22.1c-4 0-7.3 3.3-7.3 7.3v22.3h22.2c4 .1 7.2-3.2 7.2-7.3zm0 15.9h-23.6c-4.1 0-5.8 3.2-5.8 7.1v22.5c0-.1 29.4 3.4 29.4-29.6zm-43.7 0h-23.6c0 33 29.4 29.5 29.4 29.5V63.9c0-4-1.8-7.1-5.8-7.1zm-1.6-38.2h-22.1v22.3c0 4 3.2 7.3 7.2 7.3H390V25.9c0-4-3.2-7.2-7.3-7.3z"/></svg>