<svg width="684" height="250" viewBox="0 0 684 250" fill="none" xmlns="http://www.w3.org/2000/svg">
<g clip-path="url(#clip0_2010_513)">
<path d="M236.792 98.1113C227.772 98.1113 220.611 101.427 215.503 108.014C211.869 101.448 205.521 98.1113 196.607 98.1113C188.549 98.1113 181.88 100.849 176.707 106.282L176.109 99.4588H152.447V175.004H177.626V122.987C179.7 119.543 182.585 118.11 186.411 118.11C189.404 118.11 191.413 118.794 192.375 120.163C193.444 121.66 193.978 124.227 193.978 127.778V175.004H219.222V122.987C221.21 119.564 224.053 118.11 228.007 118.11C230.914 118.11 232.902 118.816 233.928 120.185C235.018 121.682 235.574 124.184 235.574 127.649V175.026H260.818V126.216C260.39 107.587 252.311 98.1327 236.771 98.1327L236.792 98.1113ZM258.402 172.587H238.011V127.649C238.011 123.607 237.305 120.698 235.873 118.752C234.377 116.72 231.726 115.693 228.007 115.693C219.65 115.693 216.807 122.366 216.807 122.366V172.609H196.415V127.799C196.415 123.671 195.752 120.719 194.363 118.794C192.909 116.741 190.238 115.714 186.411 115.714C178.31 115.714 175.211 122.388 175.211 122.388V172.63H154.883V101.94H173.907L174.826 112.485L176.729 110.046C181.709 103.672 188.228 100.571 196.65 100.571C205.072 100.571 211.185 103.929 214.242 110.859L215.139 112.87L216.358 111.052C221.124 103.993 227.815 100.571 236.835 100.571C250.985 100.571 258.06 108.977 258.445 126.259V172.609L258.402 172.587Z" fill="#E30613"/>
<path d="M308.634 119.051C306.475 116.805 303.375 115.672 299.464 115.672C292.132 115.672 287.729 120.484 286.382 129.96L286.19 131.35H311.754V128.398C311.861 124.441 310.814 121.276 308.634 119.051ZM309.318 128.933H288.99C290.358 121.661 293.778 118.11 299.442 118.11C302.734 118.11 305.171 118.966 306.881 120.741C308.57 122.495 309.382 125.062 309.318 128.377V128.912V128.933Z" fill="#E30613"/>
<path d="M299.592 98.1121C292.111 98.1121 285.549 99.7591 280.077 102.967C274.583 106.218 270.351 110.86 267.487 116.763C264.644 122.624 263.212 129.468 263.212 137.083V138.965C263.212 149.98 266.845 159.07 273.985 165.958C281.124 172.845 290.55 176.331 302.05 176.331C308.185 176.331 313.999 175.134 319.321 172.738C324.686 170.342 328.918 167.048 331.868 162.985L332.424 162.215L320.454 148.055L319.535 149.21C315.687 154.001 310.472 156.333 303.589 156.333C299.528 156.333 296.215 155.242 293.714 153.103C291.512 151.242 289.973 148.718 289.118 145.574H334.048V135.5C334.048 123.843 330.949 114.582 324.814 108.015C318.658 101.406 310.173 98.0693 299.613 98.0693L299.592 98.1121ZM331.612 143.179H286.104L286.382 144.633C287.237 148.996 289.182 152.483 292.111 154.985C295.06 157.509 298.929 158.792 303.568 158.792C310.579 158.792 316.243 156.461 320.454 151.884L329.303 162.364C326.631 165.744 322.955 168.503 318.316 170.578C313.293 172.824 307.821 173.957 302.029 173.957C291.192 173.957 282.321 170.706 275.652 164.268C269.004 157.851 265.627 149.36 265.627 139.029V137.147C265.627 129.896 266.974 123.415 269.667 117.875C272.317 112.4 276.229 108.101 281.316 105.106C286.404 102.112 292.56 100.572 299.613 100.572C309.489 100.572 317.355 103.652 323.04 109.748C328.747 115.865 331.633 124.549 331.633 135.585V143.221L331.612 143.179Z" fill="#E30613"/>
<path d="M336.806 175.005H361.173V99.459H336.806V175.005ZM339.243 101.897H358.758V172.588H339.243V101.897Z" fill="#E30613"/>
<path d="M409.011 98.1113C400.867 98.1113 393.984 100.849 388.897 106.239L388.32 99.4588H364.764V175.004H389.837V122.987C391.782 120.014 394.818 118.11 398.751 118.11C402.278 118.11 404.693 118.837 405.933 120.292C407.215 121.789 407.878 124.27 407.878 127.649V175.026H433.143V126.687C432.993 117.297 430.941 110.132 427.03 105.384C423.054 100.571 417.005 98.1113 409.053 98.1113H409.011ZM430.706 172.587H410.315V127.649C410.315 123.671 409.46 120.677 407.792 118.709C406.061 116.698 403.026 115.693 398.772 115.693C390.329 115.693 387.443 122.366 387.443 122.366V172.609H367.223V101.919H386.118L387.037 112.527L388.94 110.025C393.792 103.672 400.482 100.571 409.032 100.571C416.235 100.571 421.643 102.71 425.149 106.945C428.718 111.265 430.578 117.917 430.706 126.708V172.587Z" fill="#E30613"/>
<path d="M501.222 124.334V123.115C501.222 115.629 498.102 109.49 491.946 104.913C485.896 100.4 477.838 98.1113 467.984 98.1113C458.793 98.1113 451.226 100.4 445.498 104.892C439.684 109.469 436.734 115.372 436.734 122.431C436.734 126.43 437.781 130.045 439.833 133.168C441.864 136.248 444.856 138.9 448.704 141.017C452.487 143.114 457.318 144.825 463.068 146.108C468.604 147.327 472.366 148.525 474.268 149.616C475.914 150.557 476.705 151.733 476.705 153.231C476.705 154.899 476.085 156.204 474.824 157.23C473.499 158.3 471.404 158.856 468.604 158.856C465.505 158.856 462.94 158.15 461.016 156.76C459.156 155.434 458.216 153.316 458.152 150.322V149.145H434.447V150.364C434.447 154.877 435.9 159.241 438.786 163.305C441.65 167.347 445.669 170.577 450.756 172.887C455.8 175.197 461.614 176.373 468.006 176.373C477.624 176.373 485.597 174.192 491.71 169.871C497.952 165.465 501.115 159.647 501.115 152.589C501.115 142.279 495.301 135.05 483.823 131.093C480.489 129.959 476.577 128.954 472.216 128.141C468.048 127.371 464.992 126.366 463.153 125.211C461.529 124.184 460.738 122.901 460.738 121.297C460.738 119.693 461.379 118.367 462.726 117.276C464.137 116.121 465.847 115.565 467.963 115.565C473.456 115.565 476 117.96 476 123.136V124.355H501.244L501.222 124.334ZM467.92 113.105C465.27 113.105 462.982 113.875 461.144 115.372C459.242 116.934 458.259 118.923 458.259 121.276C458.259 123.628 459.456 125.746 461.785 127.243C463.923 128.591 467.172 129.681 471.703 130.516C475.957 131.307 479.762 132.269 482.968 133.382C493.506 137.018 498.636 143.285 498.636 152.567C498.636 158.877 495.9 163.882 490.257 167.861C484.571 171.882 477.069 173.914 467.963 173.914C461.914 173.914 456.442 172.823 451.718 170.641C447.037 168.481 443.339 165.529 440.71 161.85C438.38 158.578 437.097 155.113 436.862 151.541H455.736C456.057 154.706 457.339 157.123 459.541 158.706C461.892 160.396 464.928 161.273 468.561 161.273C471.939 161.273 474.546 160.546 476.32 159.112C478.159 157.615 479.099 155.647 479.099 153.231C479.099 151.584 478.458 149.252 475.444 147.52C473.285 146.279 469.395 145.039 463.56 143.734C458.023 142.515 453.406 140.868 449.837 138.9C446.331 136.954 443.638 134.579 441.821 131.82C440.026 129.104 439.128 125.938 439.128 122.431C439.128 116.057 441.693 110.945 446.973 106.795C452.274 102.646 459.327 100.528 467.963 100.528C477.282 100.528 484.849 102.646 490.471 106.838C495.708 110.752 498.422 115.672 498.743 121.874H478.33C477.902 116.121 474.311 113.084 467.899 113.084L467.92 113.105Z" fill="#E30613"/>
<path d="M358.331 72.5951C355.766 70.3279 352.431 69.1729 348.413 69.1729C344.394 69.1729 341.06 70.3279 338.495 72.5951C335.887 74.9051 334.583 77.8781 334.583 81.4715C334.583 85.0648 335.908 88.0592 338.495 90.3479C341.06 92.6151 344.394 93.7701 348.413 93.7701C352.431 93.7701 355.766 92.6151 358.331 90.3479C360.938 88.0379 362.242 85.0648 362.242 81.4715C362.242 77.8781 360.917 74.8837 358.331 72.5951ZM356.728 88.5298C354.59 90.412 351.875 91.3317 348.413 91.3317C344.95 91.3317 342.235 90.412 340.098 88.5298C338.003 86.6903 336.998 84.3804 336.998 81.4715C336.998 78.5626 338.003 76.2526 340.098 74.4131C342.235 72.5309 344.95 71.6112 348.413 71.6112C351.875 71.6112 354.59 72.5309 356.728 74.4131C358.822 76.2526 359.827 78.5626 359.827 81.4715C359.827 84.3804 358.801 86.6903 356.728 88.5298Z" fill="#E30613"/>
<path d="M336.806 241.845H407.878V170.748H336.806V241.845Z" fill="#E30613"/>
<path d="M478.928 241.845H549.979V170.748H478.928V241.845Z" fill="#931004"/>
<path d="M407.878 241.845H478.928V170.748H407.878V241.845Z" fill="#C00D0D"/>
<path d="M389.837 175.004H407.856V170.748H389.837V175.004ZM358.544 180.694H363.845L367.308 193.998L371.198 180.694H375.409L379.257 194.019L382.826 180.694H388.085L382.228 200.307H376.734L373.208 188.843L369.788 200.307H364.273L358.523 180.694H358.544ZM488.547 180.694H493.763V184.073C494.596 181.656 496.434 180.159 499.341 180.159C499.577 180.159 499.94 180.181 500.367 180.223V185.592C499.94 185.549 499.534 185.506 499.149 185.506C496.157 185.506 494.404 187.474 494.404 190.789V200.479H488.547V180.694ZM432.374 194.041V184.565L429.103 184.522V180.694H432.545L432.844 175.154L438.209 174.812V180.694H442.42V184.544H438.209V193.42C438.209 195.645 438.636 196.543 440.646 196.543C441.18 196.543 441.8 196.479 442.484 196.351L442.869 200.586C441.672 200.821 440.111 201.013 439 201.013C434.255 201.013 432.374 198.896 432.374 194.041ZM454.112 183.924C451.803 183.924 450.264 185.506 450.093 188.351H458.109C458.066 185.464 456.613 183.924 454.112 183.924ZM450.029 191.581C450.029 195.046 451.632 196.928 454.433 196.928C456.399 196.928 457.981 195.88 458.708 193.976L464.137 194.426C462.812 198.618 459.178 201.013 454.197 201.013C447.87 201.013 443.745 196.821 443.745 190.618C443.745 184.416 448.148 180.138 454.475 180.138C460.802 180.138 464.265 184.095 464.265 190.768V191.581H450.051H450.029ZM525.098 194.041V184.544H521.828V180.694H525.269L525.569 175.154L530.934 174.812V180.694H535.123V184.544H530.934V193.42C530.934 195.645 531.361 196.543 533.37 196.543C533.905 196.543 534.525 196.479 535.209 196.351L535.593 200.586C534.396 200.821 532.836 201.013 531.725 201.013C526.979 201.013 525.077 198.896 525.077 194.041M511.162 184.116C508.618 184.116 507.272 186.319 507.272 190.576C507.272 194.832 508.618 197.014 511.162 197.014C513.705 197.014 515.095 194.811 515.095 190.576C515.095 186.341 513.684 184.116 511.162 184.116ZM511.162 201.013C505.113 201.013 500.987 196.864 500.987 190.576C500.987 184.287 505.113 180.138 511.162 180.138C517.211 180.138 521.379 184.266 521.379 190.576C521.379 196.885 517.254 201.013 511.162 201.013ZM466.745 200.479H472.559V188.8C472.559 186.02 474.098 184.33 476.171 184.33C478.009 184.33 478.928 185.613 478.928 188.03V200.479H484.785V187.645C484.785 182.555 482.712 180.138 478.223 180.138C475.551 180.138 473.456 181.4 472.174 183.838V180.694H466.745V200.479ZM414.376 194.276C414.889 196.094 416.663 197.121 419.292 197.121C421.536 197.121 422.798 196.201 422.798 194.96C422.798 193.228 421.023 193.313 417.881 192.693C412.858 191.731 410.336 190.148 410.336 186.576C410.336 183.004 413.564 180.116 418.907 180.116C423.268 180.116 426.218 181.934 427.479 185.271L422.733 186.127C422.028 184.544 420.724 183.902 418.694 183.902C416.663 183.902 415.658 184.587 415.658 185.87C415.658 187.602 417.71 187.517 421.515 188.287C426.111 189.207 428.355 190.747 428.355 194.212C428.355 198.104 424.807 200.906 418.8 200.906C413.927 200.906 410.464 198.639 409.481 194.939L414.397 194.276H414.376ZM407.878 180.694H402.021V192.351C402.021 195.153 400.525 196.778 398.451 196.778C396.635 196.778 395.694 195.538 395.694 193.121V180.672H389.837V193.484C389.837 198.575 391.889 200.992 396.399 200.992C399.114 200.992 401.145 199.73 402.449 197.292V200.457H407.878V180.672V180.694Z" fill="white"/>
<path d="M402.149 86.3695C400.995 88.0378 399.371 89.2784 397.276 90.1125C395.181 90.9467 392.766 91.3531 389.987 91.3531C387.208 91.3531 384.707 90.69 382.527 89.3853C380.347 88.0592 378.68 86.1984 377.483 83.7814C376.286 81.3645 375.687 78.5412 375.644 75.3542V72.3598C375.644 67.1836 376.863 63.1625 379.278 60.3178C381.693 57.4731 385.092 56.04 389.453 56.04C393.044 56.04 395.929 56.9598 398.109 58.7992C400.29 60.6386 401.636 63.2267 402.128 66.6062H397.596C396.741 62.0289 394.048 59.7617 389.474 59.7617C386.439 59.7617 384.13 60.8312 382.57 62.97C381.009 65.1089 380.219 68.2103 380.197 72.2528V75.0762C380.197 78.9475 381.074 82.0062 382.848 84.2948C384.6 86.5834 386.994 87.717 390.008 87.717C391.718 87.717 393.193 87.5245 394.476 87.1609C395.758 86.7759 396.806 86.1556 397.639 85.2573V77.5573H389.688V73.857H402.149V86.4764V86.3695Z" fill="#070606"/>
<path d="M428.676 81.8779H414.269L411.041 90.8826H406.36L419.484 56.4893H423.439L436.584 90.8826H431.925L428.654 81.8779H428.676ZM415.658 78.1776H427.35L421.494 62.0931L415.658 78.1776Z" fill="#070606"/>
<path d="M467.664 90.8826H463.089L445.797 64.3818V90.8826H441.244V56.4893H445.797L463.154 83.1184V56.4893H467.664V90.8826Z" fill="#070606"/>
<path d="M479.099 87.1823H498.764V90.8826H473.734V87.4818L492.587 60.2109H474.055V56.4893H498.016V59.8045L479.099 87.1823Z" fill="#070606"/>
<path d="M351.533 14.1816H358.608V37.9875C358.608 40.1691 358.117 42.1155 357.155 43.7839C356.193 45.4522 354.825 46.7569 353.051 47.6766C351.298 48.5964 349.289 49.0455 347.087 49.0455C343.454 49.0455 340.611 48.1258 338.58 46.265C336.549 44.4041 335.523 41.7947 335.523 38.4153H342.663C342.663 40.105 343.026 41.3455 343.731 42.1369C344.437 42.9497 345.548 43.3347 347.087 43.3347C348.434 43.3347 349.524 42.8641 350.315 41.9444C351.127 41.0247 351.512 39.6986 351.512 37.9661V14.1816H351.533Z" fill="#070606"/>
<path d="M383.553 41.4953H371.134L368.783 48.575H361.259L374.062 14.1816H380.625L393.492 48.575H385.968L383.574 41.4953H383.553ZM373.058 35.763H381.651L377.333 22.8869L373.058 35.763Z" fill="#070606"/>
<path d="M424.657 48.575H417.582V33.838H403.774V48.575H396.677V14.1816H403.774V28.1272H417.582V14.1816H424.657V48.575Z" fill="#070606"/>
<path d="M443.574 35.9983H437.931V48.5964H430.856V14.1816H443.617C447.678 14.1816 450.799 15.08 453.022 16.898C455.223 18.7161 456.335 21.2614 456.335 24.5766C456.335 26.9294 455.822 28.8758 454.817 30.4372C453.791 31.9986 452.252 33.2605 450.2 34.1803L457.639 48.2328V48.5536H450.029L443.595 35.9555L443.574 35.9983ZM437.931 30.2447H443.638C445.412 30.2447 446.802 29.7955 447.764 28.8972C448.747 27.9989 449.238 26.7369 449.238 25.1541C449.238 23.5714 448.768 22.2666 447.849 21.3255C446.93 20.4058 445.519 19.9353 443.617 19.9353H437.931V30.2661V30.2447Z" fill="#070606"/>
<mask id="mask0_2010_513" style="mask-type:luminance" maskUnits="userSpaceOnUse" x="0" y="12" width="684" height="231">
<path d="M684 12H0V243H684V12Z" fill="white"/>
</mask>
<g mask="url(#mask0_2010_513)">
<path d="M482.37 33.6669H468.775V42.8855H484.742V48.575H461.7V14.1816H484.678V19.9353H468.775V28.1272H482.37V33.6669Z" fill="#070606"/>
<path d="M267.273 60.5748C242.905 50.8642 218.004 9.43393 190.558 37.9239C215.567 15.2945 237.498 47.5062 258.317 59.655C275.224 70.82 304.594 68.3603 310.13 45.795C303.568 63.4623 283.454 66.9059 267.273 60.5534V60.5748Z" fill="#931004"/>
<path d="M190.558 37.9454C199.642 18.9521 222.022 18.1821 237.604 29.7107C259.428 44.7257 285.484 73.836 310.13 45.8165C304.145 58.6713 290.721 64.3393 275.224 60.5963C256.308 56.019 244.038 39.5068 227.451 30.4593C214.113 23.1657 199.878 26.1602 190.558 37.9454Z" fill="#E30613"/>
<path d="M298.801 57.901C286.382 65.1946 271.014 60.8313 259.621 53.5163C248.484 46.3082 239.015 36.4266 227.344 30.0527C214.006 22.7591 199.856 26.1385 190.558 37.9452C218.025 9.45518 242.457 51.2277 267.679 60.981C283.881 67.3335 303.568 63.4835 310.13 45.8163C307.736 50.8427 303.61 55.0777 298.801 57.901Z" fill="#C00D0D"/>
<path d="M235.809 70.8842C233.736 73.2156 231.256 75.2689 228.371 76.8517C214.797 84.3592 197.676 79.4397 190.173 65.8578C182.671 52.2758 187.673 35.0792 201.246 27.5503C211.698 21.7325 221.851 24.5345 226.853 26.8658C236.301 30.8656 252.246 44.3833 253.764 45.6667C292.645 76.7019 310.151 45.8164 310.151 45.8164C296.557 59.2914 277.747 54.5644 251.391 30.6089C236.087 16.6847 224.16 13.0914 215.823 13.177C209.069 12.9845 202.186 14.5458 195.859 18.0322C176.985 28.4914 170.124 52.2758 180.576 71.1622C191.028 90.07 214.797 96.9144 233.672 86.4553C237.754 84.1881 241.281 81.3006 244.167 77.9639C241.281 75.3544 238.481 72.9803 235.788 70.8628L235.809 70.8842Z" fill="#070606"/>
<path d="M319.556 33.3464C309.104 14.4387 285.335 7.59422 266.461 18.0534C262.378 20.3206 258.851 23.2081 255.966 26.5448C258.851 29.1542 261.651 31.5284 264.345 33.6459C266.418 31.3145 268.898 29.2612 271.783 27.6784C285.356 20.1709 302.478 25.0903 309.98 38.6723C317.483 52.2542 312.481 69.4509 298.908 76.9798C288.456 82.7976 278.303 79.9956 273.301 77.6642C263.853 73.6645 247.907 60.1467 246.39 58.8634C207.509 27.8281 190.002 58.7137 190.002 58.7137C203.597 45.2387 222.407 49.9656 248.762 73.9212C264.067 87.8453 275.973 91.4387 284.309 91.3531C291.063 91.5456 297.946 89.9842 304.273 86.4978C323.147 76.0387 330.009 52.2542 319.556 33.3678V33.3464Z" fill="#070606"/>
</g>
<path d="M165.207 90.3261H152.596V29.3678L134.021 35.7203V25.09L163.583 14.1816H165.207V90.3261Z" fill="#070606"/>
</g>
<defs>
<clipPath id="clip0_2010_513">
<rect width="684" height="231" fill="white" transform="translate(0 12)"/>
</clipPath>
</defs>
</svg>
